<svg width="66" height="66" viewBox="0 0 66 66" fill="none" xmlns="http://www.w3.org/2000/svg">
<mask id="mask0_15_1368" style="mask-type:alpha" maskUnits="userSpaceOnUse" x="0" y="0" width="66" height="66">
<rect width="66" height="66" fill="#D9D9D9"/>
</mask>
<g mask="url(#mask0_15_1368)">
<path d="M11 24.7506C10.2209 24.7506 9.56776 24.487 9.04067 23.9599C8.51359 23.4329 8.25005 22.7797 8.25005 22.0006C8.25005 21.2214 8.51359 20.5683 9.04067 20.0412C9.56776 19.5141 10.2209 19.2506 11 19.2506H19.25C20.7625 19.2506 22.0573 19.7891 23.1344 20.8662C24.2115 21.9433 24.75 23.2381 24.75 24.7506H11ZM16.5 55.0006C12.6959 55.0006 9.45317 53.6599 6.77192 50.9787C4.09067 48.2974 2.75005 45.0547 2.75005 41.2506C2.75005 37.4464 4.09067 34.2037 6.77192 31.5224C9.45317 28.8412 12.6959 27.5006 16.5 27.5006C17.9667 27.5006 19.399 27.7297 20.7969 28.1881C22.1948 28.6464 23.4667 29.3339 24.6125 30.2506H30.25C31.7625 30.2506 33.0573 29.712 34.1344 28.6349C35.2115 27.5579 35.75 26.2631 35.75 24.7506V18.4256L32.8625 15.5381L29.0125 19.3881L26.95 17.4631L36.7126 7.70056L38.6376 9.62556L34.7876 13.4756L37.675 16.5006H55C56.5126 16.5006 57.8073 17.0391 58.8844 18.1162C59.9615 19.1933 60.5 20.4881 60.5 22.0006V38.6381C61.4167 39.5547 62.1042 40.586 62.5625 41.7318C63.0209 42.8777 63.25 44.0922 63.25 45.3756C63.25 48.0339 62.3105 50.3027 60.4313 52.1818C58.5521 54.061 56.2834 55.0006 53.625 55.0006C50.9667 55.0006 48.698 54.061 46.8188 52.1818C44.9396 50.3027 44 48.0339 44 45.3756V44.0006H29.975C29.3334 47.2089 27.7521 49.8443 25.2313 51.9068C22.7105 53.9693 19.8 55.0006 16.5 55.0006ZM16.5 49.5006C18.7917 49.5006 20.7396 48.6985 22.3438 47.0943C23.948 45.4902 24.75 43.5422 24.75 41.2506C24.75 38.9589 23.948 37.011 22.3438 35.4068C20.7396 33.8026 18.7917 33.0006 16.5 33.0006C14.2084 33.0006 12.2605 33.8026 10.6563 35.4068C9.05213 37.011 8.25005 38.9589 8.25005 41.2506C8.25005 43.5422 9.05213 45.4902 10.6563 47.0943C12.2605 48.6985 14.2084 49.5006 16.5 49.5006ZM53.625 49.5006C54.7709 49.5006 55.7448 49.0995 56.5469 48.2974C57.349 47.4954 57.75 46.5214 57.75 45.3756C57.75 44.2297 57.349 43.2558 56.5469 42.4537C55.7448 41.6516 54.7709 41.2506 53.625 41.2506C52.4792 41.2506 51.5053 41.6516 50.7032 42.4537C49.9011 43.2558 49.5 44.2297 49.5 45.3756C49.5 46.5214 49.9011 47.4954 50.7032 48.2974C51.5053 49.0995 52.4792 49.5006 53.625 49.5006ZM16.5 45.3756C15.3542 45.3756 14.3803 44.9745 13.5782 44.1724C12.7761 43.3704 12.375 42.3964 12.375 41.2506C12.375 40.1047 12.7761 39.1308 13.5782 38.3287C14.3803 37.5266 15.3542 37.1256 16.5 37.1256C17.6459 37.1256 18.6198 37.5266 19.4219 38.3287C20.224 39.1308 20.625 40.1047 20.625 41.2506C20.625 42.3964 20.224 43.3704 19.4219 44.1724C18.6198 44.9745 17.6459 45.3756 16.5 45.3756ZM29.975 38.5006H46.8876C47.8042 37.5839 48.824 36.8964 49.9469 36.4381C51.0698 35.9797 52.2959 35.7506 53.625 35.7506H55V22.0006H41.25V24.7506C41.25 27.7756 40.173 30.3652 38.0188 32.5193C35.8646 34.6735 33.275 35.7506 30.25 35.7506H29.15C29.2875 36.1631 29.4365 36.5985 29.5969 37.0568C29.7573 37.5152 29.8834 37.9964 29.975 38.5006Z" fill="#821AEA"/>
</g>
</svg>
