<svg width="47" height="34" viewBox="0 0 47 34" fill="none" xmlns="http://www.w3.org/2000/svg">
<g clip-path="url(#clip0_103_689)">
<path d="M27.3774 5.99383C28.2583 5.99383 28.9724 5.28358 28.9724 4.40744C28.9724 3.5313 28.2583 2.82104 27.3774 2.82104C26.4966 2.82104 25.7825 3.5313 25.7825 4.40744C25.7825 5.28358 26.4966 5.99383 27.3774 5.99383Z" fill="#F2F2F2"/>
<path d="M39.75 29.5377C42.1207 27.7417 43.253 24.7237 42.5441 21.8447C42.5265 21.7732 42.5079 21.7018 42.4883 21.6306C42.0184 19.9216 40.8557 18.2974 39.1612 17.7514C37.7383 17.2929 36.1852 17.6455 34.7008 17.4631C31.7869 17.1052 29.5278 14.7602 27.9383 12.3049C26.3487 9.84958 25.1271 7.10122 23.0149 5.07278C19.5333 1.72925 13.854 1.00939 9.53728 3.18578C5.22061 5.36217 2.47094 10.1907 2.5882 15.0029C2.70547 19.8151 5.57768 24.4159 9.74883 26.857C11.2811 27.7537 13.0534 28.389 14.8172 28.1667C16.3476 27.9738 17.7381 27.1559 19.2613 26.9131C21.6561 26.5313 24.0357 27.6082 26.107 28.8632C28.1783 30.1182 30.1791 31.6058 32.5329 32.1876C34.8184 32.7525 37.6499 31.1287 39.75 29.5377Z" fill="#F2F2F2"/>
<path d="M36.3438 3.28677C36.2918 3.25231 36.2392 3.21963 36.1873 3.18636C34.685 2.23074 33.0749 1.4544 31.39 0.873383L30.9994 6.23369H28.5228V0.090903C28.3669 0.0588196 28.2098 0.0285186 28.0527 0V6.23369H25.1096C23.4894 6.23369 21.9355 5.59352 20.7899 4.45401C19.6442 3.31449 19.0006 1.76897 19.0006 0.157453C18.8429 0.191319 18.6864 0.227556 18.5299 0.266175V6.2337H16.1327L15.7606 1.12233C14.0292 1.78279 12.3854 2.65133 10.866 3.70861C10.8397 3.72643 10.8134 3.74485 10.7877 3.76268C10.6557 3.85477 10.5255 3.94864 10.3959 4.0437V24.4933H17.4606L17.3358 22.7733L16.6488 13.3295H30.4827L29.7957 22.7733L29.6709 24.4933H36.6574V3.49353C36.5534 3.42342 36.4489 3.35451 36.3438 3.28677ZM18.5299 11.7699H16.5354L16.1668 6.70188H18.5299V11.7699ZM28.0527 11.7699H24.7028V11.6695C24.7028 11.6212 24.6932 11.5734 24.6746 11.5288C24.6561 11.4842 24.6288 11.4437 24.5945 11.4096C24.5601 11.3755 24.5194 11.3485 24.4745 11.3301C24.4296 11.3116 24.3816 11.3022 24.333 11.3023H22.8767C22.8282 11.3023 22.7802 11.3118 22.7354 11.3302C22.6906 11.3486 22.6499 11.3757 22.6157 11.4098C22.5814 11.4439 22.5542 11.4844 22.5356 11.5289C22.5171 11.5735 22.5075 11.6212 22.5076 11.6695V11.7699H19.0006V6.70188H28.0527V11.7699ZM28.5228 11.7699V6.70188H30.9653L30.5968 11.7699H28.5228Z" fill="#3F3D56"/>
<path d="M0 25.803C0.518925 26.4146 1.0802 26.9893 1.67972 27.523L45.3203 27.5824C45.9198 27.0487 46.4811 26.474 47 25.8624L0 25.803Z" fill="#3F3D56"/>
<path d="M29.5941 20.2952V25.3872C29.5942 25.4521 29.6201 25.5143 29.6662 25.5602C29.7124 25.6061 29.7749 25.6319 29.8402 25.632H37.4267C37.4919 25.6319 37.5545 25.6061 37.6006 25.5602C37.6467 25.5143 37.6727 25.4521 37.6727 25.3872V20.2952C37.6726 20.2304 37.6466 20.1683 37.6005 20.1225C37.5543 20.0766 37.4918 20.0509 37.4267 20.0508H29.8402C29.775 20.0509 29.7125 20.0766 29.6664 20.1225C29.6202 20.1683 29.5943 20.2304 29.5941 20.2952Z" fill="#3F3D56"/>
<path d="M29.7721 20.3586V25.3244C29.7722 25.3591 29.786 25.3923 29.8107 25.4169C29.8353 25.4414 29.8687 25.4552 29.9036 25.4552H37.3635C37.3984 25.4552 37.4318 25.4414 37.4564 25.4169C37.4811 25.3923 37.495 25.3591 37.495 25.3244V20.3586C37.495 20.3239 37.4812 20.2906 37.4565 20.266C37.4319 20.2415 37.3984 20.2276 37.3635 20.2275H29.9036C29.8687 20.2276 29.8353 20.2415 29.8106 20.266C29.7859 20.2906 29.7721 20.3239 29.7721 20.3586Z" fill="#6C63FF"/>
<path d="M29.4355 26.3804C29.4494 26.3977 29.467 26.4117 29.4871 26.4212C29.5072 26.4308 29.5293 26.4357 29.5516 26.4356H37.6749C37.6971 26.4356 37.7191 26.4306 37.7391 26.4211C37.7592 26.4116 37.7768 26.3978 37.7908 26.3806C37.8048 26.3634 37.8148 26.3434 37.82 26.3219C37.8252 26.3004 37.8256 26.2781 37.821 26.2564L37.6949 25.6607C37.6897 25.6364 37.6785 25.6138 37.6622 25.5949C37.6459 25.576 37.6252 25.5615 37.6019 25.5527C37.585 25.5461 37.567 25.5427 37.5488 25.5427H29.6772C29.659 25.5427 29.641 25.5461 29.6241 25.5527C29.6008 25.5615 29.58 25.576 29.5638 25.5949C29.5475 25.6138 29.5363 25.6364 29.531 25.6607L29.4049 26.2564C29.4005 26.2781 29.4009 26.3004 29.4061 26.3218C29.4114 26.3433 29.4214 26.3633 29.4355 26.3804Z" fill="#2F2E41"/>
<path d="M37.2701 25.7993H37.4619C37.478 25.7993 37.4911 25.7863 37.4911 25.7703V25.679C37.4911 25.663 37.478 25.65 37.4619 25.65H37.2701C37.254 25.65 37.2409 25.663 37.2409 25.679V25.7703C37.2409 25.7863 37.254 25.7993 37.2701 25.7993Z" fill="#3F3D56"/>
<path d="M36.7697 25.7993H36.9616C36.9777 25.7993 36.9907 25.7863 36.9907 25.7703V25.679C36.9907 25.663 36.9777 25.65 36.9616 25.65H36.7697C36.7536 25.65 36.7405 25.663 36.7405 25.679V25.7703C36.7405 25.7863 36.7536 25.7993 36.7697 25.7993Z" fill="#3F3D56"/>
<path d="M36.2692 25.7993H36.4611C36.4772 25.7993 36.4902 25.7863 36.4902 25.7703V25.679C36.4902 25.663 36.4772 25.65 36.4611 25.65H36.2692C36.2531 25.65 36.24 25.663 36.24 25.679V25.7703C36.24 25.7863 36.2531 25.7993 36.2692 25.7993Z" fill="#3F3D56"/>
<path d="M35.7688 25.7993H35.9607C35.9768 25.7993 35.9899 25.7863 35.9899 25.7703V25.679C35.9899 25.663 35.9768 25.65 35.9607 25.65H35.7688C35.7527 25.65 35.7397 25.663 35.7397 25.679V25.7703C35.7397 25.7863 35.7527 25.7993 35.7688 25.7993Z" fill="#3F3D56"/>
<path d="M35.2685 25.7993H35.4603C35.4764 25.7993 35.4895 25.7863 35.4895 25.7703V25.679C35.4895 25.663 35.4764 25.65 35.4603 25.65H35.2685C35.2524 25.65 35.2393 25.663 35.2393 25.679V25.7703C35.2393 25.7863 35.2524 25.7993 35.2685 25.7993Z" fill="#3F3D56"/>
<path d="M34.7681 25.7993H34.96C34.9761 25.7993 34.9891 25.7863 34.9891 25.7703V25.679C34.9891 25.663 34.9761 25.65 34.96 25.65H34.7681C34.752 25.65 34.7389 25.663 34.7389 25.679V25.7703C34.7389 25.7863 34.752 25.7993 34.7681 25.7993Z" fill="#3F3D56"/>
<path d="M34.2677 25.7993H34.4596C34.4757 25.7993 34.4888 25.7863 34.4888 25.7703V25.679C34.4888 25.663 34.4757 25.65 34.4596 25.65H34.2677C34.2516 25.65 34.2386 25.663 34.2386 25.679V25.7703C34.2386 25.7863 34.2516 25.7993 34.2677 25.7993Z" fill="#3F3D56"/>
<path d="M33.7672 25.7993H33.9591C33.9752 25.7993 33.9883 25.7863 33.9883 25.7703V25.679C33.9883 25.663 33.9752 25.65 33.9591 25.65H33.7672C33.7511 25.65 33.7381 25.663 33.7381 25.679V25.7703C33.7381 25.7863 33.7511 25.7993 33.7672 25.7993Z" fill="#3F3D56"/>
<path d="M33.2669 25.7993H33.4588C33.4749 25.7993 33.4879 25.7863 33.4879 25.7703V25.679C33.4879 25.663 33.4749 25.65 33.4588 25.65H33.2669C33.2508 25.65 33.2377 25.663 33.2377 25.679V25.7703C33.2377 25.7863 33.2508 25.7993 33.2669 25.7993Z" fill="#3F3D56"/>
<path d="M32.7665 25.7993H32.9584C32.9745 25.7993 32.9875 25.7863 32.9875 25.7703V25.679C32.9875 25.663 32.9745 25.65 32.9584 25.65H32.7665C32.7504 25.65 32.7374 25.663 32.7374 25.679V25.7703C32.7374 25.7863 32.7504 25.7993 32.7665 25.7993Z" fill="#3F3D56"/>
<path d="M32.2661 25.7993H32.458C32.4741 25.7993 32.4872 25.7863 32.4872 25.7703V25.679C32.4872 25.663 32.4741 25.65 32.458 25.65H32.2661C32.25 25.65 32.237 25.663 32.237 25.679V25.7703C32.237 25.7863 32.25 25.7993 32.2661 25.7993Z" fill="#3F3D56"/>
<path d="M31.7658 25.7993H31.9577C31.9738 25.7993 31.9868 25.7863 31.9868 25.7703V25.679C31.9868 25.663 31.9738 25.65 31.9577 25.65H31.7658C31.7497 25.65 31.7366 25.663 31.7366 25.679V25.7703C31.7366 25.7863 31.7497 25.7993 31.7658 25.7993Z" fill="#3F3D56"/>
<path d="M31.2653 25.7993H31.4572C31.4733 25.7993 31.4863 25.7863 31.4863 25.7703V25.679C31.4863 25.663 31.4733 25.65 31.4572 25.65H31.2653C31.2492 25.65 31.2361 25.663 31.2361 25.679V25.7703C31.2361 25.7863 31.2492 25.7993 31.2653 25.7993Z" fill="#3F3D56"/>
<path d="M30.7649 25.7993H30.9568C30.9729 25.7993 30.986 25.7863 30.986 25.7703V25.679C30.986 25.663 30.9729 25.65 30.9568 25.65H30.7649C30.7488 25.65 30.7358 25.663 30.7358 25.679V25.7703C30.7358 25.7863 30.7488 25.7993 30.7649 25.7993Z" fill="#3F3D56"/>
<path d="M30.2646 25.7993H30.4564C30.4725 25.7993 30.4856 25.7863 30.4856 25.7703V25.679C30.4856 25.663 30.4725 25.65 30.4564 25.65H30.2646C30.2485 25.65 30.2354 25.663 30.2354 25.679V25.7703C30.2354 25.7863 30.2485 25.7993 30.2646 25.7993Z" fill="#3F3D56"/>
<path d="M29.7642 25.7993H29.9561C29.9722 25.7993 29.9852 25.7863 29.9852 25.7703V25.679C29.9852 25.663 29.9722 25.65 29.9561 25.65H29.7642C29.7481 25.65 29.735 25.663 29.735 25.679V25.7703C29.735 25.7863 29.7481 25.7993 29.7642 25.7993Z" fill="#3F3D56"/>
<path d="M37.2759 26.0481H37.4678C37.4839 26.0481 37.4969 26.0351 37.4969 26.0191V25.9278C37.4969 25.9118 37.4839 25.8988 37.4678 25.8988H37.2759C37.2598 25.8988 37.2467 25.9118 37.2467 25.9278V26.0191C37.2467 26.0351 37.2598 26.0481 37.2759 26.0481Z" fill="#3F3D56"/>
<path d="M36.7755 26.0481H36.9674C36.9835 26.0481 36.9966 26.0351 36.9966 26.0191V25.9278C36.9966 25.9118 36.9835 25.8988 36.9674 25.8988H36.7755C36.7594 25.8988 36.7464 25.9118 36.7464 25.9278V26.0191C36.7464 26.0351 36.7594 26.0481 36.7755 26.0481Z" fill="#3F3D56"/>
<path d="M36.2752 26.0481H36.4671C36.4832 26.0481 36.4962 26.0351 36.4962 26.0191V25.9278C36.4962 25.9118 36.4832 25.8988 36.4671 25.8988H36.2752C36.2591 25.8988 36.246 25.9118 36.246 25.9278V26.0191C36.246 26.0351 36.2591 26.0481 36.2752 26.0481Z" fill="#3F3D56"/>
<path d="M35.7748 26.0481H35.9667C35.9828 26.0481 35.9958 26.0351 35.9958 26.0191V25.9278C35.9958 25.9118 35.9828 25.8988 35.9667 25.8988H35.7748C35.7587 25.8988 35.7457 25.9118 35.7457 25.9278V26.0191C35.7457 26.0351 35.7587 26.0481 35.7748 26.0481Z" fill="#3F3D56"/>
<path d="M35.2743 26.0481H35.4662C35.4823 26.0481 35.4954 26.0351 35.4954 26.0191V25.9278C35.4954 25.9118 35.4823 25.8988 35.4662 25.8988H35.2743C35.2582 25.8988 35.2452 25.9118 35.2452 25.9278V26.0191C35.2452 26.0351 35.2582 26.0481 35.2743 26.0481Z" fill="#3F3D56"/>
<path d="M34.774 26.0481H34.9658C34.9819 26.0481 34.995 26.0351 34.995 26.0191V25.9278C34.995 25.9118 34.9819 25.8988 34.9658 25.8988H34.774C34.7579 25.8988 34.7448 25.9118 34.7448 25.9278V26.0191C34.7448 26.0351 34.7579 26.0481 34.774 26.0481Z" fill="#3F3D56"/>
<path d="M34.2736 26.0481H34.4655C34.4816 26.0481 34.4946 26.0351 34.4946 26.0191V25.9278C34.4946 25.9118 34.4816 25.8988 34.4655 25.8988H34.2736C34.2575 25.8988 34.2444 25.9118 34.2444 25.9278V26.0191C34.2444 26.0351 34.2575 26.0481 34.2736 26.0481Z" fill="#3F3D56"/>
<path d="M33.7732 26.0481H33.9651C33.9812 26.0481 33.9943 26.0351 33.9943 26.0191V25.9278C33.9943 25.9118 33.9812 25.8988 33.9651 25.8988H33.7732C33.7571 25.8988 33.7441 25.9118 33.7441 25.9278V26.0191C33.7441 26.0351 33.7571 26.0481 33.7732 26.0481Z" fill="#3F3D56"/>
<path d="M33.2729 26.0481H33.4647C33.4808 26.0481 33.4939 26.0351 33.4939 26.0191V25.9278C33.4939 25.9118 33.4808 25.8988 33.4647 25.8988H33.2729C33.2568 25.8988 33.2437 25.9118 33.2437 25.9278V26.0191C33.2437 26.0351 33.2568 26.0481 33.2729 26.0481Z" fill="#3F3D56"/>
<path d="M32.7724 26.0481H32.9642C32.9804 26.0481 32.9934 26.0351 32.9934 26.0191V25.9278C32.9934 25.9118 32.9804 25.8988 32.9642 25.8988H32.7724C32.7563 25.8988 32.7432 25.9118 32.7432 25.9278V26.0191C32.7432 26.0351 32.7563 26.0481 32.7724 26.0481Z" fill="#3F3D56"/>
<path d="M32.272 26.0481H32.4639C32.48 26.0481 32.493 26.0351 32.493 26.0191V25.9278C32.493 25.9118 32.48 25.8988 32.4639 25.8988H32.272C32.2559 25.8988 32.2428 25.9118 32.2428 25.9278V26.0191C32.2428 26.0351 32.2559 26.0481 32.272 26.0481Z" fill="#3F3D56"/>
<path d="M31.7716 26.0481H31.9635C31.9796 26.0481 31.9927 26.0351 31.9927 26.0191V25.9278C31.9927 25.9118 31.9796 25.8988 31.9635 25.8988H31.7716C31.7555 25.8988 31.7425 25.9118 31.7425 25.9278V26.0191C31.7425 26.0351 31.7555 26.0481 31.7716 26.0481Z" fill="#3F3D56"/>
<path d="M31.2713 26.0481H31.4631C31.4793 26.0481 31.4923 26.0351 31.4923 26.0191V25.9278C31.4923 25.9118 31.4793 25.8988 31.4631 25.8988H31.2713C31.2552 25.8988 31.2421 25.9118 31.2421 25.9278V26.0191C31.2421 26.0351 31.2552 26.0481 31.2713 26.0481Z" fill="#3F3D56"/>
<path d="M30.7709 26.0481H30.9628C30.9789 26.0481 30.9919 26.0351 30.9919 26.0191V25.9278C30.9919 25.9118 30.9789 25.8988 30.9628 25.8988H30.7709C30.7548 25.8988 30.7417 25.9118 30.7417 25.9278V26.0191C30.7417 26.0351 30.7548 26.0481 30.7709 26.0481Z" fill="#3F3D56"/>
<path d="M30.2704 26.0481H30.4623C30.4784 26.0481 30.4915 26.0351 30.4915 26.0191V25.9278C30.4915 25.9118 30.4784 25.8988 30.4623 25.8988H30.2704C30.2543 25.8988 30.2413 25.9118 30.2413 25.9278V26.0191C30.2413 26.0351 30.2543 26.0481 30.2704 26.0481Z" fill="#3F3D56"/>
<path d="M29.7701 26.0481H29.9619C29.978 26.0481 29.9911 26.0351 29.9911 26.0191V25.9278C29.9911 25.9118 29.978 25.8988 29.9619 25.8988H29.7701C29.7539 25.8988 29.7409 25.9118 29.7409 25.9278V26.0191C29.7409 26.0351 29.7539 26.0481 29.7701 26.0481Z" fill="#3F3D56"/>
<path d="M33.1227 26.3467H35.0659C35.082 26.3467 35.0951 26.3337 35.0951 26.3177V26.2264C35.0951 26.2104 35.082 26.1974 35.0659 26.1974H33.1227C33.1066 26.1974 33.0935 26.2104 33.0935 26.2264V26.3177C33.0935 26.3337 33.1066 26.3467 33.1227 26.3467Z" fill="#3F3D56"/>
<path d="M31.0639 21.314H30.894C30.8425 21.314 30.8008 21.3555 30.8008 21.4067C30.8008 21.4579 30.8425 21.4995 30.894 21.4995H31.0639C31.1154 21.4995 31.1571 21.4579 31.1571 21.4067C31.1571 21.3555 31.1154 21.314 31.0639 21.314Z" fill="white"/>
<path d="M33.0066 21.314H32.8368C32.7853 21.314 32.7435 21.3555 32.7435 21.4067C32.7435 21.4579 32.7853 21.4995 32.8368 21.4995H33.0066C33.0581 21.4995 33.0999 21.4579 33.0999 21.4067C33.0999 21.3555 33.0581 21.314 33.0066 21.314Z" fill="white"/>
<path d="M33.5571 21.314H33.3872C33.3357 21.314 33.2939 21.3555 33.2939 21.4067C33.2939 21.4579 33.3357 21.4995 33.3872 21.4995H33.5571C33.6086 21.4995 33.6503 21.4579 33.6503 21.4067C33.6503 21.3555 33.6086 21.314 33.5571 21.314Z" fill="white"/>
<path d="M32.4782 21.2986H31.4225C31.371 21.2986 31.3292 21.3401 31.3292 21.3913C31.3292 21.4426 31.371 21.4841 31.4225 21.4841H32.4782C32.5297 21.4841 32.5715 21.4426 32.5715 21.3913C32.5715 21.3401 32.5297 21.2986 32.4782 21.2986Z" fill="white"/>
<path d="M35.0685 21.2986H34.0128C33.9613 21.2986 33.9196 21.3401 33.9196 21.3913C33.9196 21.4426 33.9613 21.4841 34.0128 21.4841H35.0685C35.12 21.4841 35.1618 21.4426 35.1618 21.3913C35.1618 21.3401 35.12 21.2986 35.0685 21.2986Z" fill="white"/>
<path d="M31.582 21.7327H31.4121C31.3606 21.7327 31.3188 21.7742 31.3188 21.8254C31.3188 21.8766 31.3606 21.9182 31.4121 21.9182H31.582C31.6335 21.9182 31.6752 21.8766 31.6752 21.8254C31.6752 21.7742 31.6335 21.7327 31.582 21.7327Z" fill="white"/>
<path d="M33.5247 21.7327H33.3548C33.3033 21.7327 33.2616 21.7742 33.2616 21.8254C33.2616 21.8766 33.3033 21.9182 33.3548 21.9182H33.5247C33.5762 21.9182 33.618 21.8766 33.618 21.8254C33.618 21.7742 33.5762 21.7327 33.5247 21.7327Z" fill="white"/>
<path d="M34.0751 21.7327H33.9053C33.8538 21.7327 33.812 21.7742 33.812 21.8254C33.812 21.8766 33.8538 21.9182 33.9053 21.9182H34.0751C34.1266 21.9182 34.1684 21.8766 34.1684 21.8254C34.1684 21.7742 34.1266 21.7327 34.0751 21.7327Z" fill="white"/>
<path d="M32.9963 21.717H31.9405C31.889 21.717 31.8473 21.7586 31.8473 21.8098C31.8473 21.861 31.889 21.9025 31.9405 21.9025H32.9963C33.0478 21.9025 33.0895 21.861 33.0895 21.8098C33.0895 21.7586 33.0478 21.717 32.9963 21.717Z" fill="white"/>
<path d="M35.5866 21.717H34.5309C34.4794 21.717 34.4376 21.7586 34.4376 21.8098C34.4376 21.861 34.4794 21.9025 34.5309 21.9025H35.5866C35.6381 21.9025 35.6799 21.861 35.6799 21.8098C35.6799 21.7586 35.6381 21.717 35.5866 21.717Z" fill="white"/>
<path d="M32.1 22.1514H31.9302C31.8787 22.1514 31.8369 22.1929 31.8369 22.2441C31.8369 22.2953 31.8787 22.3369 31.9302 22.3369H32.1C32.1515 22.3369 32.1933 22.2953 32.1933 22.2441C32.1933 22.1929 32.1515 22.1514 32.1 22.1514Z" fill="white"/>
<path d="M34.0428 22.1514H33.8729C33.8214 22.1514 33.7797 22.1929 33.7797 22.2441C33.7797 22.2953 33.8214 22.3369 33.8729 22.3369H34.0428C34.0943 22.3369 34.136 22.2953 34.136 22.2441C34.136 22.1929 34.0943 22.1514 34.0428 22.1514Z" fill="white"/>
<path d="M34.5932 22.1514H34.4233C34.3718 22.1514 34.3301 22.1929 34.3301 22.2441C34.3301 22.2953 34.3718 22.3369 34.4233 22.3369H34.5932C34.6447 22.3369 34.6864 22.2953 34.6864 22.2441C34.6864 22.1929 34.6447 22.1514 34.5932 22.1514Z" fill="white"/>
<path d="M33.5143 22.1357H32.4586C32.4071 22.1357 32.3654 22.1773 32.3654 22.2285C32.3654 22.2797 32.4071 22.3212 32.4586 22.3212H33.5143C33.5658 22.3212 33.6076 22.2797 33.6076 22.2285C33.6076 22.1773 33.5658 22.1357 33.5143 22.1357Z" fill="white"/>
<path d="M36.1047 22.1357H35.0489C34.9974 22.1357 34.9557 22.1773 34.9557 22.2285C34.9557 22.2797 34.9974 22.3212 35.0489 22.3212H36.1047C36.1562 22.3212 36.1979 22.2797 36.1979 22.2285C36.1979 22.1773 36.1562 22.1357 36.1047 22.1357Z" fill="white"/>
<path d="M32.6181 22.5698H32.4482C32.3967 22.5698 32.355 22.6113 32.355 22.6626C32.355 22.7138 32.3967 22.7553 32.4482 22.7553H32.6181C32.6696 22.7553 32.7113 22.7138 32.7113 22.6626C32.7113 22.6113 32.6696 22.5698 32.6181 22.5698Z" fill="white"/>
<path d="M34.5608 22.5698H34.391C34.3395 22.5698 34.2977 22.6113 34.2977 22.6626C34.2977 22.7138 34.3395 22.7553 34.391 22.7553H34.5608C34.6123 22.7553 34.6541 22.7138 34.6541 22.6626C34.6541 22.6113 34.6123 22.5698 34.5608 22.5698Z" fill="white"/>
<path d="M35.1113 22.5698H34.9414C34.8899 22.5698 34.8481 22.6113 34.8481 22.6626C34.8481 22.7138 34.8899 22.7553 34.9414 22.7553H35.1113C35.1628 22.7553 35.2045 22.7138 35.2045 22.6626C35.2045 22.6113 35.1628 22.5698 35.1113 22.5698Z" fill="white"/>
<path d="M34.0324 22.5544H32.9767C32.9252 22.5544 32.8834 22.596 32.8834 22.6472C32.8834 22.6984 32.9252 22.7399 32.9767 22.7399H34.0324C34.0839 22.7399 34.1257 22.6984 34.1257 22.6472C34.1257 22.596 34.0839 22.5544 34.0324 22.5544Z" fill="white"/>
<path d="M33.0066 24.2346H32.8368C32.7853 24.2346 32.7435 24.2761 32.7435 24.3274C32.7435 24.3786 32.7853 24.4201 32.8368 24.4201H33.0066C33.0581 24.4201 33.0999 24.3786 33.0999 24.3274C33.0999 24.2761 33.0581 24.2346 33.0066 24.2346Z" fill="white"/>
<path d="M33.5571 24.2346H33.3872C33.3357 24.2346 33.2939 24.2761 33.2939 24.3274C33.2939 24.3786 33.3357 24.4201 33.3872 24.4201H33.5571C33.6086 24.4201 33.6503 24.3786 33.6503 24.3274C33.6503 24.2761 33.6086 24.2346 33.5571 24.2346Z" fill="white"/>
<path d="M35.0685 24.2502H34.0128C33.9613 24.2502 33.9196 24.2918 33.9196 24.343C33.9196 24.3942 33.9613 24.4357 34.0128 24.4357H35.0685C35.12 24.4357 35.1618 24.3942 35.1618 24.343C35.1618 24.2918 35.12 24.2502 35.0685 24.2502Z" fill="white"/>
<path d="M31.0639 24.2346H30.894C30.8425 24.2346 30.8008 24.2761 30.8008 24.3274C30.8008 24.3786 30.8425 24.4201 30.894 24.4201H31.0639C31.1154 24.4201 31.1571 24.3786 31.1571 24.3274C31.1571 24.2761 31.1154 24.2346 31.0639 24.2346Z" fill="white"/>
<path d="M32.4782 24.2502H31.4225C31.371 24.2502 31.3292 24.2918 31.3292 24.343C31.3292 24.3942 31.371 24.4357 31.4225 24.4357H32.4782C32.5297 24.4357 32.5715 24.3942 32.5715 24.343C32.5715 24.2918 32.5297 24.2502 32.4782 24.2502Z" fill="white"/>
<path d="M31.582 23.8162H31.4121C31.3606 23.8162 31.3188 23.8577 31.3188 23.9089C31.3188 23.9601 31.3606 24.0017 31.4121 24.0017H31.582C31.6335 24.0017 31.6752 23.9601 31.6752 23.9089C31.6752 23.8577 31.6335 23.8162 31.582 23.8162Z" fill="white"/>
<path d="M33.5247 23.8162H33.3548C33.3033 23.8162 33.2616 23.8577 33.2616 23.9089C33.2616 23.9601 33.3033 24.0017 33.3548 24.0017H33.5247C33.5762 24.0017 33.618 23.9601 33.618 23.9089C33.618 23.8577 33.5762 23.8162 33.5247 23.8162Z" fill="white"/>
<path d="M34.0751 23.8162H33.9053C33.8538 23.8162 33.812 23.8577 33.812 23.9089C33.812 23.9601 33.8538 24.0017 33.9053 24.0017H34.0751C34.1266 24.0017 34.1684 23.9601 34.1684 23.9089C34.1684 23.8577 34.1266 23.8162 34.0751 23.8162Z" fill="white"/>
<path d="M32.9963 23.8315H31.9405C31.889 23.8315 31.8473 23.8731 31.8473 23.9243C31.8473 23.9755 31.889 24.017 31.9405 24.017H32.9963C33.0478 24.017 33.0895 23.9755 33.0895 23.9243C33.0895 23.8731 33.0478 23.8315 32.9963 23.8315Z" fill="white"/>
<path d="M32.1 23.3975H31.9302C31.8787 23.3975 31.8369 23.439 31.8369 23.4902C31.8369 23.5414 31.8787 23.583 31.9302 23.583H32.1C32.1515 23.583 32.1933 23.5414 32.1933 23.4902C32.1933 23.439 32.1515 23.3975 32.1 23.3975Z" fill="white"/>
<path d="M34.0428 23.3975H33.8729C33.8214 23.3975 33.7797 23.439 33.7797 23.4902C33.7797 23.5414 33.8214 23.583 33.8729 23.583H34.0428C34.0943 23.583 34.136 23.5414 34.136 23.4902C34.136 23.439 34.0943 23.3975 34.0428 23.3975Z" fill="white"/>
<path d="M34.5932 23.3975H34.4233C34.3718 23.3975 34.3301 23.439 34.3301 23.4902C34.3301 23.5414 34.3718 23.583 34.4233 23.583H34.5932C34.6447 23.583 34.6864 23.5414 34.6864 23.4902C34.6864 23.439 34.6447 23.3975 34.5932 23.3975Z" fill="white"/>
<path d="M33.5143 23.4128H32.4586C32.4071 23.4128 32.3654 23.4544 32.3654 23.5056C32.3654 23.5568 32.4071 23.5983 32.4586 23.5983H33.5143C33.5658 23.5983 33.6076 23.5568 33.6076 23.5056C33.6076 23.4544 33.5658 23.4128 33.5143 23.4128Z" fill="white"/>
<path d="M32.6181 22.9788H32.4482C32.3967 22.9788 32.355 23.0203 32.355 23.0715C32.355 23.1227 32.3967 23.1643 32.4482 23.1643H32.6181C32.6696 23.1643 32.7113 23.1227 32.7113 23.0715C32.7113 23.0203 32.6696 22.9788 32.6181 22.9788Z" fill="white"/>
<path d="M34.5608 22.9788H34.391C34.3395 22.9788 34.2977 23.0203 34.2977 23.0715C34.2977 23.1227 34.3395 23.1643 34.391 23.1643H34.5608C34.6123 23.1643 34.6541 23.1227 34.6541 23.0715C34.6541 23.0203 34.6123 22.9788 34.5608 22.9788Z" fill="white"/>
<path d="M35.1113 22.9788H34.9414C34.8899 22.9788 34.8481 23.0203 34.8481 23.0715C34.8481 23.1227 34.8899 23.1643 34.9414 23.1643H35.1113C35.1628 23.1643 35.2045 23.1227 35.2045 23.0715C35.2045 23.0203 35.1628 22.9788 35.1113 22.9788Z" fill="white"/>
<path d="M34.0324 22.9941H32.9767C32.9252 22.9941 32.8834 23.0357 32.8834 23.0869C32.8834 23.1381 32.9252 23.1796 32.9767 23.1796H34.0324C34.0839 23.1796 34.1257 23.1381 34.1257 23.0869C34.1257 23.0357 34.0839 22.9941 34.0324 22.9941Z" fill="white"/>
<path d="M30.1608 29.1413L29.3634 27.8876L31.8664 25.903L32.8995 24.7646C33.0337 24.6166 33.2046 24.5064 33.3951 24.4447C33.5856 24.3831 33.789 24.3723 33.9851 24.4134C34.1811 24.4544 34.3628 24.5459 34.5121 24.6787C34.6615 24.8116 34.7731 24.981 34.836 25.1702C34.9291 25.4506 34.9091 25.756 34.7801 26.0219C34.6512 26.2878 34.4234 26.4936 34.1448 26.5956L32.5112 27.1942L30.1608 29.1413Z" fill="#FFB6B6"/>
<path d="M11.4504 20.051V26.1445H15.7423V20.051C15.7424 20.0072 15.7283 19.9645 15.7022 19.9292C15.6761 19.8939 15.6393 19.8679 15.5972 19.855C15.5773 19.8485 15.5566 19.8452 15.5357 19.8455H11.6577C11.6305 19.8454 11.6036 19.8507 11.5785 19.861C11.5533 19.8713 11.5305 19.8864 11.5112 19.9055C11.492 19.9246 11.4767 19.9473 11.4663 19.9723C11.4558 19.9972 11.4505 20.024 11.4504 20.051ZM13.1254 22.1448C13.1265 22.0247 13.1753 21.9098 13.2611 21.8253C13.3469 21.7407 13.4628 21.6933 13.5835 21.6933C13.7043 21.6933 13.8202 21.7407 13.906 21.8253C13.9918 21.9098 14.0406 22.0247 14.0417 22.1448V22.8518C14.0411 22.9723 13.9925 23.0876 13.9067 23.1725C13.8208 23.2575 13.7047 23.3052 13.5835 23.3052C13.4624 23.3052 13.3463 23.2575 13.2604 23.1725C13.1745 23.0876 13.126 22.9723 13.1254 22.8518V22.1448Z" fill="#2F2E41"/>
<path d="M11.4373 25.9497V26.5373C11.4374 26.5677 11.4495 26.5969 11.4711 26.6185C11.4927 26.6401 11.5219 26.6523 11.5525 26.6526H15.6402C15.6708 26.6524 15.7001 26.6402 15.7217 26.6186C15.7433 26.597 15.7554 26.5678 15.7554 26.5373V25.9497H11.4373Z" fill="#3F3D56"/>
<path d="M4.69873 10.8703V21.9961C4.69884 22.1379 4.75552 22.2739 4.85632 22.3741C4.95711 22.4744 5.09379 22.5307 5.23634 22.5309H21.8126C21.9551 22.5307 22.0918 22.4744 22.1926 22.3741C22.2934 22.2739 22.3501 22.1379 22.3502 21.9961V10.8703C22.3498 10.7287 22.2931 10.5929 22.1923 10.4928C22.0915 10.3927 21.955 10.3364 21.8126 10.3362H5.23634C5.09391 10.3364 4.95737 10.3927 4.8566 10.4928C4.75584 10.5929 4.69907 10.7287 4.69873 10.8703Z" fill="#3F3D56"/>
<path d="M5.08752 11.0088V21.8589C5.08766 21.9347 5.11797 22.0073 5.17182 22.0609C5.22568 22.1144 5.29868 22.1446 5.37485 22.1447H21.6745C21.7507 22.1446 21.8237 22.1144 21.8775 22.0609C21.9314 22.0073 21.9617 21.9347 21.9618 21.8589V11.0088C21.9618 10.9329 21.9316 10.8602 21.8777 10.8065C21.8238 10.7528 21.7508 10.7226 21.6745 10.7224H5.37485C5.29859 10.7226 5.22552 10.7528 5.17165 10.8065C5.11779 10.8602 5.08753 10.9329 5.08752 11.0088Z" fill="white"/>
<path d="M8.11251 26.6127C8.1291 26.6334 8.15019 26.6501 8.17419 26.6615C8.19819 26.6729 8.22448 26.6788 8.25109 26.6787H17.9483C17.9748 26.6786 18.001 26.6727 18.025 26.6614C18.0489 26.65 18.07 26.6335 18.0867 26.613C18.1034 26.5925 18.1153 26.5686 18.1215 26.5429C18.1278 26.5173 18.1282 26.4906 18.1228 26.4648L17.9722 25.7536C17.966 25.7246 17.9525 25.6976 17.9331 25.6751C17.9137 25.6526 17.889 25.6352 17.8611 25.6247C17.8409 25.6168 17.8195 25.6128 17.7978 25.6128H8.40102C8.37936 25.6128 8.35788 25.6168 8.33771 25.6247C8.30984 25.6352 8.28508 25.6526 8.26568 25.6751C8.24627 25.6976 8.23284 25.7246 8.2266 25.7536L8.07607 26.4648C8.07071 26.4906 8.07121 26.5173 8.07751 26.5428C8.08381 26.5684 8.09577 26.5923 8.11251 26.6127Z" fill="#2F2E41"/>
<path d="M21.1456 12.2171H5.89404C5.87818 12.2167 5.8631 12.2102 5.85201 12.199C5.84092 12.1877 5.83472 12.1725 5.83472 12.1568C5.83472 12.141 5.84092 12.1258 5.85201 12.1146C5.8631 12.1033 5.87818 12.0968 5.89404 12.0964H21.1456C21.1614 12.0968 21.1765 12.1033 21.1876 12.1146C21.1987 12.1258 21.2049 12.141 21.2049 12.1568C21.2049 12.1725 21.1987 12.1877 21.1876 12.199C21.1765 12.2102 21.1614 12.2167 21.1456 12.2171Z" fill="#3F3D56"/>
<path d="M6.93223 11.7885C7.12853 11.7885 7.28767 11.6267 7.28767 11.4271C7.28767 11.2275 7.12853 11.0657 6.93223 11.0657C6.73592 11.0657 6.57678 11.2275 6.57678 11.4271C6.57678 11.6267 6.73592 11.7885 6.93223 11.7885Z" fill="#3F3D56"/>
<path d="M8.16013 11.7885C8.35644 11.7885 8.51557 11.6267 8.51557 11.4271C8.51557 11.2275 8.35644 11.0657 8.16013 11.0657C7.96382 11.0657 7.80469 11.2275 7.80469 11.4271C7.80469 11.6267 7.96382 11.7885 8.16013 11.7885Z" fill="#3F3D56"/>
<path d="M9.38804 11.7885C9.58434 11.7885 9.74348 11.6267 9.74348 11.4271C9.74348 11.2275 9.58434 11.0657 9.38804 11.0657C9.19173 11.0657 9.03259 11.2275 9.03259 11.4271C9.03259 11.6267 9.19173 11.7885 9.38804 11.7885Z" fill="#3F3D56"/>
<path d="M20.4062 11.155H19.5341C19.5169 11.1554 19.5005 11.1625 19.4884 11.1748C19.4764 11.1871 19.4696 11.2035 19.4696 11.2207C19.4696 11.2378 19.4764 11.2543 19.4884 11.2666C19.5005 11.2788 19.5169 11.2859 19.5341 11.2863H20.4062C20.4236 11.2861 20.4401 11.2791 20.4523 11.2668C20.4645 11.2545 20.4713 11.2379 20.4713 11.2207C20.4713 11.2034 20.4645 11.1869 20.4523 11.1746C20.4401 11.1623 20.4236 11.1553 20.4062 11.155Z" fill="#3F3D56"/>
<path d="M20.4062 11.4016H19.534C19.5168 11.402 19.5004 11.4091 19.4883 11.4213C19.4762 11.4336 19.4695 11.4501 19.4695 11.4673C19.4695 11.4844 19.4762 11.5009 19.4883 11.5132C19.5004 11.5255 19.5168 11.5325 19.534 11.5329H20.4062C20.4235 11.5327 20.4401 11.5257 20.4523 11.5134C20.4645 11.5011 20.4714 11.4845 20.4714 11.4673C20.4714 11.45 20.4645 11.4334 20.4523 11.4211C20.4401 11.4088 20.4235 11.4018 20.4062 11.4016Z" fill="#3F3D56"/>
<path d="M20.4062 11.6482H19.5341C19.5169 11.6486 19.5005 11.6557 19.4884 11.668C19.4764 11.6802 19.4696 11.6967 19.4696 11.7138C19.4696 11.731 19.4764 11.7475 19.4884 11.7597C19.5005 11.772 19.5169 11.7791 19.5341 11.7795H20.4062C20.4236 11.7793 20.4401 11.7722 20.4523 11.7599C20.4645 11.7477 20.4713 11.7311 20.4713 11.7138C20.4713 11.6966 20.4645 11.68 20.4523 11.6677C20.4401 11.6555 20.4236 11.6484 20.4062 11.6482Z" fill="#3F3D56"/>
<path d="M41.4313 26.2074C41.4576 26.2837 41.5075 26.3496 41.5739 26.3959C41.6403 26.4421 41.7196 26.4662 41.8007 26.4648L43.3831 26.4243C43.4647 26.4227 43.5436 26.3949 43.608 26.345C43.6724 26.2951 43.7188 26.2259 43.7404 26.1476L43.9643 23.7658C44.0438 23.8016 44.1303 23.8193 44.2175 23.8176C44.2932 23.8157 44.3679 23.799 44.4371 23.7684C44.5064 23.7378 44.5689 23.6939 44.6212 23.6393C44.6734 23.5847 44.7143 23.5204 44.7415 23.45C44.7688 23.3797 44.7818 23.3047 44.7799 23.2293C44.778 23.154 44.7612 23.0797 44.7305 23.0108C44.6997 22.9419 44.6556 22.8797 44.6007 22.8278C44.5458 22.7758 44.4811 22.7352 44.4104 22.7081C44.3397 22.681 44.2643 22.668 44.1885 22.6699C44.1536 22.6698 44.1189 22.6734 44.0848 22.6806C44.0477 22.6407 44.0027 22.609 43.9525 22.5875C43.9024 22.566 43.8483 22.5551 43.7936 22.5557L41.3594 22.6182C41.3393 22.6189 41.3192 22.6214 41.2994 22.6256C41.246 22.6355 41.1954 22.6567 41.1509 22.6877C41.1064 22.7187 41.0692 22.7588 41.0416 22.8053C41.014 22.8518 40.9968 22.9037 40.991 22.9574C40.9853 23.0111 40.9912 23.0654 41.0083 23.1167L41.4313 26.2074ZM44.0102 23.6041L44.1696 23.0366C44.1877 22.971 44.1881 22.9018 44.1708 22.8361C44.1785 22.836 44.1854 22.8324 44.1931 22.8324C44.3024 22.8301 44.408 22.8711 44.487 22.9462C44.566 23.0214 44.6117 23.1246 44.6143 23.2333C44.6169 23.3419 44.576 23.4472 44.5007 23.5259C44.4253 23.6046 44.3217 23.6505 44.2124 23.6533C44.1418 23.6555 44.0719 23.6385 44.0102 23.6041Z" fill="#2F2E41"/>
<path d="M41.2994 22.6257C41.3513 22.9206 41.9344 23.128 42.6354 23.0919C43.2801 23.0624 43.8073 22.8372 43.9038 22.5704C43.8681 22.5598 43.8309 22.5549 43.7937 22.5558L41.3595 22.6183C41.3393 22.619 41.3192 22.6215 41.2994 22.6257Z" fill="#3F3D56"/>
<path d="M42.764 24.8988C42.7672 24.898 42.7702 24.8966 42.773 24.8948L43.1166 24.6711C43.1208 24.6684 43.1242 24.6647 43.1266 24.6604C43.1289 24.6561 43.1302 24.6512 43.1302 24.6463C43.1302 24.6413 43.1289 24.6365 43.1266 24.6321C43.1242 24.6278 43.1208 24.6241 43.1167 24.6214L42.7595 24.3887C42.7562 24.3866 42.7525 24.3851 42.7486 24.3843C42.7448 24.3836 42.7408 24.3836 42.737 24.3844C42.7331 24.3852 42.7295 24.3867 42.7262 24.3889C42.723 24.3911 42.7202 24.3939 42.718 24.3972C42.7159 24.4005 42.7144 24.4041 42.7137 24.408C42.7129 24.4118 42.713 24.4158 42.7138 24.4196C42.7146 24.4234 42.7161 24.427 42.7184 24.4303C42.7206 24.4335 42.7234 24.4363 42.7267 24.4384L43.0458 24.6462L42.7403 24.8451C42.7344 24.849 42.73 24.8548 42.728 24.8615C42.726 24.8683 42.7264 24.8755 42.7293 24.8819C42.7321 24.8884 42.7372 24.8936 42.7435 24.8967C42.7499 24.8998 42.7571 24.9005 42.764 24.8988Z" fill="#6C63FF"/>
<path d="M42.2212 24.9236C42.2269 24.9222 42.2321 24.919 42.2361 24.9146C42.2401 24.9102 42.2426 24.9047 42.2434 24.8989C42.2442 24.893 42.2433 24.887 42.2406 24.8817C42.238 24.8764 42.2339 24.872 42.2287 24.869L41.9119 24.6884L42.2181 24.4622C42.2212 24.4599 42.2239 24.457 42.2259 24.4536C42.2279 24.4503 42.2293 24.4466 42.2298 24.4427C42.2304 24.4389 42.2302 24.4349 42.2292 24.4311C42.2283 24.4274 42.2266 24.4238 42.2243 24.4207C42.2219 24.4175 42.219 24.4149 42.2156 24.4129C42.2123 24.4109 42.2085 24.4096 42.2047 24.409C42.2008 24.4084 42.1968 24.4086 42.193 24.4096C42.1892 24.4105 42.1856 24.4122 42.1825 24.4145L41.8397 24.6678C41.8357 24.6707 41.8325 24.6746 41.8304 24.6791C41.8283 24.6836 41.8274 24.6885 41.8277 24.6934C41.828 24.6983 41.8295 24.7031 41.8321 24.7073C41.8347 24.7115 41.8383 24.715 41.8426 24.7174L42.199 24.9206C42.2057 24.9244 42.2137 24.9255 42.2212 24.9236Z" fill="#6C63FF"/>
<path d="M42.7298 25.0949C42.7327 25.0941 42.7354 25.093 42.738 25.0914C42.7413 25.0894 42.7442 25.0867 42.7466 25.0836C42.7489 25.0804 42.7506 25.0769 42.7515 25.0731C42.7524 25.0693 42.7526 25.0653 42.752 25.0615C42.7514 25.0576 42.75 25.0539 42.748 25.0506L42.2608 24.254C42.2567 24.2472 42.25 24.2424 42.2424 24.2406C42.2347 24.2387 42.2265 24.24 42.2198 24.2441C42.213 24.2482 42.2082 24.2548 42.2063 24.2624C42.2044 24.2701 42.2057 24.2782 42.2098 24.2849L42.6969 25.0815C42.7003 25.0869 42.7052 25.0912 42.7112 25.0936C42.7171 25.096 42.7236 25.0964 42.7298 25.0949Z" fill="#6C63FF"/>
<path d="M15.3421 15.4968H12.7024C12.5947 15.4968 12.5074 15.5837 12.5074 15.6908V15.9473C12.5074 16.0544 12.5947 16.1412 12.7024 16.1412H15.3421C15.4498 16.1412 15.5371 16.0544 15.5371 15.9473V15.6908C15.5371 15.5837 15.4498 15.4968 15.3421 15.4968Z" fill="#6C63FF"/>
<path d="M16.8808 16.7854H11.1637C11.056 16.7854 10.9688 16.8722 10.9688 16.9793V17.2358C10.9688 17.343 11.056 17.4298 11.1637 17.4298H16.8808C16.9884 17.4298 17.0757 17.343 17.0757 17.2358V16.9793C17.0757 16.8722 16.9884 16.7854 16.8808 16.7854Z" fill="#E6E6E6"/>
<path d="M16.8808 18.0742H11.1637C11.056 18.0742 10.9688 18.161 10.9688 18.2682V18.5247C10.9688 18.6318 11.056 18.7186 11.1637 18.7186H16.8808C16.9884 18.7186 17.0757 18.6318 17.0757 18.5247V18.2682C17.0757 18.161 16.9884 18.0742 16.8808 18.0742Z" fill="#E6E6E6"/>
<path d="M17.3654 22.3899L17.3783 22.4305L17.379 22.4319L17.7688 23.6105L18.2171 24.9688L19.0607 27.5213L19.0689 27.9178V27.9191L19.1316 31.1087L18.9579 31.5412L19.1534 32.2501C19.1534 32.2501 19.0635 31.1785 18.581 31.7939C18.3078 32.1436 17.9882 32.5015 17.7258 32.837C18.1081 32.9908 18.4965 33.13 18.8911 33.2545C18.9763 33.2816 19.0621 33.3074 19.148 33.3331C19.1664 33.3385 19.1848 33.3439 19.2032 33.3494C20.511 33.7341 21.8631 33.9502 23.2263 33.9926C23.2972 33.9946 23.3667 33.996 23.4341 33.9973C23.458 33.998 23.4812 33.9987 23.5043 33.9987C23.5807 33.9994 23.6563 34 23.7326 34C23.8866 34 24.0399 33.9978 24.1926 33.9933C25.3223 33.9616 26.4455 33.8105 27.5431 33.5425C27.5357 33.0918 27.5152 32.5652 27.4859 32.0026C27.4723 31.7268 27.1663 31.4279 27.1479 31.1392C27.135 30.9223 27.4096 30.7183 27.3953 30.498C27.3026 29.1418 27.1868 29.6624 27.1009 28.702C27.092 28.6078 27.0839 28.5176 27.0764 28.4315C27.0212 27.8148 26.983 27.4291 26.983 27.4291L27.3496 25.1308L27.9254 21.5223L27.8811 21.4498L27.8314 21.4254L24.7943 19.9302L24.6294 19.51C24.5813 19.389 24.498 19.285 24.39 19.2114C24.282 19.1378 24.1544 19.0981 24.0236 19.0972L22.0229 19.0891C21.9191 19.0887 21.8166 19.1128 21.7241 19.1596C21.6315 19.2064 21.5515 19.2745 21.4907 19.3582L20.949 20.1044L17.3654 22.3899Z" fill="#3F3D56"/>
<path d="M19.5221 26.9532L19.0689 27.9177L18.7596 28.5765L18.2274 31.3479L17.9609 31.6292L17.7326 30.6335L15.3434 31.1611C15.265 30.728 15.3224 31.1758 15.274 30.7007C15.2877 30.6871 15.302 30.6735 15.3163 30.66C15.3545 30.6247 15.3865 30.5915 15.3858 30.5597C15.3585 28.9208 15.4403 26.1318 16.1231 24.4421C16.23 24.1662 16.371 23.9046 16.5429 23.6633C16.5565 23.645 16.5694 23.6267 16.5824 23.6084C16.8972 23.1699 17.0962 22.7382 17.3783 22.4312V22.4305C17.3801 22.4291 17.3817 22.4275 17.3831 22.4257C17.3841 22.4252 17.385 22.4245 17.3858 22.4237L19.3238 21.4016L19.4069 23.725L19.4662 25.395L19.5221 26.9532Z" fill="#3F3D56"/>
<path d="M26.5101 27.2272L27.0762 28.4318L27.2737 28.8513L27.8058 31.6225L28.0713 31.9031L28.3001 30.9076L28.4077 30.8856L30.3465 30.4862L30.9117 32.2714C31.039 32.0603 31.0892 31.8119 31.0537 31.5683C31.0182 31.3247 30.8992 31.1007 30.7168 30.9342C30.6783 30.8995 30.6461 30.8657 30.647 30.8337C30.6792 28.9061 30.5606 25.3864 29.4901 23.9378C29.1501 23.4781 28.9461 23.0202 28.6493 22.7003C28.6484 22.6994 28.6484 22.6985 28.6475 22.6985L27.9252 21.5222L27.8811 21.45L27.8315 21.4253L26.5101 27.2272Z" fill="#3F3D56"/>
<path d="M23.0811 18.5228C24.5511 18.5228 25.7427 17.3375 25.7427 15.8754C25.7427 14.4133 24.5511 13.228 23.0811 13.228C21.6111 13.228 20.4194 14.4133 20.4194 15.8754C20.4194 17.3375 21.6111 18.5228 23.0811 18.5228Z" fill="#FFB6B6"/>
<path d="M26.6786 14.0261C26.658 14.0042 26.6331 13.9867 26.6055 13.9745C26.5779 13.9624 26.5481 13.9559 26.5179 13.9554L26.558 13.8449C26.571 13.8101 26.5745 13.7725 26.5682 13.7359C26.5618 13.6993 26.5458 13.665 26.5217 13.6366C26.4976 13.6082 26.4664 13.5866 26.4312 13.5742C26.396 13.5617 26.3581 13.5588 26.3214 13.5657L26.1757 13.5936L26.1894 13.4968C26.1947 13.4607 26.1904 13.4239 26.177 13.39C26.1637 13.356 26.1416 13.3261 26.1131 13.3032C26.0846 13.2803 26.0506 13.2652 26.0144 13.2594C25.9783 13.2535 25.9412 13.2571 25.9069 13.2698C25.8756 13.282 25.842 13.2872 25.8085 13.2848C25.775 13.2824 25.7425 13.2726 25.7133 13.2561C25.684 13.2402 25.6586 13.218 25.6388 13.1912C25.6189 13.1644 25.6053 13.1337 25.5986 13.1011L25.5479 12.8575L25.5425 12.8444C25.2952 12.4345 24.8197 12.1362 24.2379 12.0269C23.72 11.9288 23.189 11.9787 22.677 12.0257C22.4739 12.0447 22.2446 12.0661 22.0534 12.1825C21.8909 12.2824 21.7535 12.482 21.7816 12.6834C21.2769 12.5295 20.7357 12.8367 20.4675 13.2241C20.1497 13.6851 20.0977 14.2626 20.0894 14.7142C20.0667 15.7824 20.2883 16.6564 20.7464 17.3123C20.7799 17.3599 20.7882 17.4591 20.8545 17.4923L20.8408 17.4704C20.9149 17.5072 20.9901 17.5666 20.9621 17.6302C20.8814 17.8132 21.4172 18.2178 21.7948 18.3515C22.4835 18.5957 23.3992 18.5749 24.0432 18.4869L24.0659 18.3354C24.2982 18.3039 24.4619 18.2439 24.5079 18.1501C24.5891 18.0811 24.6584 18.0193 24.7187 17.9623L24.7193 17.9617C24.7205 17.9605 24.7229 17.9587 24.7241 17.9576C25.015 17.6801 25.0825 17.5221 25.113 17.2814C25.1423 17.0456 25.0903 16.8061 25.0371 16.5904C26.1565 16.7627 24.5963 15.4045 25.6392 15.1419C25.6512 15.1383 25.6634 15.1353 25.6757 15.133C25.7061 15.1259 25.7366 15.1188 25.7659 15.1105C25.907 15.0724 26.0421 15.015 26.1673 14.9399C26.4588 14.7635 26.555 14.5294 26.7055 14.2656C26.7272 14.228 26.7363 14.1846 26.7315 14.1415C26.7267 14.0984 26.7081 14.058 26.6786 14.0261Z" fill="#2F2E41"/>
<path d="M32.4948 27.4158C32.4942 27.5197 32.4931 27.6653 32.4883 27.8453C32.4877 27.8703 32.4871 27.8958 32.4865 27.922C32.4787 28.2529 32.471 28.5304 32.4584 28.8387C32.4578 28.8601 32.4572 28.8809 32.456 28.9023C32.4393 29.3325 32.413 29.8333 32.3676 30.6265C32.2834 32.0916 32.1364 30.8279 31.9889 31.3418C31.9817 31.3674 31.974 31.3977 31.9668 31.4333C31.9445 31.5627 31.9068 31.6889 31.8545 31.8094C31.7762 31.8558 31.6956 31.9003 31.6162 31.9449C31.3898 32.0703 31.1598 32.1909 30.928 32.3055C30.7978 32.3697 30.667 32.4327 30.5356 32.4933C30.5147 32.5028 30.4944 32.5123 30.474 32.5212C29.8011 32.8308 29.1075 33.094 28.3983 33.309C28.2597 33.3506 28.1217 33.391 27.9819 33.4284C27.8362 33.4688 27.6904 33.5069 27.5429 33.5425C26.4453 33.8105 25.3221 33.9617 24.1924 33.9935C24.0401 33.9982 23.8866 34 23.7325 34C23.656 34 23.5807 33.9994 23.5043 33.9988C23.481 33.9988 23.4577 33.9982 23.4344 33.9976C23.3669 33.9959 23.297 33.9947 23.2265 33.9929C21.8633 33.9506 20.5112 33.7343 19.2034 33.3494L19.1479 33.3334C19.0618 33.3072 18.9764 33.2817 18.891 33.2544C18.4968 33.1302 18.1083 32.9912 17.7256 32.8373C17.4335 32.7202 17.1448 32.5947 16.8594 32.4606C16.8568 32.4599 16.8544 32.4587 16.8523 32.457C16.7925 32.4297 16.7322 32.4012 16.6725 32.3721C16.6647 32.3679 16.6563 32.3638 16.648 32.3596C16.4252 32.2515 16.2048 32.1382 15.9867 32.0197C15.8033 31.6009 15.5453 31.5207 15.3852 31.1523C15.3386 31.0429 15.3049 30.9284 15.2849 30.8113C15.2849 30.8101 15.2843 30.8089 15.2843 30.8071C15.301 31.0281 15.2132 30.415 15.2837 30.8047C15.2831 30.7976 15.2825 30.7899 15.2819 30.781C15.2801 30.7596 15.2777 30.7334 15.2741 30.7008C15.0692 28.711 15.0824 26.4354 14.9934 24.5603C14.9874 24.4391 14.9812 24.3231 14.9748 24.2122C14.973 24.1753 14.9707 24.1391 14.9683 24.1035C14.9724 24.0928 14.9772 24.0815 14.9826 24.0708C14.9837 24.0677 14.9851 24.0647 14.9868 24.0619C14.9885 24.0582 14.9905 24.0546 14.9928 24.0512C14.9939 24.0494 14.9957 24.047 14.9969 24.0452C14.9978 24.0432 14.9988 24.0412 14.9999 24.0393C15.0053 24.031 15.0113 24.0221 15.0178 24.0137C15.0208 24.0102 15.0232 24.0072 15.0262 24.0042C15.0283 24.0012 15.0307 23.9984 15.0334 23.9959C15.0352 23.9931 15.0374 23.9905 15.0399 23.9882C15.0423 23.9858 15.0447 23.9828 15.0477 23.9799C15.049 23.978 15.0506 23.9764 15.0525 23.9751C15.0572 23.9697 15.0624 23.9648 15.068 23.9603C15.0893 23.9408 15.1121 23.9229 15.1361 23.9068C15.1445 23.9014 15.1534 23.8961 15.1618 23.8902C15.222 23.8543 15.2854 23.8241 15.3512 23.7999C15.3739 23.7915 15.3966 23.7838 15.421 23.7755C15.43 23.7731 15.4384 23.7701 15.4473 23.7672C15.4605 23.763 15.4736 23.7589 15.4874 23.7559C15.5554 23.7357 15.6289 23.7185 15.7084 23.7024C15.7179 23.7006 15.7281 23.6989 15.7382 23.6965C15.7526 23.6935 15.7675 23.6911 15.7824 23.6887C15.8027 23.6852 15.8237 23.6816 15.8446 23.6781C16.022 23.6501 16.2233 23.6293 16.4455 23.6157C16.4664 23.6145 16.4873 23.6133 16.5082 23.6121C16.5327 23.6109 16.5572 23.6097 16.5823 23.6085C16.6032 23.6074 16.6247 23.6068 16.6462 23.6062C16.6671 23.605 16.6886 23.6044 16.7107 23.6038C16.771 23.602 16.8332 23.6002 16.8965 23.599C17.0769 23.5955 17.2668 23.5967 17.4663 23.6008C17.5589 23.6032 17.6533 23.6056 17.7501 23.6097C17.7567 23.6097 17.7626 23.6103 17.7686 23.6103C17.8528 23.6133 17.9376 23.6169 18.0249 23.6216C18.0858 23.6246 18.1473 23.6276 18.2088 23.6311C18.2668 23.6347 18.3253 23.6382 18.3845 23.6424C18.4304 23.6448 18.4764 23.6483 18.523 23.6513C18.5625 23.6543 18.6019 23.6573 18.6413 23.6596L18.6951 23.6632C18.7243 23.6656 18.7536 23.6674 18.7835 23.6703C18.8492 23.6757 18.9149 23.681 18.9818 23.6864C19.0481 23.6923 19.1156 23.6983 19.1831 23.7042C19.2506 23.7101 19.3187 23.7167 19.3868 23.7232C19.394 23.7238 19.4005 23.7244 19.4071 23.725C19.4692 23.7315 19.5313 23.7375 19.5941 23.744C19.6084 23.7452 19.6233 23.7464 19.6377 23.7482C19.6975 23.7541 19.7584 23.7611 19.8188 23.7675C19.8373 23.7695 19.8557 23.7714 19.8743 23.7734C19.9216 23.7786 19.9682 23.783 20.0158 23.7886C20.0785 23.7957 20.1424 23.8022 20.2045 23.8105C20.2529 23.8159 20.3013 23.8212 20.3497 23.8272C20.4256 23.8361 20.5026 23.8456 20.5797 23.8557C20.6089 23.8593 20.6382 23.8628 20.6675 23.867C20.8873 23.8943 21.1095 23.9246 21.3353 23.9561C21.6776 24.0042 22.0252 24.0565 22.3753 24.113C22.7259 24.1694 23.0786 24.229 23.4332 24.2918C23.5228 24.3078 23.6124 24.3239 23.7026 24.3405C23.7432 24.3482 23.7838 24.356 23.8244 24.3637C23.8937 24.3762 23.963 24.3892 24.0323 24.4023C24.1016 24.4154 24.1709 24.4284 24.2402 24.4421C24.3226 24.4582 24.4056 24.4742 24.4881 24.4902C25.0311 24.5972 25.5711 24.7113 26.0979 24.8307C26.1845 24.8503 26.2711 24.8705 26.3572 24.8901C26.5292 24.9299 26.6996 24.9703 26.8685 25.0113C26.9151 25.022 26.9611 25.0333 27.0071 25.0446C27.1218 25.0731 27.2364 25.1016 27.3493 25.1307L27.3691 25.1361C27.4521 25.1563 27.5333 25.1771 27.6146 25.1985C27.8063 25.2484 27.9949 25.2989 28.1802 25.35C28.3033 25.3838 28.425 25.4181 28.5452 25.4527C28.725 25.5044 28.9012 25.5567 29.0727 25.6096C29.1151 25.6227 29.1575 25.6357 29.1993 25.6482C29.3248 25.6868 29.4484 25.726 29.5685 25.7653C29.664 25.7962 29.7572 25.8276 29.8492 25.8591C29.9412 25.8906 30.0314 25.9221 30.1198 25.9536C30.1766 25.9738 30.2327 25.9952 30.2889 26.0154C30.3695 26.0451 30.4489 26.0748 30.5266 26.1045C30.5505 26.1134 30.5738 26.1229 30.5971 26.1318C30.612 26.1384 30.6264 26.1437 30.6407 26.1497C30.6688 26.161 30.6974 26.1716 30.7249 26.1829C30.753 26.1936 30.7805 26.2049 30.8079 26.2168C30.8348 26.2275 30.8623 26.2388 30.8886 26.2501C30.9155 26.2608 30.9418 26.2721 30.968 26.2839C30.9901 26.2929 31.0116 26.3024 31.0325 26.3119C31.075 26.3303 31.1174 26.3487 31.1586 26.3677C31.1789 26.3772 31.1992 26.3861 31.2195 26.3956L31.2661 26.417C31.2727 26.4206 31.2793 26.4236 31.2858 26.4265C31.3008 26.4337 31.3163 26.4414 31.3312 26.4485C31.3659 26.4646 31.3999 26.4818 31.4334 26.4978C31.4782 26.5204 31.5218 26.543 31.5636 26.565C31.606 26.5875 31.6472 26.6101 31.6866 26.6321C31.6932 26.6357 31.6992 26.6392 31.7058 26.6428C31.7147 26.6476 31.7237 26.6529 31.7326 26.6577C31.7631 26.6749 31.7924 26.6927 31.8216 26.7099C31.879 26.745 31.9333 26.7794 31.9841 26.8139C31.9955 26.8216 32.0062 26.8294 32.0176 26.8365C32.0552 26.8632 32.091 26.8894 32.1245 26.9161C32.1245 26.9167 32.1245 26.9167 32.1251 26.9167C32.1364 26.925 32.1472 26.9339 32.1579 26.9422C32.1669 26.9506 32.1765 26.9577 32.1854 26.966C32.2165 26.9927 32.2452 27.0183 32.2714 27.0444C32.2802 27.0525 32.2886 27.061 32.2965 27.07C32.3 27.0728 32.3032 27.076 32.3061 27.0795C32.318 27.0914 32.3288 27.1033 32.3389 27.1151C32.3405 27.1168 32.3419 27.1186 32.3431 27.1205C32.3575 27.1371 32.3706 27.1538 32.3831 27.1704C32.3891 27.1787 32.3957 27.187 32.4011 27.1953C32.4082 27.2054 32.4154 27.2161 32.4214 27.2262C32.4267 27.2346 32.4315 27.2435 32.4363 27.2518C32.449 27.2732 32.4598 27.2957 32.4686 27.3189C32.4753 27.3347 32.4807 27.351 32.4847 27.3676C32.4892 27.3834 32.4926 27.3995 32.4948 27.4158Z" fill="#2F2E41"/>
<path opacity="0.2" d="M32.495 27.4158C32.4944 27.5198 32.4932 27.6653 32.4884 27.8454C32.4878 27.8703 32.4866 27.8959 32.486 27.922C32.48 28.1745 32.4711 28.4864 32.4585 28.8388C32.4579 28.8602 32.4573 28.8809 32.4561 28.9023C32.4394 29.3325 32.4131 29.8334 32.3677 30.6265C32.2835 32.0917 32.1366 30.8279 31.989 31.3419C31.5792 31.0911 31.13 30.8285 30.6498 30.5588C30.5632 30.5101 30.4757 30.4612 30.3875 30.412C29.427 29.8791 28.3542 29.3206 27.2342 28.7675C27.19 28.7455 27.1452 28.7235 27.101 28.7021C24.5354 27.4408 21.7351 26.2139 19.4664 25.3951C19.0285 25.2371 18.6104 25.0945 18.2173 24.9691C17.3894 24.7059 16.6738 24.5218 16.123 24.4421C15.5496 24.359 15.1535 24.3887 14.9935 24.5604C14.9875 24.4392 14.9813 24.3231 14.9749 24.2122C14.9725 24.1754 14.9702 24.1391 14.9678 24.1035C14.9715 24.0937 14.9762 24.0844 14.9809 24.075C14.9816 24.0736 14.982 24.0722 14.9827 24.0708C14.9839 24.0677 14.9853 24.0647 14.9869 24.0619C14.9887 24.0582 14.9906 24.0546 14.9929 24.0512C14.9948 24.047 14.9972 24.043 15 24.0393C15.0054 24.031 15.0114 24.0221 15.0179 24.0138C15.0228 24.0075 15.028 24.0016 15.0335 23.9959C15.0353 23.9931 15.0375 23.9905 15.0401 23.9882C15.0424 23.9858 15.0448 23.9829 15.0478 23.9799C15.0491 23.978 15.0507 23.9764 15.0526 23.9752C15.0573 23.9698 15.0625 23.9648 15.0681 23.9603C15.0894 23.9408 15.1122 23.9229 15.1362 23.9068C15.1446 23.9015 15.1535 23.8961 15.1619 23.8902C15.2221 23.8544 15.2855 23.8241 15.3513 23.7999C15.374 23.7916 15.3967 23.7838 15.4212 23.7755C15.4301 23.7731 15.4385 23.7702 15.4474 23.7672C15.4606 23.763 15.4737 23.7589 15.4875 23.7559C15.5556 23.7357 15.629 23.7185 15.7085 23.7024C15.7324 23.6977 15.7575 23.6929 15.7825 23.6888C15.8029 23.6852 15.8238 23.6816 15.8447 23.6781C16.0221 23.6502 16.2234 23.6294 16.4456 23.6157C16.4665 23.6145 16.4874 23.6133 16.5083 23.6121C16.5328 23.6109 16.5573 23.6098 16.5824 23.6086C16.6033 23.6074 16.6248 23.6068 16.6463 23.6062C16.6672 23.605 16.6887 23.6044 16.7108 23.6038C16.7711 23.602 16.8333 23.6003 16.8966 23.5991C17.077 23.5961 17.2669 23.5973 17.4665 23.6014C17.559 23.6032 17.6534 23.6062 17.7502 23.6104C17.7562 23.6104 17.7627 23.6109 17.7687 23.6109C17.8529 23.6133 17.9384 23.6175 18.025 23.6216C18.0859 23.6246 18.1474 23.6276 18.2089 23.6311C18.2669 23.6347 18.3254 23.6383 18.3846 23.6424C18.4306 23.6448 18.4766 23.6484 18.5231 23.6513C18.5626 23.6543 18.602 23.6573 18.6414 23.6597C18.6886 23.6632 18.7358 23.6668 18.7836 23.6704C18.8493 23.6757 18.915 23.6811 18.9819 23.6864C19.0482 23.6923 19.1157 23.6983 19.1832 23.7042C19.2507 23.7102 19.3188 23.7167 19.3869 23.7232C19.3941 23.7238 19.4006 23.7244 19.4072 23.725C19.4693 23.7316 19.5315 23.7375 19.5942 23.744C19.9418 23.7791 20.2996 23.8201 20.6676 23.867C20.8874 23.8949 21.11 23.9248 21.3354 23.9567C21.6777 24.0049 22.0254 24.0571 22.3754 24.113C22.726 24.1694 23.0787 24.229 23.4333 24.2918C23.5229 24.3079 23.6125 24.3239 23.7027 24.3405C23.8126 24.3607 23.9225 24.3813 24.0324 24.4023C24.1017 24.4154 24.171 24.4285 24.2403 24.4421C24.3227 24.4582 24.4058 24.4742 24.4882 24.4903C25.0312 24.5972 25.5712 24.7113 26.098 24.8307C26.1846 24.8503 26.2713 24.8705 26.3573 24.8901C26.5293 24.9299 26.6998 24.9703 26.8686 25.0113C26.9152 25.0226 26.9612 25.0339 27.0072 25.0452C27.1225 25.0737 27.2366 25.1022 27.3495 25.1307V25.1313C27.356 25.1325 27.3626 25.1343 27.3692 25.1361C27.4516 25.1569 27.5334 25.1777 27.6147 25.1991C27.8064 25.249 27.995 25.2993 28.1804 25.35C28.3034 25.3844 28.4253 25.4183 28.5453 25.4528C28.7251 25.5051 28.9014 25.5573 29.0728 25.6096C29.1152 25.6227 29.1576 25.6358 29.1994 25.6482C29.3249 25.6875 29.4479 25.7265 29.5686 25.7653C29.6642 25.7962 29.7573 25.8277 29.8493 25.8592C29.9413 25.8907 30.0315 25.9221 30.1199 25.9536C30.1773 25.9738 30.2334 25.9946 30.289 26.0148C30.3702 26.0445 30.4491 26.0742 30.5267 26.1045C30.5506 26.1135 30.5739 26.123 30.5972 26.1319C30.6408 26.1485 30.6832 26.1657 30.725 26.183C30.7531 26.1937 30.7806 26.205 30.8081 26.2168C30.8349 26.2275 30.8624 26.2388 30.8887 26.2501C30.9156 26.2608 30.9419 26.2721 30.9682 26.284C30.9903 26.2929 31.0118 26.3024 31.0327 26.3119C31.0751 26.3303 31.1175 26.3487 31.1587 26.3677C31.179 26.3772 31.1993 26.3862 31.2196 26.3957L31.2662 26.4171C31.2728 26.4206 31.2794 26.4236 31.2859 26.4266C31.3367 26.4503 31.3857 26.4741 31.4335 26.4979C31.4783 26.5204 31.5219 26.543 31.5637 26.565C31.6133 26.5911 31.6605 26.6167 31.7059 26.6428C31.7148 26.6476 31.7238 26.6529 31.7327 26.6577C31.7632 26.6749 31.7925 26.6927 31.8218 26.71C31.8791 26.745 31.9335 26.7795 31.9842 26.8139C32.0344 26.8484 32.081 26.8823 32.1246 26.9161C32.1246 26.9167 32.1246 26.9167 32.1252 26.9167C32.1461 26.9334 32.1664 26.95 32.1855 26.966C32.2166 26.9928 32.2453 27.0183 32.2716 27.0445C32.2804 27.0525 32.2887 27.0611 32.2966 27.07C32.3001 27.0729 32.3033 27.0761 32.3062 27.0795C32.3187 27.0932 32.3313 27.1069 32.3432 27.1205C32.3576 27.1372 32.3707 27.1538 32.3833 27.1704C32.3892 27.1787 32.3958 27.1871 32.4012 27.1954C32.4083 27.2055 32.4155 27.2162 32.4215 27.2263C32.4269 27.2346 32.4316 27.2435 32.4364 27.2518C32.4491 27.2732 32.4599 27.2957 32.4687 27.319C32.4752 27.3348 32.4806 27.3511 32.4848 27.3677C32.4893 27.3835 32.4927 27.3995 32.495 27.4158Z" fill="black"/>
</g>
<defs>
<clipPath id="clip0_103_689">
<rect width="47" height="34" fill="white"/>
</clipPath>
</defs>
</svg>
