<svg width="46" height="46" viewBox="0 0 46 46" fill="none" xmlns="http://www.w3.org/2000/svg">
<g clip-path="url(#clip0_101_1063)">
<path d="M16.7197 6.11353C16.6059 5.92075 16.1135 6.12716 16.0229 5.9522C15.9327 5.77788 16.3902 5.51226 16.6516 4.90548C16.6988 4.79606 16.9958 4.1065 16.7759 3.89372C16.3591 3.49041 14.4517 5.15478 13.7842 4.61012C13.6377 4.49059 13.5354 4.25197 13.0921 3.86455C12.9157 3.71043 12.809 3.64084 12.7058 3.66673C12.5593 3.70346 12.5477 3.90035 12.3907 4.28747C12.1552 4.86803 12.0159 4.83297 11.8786 5.29616C11.7768 5.64001 11.8 5.83992 11.6802 5.87886C11.5105 5.93398 11.3544 5.56927 11.1394 5.60192C10.92 5.63525 10.7874 6.0599 10.7455 6.37784C10.6669 6.97448 10.8851 7.36819 11.006 7.78217C11.1374 8.23206 11.2153 8.91625 10.9119 9.88482L7.90857 18.3842C8.57161 16.6402 10.4914 11.8593 11.2982 10.0826C11.531 9.56977 11.7882 9.04955 12.3161 8.84424C12.8245 8.64657 13.5226 8.76459 14.4126 8.54923C14.5165 8.52408 14.805 8.45037 14.8413 8.27996C14.8713 8.13908 14.7016 8.06044 14.7277 7.92849C14.7627 7.75151 15.0963 7.74933 15.5063 7.54514C15.7954 7.40115 15.9755 7.22992 16.1304 7.08266C16.1771 7.03826 16.8712 6.37016 16.7197 6.11353Z" fill="#F2F2F2"/>
<path d="M4.90375 10.588C4.7767 10.5885 4.73549 10.8908 4.62388 10.8849C4.51267 10.8791 4.51488 10.5769 4.29381 10.273C4.25394 10.2182 4.0027 9.87277 3.83528 9.91979C3.51794 10.0089 3.78088 11.4294 3.32214 11.6013C3.22147 11.6391 3.07534 11.6207 2.75811 11.7275C2.63191 11.7699 2.56713 11.8024 2.55 11.8608C2.5257 11.9436 2.61855 12.0061 2.7624 12.1952C2.97813 12.4788 2.9208 12.5374 3.10754 12.7387C3.24617 12.8881 3.35057 12.9343 3.33501 13.0047C3.31299 13.1042 3.08973 13.0759 3.04366 13.1913C2.99665 13.3091 3.16588 13.497 3.30915 13.6094C3.57802 13.8203 3.83334 13.8264 4.07051 13.8862C4.32826 13.9512 4.68508 14.1102 5.07081 14.5393L8.35742 18.4722C7.69651 17.6421 5.91429 15.3162 5.27892 14.4059C5.0955 14.1431 4.9155 13.8663 4.96752 13.5467C5.01759 13.2391 5.27669 12.929 5.42825 12.4281C5.44595 12.3696 5.49316 12.2062 5.42037 12.1391C5.36019 12.0836 5.27281 12.1446 5.21585 12.0937C5.13946 12.0254 5.23467 11.8603 5.25318 11.5992C5.26624 11.4152 5.23454 11.277 5.20727 11.1581C5.19905 11.1223 5.07287 10.5873 4.90375 10.588Z" fill="#F2F2F2"/>
<path d="M7.43824 11.1595L7.36169 10.4732L7.39667 10.4211C7.55849 10.1805 7.64097 9.9456 7.64196 9.72257C7.64213 9.68712 7.64048 9.65166 7.63883 9.61554C7.63223 9.47238 7.62398 9.29443 7.71636 9.08698C7.76816 8.97133 7.91366 8.70356 8.1324 8.7367C8.19129 8.74499 8.23583 8.77216 8.26964 8.80397C8.27459 8.79602 8.27971 8.78807 8.28515 8.77945C8.35328 8.67506 8.40722 8.63033 8.45918 8.58725C8.49911 8.55411 8.54035 8.51998 8.60501 8.43912C8.63338 8.40366 8.65549 8.37251 8.67413 8.34633C8.73071 8.26713 8.80461 8.17268 8.93493 8.17434C9.07416 8.18097 9.14708 8.29662 9.19541 8.37317C9.28169 8.5097 9.32078 8.60812 9.34668 8.6734C9.35608 8.69727 9.3668 8.72411 9.37225 8.73239C9.41712 8.79867 9.78185 8.7367 9.91926 8.71416C10.2279 8.66247 10.495 8.61773 10.605 8.81325C10.6839 8.95309 10.6253 9.138 10.4257 9.3776C10.3635 9.45216 10.2974 9.50883 10.2386 9.55323C10.2873 9.5824 10.3308 9.62713 10.3485 9.69739C10.3901 9.86374 10.2477 10.0304 9.92553 10.1935C9.84553 10.2342 9.7378 10.2886 9.58686 10.3148C9.51577 10.327 9.45176 10.33 9.39699 10.3317C9.39584 10.3635 9.38842 10.3979 9.36912 10.4334C9.31253 10.5378 9.19475 10.5875 9.01725 10.5756C8.82193 10.5653 8.6611 10.5278 8.51923 10.495C8.39535 10.4665 8.28861 10.4423 8.20481 10.448C8.04942 10.4606 7.92966 10.5855 7.78911 10.7476L7.43824 11.1595Z" fill="#F2F2F2"/>
<path d="M7.79329 7.07321L7.15177 7.32165L7.0928 7.30087C6.82006 7.20467 6.57287 7.18412 6.35785 7.23974C6.32366 7.24857 6.28993 7.25917 6.25556 7.26993C6.11937 7.31265 5.95008 7.36581 5.72688 7.32867C5.60236 7.30768 5.30759 7.23424 5.28402 7.01331C5.27707 6.95399 5.29194 6.90382 5.314 6.8629C5.30508 6.86011 5.29612 6.85716 5.28645 6.85405C5.16864 6.81434 5.11187 6.77328 5.0572 6.73371C5.01516 6.70333 4.97183 6.67192 4.87756 6.6296C4.83622 6.61103 4.80061 6.59746 4.77067 6.58599C4.68005 6.5511 4.57035 6.50325 4.53889 6.37622C4.50996 6.23926 4.60284 6.13909 4.6643 6.07271C4.7739 5.95425 4.85877 5.8913 4.91507 5.84958C4.93566 5.83439 4.95879 5.81717 4.96539 5.80978C5.01783 5.74937 4.86564 5.41072 4.80909 5.28293C4.68102 4.99617 4.57019 4.74804 4.73057 4.59154C4.84524 4.47946 5.03817 4.48945 5.31954 4.62261C5.40712 4.66412 5.47847 4.71402 5.53613 4.75982C5.55187 4.70514 5.58391 4.65148 5.64709 4.61651C5.79675 4.53393 5.99339 4.62996 6.23212 4.90162C6.29167 4.96901 6.37133 5.05988 6.43483 5.19989C6.46467 5.26586 6.48377 5.32729 6.49926 5.38008C6.5302 5.37314 6.56527 5.37161 6.60431 5.38137C6.71919 5.40986 6.79694 5.51169 6.83047 5.68717C6.87012 5.87954 6.87485 6.04531 6.87924 6.19146C6.88322 6.31906 6.88699 6.42889 6.91368 6.50888C6.96522 6.65666 7.11591 6.74133 7.30762 6.83678L7.79329 7.07321Z" fill="#F2F2F2"/>
<path d="M7.43824 5.05137L7.36169 4.36507L7.39667 4.31304C7.55849 4.07246 7.64097 3.8375 7.64196 3.61448C7.64213 3.57902 7.64048 3.54356 7.63883 3.50744C7.63223 3.36429 7.62398 3.18633 7.71636 2.97888C7.76816 2.86323 7.91366 2.59547 8.1324 2.62861C8.19129 2.63689 8.23583 2.66407 8.26964 2.69588C8.27459 2.68793 8.27971 2.67997 8.28515 2.67136C8.35328 2.56697 8.40722 2.52223 8.45918 2.47915C8.49911 2.44601 8.54035 2.41188 8.60501 2.33102C8.63338 2.29557 8.65549 2.26441 8.67413 2.23824C8.73071 2.15904 8.80461 2.06459 8.93493 2.06624C9.07416 2.07287 9.14708 2.18853 9.19541 2.26508C9.28169 2.40161 9.32078 2.50003 9.34668 2.56531C9.35608 2.58917 9.3668 2.61601 9.37225 2.6243C9.41712 2.69058 9.78185 2.6286 9.91926 2.60607C10.2279 2.55437 10.495 2.50964 10.605 2.70515C10.6839 2.845 10.6253 3.02991 10.4257 3.26951C10.3635 3.34407 10.2974 3.40073 10.2386 3.44514C10.2873 3.4743 10.3308 3.51904 10.3485 3.5893C10.3901 3.75565 10.2477 3.92234 9.92553 4.08538C9.84553 4.12614 9.7378 4.18049 9.58686 4.20667C9.51577 4.21893 9.45176 4.22192 9.39699 4.22357C9.39584 4.25539 9.38842 4.28985 9.36912 4.32531C9.31253 4.42969 9.19475 4.4794 9.01725 4.46747C8.82193 4.4572 8.6611 4.41975 8.51923 4.38694C8.39535 4.35845 8.28861 4.33425 8.20481 4.33989C8.04942 4.35248 7.92966 4.47741 7.78911 4.63946L7.43824 5.05137Z" fill="#F2F2F2"/>
<path d="M8.13738 18.3731L7.99419 18.2829L7.82724 18.3022C7.8246 18.2866 7.81553 18.2508 7.80184 18.1948C7.72712 17.8879 7.4993 16.9541 7.30927 15.4834C7.17663 14.4567 7.10158 13.4013 7.08607 12.3458C7.07056 11.2887 7.12038 10.4884 7.16031 9.84519C7.19049 9.36004 7.22712 8.89809 7.26308 8.44806C7.35875 7.24579 7.44899 6.11013 7.38185 4.85286C7.367 4.57217 7.33582 3.98794 6.996 3.36626C6.79887 3.00571 6.52734 2.68559 6.18884 2.41518L6.39933 2.14941C6.77297 2.44832 7.07337 2.80291 7.29227 3.20322C7.66905 3.8925 7.70303 4.5291 7.71936 4.83497C7.78765 6.11445 7.69643 7.26104 7.59976 8.47491C7.56413 8.92327 7.52751 9.38324 7.49749 9.8664C7.45789 10.5037 7.40857 11.297 7.42391 12.3405C7.43909 13.3834 7.51332 14.4259 7.64414 15.4396C7.83186 16.8918 8.05638 17.8117 8.13012 18.1139C8.16938 18.2753 8.17763 18.3091 8.13738 18.3731Z" fill="#F2F2F2"/>
<path d="M5.56921 2.95435C5.55535 2.95435 5.54133 2.95402 5.52714 2.95302C5.23945 2.93744 4.97304 2.76446 4.73516 2.43904C4.62365 2.28594 4.56657 2.1113 4.45275 1.76301C4.4351 1.70933 4.34931 1.43693 4.29719 1.06213C4.26304 0.817234 4.26733 0.71484 4.31566 0.62437C4.36928 0.523628 4.45605 0.453376 4.5537 0.405989C4.54942 0.373511 4.55288 0.340042 4.5669 0.305908C4.62447 0.164407 4.77756 0.182966 4.86037 0.191913C4.90227 0.197215 4.95456 0.204174 5.01098 0.20119C5.09973 0.196884 5.1474 0.17037 5.21966 0.130603C5.28877 0.0924925 5.37472 0.0451056 5.50224 0.0189257C5.75364 -0.0337641 5.96429 0.0378154 6.03374 0.0613419C6.39913 0.183622 6.57927 0.468947 6.78778 0.799337C6.82935 0.865614 6.97204 1.10686 7.06624 1.43759C7.1342 1.67618 7.12463 1.78223 7.10418 1.8611C7.06261 2.02314 6.96446 2.11593 6.7152 2.32073C6.45489 2.53514 6.32424 2.64251 6.21206 2.70779C5.95093 2.85923 5.78696 2.95435 5.56921 2.95435Z" fill="#F2F2F2"/>
<path d="M19.6219 45.6092C19.6219 45.6546 19.6582 45.691 19.7034 45.691H36.6277C36.6729 45.691 36.7092 45.6546 36.7092 45.6092C36.7092 45.5872 36.701 45.568 36.6873 45.5535H30.5469C30.4162 45.5535 30.2882 45.5446 30.1623 45.5274H19.7034C19.6582 45.5274 19.6219 45.5638 19.6219 45.6092Z" fill="#3F3D56"/>
<path d="M11.4451 31.1365H20.8671C22.4633 31.1365 23.7573 32.4362 23.7573 34.0395V41.631C23.7573 43.2342 22.4633 44.5339 20.8671 44.5339H11.4451C9.84891 44.5339 8.55493 43.2342 8.55493 41.631V34.0395C8.55493 32.4362 9.84891 31.1365 11.4451 31.1365Z" fill="white"/>
<path d="M8.48645 41.631V34.0395C8.48645 32.4009 9.8137 31.0678 11.4451 31.0678H20.867C22.4984 31.0678 23.8257 32.4009 23.8257 34.0395V41.631C23.8257 43.2696 22.4984 44.6027 20.867 44.6027H11.4451C9.8137 44.6027 8.48645 43.2696 8.48645 41.631ZM11.4451 31.2053C9.88915 31.2053 8.62333 32.4767 8.62333 34.0395V41.631C8.62333 43.1938 9.88915 44.4652 11.4451 44.4652H20.867C22.423 44.4652 23.6888 43.1938 23.6888 41.631V34.0395C23.6888 32.4767 22.423 31.2053 20.867 31.2053H11.4451Z" fill="#3F3D56"/>
<path d="M14.9676 34.4604H17.078L14.8872 40.9802C14.8411 41.1176 14.7128 41.21 14.5685 41.2101H12.9261C12.7405 41.2101 12.5901 41.059 12.5901 40.8727C12.5901 40.836 12.596 40.7995 12.6077 40.7648L14.6488 34.6903C14.6949 34.5529 14.8232 34.4603 14.9676 34.4603L14.9676 34.4604Z" fill="url(#paint0_linear_101_1063)"/>
<path d="M18.0343 38.8334H14.6878C14.6022 38.8333 14.5328 38.9029 14.5327 38.9888C14.5327 39.0321 14.5505 39.0733 14.582 39.1028L16.7324 41.1188C16.795 41.1775 16.8775 41.2101 16.9631 41.2101H18.858L18.0343 38.8334Z" fill="#0078D4"/>
<path d="M14.9678 34.4605C14.8217 34.4599 14.6922 34.5549 14.6482 34.6948L12.6104 40.7593C12.5478 40.9345 12.6385 41.1275 12.8129 41.1903C12.8495 41.2035 12.8882 41.2102 12.9271 41.2101H14.6119C14.7396 41.1872 14.8452 41.097 14.8883 40.974L15.2947 39.7711L16.7463 41.131C16.8071 41.1815 16.8834 41.2095 16.9623 41.2101H18.8502L18.0222 38.8335L15.6085 38.8341L17.0858 34.4605L14.9678 34.4605Z" fill="url(#paint1_linear_101_1063)"/>
<path d="M17.6631 34.69C17.6171 34.5528 17.4889 34.4604 17.3448 34.4604H14.9928C15.137 34.4604 15.2651 34.5528 15.3112 34.69L17.3523 40.7647C17.4117 40.9413 17.3172 41.1328 17.1414 41.1924C17.1068 41.2042 17.0705 41.2101 17.034 41.2101H19.386C19.5716 41.2101 19.722 41.0589 19.7219 40.8725C19.7219 40.8358 19.716 40.7994 19.7043 40.7647L17.6631 34.69Z" fill="url(#paint2_linear_101_1063)"/>
<path d="M2.95867 14.2259H12.3806C13.9768 14.2259 15.2708 15.5256 15.2708 17.1289V24.7203C15.2708 26.3236 13.9768 27.6233 12.3806 27.6233H2.95867C1.36246 27.6233 0.0684814 26.3236 0.0684814 24.7203V17.1289C0.0684814 15.5256 1.36246 14.2259 2.95867 14.2259Z" fill="white"/>
<path d="M0 24.7203V17.1289C0 15.4903 1.32725 14.1572 2.95863 14.1572H12.3806C14.012 14.1572 15.3392 15.4903 15.3392 17.1289V24.7203C15.3392 26.3589 14.012 27.692 12.3806 27.692H2.95863C1.32725 27.692 0 26.3589 0 24.7203ZM2.95863 14.2947C1.4027 14.2947 0.136879 15.5661 0.136879 17.1289V24.7203C0.136879 26.2831 1.4027 27.5545 2.95863 27.5545H12.3806C13.9365 27.5545 15.2023 26.2831 15.2023 24.7203V17.1289C15.2023 15.5661 13.9365 14.2947 12.3806 14.2947L2.95863 14.2947Z" fill="#3F3D56"/>
<path d="M5.78785 21.0407C5.78785 21.1473 5.79932 21.2338 5.8194 21.2972C5.84235 21.3605 5.87103 21.4297 5.91119 21.5046C5.92553 21.5276 5.93127 21.5507 5.93127 21.5709C5.93127 21.5997 5.91406 21.6285 5.87677 21.6573L5.69606 21.7783C5.67024 21.7956 5.64443 21.8042 5.62148 21.8042C5.59279 21.8042 5.56411 21.7898 5.53543 21.7639C5.49527 21.7207 5.46085 21.6746 5.43216 21.6285C5.40348 21.5795 5.3748 21.5248 5.34324 21.4585C5.11951 21.7236 4.8384 21.8561 4.49993 21.8561C4.25899 21.8561 4.0668 21.7869 3.92625 21.6486C3.7857 21.5104 3.71399 21.326 3.71399 21.0955C3.71399 20.8506 3.80004 20.6518 3.97501 20.502C4.14999 20.3521 4.38233 20.2772 4.67777 20.2772C4.7753 20.2772 4.87569 20.2859 4.98182 20.3003C5.08795 20.3147 5.19695 20.3377 5.31169 20.3637V20.1533C5.31169 19.9344 5.2658 19.7817 5.17688 19.6924C5.08509 19.6031 4.93019 19.5598 4.70932 19.5598C4.60893 19.5598 4.50567 19.5714 4.39954 19.5973C4.29341 19.6232 4.19014 19.6549 4.08975 19.6952C4.04385 19.7154 4.00943 19.7269 3.98936 19.7327C3.96928 19.7385 3.95493 19.7413 3.94346 19.7413C3.9033 19.7413 3.88322 19.7125 3.88322 19.652V19.5109C3.88322 19.4648 3.88896 19.4302 3.9033 19.41C3.91764 19.3898 3.94346 19.3697 3.98362 19.3495C4.08401 19.2977 4.20449 19.2544 4.34504 19.2199C4.48559 19.1824 4.63475 19.1651 4.79251 19.1651C5.13385 19.1651 5.3834 19.2429 5.54403 19.3985C5.70179 19.5541 5.78211 19.7903 5.78211 20.1072V21.0407L5.78785 21.0407ZM4.62327 21.4787C4.71793 21.4787 4.81546 21.4614 4.91872 21.4268C5.02198 21.3922 5.11377 21.3288 5.19122 21.2424C5.23711 21.1877 5.27153 21.1272 5.28874 21.058C5.30595 20.9889 5.31743 20.9053 5.31743 20.8074V20.6864C5.23424 20.6662 5.14532 20.6489 5.05353 20.6374C4.96175 20.6259 4.87282 20.6201 4.7839 20.6201C4.59172 20.6201 4.45117 20.6575 4.35651 20.7353C4.26185 20.8131 4.21596 20.9226 4.21596 21.0667C4.21596 21.2021 4.25038 21.3029 4.32209 21.3721C4.39093 21.4441 4.49133 21.4787 4.62327 21.4787ZM6.9266 21.7898C6.87497 21.7898 6.84055 21.7812 6.8176 21.761C6.79466 21.7437 6.77458 21.7034 6.75737 21.6486L6.08329 19.4215C6.06608 19.3639 6.05748 19.3265 6.05748 19.3063C6.05748 19.2602 6.08042 19.2343 6.12632 19.2343H6.40742C6.46192 19.2343 6.49921 19.2429 6.51929 19.2631C6.54224 19.2804 6.55945 19.3207 6.57666 19.3754L7.05855 21.2827L7.50602 19.3754C7.52036 19.3178 7.53757 19.2804 7.56052 19.2631C7.58347 19.2458 7.62363 19.2343 7.67526 19.2343H7.90473C7.95923 19.2343 7.99652 19.2429 8.01947 19.2631C8.04241 19.2804 8.06249 19.3207 8.07397 19.3754L8.52717 21.3058L9.02341 19.3754C9.04062 19.3178 9.0607 19.2804 9.08077 19.2631C9.10372 19.2458 9.14101 19.2343 9.19264 19.2343H9.4594C9.5053 19.2343 9.53111 19.2573 9.53111 19.3063C9.53111 19.3207 9.52825 19.3351 9.52538 19.3524C9.52251 19.3697 9.51677 19.3927 9.5053 19.4244L8.81401 21.6515C8.7968 21.7091 8.77672 21.7466 8.75378 21.7639C8.73083 21.7812 8.69354 21.7927 8.64478 21.7927H8.39809C8.34359 21.7927 8.30631 21.7841 8.28336 21.7639C8.26041 21.7437 8.24033 21.7063 8.22886 21.6486L7.78426 19.7903L7.34252 21.6458C7.32818 21.7034 7.31097 21.7408 7.28802 21.761C7.26507 21.7812 7.22492 21.7898 7.17329 21.7898L6.9266 21.7898ZM10.6125 21.8676C10.4633 21.8676 10.3142 21.8503 10.1708 21.8157C10.0273 21.7812 9.91548 21.7437 9.8409 21.7005C9.79501 21.6746 9.76345 21.6458 9.75198 21.6198C9.74051 21.5939 9.73477 21.5651 9.73477 21.5392V21.3922C9.73477 21.3317 9.75772 21.3029 9.80074 21.3029C9.81795 21.3029 9.83517 21.3058 9.85238 21.3116C9.86959 21.3173 9.8954 21.3288 9.92409 21.3404C10.0216 21.3836 10.1277 21.4182 10.2396 21.4412C10.3543 21.4643 10.4662 21.4758 10.581 21.4758C10.7617 21.4758 10.9022 21.4441 10.9997 21.3807C11.0973 21.3173 11.1489 21.2251 11.1489 21.107C11.1489 21.0263 11.1231 20.9601 11.0714 20.9053C11.0198 20.8506 10.9223 20.8016 10.7817 20.7555L10.3658 20.6258C10.1564 20.5596 10.0015 20.4616 9.90688 20.332C9.81222 20.2052 9.76346 20.064 9.76346 19.9142C9.76346 19.7932 9.78927 19.6866 9.8409 19.5944C9.89253 19.5022 9.96138 19.4215 10.0474 19.3582C10.1335 19.2919 10.231 19.2429 10.3457 19.2083C10.4605 19.1738 10.581 19.1594 10.7072 19.1594C10.7703 19.1594 10.8362 19.1622 10.8993 19.1709C10.9653 19.1795 11.0256 19.1911 11.0858 19.2026C11.1432 19.217 11.1977 19.2314 11.2493 19.2487C11.3009 19.266 11.3411 19.2833 11.3698 19.3005C11.4099 19.3236 11.4386 19.3466 11.4558 19.3726C11.473 19.3956 11.4816 19.4273 11.4816 19.4676V19.6031C11.4816 19.6636 11.4587 19.6953 11.4157 19.6953C11.3927 19.6953 11.3554 19.6837 11.3067 19.6607C11.1432 19.5858 10.9596 19.5483 10.7559 19.5483C10.5924 19.5483 10.4633 19.5742 10.3744 19.629C10.2855 19.6837 10.2396 19.7673 10.2396 19.8854C10.2396 19.9661 10.2683 20.0352 10.3257 20.09C10.383 20.1447 10.4892 20.1994 10.6412 20.2484L11.0485 20.3781C11.255 20.4443 11.4042 20.5365 11.4931 20.6547C11.582 20.7728 11.6251 20.9082 11.6251 21.058C11.6251 21.1819 11.5992 21.2943 11.5505 21.3922C11.4988 21.4902 11.43 21.5766 11.3411 21.6458C11.2522 21.7178 11.146 21.7697 11.0227 21.8071C10.8936 21.8474 10.7588 21.8676 10.6125 21.8676Z" fill="#252F3E"/>
<path fill-rule="evenodd" clip-rule="evenodd" d="M11.1547 23.2678C10.211 23.9679 8.83986 24.3396 7.66095 24.3396C6.00875 24.3396 4.52004 23.7259 3.39563 22.706C3.30671 22.6253 3.38702 22.5158 3.49316 22.5792C4.70936 23.288 6.20954 23.7173 7.76134 23.7173C8.80831 23.7173 9.95854 23.4983 11.017 23.0489C11.1747 22.9768 11.3096 23.1526 11.1547 23.2678Z" fill="#FF9900"/>
<path fill-rule="evenodd" clip-rule="evenodd" d="M11.5476 22.8184C11.4272 22.6628 10.7502 22.7435 10.4433 22.7809C10.3515 22.7924 10.3372 22.7118 10.4204 22.6513C10.9596 22.271 11.846 22.3804 11.9492 22.5072C12.0525 22.6369 11.9205 23.5271 11.4157 23.9535C11.3383 24.0198 11.2637 23.9852 11.2981 23.8988C11.4128 23.6136 11.6681 22.9711 11.5476 22.8184Z" fill="#FF9900"/>
<path d="M29.3215 19.2816C29.253 19.2129 28.7055 17.7693 28.7055 17.7693L27.4052 17.7006L26.8102 19.1095L29.3215 19.2816Z" fill="#FFB6B6"/>
<path d="M27.4767 18.3656C28.4434 18.3656 29.227 17.5785 29.227 16.6075C29.227 15.6366 28.4434 14.8494 27.4767 14.8494C26.51 14.8494 25.7263 15.6366 25.7263 16.6075C25.7263 17.5785 26.51 18.3656 27.4767 18.3656Z" fill="#FFB6B6"/>
<path d="M30.793 28.8025L31.4089 30.8648L29.7664 42.826H28.6544L28.0554 33.8207L27.371 36.9141L30.8614 41.3824L29.9717 42.4135L24.9414 37.4984L25.0441 29.9024L25.4547 28.7338L30.793 28.8025Z" fill="#2F2E41"/>
<path d="M28.9441 18.0518L28.8074 18.0585C28.8074 18.0585 28.6851 16.9634 28.6134 16.8981C28.5417 16.8328 28.4117 16.9769 28.4117 16.9769C28.4117 16.9769 27.848 16.6606 27.8312 16.3174C27.8143 15.9741 27.8009 15.6994 27.5958 15.7096C27.3907 15.7197 26.2421 16.0519 25.9687 16.0654C25.6953 16.0789 25.2616 15.6186 25.7199 15.183C26.1781 14.7473 26.5815 14.5897 26.6465 14.5177C26.7115 14.4456 27.1394 14.1492 27.5132 14.406C27.8871 14.6628 28.3655 14.6391 28.3655 14.6391C28.3655 14.6391 29.2643 14.8011 29.1478 15.2198C29.0313 15.6385 29.4818 16.4422 29.297 16.8643C29.1121 17.2864 28.9441 18.0518 28.9441 18.0518Z" fill="#2F2E41"/>
<path d="M28.6028 42.6198L29.8347 42.7572L29.9716 45.0257C29.9716 45.0257 29.9031 46.1256 28.7397 45.9881C27.5762 45.8506 27.9184 44.7508 27.9184 44.7508L28.6028 42.6198Z" fill="#2F2E41"/>
<path d="M30.2112 41.0042C30.2112 41.0042 31.1009 40.5918 31.2378 41.073L31.5115 42.0354C31.5115 42.0354 31.5115 42.9978 31.58 43.0665C31.6484 43.1353 32.9487 44.9226 31.7853 45.885C31.7853 45.885 31.1693 45.9537 30.8271 44.9913C30.4849 44.0289 29.4583 43.0665 29.4583 43.0665C29.4583 43.0665 29.2595 42.5853 29.5985 42.6197C29.9374 42.6541 30.4165 41.8292 30.2796 41.5542C30.1427 41.2792 30.2112 41.0042 30.2112 41.0042Z" fill="#2F2E41"/>
<path d="M18.9118 32.0234C18.5934 31.8887 18.5061 31.3721 18.7169 30.8694C18.7984 30.6674 18.9268 30.488 19.0915 30.3461L19.3374 29.7794L19.3286 29.7734L20.0358 26.9424C20.2003 26.2842 20.653 25.7289 21.2748 25.4633C21.6446 25.3053 21.9956 25.2767 22.0977 25.6553C22.267 26.2834 21.164 28.3068 20.4989 29.4452L19.9808 30.7223C19.9948 30.9398 19.9567 31.1576 19.8698 31.3573C19.6591 31.8599 19.2302 32.1581 18.9118 32.0234Z" fill="#FFB6B6"/>
<path d="M26.8577 18.8692L29.1162 18.9379L31.3062 19.9003L30.964 25.606C30.964 25.606 31.3747 26.9121 31.1693 27.1183C30.964 27.3245 31.1693 28.249 31.0325 28.268C30.8956 28.2869 31.0325 29.2813 31.0325 29.2813C31.0325 29.2813 29.1162 28.6306 27.4736 29.0431C25.8311 29.4555 25.2836 28.7681 25.2836 28.7681C25.2836 28.7681 24.8729 27.1183 24.8729 26.7746V19.7461L26.8577 18.8692Z" fill="#6C63FF"/>
<path d="M25.2494 19.7284C25.2494 19.7284 24.2912 19.4535 23.8121 20.1409C23.3331 20.8283 23.0593 20.8283 23.0593 21.722C23.0593 21.722 20.2533 25.709 20.3902 26.1215L19.74 27.187L21.3825 28.0807C21.3825 28.0807 21.9643 27.4964 21.9643 26.9464C21.9643 26.3965 23.6068 24.8841 23.6068 24.8841C23.6068 24.8841 25.044 23.0281 25.1125 22.3407C25.1809 21.6532 25.2494 19.7284 25.2494 19.7284Z" fill="#6C63FF"/>
<path d="M33.6878 32.3739H43.1097C44.7059 32.3739 45.9999 33.6736 45.9999 35.2769V42.8683C45.9999 44.4716 44.706 45.7713 43.1098 45.7713H33.6878C32.0916 45.7713 30.7976 44.4716 30.7976 42.8683V35.2769C30.7976 33.6736 32.0916 32.3739 33.6878 32.3739Z" fill="white"/>
<path d="M30.6608 42.7996V35.2082C30.6608 33.5696 31.988 32.2365 33.6194 32.2365H43.0414C44.6727 32.2365 46 33.5696 46 35.2082V42.7996C46 44.4382 44.6727 45.7713 43.0414 45.7713H33.6194C31.988 45.7713 30.6608 44.4382 30.6608 42.7996ZM33.6194 32.3739C32.0635 32.3739 30.7976 33.6454 30.7976 35.2082V42.7996C30.7976 44.3624 32.0635 45.6338 33.6194 45.6338H43.0414C44.5973 45.6338 45.8631 44.3624 45.8631 42.7996V35.2082C45.8631 33.6454 44.5973 32.3739 43.0414 32.3739H33.6194Z" fill="#3F3D56"/>
<path d="M39.5982 37.6817H39.8307L40.4933 37.0161L40.5258 36.7335C39.2926 35.6402 37.4105 35.7581 36.322 36.9967C36.0197 37.3408 35.8002 37.7502 35.6805 38.1931C35.7544 38.1627 35.8361 38.1578 35.913 38.1791L37.2383 37.9595C37.2383 37.9595 37.3057 37.8475 37.3406 37.8545C37.9301 37.2042 38.9222 37.1284 39.6028 37.6816L39.5982 37.6817Z" fill="#EA4335"/>
<path d="M41.4372 38.1931C41.2849 37.6297 40.9722 37.1233 40.5374 36.7358L39.6074 37.67C40.0002 37.9923 40.2238 38.4778 40.2143 38.9871V39.1529C40.6714 39.1529 41.042 39.5251 41.042 39.9842C41.042 40.4434 40.6714 40.8156 40.2143 40.8156H38.5589L38.3938 40.9838V41.9809L38.5589 42.1467H40.2143C41.4033 42.156 42.3747 41.1954 42.3839 40.0011C42.3895 39.2773 42.0342 38.5986 41.4372 38.1931Z" fill="#4285F4"/>
<path d="M36.9012 42.1374H38.5566V40.8063H36.9012C36.7833 40.8063 36.6667 40.7808 36.5595 40.7316L36.327 40.804L35.6597 41.4695L35.6016 41.7031C35.9758 41.9869 36.4323 42.1395 36.9012 42.1374Z" fill="#34A853"/>
<path d="M36.9012 37.8194C35.7122 37.8265 34.754 38.8005 34.7611 39.9948C34.7651 40.6617 35.0752 41.2894 35.6015 41.696L36.5617 40.7315C36.1452 40.5425 35.96 40.05 36.1482 39.6316C36.3365 39.2132 36.8267 39.0272 37.2433 39.2163C37.4269 39.2996 37.5739 39.4472 37.6568 39.6316L38.617 38.6671C38.2085 38.1307 37.5736 37.817 36.9012 37.8194Z" fill="#FBBC05"/>
<path d="M32.6806 33.5789C33.0257 33.5608 33.2823 33.1046 33.2539 32.5599C33.2455 32.3421 33.1853 32.1295 33.0784 31.9399L33.0385 31.3231L33.0488 31.3204L33.3401 28.4164C33.4079 27.7412 33.1696 27.0645 32.6745 26.6027C32.38 26.328 32.0595 26.1815 31.8356 26.5028C31.464 27.0359 31.8179 29.3152 32.0588 30.6128L32.1147 31.9907C32.028 32.1905 31.9902 32.4083 32.0046 32.6258C32.0329 33.1704 32.3356 33.5971 32.6806 33.5789Z" fill="#FFB6B6"/>
<path d="M30.8736 19.8533C30.8736 19.8533 31.8678 19.9213 32.0862 20.7312C32.3045 21.5412 32.562 21.6345 32.2601 22.4751C32.2601 22.4751 33.5523 27.1821 33.2842 27.5234L33.5358 28.7473L31.6888 29.028C31.6888 29.028 31.339 28.28 31.5248 27.7627C31.7106 27.2454 30.6766 25.2629 30.6766 25.2629C30.6766 25.2629 29.9518 23.0271 30.1197 22.3572C30.2876 21.6872 30.8736 19.8533 30.8736 19.8533Z" fill="#6C63FF"/>
</g>
<defs>
<linearGradient id="paint0_linear_101_1063" x1="15.7368" y1="34.9606" x2="13.5277" y2="41.4581" gradientUnits="userSpaceOnUse">
<stop stop-color="#114A8B"/>
<stop offset="1" stop-color="#0669BC"/>
</linearGradient>
<linearGradient id="paint1_linear_101_1063" x1="16.4215" y1="37.9913" x2="15.9141" y2="38.1621" gradientUnits="userSpaceOnUse">
<stop stop-opacity="0.3"/>
<stop offset="0.071" stop-opacity="0.2"/>
<stop offset="0.321" stop-opacity="0.1"/>
<stop offset="0.623" stop-opacity="0.05"/>
<stop offset="1" stop-opacity="0"/>
</linearGradient>
<linearGradient id="paint2_linear_101_1063" x1="16.1584" y1="34.7649" x2="18.5829" y2="41.1958" gradientUnits="userSpaceOnUse">
<stop stop-color="#3CCBF4"/>
<stop offset="1" stop-color="#2892DF"/>
</linearGradient>
<clipPath id="clip0_101_1063">
<rect width="46" height="46" fill="white"/>
</clipPath>
</defs>
</svg>
