<svg width="54" height="35" viewBox="0 0 54 35" fill="none" xmlns="http://www.w3.org/2000/svg">
<g clip-path="url(#clip0_103_585)">
<path d="M47.3794 23.46C47.327 23.398 47.2891 23.3254 47.2682 23.2472C47.2473 23.1691 47.244 23.0874 47.2584 23.0078C47.2728 22.9282 47.3047 22.8528 47.3518 22.7868C47.3989 22.7207 47.46 22.6657 47.5308 22.6256L47.1654 20.6943L48.1159 21.0898L48.3172 22.8632C48.3773 22.9855 48.39 23.1255 48.353 23.2565C48.3159 23.3876 48.2315 23.5006 48.1159 23.5742C48.0004 23.6477 47.8615 23.6768 47.7258 23.6557C47.59 23.6347 47.4667 23.5651 47.3794 23.46Z" fill="#FFB6B6"/>
<path d="M45.121 1.13306H3.39417V20.7435H45.121V1.13306Z" fill="#E6E6E6"/>
<path d="M43.9279 2.8147H4.5874V19.1763H43.9279V2.8147Z" fill="white"/>
<path d="M45.1032 0H3.37634V1.7557H45.1032V0Z" fill="url(#paint0_linear_103_585)"/>
<path d="M4.69367 1.1374C4.87513 1.1374 5.02223 0.991704 5.02223 0.811984C5.02223 0.632264 4.87513 0.486572 4.69367 0.486572C4.51221 0.486572 4.36511 0.632264 4.36511 0.811984C4.36511 0.991704 4.51221 1.1374 4.69367 1.1374Z" fill="white"/>
<path d="M5.94086 1.1374C6.12232 1.1374 6.26942 0.991704 6.26942 0.811984C6.26942 0.632264 6.12232 0.486572 5.94086 0.486572C5.75941 0.486572 5.6123 0.632264 5.6123 0.811984C5.6123 0.991704 5.75941 1.1374 5.94086 1.1374Z" fill="white"/>
<path d="M7.18793 1.1374C7.36939 1.1374 7.5165 0.991704 7.5165 0.811984C7.5165 0.632264 7.36939 0.486572 7.18793 0.486572C7.00648 0.486572 6.85938 0.632264 6.85938 0.811984C6.85938 0.991704 7.00648 1.1374 7.18793 1.1374Z" fill="white"/>
<path d="M6.8881 13.3413C6.84248 13.3415 6.79879 13.3595 6.76659 13.3915C6.73439 13.4235 6.71631 13.4669 6.71631 13.5121C6.71631 13.5572 6.73439 13.6006 6.76659 13.6326C6.79879 13.6646 6.84248 13.6827 6.8881 13.6828H16.3485C16.3941 13.6827 16.4378 13.6646 16.47 13.6326C16.5022 13.6006 16.5203 13.5572 16.5203 13.5121C16.5203 13.4669 16.5022 13.4235 16.47 13.3915C16.4378 13.3595 16.3941 13.3415 16.3485 13.3413H6.8881Z" fill="#E6E6E6"/>
<path d="M6.8881 14.3657C6.84248 14.3659 6.79879 14.3839 6.76659 14.416C6.73439 14.448 6.71631 14.4913 6.71631 14.5365C6.71631 14.5817 6.73439 14.625 6.76659 14.657C6.79879 14.689 6.84248 14.7071 6.8881 14.7072H11.7178C11.7635 14.7071 11.8071 14.689 11.8393 14.657C11.8715 14.625 11.8896 14.5817 11.8896 14.5365C11.8896 14.4913 11.8715 14.448 11.8393 14.416C11.8071 14.3839 11.7635 14.3659 11.7178 14.3657H6.8881Z" fill="#E6E6E6"/>
<path d="M16.3604 16.3003H12.7667C12.7202 16.3003 12.6756 16.282 12.6427 16.2494C12.6098 16.2168 12.5912 16.1726 12.5912 16.1265V15.5562C12.5912 15.5101 12.6098 15.4659 12.6427 15.4333C12.6756 15.4007 12.7202 15.3824 12.7667 15.3823H16.3604C16.407 15.3824 16.4516 15.4007 16.4845 15.4333C16.5174 15.4659 16.5359 15.5101 16.536 15.5562V16.1265C16.5359 16.1726 16.5174 16.2168 16.4845 16.2494C16.4516 16.282 16.407 16.3003 16.3604 16.3003Z" fill="url(#paint1_linear_103_585)"/>
<path d="M16.3604 10.3619H12.7667C12.7202 10.3618 12.6756 10.3435 12.6427 10.3109C12.6098 10.2783 12.5912 10.2341 12.5912 10.188V9.61773C12.5912 9.57163 12.6098 9.52743 12.6427 9.49483C12.6756 9.46224 12.7202 9.4439 12.7667 9.44385H16.3604C16.407 9.4439 16.4516 9.46224 16.4845 9.49483C16.5174 9.52743 16.5359 9.57163 16.536 9.61773V10.188C16.5359 10.2341 16.5174 10.2783 16.4845 10.3109C16.4516 10.3435 16.407 10.3618 16.3604 10.3619Z" fill="url(#paint2_linear_103_585)"/>
<path d="M22.6946 5.67603C22.635 5.67612 22.5778 5.69963 22.5357 5.74141C22.4936 5.78318 22.47 5.8398 22.47 5.89883C22.47 5.95787 22.4936 6.01449 22.5357 6.05626C22.5778 6.09804 22.635 6.12155 22.6946 6.12165H41.5099C41.5695 6.12155 41.6267 6.09804 41.6688 6.05626C41.7109 6.01449 41.7345 5.95787 41.7345 5.89883C41.7345 5.8398 41.7109 5.78318 41.6688 5.74141C41.6267 5.69963 41.5695 5.67612 41.5099 5.67603H22.6946Z" fill="#E6E6E6"/>
<path d="M22.6946 7.01318C22.635 7.01328 22.5778 7.03679 22.5357 7.07857C22.4936 7.12034 22.47 7.17696 22.47 7.23599C22.47 7.29503 22.4936 7.35165 22.5357 7.39342C22.5778 7.4352 22.635 7.45871 22.6946 7.4588H35.4676C35.5272 7.45871 35.5844 7.4352 35.6265 7.39342C35.6686 7.35165 35.6922 7.29503 35.6922 7.23599C35.6922 7.17696 35.6686 7.12034 35.6265 7.07857C35.5844 7.03679 35.5272 7.01328 35.4676 7.01318H22.6946Z" fill="#E6E6E6"/>
<path d="M22.6946 8.31982C22.635 8.31992 22.5778 8.34343 22.5357 8.38521C22.4936 8.42698 22.47 8.4836 22.47 8.54263C22.47 8.60167 22.4936 8.65829 22.5357 8.70006C22.5778 8.74184 22.635 8.76535 22.6946 8.76544H41.5099C41.5695 8.76535 41.6267 8.74184 41.6688 8.70006C41.7109 8.65829 41.7345 8.60167 41.7345 8.54263C41.7345 8.4836 41.7109 8.42698 41.6688 8.38521C41.6267 8.34343 41.5695 8.31992 41.5099 8.31982H22.6946Z" fill="#E6E6E6"/>
<path d="M22.6946 9.65674C22.635 9.65683 22.5778 9.68035 22.5357 9.72212C22.4936 9.7639 22.47 9.82052 22.47 9.87955C22.47 9.93858 22.4936 9.9952 22.5357 10.037C22.5778 10.0788 22.635 10.1023 22.6946 10.1024H35.4676C35.5272 10.1023 35.5844 10.0788 35.6265 10.037C35.6686 9.9952 35.6922 9.93858 35.6922 9.87955C35.6922 9.82052 35.6686 9.7639 35.6265 9.72212C35.5844 9.68035 35.5272 9.65683 35.4676 9.65674H22.6946Z" fill="#E6E6E6"/>
<path d="M41.5651 12.5484H37.9715C37.9249 12.5483 37.8803 12.53 37.8474 12.4974C37.8145 12.4648 37.796 12.4206 37.7959 12.3745V11.8042C37.796 11.7582 37.8145 11.714 37.8474 11.6814C37.8803 11.6488 37.9249 11.6304 37.9715 11.6304H41.5651C41.6117 11.6304 41.6563 11.6488 41.6892 11.6814C41.7221 11.714 41.7407 11.7582 41.7407 11.8042V12.3745C41.7407 12.4206 41.7221 12.4648 41.6892 12.4974C41.6563 12.53 41.6117 12.5483 41.5651 12.5484Z" fill="url(#paint3_linear_103_585)"/>
<path d="M10.9627 5.91748C10.8988 5.91768 10.8472 5.9998 10.8473 6.10091C10.8474 6.20173 10.899 6.28341 10.9627 6.2836H16.4133C16.4772 6.2834 16.5288 6.20128 16.5287 6.10018C16.5286 5.99936 16.477 5.91768 16.4133 5.91748H10.9627Z" fill="#E4E4E4"/>
<path d="M10.9627 6.97827C10.8988 6.97847 10.8472 7.06059 10.8473 7.16169C10.8474 7.26251 10.899 7.3442 10.9627 7.3444H16.4133C16.4772 7.3442 16.5288 7.26207 16.5287 7.16097C16.5286 7.06015 16.477 6.97847 16.4133 6.97827H10.9627Z" fill="#E4E4E4"/>
<path d="M10.9627 8.02612C10.8988 8.02632 10.8472 8.10845 10.8473 8.20955C10.8474 8.31037 10.899 8.39205 10.9627 8.39225H13.3081C13.3719 8.39205 13.4236 8.30993 13.4235 8.20882C13.4233 8.108 13.3718 8.02632 13.3081 8.02612H10.9627Z" fill="#E4E4E4"/>
<path d="M8.19514 8.60583C9.01201 8.60583 9.67422 7.94997 9.67422 7.14093C9.67422 6.33189 9.01201 5.67603 8.19514 5.67603C7.37827 5.67603 6.71606 6.33189 6.71606 7.14093C6.71606 7.94997 7.37827 8.60583 8.19514 8.60583Z" fill="#E4E4E4"/>
<path d="M38.8215 12.2584C38.811 12.3386 38.8184 12.42 38.8432 12.497C38.8679 12.5741 38.9094 12.6448 38.9648 12.7042C39.0201 12.7636 39.0879 12.8103 39.1634 12.841C39.2389 12.8716 39.3203 12.8855 39.4019 12.8816L40.1411 14.705L40.7283 13.8658L39.9363 12.2629C39.9206 12.1277 39.8555 12.0029 39.7531 11.9121C39.6508 11.8213 39.5183 11.7708 39.3809 11.7703C39.2435 11.7697 39.1107 11.8191 39.0076 11.9091C38.9045 11.999 38.8383 12.1233 38.8215 12.2584Z" fill="#FFB6B6"/>
<path d="M47.1559 34.1878H46.4753L46.1515 31.5876L47.1561 31.5877L47.1559 34.1878Z" fill="#FFB6B6"/>
<path d="M47.3295 34.8411L45.1349 34.841V34.8135C45.1349 34.5892 45.2249 34.374 45.3851 34.2153C45.5453 34.0567 45.7626 33.9675 45.9891 33.9675H45.9892L47.3296 33.9676L47.3295 34.8411Z" fill="#2F2E41"/>
<path d="M44.9287 34.1664L44.2798 33.9629L44.7634 31.3872L45.7211 31.6875L44.9287 34.1664Z" fill="#FFB6B6"/>
<path d="M44.8951 34.8413L42.8029 34.1852L42.8112 34.159C42.8796 33.9451 43.031 33.7669 43.2321 33.6635C43.4331 33.5601 43.6674 33.5401 43.8834 33.6078L45.1613 34.0085L44.8951 34.8413Z" fill="#2F2E41"/>
<path d="M44.1226 21.4798C44.1226 21.4798 43.1127 23.0503 43.4695 24.4519C43.8264 25.8536 44.215 28.5479 44.215 28.5479L46.1499 33.1085L47.5922 33.0503L46.1599 27.6731L46.2165 24.0779C46.2165 24.0779 47.2121 22.3596 47.0182 21.8247C46.8243 21.2899 44.1226 21.4798 44.1226 21.4798Z" fill="#2F2E41"/>
<path d="M47.4218 22.0414C47.4218 22.0414 47.546 23.5994 47.1574 24.2592C46.7688 24.919 46.3548 27.4304 46.3548 27.4304L45.6942 32.453L44.326 32.0121L45.4927 26.3848L46.4097 21.9583L47.4218 22.0414Z" fill="#2F2E41"/>
<path d="M47.9069 14.4993L46.8394 13.7726L45.215 13.7258L44.6493 14.2751L43.786 14.7117L43.7061 21.8248C43.7061 21.8248 46.2912 23.052 47.682 22.4596L48.351 16.9186C48.6286 15.8189 47.9069 14.4993 47.9069 14.4993Z" fill="#3F3D56"/>
<path d="M44.0029 16.6127H41.1555L39.2848 13.4235L40.5012 12.9463L41.5314 14.7612L43.0224 14.6276L43.9534 14.583C44.1026 14.5758 44.2515 14.6011 44.3898 14.6569C44.5282 14.7127 44.6525 14.7978 44.7541 14.9062C44.8558 15.0146 44.9323 15.1437 44.9783 15.2844C45.0243 15.4252 45.0387 15.5742 45.0205 15.721C44.9898 15.9669 44.8694 16.1933 44.682 16.3575C44.4946 16.5217 44.2531 16.6125 44.0029 16.6127Z" fill="#3F3D56"/>
<path d="M46.1597 13.14C46.9376 13.14 47.5682 12.5155 47.5682 11.7451C47.5682 10.9746 46.9376 10.3501 46.1597 10.3501C45.3818 10.3501 44.7512 10.9746 44.7512 11.7451C44.7512 12.5155 45.3818 13.14 46.1597 13.14Z" fill="#FFB6B6"/>
<path d="M47.8568 11.4278C47.8135 11.1215 47.6041 10.8307 47.3063 10.7379C47.188 10.3976 46.8746 10.1471 46.5284 10.0379C46.2077 9.93667 45.8622 9.9437 45.546 10.0579C45.2299 10.1721 44.9609 10.387 44.7814 10.669C44.7549 10.7102 44.6734 10.8116 44.6757 10.8608C44.6786 10.9234 44.7752 10.9879 44.8237 11.0274C44.944 11.1194 45.0737 11.1987 45.2107 11.2639C45.7172 11.524 45.5486 11.9327 45.5417 12.3958C45.5384 12.6209 45.6142 12.813 45.808 12.9416C46.0876 13.1271 46.4878 13.0533 46.7921 12.9789C47.1374 12.8944 47.4244 12.594 47.6213 12.3043C47.7957 12.0478 47.9001 11.734 47.8568 11.4278Z" fill="#2F2E41"/>
<path d="M47.8666 16.3154L48.4146 22.2694L46.6538 22.1758L47.8666 16.3154Z" fill="#3F3D56"/>
<path d="M53.9339 35.0001H32.3769C32.3594 35 32.3427 34.9931 32.3303 34.9808C32.318 34.9686 32.311 34.9519 32.311 34.9346C32.311 34.9173 32.318 34.9007 32.3303 34.8884C32.3427 34.8761 32.3594 34.8692 32.3769 34.8691H53.9339C53.9514 34.8691 53.9682 34.876 53.9806 34.8883C53.993 34.9006 54 34.9172 54 34.9346C54 34.952 53.993 34.9686 53.9806 34.9809C53.9682 34.9932 53.9514 35.0001 53.9339 35.0001Z" fill="#CACACA"/>
<path d="M4.66832 34.3474H5.19624L5.44739 32.3306H4.66821L4.66832 34.3474Z" fill="#9E616A"/>
<path d="M4.53369 34.1766L5.57338 34.1765C5.7491 34.1765 5.91766 34.2457 6.04192 34.3687C6.16617 34.4918 6.23598 34.6587 6.23599 34.8327V34.8541L4.53372 34.8541L4.53369 34.1766Z" fill="#2F2E41"/>
<path d="M9.53441 34.3474H10.0623L10.3135 32.3306H9.5343L9.53441 34.3474Z" fill="#9E616A"/>
<path d="M9.39966 34.1766L10.4393 34.1765C10.6151 34.1765 10.7836 34.2457 10.9079 34.3687C11.0321 34.4918 11.1019 34.6587 11.102 34.8327V34.8541L9.39969 34.8541L9.39966 34.1766Z" fill="#2F2E41"/>
<path d="M8.89694 18.1448L9.24142 20.3199L5.96875 20.3625L6.39934 18.2727L8.89694 18.1448Z" fill="#9E616A"/>
<path d="M9.14642 19.7888L10.1888 22.5377L10.318 33.9294H9.43518L7.32515 24.7768L5.38736 33.6905H4.52612L5.12899 23.6679C5.12899 23.6679 4.95121 21.6562 5.86104 20.4692L6.0825 19.8355L9.14642 19.7888Z" fill="#2F2E41"/>
<path d="M4.67545 21.9318C4.76657 21.9072 4.85114 21.8631 4.9232 21.8026C4.99526 21.7422 5.05306 21.6668 5.09252 21.5818C5.13198 21.4968 5.15215 21.4043 5.15161 21.3108C5.15106 21.2172 5.12982 21.1249 5.08937 21.0404L6.48163 16.5448L5.45757 16.3438L4.18421 20.7504C4.04534 20.8271 3.93971 20.9516 3.88733 21.1003C3.83495 21.249 3.83946 21.4116 3.90001 21.5572C3.96056 21.7028 4.07295 21.8214 4.21586 21.8904C4.35878 21.9595 4.5223 21.9742 4.67545 21.9318Z" fill="#9E616A"/>
<path d="M6.51168 19.3462C6.49257 19.3461 6.47351 19.3443 6.45477 19.3406C6.39176 19.3281 6.3346 19.2955 6.29204 19.2478C6.24947 19.2002 6.22383 19.14 6.21904 19.0765C6.18667 18.6375 6.02627 17.8734 5.74229 16.8054C5.64643 16.4424 5.66766 16.0588 5.80301 15.7083C5.93837 15.3579 6.18105 15.0581 6.49705 14.8512C6.81305 14.6442 7.18652 14.5404 7.56511 14.5542C7.94369 14.568 8.30842 14.6989 8.60815 14.9283C8.80006 15.0739 8.96024 15.2565 9.07902 15.465C9.19781 15.6736 9.27276 15.9038 9.29935 16.1417C9.44048 17.3727 9.17441 18.6087 9.05347 19.0829C9.03757 19.1448 9.00162 19.1999 8.95113 19.2396C8.90064 19.2793 8.83839 19.3016 8.77391 19.303L6.51795 19.3461C6.51586 19.3461 6.51377 19.3462 6.51168 19.3462Z" fill="#3F3D56"/>
<path d="M12.8144 15.3971C12.8008 15.4272 12.7897 15.4583 12.7811 15.4901L9.95726 16.4405L9.41162 15.9684L8.58459 16.6909L9.46854 17.6196C9.53996 17.6946 9.63401 17.7447 9.7366 17.7623C9.83918 17.7799 9.94476 17.764 10.0375 17.7171L13.0591 16.1884C13.1684 16.2548 13.2955 16.2867 13.4235 16.2798C13.5515 16.2729 13.6743 16.2276 13.7757 16.1498C13.8771 16.0721 13.9521 15.9656 13.9909 15.8446C14.0297 15.7236 14.0303 15.5938 13.9928 15.4724C13.9552 15.351 13.8813 15.2438 13.7807 15.165C13.6801 15.0863 13.5578 15.0397 13.4298 15.0316C13.3019 15.0234 13.1745 15.054 13.0646 15.1193C12.9546 15.1846 12.8674 15.2815 12.8144 15.3971Z" fill="#9E616A"/>
<path d="M9.85884 16.4925L8.82944 17.383C8.80015 17.4084 8.76569 17.4271 8.72841 17.4381C8.69113 17.4491 8.6519 17.4519 8.6134 17.4465C8.57489 17.4411 8.53802 17.4275 8.50529 17.4067C8.47256 17.3859 8.44474 17.3584 8.42372 17.326L7.68742 16.1904C7.55723 16.0413 7.4921 15.8471 7.50631 15.6504C7.52053 15.4538 7.61292 15.2708 7.76322 15.1415C7.91352 15.0123 8.10945 14.9474 8.30802 14.961C8.50659 14.9747 8.69158 15.0658 8.8224 15.2144L9.85637 16.0867C9.88596 16.1117 9.90978 16.1427 9.92618 16.1776C9.94259 16.2125 9.9512 16.2505 9.95143 16.289C9.95167 16.3276 9.94352 16.3657 9.92754 16.4008C9.91157 16.4359 9.88813 16.4672 9.85884 16.4925Z" fill="#3F3D56"/>
<path d="M6.31891 17.6957L5.04678 17.2007C5.01059 17.1866 4.97788 17.165 4.9509 17.1373C4.92391 17.1095 4.90327 17.0764 4.89039 17.04C4.87751 17.0037 4.8727 16.965 4.87626 16.9267C4.87983 16.8883 4.8917 16.8512 4.91107 16.8178L5.58981 15.6475C5.66359 15.4645 5.80765 15.3179 5.9904 15.24C6.17314 15.162 6.37965 15.1589 6.56464 15.2315C6.74963 15.3041 6.898 15.4464 6.97722 15.6272C7.05643 15.808 7.06003 16.0125 6.98722 16.1959L6.68152 17.5066C6.67275 17.5442 6.65592 17.5794 6.63218 17.6099C6.60844 17.6404 6.57833 17.6655 6.54392 17.6834C6.50951 17.7013 6.4716 17.7117 6.43277 17.7138C6.39394 17.716 6.35511 17.7098 6.31891 17.6957Z" fill="#3F3D56"/>
<path d="M7.26193 14.2771C8.02616 14.2771 8.64569 13.6635 8.64569 12.9066C8.64569 12.1497 8.02616 11.5361 7.26193 11.5361C6.4977 11.5361 5.87817 12.1497 5.87817 12.9066C5.87817 13.6635 6.4977 14.2771 7.26193 14.2771Z" fill="#9E616A"/>
<path d="M21.6231 35.0001H0.0661557C0.0486573 35 0.0318927 34.9931 0.0195373 34.9808C0.00718194 34.9686 0.000244141 34.9519 0.000244141 34.9346C0.000244141 34.9173 0.00718194 34.9007 0.0195373 34.8884C0.0318927 34.8761 0.0486573 34.8692 0.0661557 34.8691H21.6231C21.6406 34.8692 21.6573 34.8761 21.6697 34.8884C21.682 34.9007 21.689 34.9173 21.689 34.9346C21.689 34.9519 21.682 34.9686 21.6697 34.9808C21.6573 34.9931 21.6406 35 21.6231 35.0001Z" fill="#CACACA"/>
<path d="M8.21389 12.3558C8.51077 12.3541 8.80766 12.3524 9.10454 12.3508C9.12566 12.1504 9.03561 11.951 8.9044 11.797C8.76613 11.6489 8.60843 11.5198 8.43552 11.4131C8.26523 11.2974 8.08881 11.179 7.88637 11.1385C7.71667 11.1046 7.54128 11.1282 7.36985 11.1518C7.1425 11.1831 6.91516 11.2144 6.68782 11.2457C6.43826 11.2801 6.17716 11.3189 5.97448 11.4672C5.70036 11.6676 5.59551 12.0189 5.50743 12.3449L5.0199 14.1492L7.8996 14.4484C8.00377 14.4662 8.11047 14.4631 8.21342 14.4394C8.2647 14.4266 8.31105 14.3992 8.34673 14.3606C8.38241 14.3219 8.40584 14.2738 8.4141 14.2221C8.4224 14.1057 8.32923 14.0105 8.25357 13.9212C8.07309 13.6997 7.96475 13.4292 7.94289 13.1454C7.92104 12.8615 7.9867 12.5779 8.13118 12.3318L8.21389 12.3558Z" fill="#2F2E41"/>
</g>
<defs>
<linearGradient id="paint0_linear_103_585" x1="24.2398" y1="0" x2="24.2398" y2="1.7557" gradientUnits="userSpaceOnUse">
<stop stop-color="#3FBAFF"/>
<stop offset="0.465801" stop-color="#821AEA"/>
<stop offset="1" stop-color="#B671FB"/>
</linearGradient>
<linearGradient id="paint1_linear_103_585" x1="14.5636" y1="15.3823" x2="14.5636" y2="16.3003" gradientUnits="userSpaceOnUse">
<stop stop-color="#3FBAFF"/>
<stop offset="0.465801" stop-color="#821AEA"/>
<stop offset="1" stop-color="#B671FB"/>
</linearGradient>
<linearGradient id="paint2_linear_103_585" x1="14.5636" y1="9.44385" x2="14.5636" y2="10.3619" gradientUnits="userSpaceOnUse">
<stop stop-color="#3FBAFF"/>
<stop offset="0.465801" stop-color="#821AEA"/>
<stop offset="1" stop-color="#B671FB"/>
</linearGradient>
<linearGradient id="paint3_linear_103_585" x1="39.7683" y1="11.6304" x2="39.7683" y2="12.5484" gradientUnits="userSpaceOnUse">
<stop stop-color="#3FBAFF"/>
<stop offset="0.465801" stop-color="#821AEA"/>
<stop offset="1" stop-color="#B671FB"/>
</linearGradient>
<clipPath id="clip0_103_585">
<rect width="54" height="35" fill="white"/>
</clipPath>
</defs>
</svg>
