<svg width="50" height="30" viewBox="0 0 50 30" fill="none" xmlns="http://www.w3.org/2000/svg">
<g clip-path="url(#clip0_103_448)">
<path d="M28.8597 24.1018C28.743 24.1018 28.6289 24.1362 28.5318 24.2008C28.4348 24.2653 28.3591 24.357 28.3145 24.4643C28.2698 24.5716 28.2581 24.6897 28.2809 24.8036C28.3036 24.9175 28.3598 25.0221 28.4424 25.1042C28.5249 25.1863 28.6301 25.2423 28.7446 25.2649C28.859 25.2876 28.9777 25.2759 29.0855 25.2315C29.1934 25.1871 29.2855 25.1118 29.3504 25.0152C29.4152 24.9187 29.4499 24.8051 29.4499 24.689C29.4499 24.5333 29.3877 24.3839 29.277 24.2738C29.1663 24.1637 29.0162 24.1018 28.8597 24.1018ZM28.8597 25.0504C28.7879 25.0504 28.7176 25.0292 28.6579 24.9895C28.5982 24.9498 28.5516 24.8933 28.5241 24.8273C28.4967 24.7613 28.4895 24.6886 28.5035 24.6185C28.5175 24.5484 28.5521 24.484 28.6029 24.4335C28.6537 24.3829 28.7184 24.3485 28.7888 24.3346C28.8593 24.3206 28.9323 24.3278 28.9987 24.3551C29.065 24.3825 29.1218 24.4288 29.1617 24.4882C29.2016 24.5477 29.2229 24.6175 29.2229 24.689C29.2229 24.7848 29.1846 24.8768 29.1165 24.9445C29.0484 25.0123 28.956 25.0504 28.8597 25.0504Z" fill="#E4E4E4"/>
<path d="M26.5898 23.6501H28.8597V25.8854C28.8597 25.9635 28.8286 26.0383 28.7731 26.0935C28.7177 26.1486 28.6425 26.1796 28.564 26.1796H26.8855C26.8071 26.1796 26.7319 26.1486 26.6765 26.0935C26.621 26.0383 26.5898 25.9635 26.5898 25.8854V23.6501Z" fill="#E4E4E4"/>
<path d="M34.1633 26.2309H0.046036C0.0333835 26.2295 0.0216889 26.2235 0.0131935 26.2141C0.00469805 26.2047 0 26.1924 0 26.1798C0 26.1671 0.00469805 26.1549 0.0131935 26.1455C0.0216889 26.136 0.0333835 26.13 0.046036 26.1287H34.1633C34.176 26.13 34.1877 26.136 34.1962 26.1455C34.2047 26.1549 34.2093 26.1671 34.2093 26.1798C34.2093 26.1924 34.2047 26.2047 34.1962 26.2141C34.1877 26.2235 34.176 26.2295 34.1633 26.2309Z" fill="#CACACA"/>
<path d="M4.59235 25.2654L4.38135 26.3035L8.30513 27.6074L8.6166 26.0752L4.59235 25.2654Z" fill="#FFB6B6"/>
<path d="M4.98689 25.0692L4.5713 27.1136L4.57128 27.1136C4.50101 27.4591 4.29568 27.7627 4.00045 27.9576C3.70523 28.1525 3.34428 28.2228 2.99702 28.1529L2.95447 28.1443L3.63492 24.7971L4.98689 25.0692Z" fill="#2F2E41"/>
<path d="M9.03889 10.9663C10.5103 10.9663 11.7031 9.77946 11.7031 8.31542C11.7031 6.85139 10.5103 5.66455 9.03889 5.66455C7.56746 5.66455 6.37463 6.85139 6.37463 8.31542C6.37463 9.77946 7.56746 10.9663 9.03889 10.9663Z" fill="#FEB8B8"/>
<path d="M11.5273 6.02846C11.129 5.38489 10.5055 4.91066 9.7768 4.69707L9.44972 4.93456V4.62619C9.27473 4.59954 9.09761 4.58927 8.92068 4.59553L8.6385 4.84957V4.61663C8.22069 4.66829 7.81817 4.80552 7.45632 5.01967C7.09448 5.23382 6.78115 5.52025 6.5361 5.86089C5.92329 6.7399 5.81984 7.96279 6.42259 8.84885C6.58803 8.34291 6.78886 7.8682 6.95435 7.36231C7.08439 7.37994 7.2162 7.38058 7.34641 7.3642L7.5477 6.89684L7.60394 7.34442C8.2279 7.29035 9.15336 7.17158 9.74486 7.06278L9.68733 6.7194L10.0315 7.00472C10.2127 6.96323 10.3203 6.92556 10.3114 6.89679C10.7513 7.60245 11.2897 8.05315 11.7296 8.75881C11.8967 7.76379 12.089 6.93645 11.5273 6.02846Z" fill="#2F2E41"/>
<path d="M9.90571 25.6622C13.6944 25.6622 16.7658 24.8074 16.7658 23.753C16.7658 22.6985 13.6944 21.8438 9.90571 21.8438C6.11701 21.8438 3.04565 22.6985 3.04565 23.753C3.04565 24.8074 6.11701 25.6622 9.90571 25.6622Z" fill="#2F2E41"/>
<path d="M14.7689 15.1323C14.6773 14.5839 14.5828 14.025 14.3266 13.5309C14.1583 13.2073 13.891 12.899 13.5308 12.835C13.4598 12.8287 13.39 12.8126 13.3235 12.7873C13.218 12.7367 11.7994 11.9309 11.5739 11.7906C11.3803 11.6701 11.0747 11.4471 10.9207 11.4471C10.7656 11.4437 10.1712 11.5813 7.85119 11.4009C7.46094 11.5567 7.08303 11.7416 6.72067 11.9539C6.7132 11.949 4.31268 13.2316 4.22249 13.2282C4.0517 13.2211 3.89295 13.3299 3.79503 13.4669C3.69715 13.6039 3.65123 13.7735 3.60315 13.9375C4.12746 15.0993 4.60719 16.2626 5.13155 17.4243C5.1561 17.4681 5.16915 17.5173 5.16947 17.5674C5.15894 17.6194 5.13663 17.6684 5.10424 17.7105C4.8471 18.1215 4.85528 18.6384 4.88337 19.1215C4.91148 19.6045 4.94624 20.1148 4.72928 20.5477C4.67026 20.6666 4.59352 20.7754 4.53739 20.8943C4.40595 21.1635 4.35845 22.0246 4.43522 22.3138L14.0538 22.588C13.847 22.0224 14.7689 15.1323 14.7689 15.1323Z" fill="#6C63FF"/>
<path d="M2.77174 17.4757C2.75254 17.6138 2.75061 17.7538 2.76598 17.8924L2.90384 19.8623C2.91679 20.048 2.92952 20.2332 2.94704 20.4184C2.98012 20.7778 3.02953 21.1344 3.09085 21.4904C3.09224 21.541 3.11373 21.5889 3.1506 21.6237C3.18747 21.6585 3.23671 21.6774 3.28752 21.6761C3.89438 21.8039 4.52137 21.7987 5.1407 21.7639C6.08579 21.7115 8.50365 21.6122 8.65137 21.4212C8.79909 21.2303 8.71301 20.9215 8.5204 20.7671C8.32779 20.6127 5.13706 20.2363 5.13706 20.2363C5.16824 19.9905 5.26228 19.759 5.3515 19.5256C5.51175 19.1116 5.66142 18.6841 5.6643 18.2407C5.66718 17.7972 5.49927 17.331 5.13418 17.0769C4.83386 16.8684 4.4472 16.8297 4.08124 16.8383C3.81497 16.8459 3.35491 16.7824 3.11171 16.886C2.91925 16.9703 2.80769 17.2882 2.77174 17.4757Z" fill="#FBBEBE"/>
<path d="M14.7859 21.9287C14.9457 21.868 15.1218 21.89 15.293 21.9129C15.8442 21.9878 16.4036 22.0647 16.9145 22.2838C17.1544 22.386 17.3827 22.5224 17.5449 22.7233C17.6887 22.9042 17.7727 23.1257 17.8524 23.3438L18.0366 23.846C18.1149 24.0346 18.1689 24.2323 18.1973 24.4345C18.2549 25.0354 17.8418 25.602 17.3223 25.9142C16.8028 26.2264 16.1911 26.3375 15.5953 26.454C14.9994 26.5705 14.4012 26.6993 13.8078 26.8359C13.5311 26.9073 13.2502 26.9623 12.9669 27.0005C12.3317 27.0721 11.6678 26.9666 11.0643 27.1757C10.8244 27.2593 10.5889 27.3834 10.3401 27.4411C10.1747 27.4757 10.0075 27.5011 9.83922 27.517L8.69701 27.6468C8.46474 27.6777 8.23091 27.6956 7.99662 27.7003C7.49773 27.7003 7.00695 27.5827 6.5225 27.4652C6.47102 27.4562 6.42202 27.4365 6.37868 27.4074C6.30194 27.3473 6.28515 27.2408 6.27411 27.1444C6.22517 26.7177 6.18237 26.2905 6.1457 25.8629C6.13419 25.724 6.12556 25.5736 6.20184 25.4567C6.29778 25.3136 6.4849 25.2686 6.65568 25.2409C7.37986 25.123 8.11348 25.0724 8.84709 25.0896C9.12578 24.8123 9.58538 24.8109 9.95047 24.66C10.0848 24.5986 10.2148 24.5283 10.3395 24.4495C10.9926 24.0704 11.7224 23.841 12.4757 23.7779C12.6233 23.7735 12.7699 23.7527 12.9128 23.7159C13.1953 23.6286 13.453 23.3908 13.7432 23.4491C13.7791 23.3503 13.8041 23.218 13.887 23.1503C13.9281 23.1154 13.9791 23.0921 14.017 23.0548C14.0971 22.9742 14.1043 22.8472 14.0923 22.7345C14.0803 22.6219 14.0534 22.5064 14.0827 22.3966C14.0949 22.355 14.1128 22.3153 14.1359 22.2787C14.2794 22.0317 14.4967 21.9048 14.7859 21.9287Z" fill="#2F2E41"/>
<path d="M3.57539 13.9728C3.52867 14.0214 3.49244 14.0791 3.46892 14.1422C3.08115 15.0118 2.8521 15.9431 2.79252 16.8925C2.79356 16.9388 2.78284 16.9846 2.76134 17.0257C2.74014 17.053 2.71654 17.0784 2.69082 17.1016C2.6684 17.128 2.65143 17.1586 2.64088 17.1916C2.63034 17.2246 2.62643 17.2593 2.62937 17.2938C2.63231 17.3282 2.64204 17.3618 2.65802 17.3925C2.674 17.4233 2.69591 17.4506 2.72249 17.4729C2.72685 17.4765 2.73133 17.4801 2.73592 17.4834C2.81507 17.3352 3.00455 17.2868 3.17296 17.2739C3.97937 17.2104 4.76707 17.5837 5.57589 17.5555C5.51882 17.3593 5.43674 17.1708 5.39021 16.9723C5.1844 16.0907 5.69772 15.1308 5.38302 14.2816C5.32015 14.1117 5.21511 13.9447 5.04962 13.8702C4.98109 13.8427 4.90938 13.8238 4.83615 13.814C4.63178 13.7772 4.22493 13.6202 4.02734 13.6832C3.9544 13.7066 3.92564 13.7748 3.86519 13.8161C3.77335 13.8744 3.65152 13.8959 3.57539 13.9728Z" fill="#6C63FF"/>
<path d="M14.7747 16.886C14.5315 16.7824 14.0714 16.8459 13.8052 16.8383C13.4392 16.8297 13.0526 16.8684 12.7522 17.0769C12.3871 17.331 12.2192 17.7972 12.2221 18.2407C12.225 18.6841 12.3747 19.1116 12.5349 19.5256C12.6241 19.759 12.7182 19.9905 12.7494 20.2363C12.7494 20.2363 9.55863 20.6127 9.36602 20.7671C9.17341 20.9215 9.08732 21.2303 9.23504 21.4212C9.38276 21.6122 13.992 21.8039 14.5989 21.6761C14.6497 21.6774 14.6989 21.6585 14.7358 21.6237C14.7727 21.5889 14.7942 21.541 14.7956 21.4904C14.8569 21.1344 14.9063 20.7778 14.9394 20.4184C14.9569 20.2332 14.9696 20.048 14.9826 19.8623L15.1204 17.8924C15.1358 17.7538 15.1339 17.6138 15.1147 17.4757C15.0787 17.2882 14.9672 16.9703 14.7747 16.886Z" fill="#FBBEBE"/>
<path d="M14.0211 13.8161C13.9607 13.7748 13.9319 13.7066 13.859 13.6832C13.6614 13.6202 13.2545 13.7772 13.0502 13.814C12.9769 13.8238 12.9052 13.8427 12.8367 13.8702C12.6712 13.9447 12.5662 14.1117 12.5033 14.2816C12.1886 15.1308 12.7019 16.0907 12.4961 16.9723C12.4496 17.1708 12.3675 17.3593 12.3104 17.5555C13.1192 17.5837 13.9069 17.2104 14.7133 17.2739C14.8818 17.2868 15.0712 17.3352 15.1504 17.4834C15.155 17.4801 15.1595 17.4765 15.1638 17.4729C15.1904 17.4506 15.2123 17.4233 15.2283 17.3925C15.2443 17.3618 15.254 17.3282 15.2569 17.2938C15.2599 17.2593 15.256 17.2246 15.2454 17.1916C15.2349 17.1586 15.2179 17.128 15.1955 17.1016C15.1698 17.0784 15.1462 17.053 15.125 17.0257C15.1035 16.9846 15.0927 16.9388 15.0938 16.8925C15.0342 15.9431 14.8052 15.0118 14.4174 14.1422C14.3939 14.0791 14.3576 14.0214 14.3109 13.9728C14.2348 13.8959 14.113 13.8744 14.0211 13.8161Z" fill="#6C63FF"/>
<path d="M15.37 26.7472L15.2298 27.7971L11.0931 27.7585L11.3001 26.209L15.37 26.7472Z" fill="#FFB6B6"/>
<path d="M16.4286 26.6147L15.9764 29.9999L15.9334 29.9942C15.5822 29.9477 15.2639 29.7644 15.0485 29.4844C14.8332 29.2045 14.7384 28.8509 14.7851 28.5015L14.7851 28.5014L15.0613 26.4338L16.4286 26.6147Z" fill="#2F2E41"/>
<path d="M5.63814 22.46C5.63814 22.5078 5.56284 22.46 5.55596 22.4089C5.50321 22.0228 5.19519 21.7044 4.83636 21.5498C4.47754 21.3951 4.06879 21.387 3.68023 21.4237C3.09259 21.4791 2.43293 21.703 2.21803 22.2495C2.16718 22.3773 1.69084 23.5149 1.73732 23.7707C1.86254 24.4532 2.33169 25.037 2.90018 25.4413C3.46867 25.8456 4.13289 26.0871 4.79548 26.305C6.54728 26.8798 8.3446 27.307 10.1684 27.5818C10.4639 27.6262 10.7623 27.6672 11.0453 27.7617C11.2986 27.8462 11.5356 27.9727 11.7832 28.072C12.3588 28.302 12.9782 28.3841 13.5917 28.4648C13.6963 28.4782 13.8162 28.4877 13.8935 28.4171C13.9933 28.3251 13.9602 28.1646 13.9318 28.0324C13.8277 27.5297 13.9151 27.0064 14.177 26.5642C14.2797 26.3924 14.4133 26.2162 14.3939 26.0174C14.3708 25.7854 14.1386 25.6212 13.9074 25.5839C13.6762 25.5467 13.4411 25.6016 13.2089 25.6317C13.1293 25.6499 13.0459 25.6416 12.9714 25.6083C12.9369 25.5851 12.9056 25.5575 12.8783 25.5262C12.7184 25.3727 12.5137 25.2735 12.2936 25.2429C12.0734 25.2123 11.8492 25.2518 11.6531 25.3558C11.5672 25.4035 11.4374 25.2971 11.348 25.257L10.3391 24.8026C9.18014 24.2809 8.01538 23.7568 6.78919 23.4265C6.69135 23.4074 6.59836 23.3689 6.51573 23.3133C6.45481 23.2656 6.41116 23.2009 6.35502 23.1477C6.23267 23.0327 6.06225 22.9868 5.9156 22.9052C5.76896 22.8236 5.60455 22.6237 5.63814 22.46Z" fill="#2F2E41"/>
<path d="M8.24972 21.7703C8.64686 21.7703 8.96881 21.45 8.96881 21.0548C8.96881 20.6597 8.64686 20.3394 8.24972 20.3394C7.85258 20.3394 7.53064 20.6597 7.53064 21.0548C7.53064 21.45 7.85258 21.7703 8.24972 21.7703Z" fill="#FBBEBE"/>
<path d="M9.84201 21.7703C10.2391 21.7703 10.5611 21.45 10.5611 21.0548C10.5611 20.6597 10.2391 20.3394 9.84201 20.3394C9.44487 20.3394 9.12292 20.6597 9.12292 21.0548C9.12292 21.45 9.44487 21.7703 9.84201 21.7703Z" fill="#FBBEBE"/>
<path d="M14.2807 22.6671H4.40161C4.28627 22.667 4.17569 22.6213 4.09413 22.5402C4.01257 22.459 3.96669 22.349 3.96655 22.2343V16.271C3.96669 16.1562 4.01257 16.0462 4.09413 15.9651C4.17569 15.8839 4.28627 15.8383 4.40161 15.8381H14.2807C14.3961 15.8383 14.5066 15.8839 14.5882 15.9651C14.6698 16.0462 14.7157 16.1562 14.7158 16.271V22.2343C14.7157 22.349 14.6698 22.459 14.5882 22.5402C14.5066 22.6213 14.3961 22.667 14.2807 22.6671Z" fill="#3F3D56"/>
<path d="M9.31726 19.5389C9.47623 19.5389 9.6051 19.4106 9.6051 19.2525C9.6051 19.0943 9.47623 18.9661 9.31726 18.9661C9.15829 18.9661 9.02942 19.0943 9.02942 19.2525C9.02942 19.4106 9.15829 19.5389 9.31726 19.5389Z" fill="white"/>
<path d="M44.5846 10.7551H31.7494C31.6813 10.755 31.616 10.7281 31.5679 10.6802C31.5197 10.6323 31.4926 10.5673 31.4926 10.4996V8.0925H31.5953V10.4996C31.5953 10.5402 31.6116 10.5792 31.6405 10.6079C31.6693 10.6367 31.7085 10.6528 31.7494 10.6529H44.5846C44.6255 10.6528 44.6647 10.6367 44.6935 10.6079C44.7224 10.5792 44.7387 10.5402 44.7387 10.4996V8.07568H44.8415V10.4996C44.8414 10.5673 44.8143 10.6323 44.7662 10.6802C44.718 10.7281 44.6527 10.755 44.5846 10.7551Z" fill="#3F3D56"/>
<path d="M49.2375 8.0415H19.076V8.14371H49.2375V8.0415Z" fill="#3F3D56"/>
<path d="M19.0782 8.96379C19.5662 8.96379 19.9618 8.5702 19.9618 8.08468C19.9618 7.59916 19.5662 7.20557 19.0782 7.20557C18.5903 7.20557 18.1947 7.59916 18.1947 8.08468C18.1947 8.5702 18.5903 8.96379 19.0782 8.96379Z" fill="#6C63FF"/>
<path d="M28.0568 8.96379C28.5447 8.96379 28.9403 8.5702 28.9403 8.08468C28.9403 7.59916 28.5447 7.20557 28.0568 7.20557C27.5688 7.20557 27.1732 7.59916 27.1732 8.08468C27.1732 8.5702 27.5688 8.96379 28.0568 8.96379Z" fill="#6C63FF"/>
<path d="M34.1501 11.5478C34.6381 11.5478 35.0337 11.1542 35.0337 10.6687C35.0337 10.1831 34.6381 9.78955 34.1501 9.78955C33.6622 9.78955 33.2666 10.1831 33.2666 10.6687C33.2666 11.1542 33.6622 11.5478 34.1501 11.5478Z" fill="#3F3D56"/>
<path d="M38.7823 11.5478C39.2703 11.5478 39.6659 11.1542 39.6659 10.6687C39.6659 10.1831 39.2703 9.78955 38.7823 9.78955C38.2944 9.78955 37.8988 10.1831 37.8988 10.6687C37.8988 11.1542 38.2944 11.5478 38.7823 11.5478Z" fill="#CCCCCC"/>
<path d="M36.5377 8.96379C37.0257 8.96379 37.4213 8.5702 37.4213 8.08468C37.4213 7.59916 37.0257 7.20557 36.5377 7.20557C36.0498 7.20557 35.6542 7.59916 35.6542 8.08468C35.6542 8.5702 36.0498 8.96379 36.5377 8.96379Z" fill="#6C63FF"/>
<path d="M49.1165 8.96379C49.6044 8.96379 50 8.5702 50 8.08468C50 7.59916 49.6044 7.20557 49.1165 7.20557C48.6285 7.20557 48.2329 7.59916 48.2329 8.08468C48.2329 8.5702 48.6285 8.96379 49.1165 8.96379Z" fill="#6C63FF"/>
<path d="M44.7902 8.96379C45.2781 8.96379 45.6737 8.5702 45.6737 8.08468C45.6737 7.59916 45.2781 7.20557 44.7902 7.20557C44.3022 7.20557 43.9066 7.59916 43.9066 8.08468C43.9066 8.5702 44.3022 8.96379 44.7902 8.96379Z" fill="#6C63FF"/>
<path d="M34.9498 0H33.311V1.12379H34.9498V0Z" fill="#3F3D56"/>
<path d="M19.9042 0H18.2654V1.12379H19.9042V0Z" fill="#6C63FF"/>
<path d="M25.4551 0H23.8163V1.12379H25.4551V0Z" fill="#CCCCCC"/>
<path d="M21.8181 8.14375C21.8045 8.14375 21.7914 8.13837 21.7818 8.12878C21.7721 8.1192 21.7667 8.1062 21.7667 8.09265V5.56998C21.7668 5.50223 21.7939 5.43728 21.842 5.38938C21.8902 5.34148 21.9555 5.31453 22.0235 5.31445H24.5236C24.5373 5.31445 24.5503 5.31984 24.5599 5.32942C24.5696 5.33901 24.575 5.352 24.575 5.36556C24.575 5.37911 24.5696 5.39211 24.5599 5.4017C24.5503 5.41128 24.5373 5.41666 24.5236 5.41666H22.0235C21.9827 5.41671 21.9435 5.43287 21.9146 5.46162C21.8857 5.49036 21.8695 5.52933 21.8694 5.56998V8.09265C21.8694 8.1062 21.864 8.1192 21.8544 8.12878C21.8448 8.13837 21.8317 8.14375 21.8181 8.14375Z" fill="#3F3D56"/>
<path d="M24.6411 6.22551C25.1291 6.22551 25.5247 5.83192 25.5247 5.3464C25.5247 4.86088 25.1291 4.46729 24.6411 4.46729C24.1531 4.46729 23.7576 4.86088 23.7576 5.3464C23.7576 5.83192 24.1531 6.22551 24.6411 6.22551Z" fill="#E6E6E6"/>
<path d="M41.593 8.09265H41.4902V5.56998C41.4903 5.50223 41.5174 5.43728 41.5655 5.38938C41.6137 5.34148 41.679 5.31453 41.747 5.31445H44.2471V5.41666H41.747C41.7062 5.41671 41.667 5.43287 41.6381 5.46162C41.6093 5.49036 41.593 5.52933 41.593 5.56998V8.09265Z" fill="#3F3D56"/>
<path d="M44.3646 6.22551C44.8526 6.22551 45.2482 5.83192 45.2482 5.3464C45.2482 4.86088 44.8526 4.46729 44.3646 4.46729C43.8767 4.46729 43.4811 4.86088 43.4811 5.3464C43.4811 5.83192 43.8767 6.22551 44.3646 6.22551Z" fill="#E6E6E6"/>
</g>
<defs>
<clipPath id="clip0_103_448">
<rect width="50" height="30" fill="white"/>
</clipPath>
</defs>
</svg>
