<svg width="67" height="66" viewBox="0 0 67 66" fill="none" xmlns="http://www.w3.org/2000/svg">
<mask id="mask0_15_1338" style="mask-type:alpha" maskUnits="userSpaceOnUse" x="0" y="0" width="67" height="66">
<rect x="0.5" width="66" height="66" fill="#D9D9D9"/>
</mask>
<g mask="url(#mask0_15_1338)">
<path d="M21.125 8.25C23.5084 8.25 25.7771 8.75417 27.9313 9.7625C30.0854 10.7708 31.9417 12.1917 33.5 14.025C35.0584 12.1917 36.9146 10.7708 39.0688 9.7625C41.2229 8.75417 43.4917 8.25 45.875 8.25C50.1834 8.25 53.7813 9.69375 56.6688 12.5813C59.5563 15.4688 61 19.0667 61 23.375C61 23.6042 60.9886 23.8333 60.9657 24.0625C60.9427 24.2917 60.9313 24.5208 60.9313 24.75H55.4313C55.4771 24.5208 55.5 24.2917 55.5 24.0625V23.375C55.5 20.625 54.5834 18.3333 52.75 16.5C50.9167 14.6667 48.625 13.75 45.875 13.75C43.7209 13.75 41.7271 14.3573 39.8938 15.5719C38.0604 16.7865 36.8 18.3333 36.1125 20.2125H30.8875C30.2 18.3333 28.9396 16.7865 27.1063 15.5719C25.2729 14.3573 23.2792 13.75 21.125 13.75C18.375 13.75 16.0834 14.6667 14.25 16.5C12.4167 18.3333 11.5 20.625 11.5 23.375V24.0625C11.5 24.2917 11.5229 24.5208 11.5688 24.75H6.06878C6.06878 24.5208 6.05732 24.2917 6.03441 24.0625C6.01149 23.8333 6.00003 23.6042 6.00003 23.375C6.00003 19.0667 7.44378 15.4688 10.3313 12.5813C13.2188 9.69375 16.8167 8.25 21.125 8.25ZM15.075 41.25H22.775C24.2417 42.6708 25.8459 44.2062 27.5875 45.8563C29.3292 47.5063 31.3 49.3167 33.5 51.2875C35.7 49.3167 37.6709 47.5063 39.4125 45.8563C41.1542 44.2062 42.7584 42.6708 44.225 41.25H51.9938C50.2521 43.175 48.1896 45.2604 45.8063 47.5063C43.4229 49.7521 40.65 52.2958 37.4875 55.1375L33.5 58.7125L29.5125 55.1375C26.35 52.2958 23.5886 49.7521 21.2282 47.5063C18.8677 45.2604 16.8167 43.175 15.075 41.25ZM30.8875 44C31.4834 44 31.999 43.8281 32.4344 43.4844C32.8698 43.1406 33.1792 42.6937 33.3625 42.1437L37.075 30.9375L39.4813 34.5125C39.7104 34.8792 40.0313 35.1771 40.4438 35.4062C40.8563 35.6354 41.2917 35.75 41.75 35.75H63.75V30.25H43.3313L38.5875 23.2375C38.3125 22.825 37.9573 22.5156 37.5219 22.3094C37.0865 22.1031 36.6167 22 36.1125 22C35.5167 22 35.0011 22.1719 34.5657 22.5156C34.1302 22.8594 33.8209 23.3063 33.6375 23.8563L29.925 34.9938L27.5875 31.4875C27.3584 31.1208 27.0375 30.8229 26.625 30.5938C26.2125 30.3646 25.7771 30.25 25.3188 30.25H3.25003V35.75H23.6688L28.4125 42.7625C28.6875 43.175 29.0427 43.4844 29.4782 43.6906C29.9136 43.8969 30.3834 44 30.8875 44Z" fill="#821AEA"/>
</g>
</svg>
