<svg width="46" height="46" viewBox="0 0 46 46" fill="none" xmlns="http://www.w3.org/2000/svg">
<g clip-path="url(#clip0_103_500)">
<path d="M16.7197 6.11347C16.6059 5.92069 16.1135 6.1271 16.0229 5.95214C15.9327 5.77782 16.3902 5.5122 16.6516 4.90542C16.6988 4.796 16.9958 4.10643 16.7759 3.89366C16.3591 3.49035 14.4517 5.15471 13.7842 4.61005C13.6377 4.49053 13.5354 4.25191 13.0921 3.86449C12.9157 3.71037 12.809 3.64078 12.7058 3.66667C12.5593 3.7034 12.5477 3.90029 12.3907 4.2874C12.1552 4.86796 12.0159 4.83291 11.8786 5.2961C11.7768 5.63995 11.8 5.83986 11.6802 5.8788C11.5105 5.93392 11.3544 5.5692 11.1394 5.60186C10.92 5.63519 10.7874 6.05984 10.7455 6.37778C10.6669 6.97442 10.8851 7.36813 11.006 7.78211C11.1374 8.232 11.2153 8.91619 10.9119 9.88476L7.90857 18.3842C8.57161 16.6401 10.4914 11.8592 11.2982 10.0826C11.531 9.56971 11.7882 9.04949 12.3161 8.84418C12.8245 8.64651 13.5226 8.76453 14.4126 8.54917C14.5165 8.52402 14.805 8.4503 14.8413 8.2799C14.8713 8.13902 14.7016 8.06038 14.7277 7.92843C14.7627 7.75144 15.0963 7.74927 15.5063 7.54508C15.7954 7.40109 15.9755 7.22986 16.1304 7.0826C16.1771 7.0382 16.8712 6.3701 16.7197 6.11347Z" fill="#F2F2F2"/>
<path d="M4.90375 10.5881C4.7767 10.5886 4.73549 10.8909 4.62388 10.8851C4.51267 10.8792 4.51488 10.577 4.29381 10.2731C4.25394 10.2183 4.0027 9.87289 3.83528 9.91991C3.51794 10.009 3.78088 11.4295 3.32214 11.6015C3.22147 11.6392 3.07534 11.6208 2.75811 11.7276C2.63191 11.7701 2.56713 11.8026 2.55 11.8609C2.5257 11.9437 2.61855 12.0062 2.7624 12.1954C2.97813 12.479 2.9208 12.5375 3.10754 12.7388C3.24617 12.8883 3.35057 12.9345 3.33501 13.0048C3.31299 13.1043 3.08973 13.0761 3.04366 13.1915C2.99665 13.3092 3.16588 13.4971 3.30915 13.6095C3.57802 13.8204 3.83334 13.8265 4.07051 13.8863C4.32826 13.9514 4.68508 14.1103 5.07081 14.5394L8.35742 18.4723C7.69651 17.6422 5.91429 15.3164 5.27892 14.406C5.0955 14.1433 4.9155 13.8664 4.96752 13.5469C5.01759 13.2392 5.27669 12.9291 5.42825 12.4282C5.44595 12.3697 5.49316 12.2063 5.42037 12.1392C5.36019 12.0838 5.27281 12.1447 5.21585 12.0938C5.13946 12.0255 5.23467 11.8604 5.25318 11.5994C5.26624 11.4153 5.23454 11.2771 5.20727 11.1582C5.19905 11.1224 5.07287 10.5875 4.90375 10.5881Z" fill="#F2F2F2"/>
<path d="M7.43824 11.1595L7.36169 10.4732L7.39667 10.4211C7.55849 10.1805 7.64097 9.9456 7.64196 9.72257C7.64213 9.68712 7.64048 9.65166 7.63883 9.61554C7.63223 9.47238 7.62398 9.29443 7.71636 9.08698C7.76816 8.97133 7.91366 8.70356 8.1324 8.7367C8.19129 8.74499 8.23583 8.77216 8.26964 8.80397C8.27459 8.79602 8.27971 8.78807 8.28515 8.77945C8.35328 8.67506 8.40722 8.63033 8.45918 8.58725C8.49911 8.55411 8.54035 8.51998 8.60501 8.43912C8.63338 8.40366 8.65549 8.37251 8.67413 8.34633C8.73071 8.26713 8.80461 8.17268 8.93493 8.17434C9.07416 8.18097 9.14708 8.29662 9.19541 8.37317C9.28169 8.5097 9.32078 8.60812 9.34668 8.6734C9.35608 8.69727 9.3668 8.72411 9.37225 8.73239C9.41712 8.79867 9.78185 8.7367 9.91926 8.71416C10.2279 8.66247 10.495 8.61773 10.605 8.81325C10.6839 8.95309 10.6253 9.138 10.4257 9.3776C10.3635 9.45216 10.2974 9.50883 10.2386 9.55323C10.2873 9.5824 10.3308 9.62713 10.3485 9.69739C10.3901 9.86374 10.2477 10.0304 9.92553 10.1935C9.84553 10.2342 9.7378 10.2886 9.58686 10.3148C9.51577 10.327 9.45176 10.33 9.39699 10.3317C9.39584 10.3635 9.38842 10.3979 9.36912 10.4334C9.31253 10.5378 9.19475 10.5875 9.01725 10.5756C8.82193 10.5653 8.6611 10.5278 8.51923 10.495C8.39535 10.4665 8.28861 10.4423 8.20481 10.448C8.04942 10.4606 7.92966 10.5855 7.78911 10.7476L7.43824 11.1595Z" fill="#F2F2F2"/>
<path d="M7.79329 7.07315L7.15177 7.32159L7.0928 7.30081C6.82006 7.20461 6.57287 7.18406 6.35785 7.23967C6.32366 7.24851 6.28993 7.25911 6.25556 7.26987C6.11937 7.31259 5.95008 7.36574 5.72688 7.32861C5.60236 7.30762 5.30759 7.23417 5.28402 7.01325C5.27707 6.95393 5.29194 6.90376 5.314 6.86284C5.30508 6.86005 5.29612 6.8571 5.28645 6.85399C5.16864 6.81427 5.11187 6.77321 5.0572 6.73365C5.01516 6.70327 4.97183 6.67186 4.87756 6.62954C4.83622 6.61097 4.80061 6.5974 4.77067 6.58592C4.68005 6.55104 4.57035 6.50319 4.53889 6.37615C4.50996 6.2392 4.60284 6.13903 4.6643 6.07265C4.7739 5.95419 4.85877 5.89124 4.91507 5.84952C4.93566 5.83433 4.95879 5.8171 4.96539 5.80972C5.01783 5.74931 4.86564 5.41066 4.80909 5.28287C4.68102 4.99611 4.57019 4.74798 4.73057 4.59148C4.84524 4.4794 5.03817 4.48939 5.31954 4.62255C5.40712 4.66406 5.47847 4.71396 5.53613 4.75975C5.55187 4.70508 5.58391 4.65142 5.64709 4.61645C5.79675 4.53386 5.99339 4.6299 6.23212 4.90156C6.29167 4.96895 6.37133 5.05982 6.43483 5.19983C6.46467 5.2658 6.48377 5.32723 6.49926 5.38002C6.5302 5.37308 6.56527 5.37155 6.60431 5.3813C6.71919 5.4098 6.79694 5.51163 6.83047 5.68711C6.87012 5.87948 6.87485 6.04524 6.87924 6.1914C6.88322 6.319 6.88699 6.42883 6.91368 6.50882C6.96522 6.6566 7.11591 6.74127 7.30762 6.83672L7.79329 7.07315Z" fill="#F2F2F2"/>
<path d="M7.43824 5.05131L7.36169 4.36501L7.39667 4.31298C7.55849 4.0724 7.64097 3.83744 7.64196 3.61442C7.64213 3.57896 7.64048 3.5435 7.63883 3.50738C7.63223 3.36422 7.62398 3.18627 7.71636 2.97882C7.76816 2.86317 7.91366 2.59541 8.1324 2.62855C8.19129 2.63683 8.23583 2.664 8.26964 2.69582C8.27459 2.68787 8.27971 2.67991 8.28515 2.67129C8.35328 2.56691 8.40722 2.52217 8.45918 2.47909C8.49911 2.44595 8.54035 2.41182 8.60501 2.33096C8.63338 2.29551 8.65549 2.26435 8.67413 2.23817C8.73071 2.15898 8.80461 2.06453 8.93493 2.06618C9.07416 2.07281 9.14708 2.18846 9.19541 2.26502C9.28169 2.40154 9.32078 2.49997 9.34668 2.56525C9.35608 2.58911 9.3668 2.61595 9.37225 2.62424C9.41712 2.69051 9.78185 2.62854 9.91926 2.60601C10.2279 2.55431 10.495 2.50958 10.605 2.70509C10.6839 2.84494 10.6253 3.02985 10.4257 3.26944C10.3635 3.34401 10.2974 3.40067 10.2386 3.44508C10.2873 3.47424 10.3308 3.51898 10.3485 3.58923C10.3901 3.75559 10.2477 3.92228 9.92553 4.08532C9.84553 4.12608 9.7378 4.18043 9.58686 4.20661C9.51577 4.21887 9.45176 4.22186 9.39699 4.22351C9.39584 4.25532 9.38842 4.28979 9.36912 4.32525C9.31253 4.42963 9.19475 4.47934 9.01725 4.46741C8.82193 4.45713 8.6611 4.41969 8.51923 4.38688C8.39535 4.35839 8.28861 4.33419 8.20481 4.33983C8.04942 4.35242 7.92966 4.47735 7.78911 4.6394L7.43824 5.05131Z" fill="#F2F2F2"/>
<path d="M8.13738 18.3731L7.99419 18.2829L7.82724 18.3022C7.8246 18.2866 7.81553 18.2508 7.80184 18.1948C7.72712 17.8879 7.4993 16.9541 7.30927 15.4834C7.17663 14.4567 7.10158 13.4013 7.08607 12.3458C7.07056 11.2887 7.12038 10.4884 7.16031 9.84519C7.19049 9.36004 7.22712 8.89809 7.26308 8.44806C7.35875 7.24579 7.44899 6.11013 7.38185 4.85286C7.367 4.57217 7.33582 3.98794 6.996 3.36626C6.79887 3.00571 6.52734 2.68559 6.18884 2.41518L6.39933 2.14941C6.77297 2.44832 7.07337 2.80291 7.29227 3.20322C7.66905 3.8925 7.70303 4.5291 7.71936 4.83497C7.78765 6.11445 7.69643 7.26104 7.59976 8.47491C7.56413 8.92327 7.52751 9.38324 7.49749 9.8664C7.45789 10.5037 7.40857 11.297 7.42391 12.3405C7.43909 13.3834 7.51332 14.4259 7.64414 15.4396C7.83186 16.8918 8.05638 17.8117 8.13012 18.1139C8.16938 18.2753 8.17763 18.3091 8.13738 18.3731Z" fill="#F2F2F2"/>
<path d="M5.56921 2.95435C5.55535 2.95435 5.54133 2.95402 5.52714 2.95302C5.23945 2.93744 4.97304 2.76446 4.73516 2.43904C4.62365 2.28594 4.56657 2.1113 4.45275 1.76301C4.4351 1.70933 4.34931 1.43693 4.29719 1.06213C4.26304 0.817234 4.26733 0.71484 4.31566 0.62437C4.36928 0.523628 4.45605 0.453376 4.5537 0.405989C4.54942 0.373511 4.55288 0.340042 4.5669 0.305908C4.62447 0.164407 4.77756 0.182966 4.86037 0.191913C4.90227 0.197215 4.95456 0.204174 5.01098 0.20119C5.09973 0.196884 5.1474 0.17037 5.21966 0.130603C5.28877 0.0924925 5.37472 0.0451056 5.50224 0.0189257C5.75364 -0.0337641 5.96429 0.0378154 6.03374 0.0613419C6.39913 0.183622 6.57927 0.468947 6.78778 0.799337C6.82935 0.865614 6.97204 1.10686 7.06624 1.43759C7.1342 1.67618 7.12463 1.78223 7.10418 1.8611C7.06261 2.02314 6.96446 2.11593 6.7152 2.32073C6.45489 2.53514 6.32424 2.64251 6.21206 2.70779C5.95093 2.85923 5.78696 2.95435 5.56921 2.95435Z" fill="#F2F2F2"/>
<path d="M19.6219 45.6091C19.6219 45.6545 19.6582 45.691 19.7034 45.691H36.6277C36.6729 45.691 36.7092 45.6545 36.7092 45.6091C36.7092 45.5871 36.701 45.5679 36.6873 45.5535H30.5469C30.4162 45.5535 30.2882 45.5445 30.1623 45.5273H19.7034C19.6582 45.5273 19.6219 45.5638 19.6219 45.6091Z" fill="#3F3D56"/>
<path d="M11.4451 31.1365H20.8671C22.4633 31.1365 23.7573 32.4362 23.7573 34.0395V41.6309C23.7573 43.2342 22.4633 44.5339 20.8671 44.5339H11.4451C9.84891 44.5339 8.55493 43.2342 8.55493 41.6309V34.0395C8.55493 32.4362 9.84891 31.1365 11.4451 31.1365Z" fill="white"/>
<path d="M8.48645 41.631V34.0396C8.48645 32.401 9.8137 31.0679 11.4451 31.0679H20.867C22.4984 31.0679 23.8257 32.401 23.8257 34.0396V41.631C23.8257 43.2696 22.4984 44.6027 20.867 44.6027H11.4451C9.8137 44.6027 8.48645 43.2696 8.48645 41.631ZM11.4451 31.2054C9.88915 31.2054 8.62333 32.4768 8.62333 34.0396V41.631C8.62333 43.1938 9.88915 44.4652 11.4451 44.4652H20.867C22.423 44.4652 23.6888 43.1938 23.6888 41.631V34.0396C23.6888 32.4768 22.423 31.2054 20.867 31.2054H11.4451Z" fill="#3F3D56"/>
<path d="M14.9676 34.4605H17.078L14.8872 40.9803C14.8411 41.1177 14.7128 41.2102 14.5685 41.2102H12.9261C12.7405 41.2102 12.5901 41.0592 12.5901 40.8728C12.5901 40.8361 12.596 40.7997 12.6077 40.7649L14.6488 34.6904C14.6949 34.553 14.8232 34.4605 14.9676 34.4604L14.9676 34.4605Z" fill="url(#paint0_linear_103_500)"/>
<path d="M18.0343 38.8335H14.6878C14.6022 38.8334 14.5328 38.903 14.5327 38.9889C14.5327 39.0321 14.5505 39.0734 14.582 39.1029L16.7324 41.1189C16.795 41.1775 16.8775 41.2102 16.9631 41.2101H18.858L18.0343 38.8335Z" fill="#0078D4"/>
<path d="M14.9678 34.4605C14.8217 34.4599 14.6922 34.5549 14.6482 34.6948L12.6104 40.7593C12.5478 40.9345 12.6385 41.1275 12.8129 41.1903C12.8495 41.2035 12.8882 41.2102 12.9271 41.2101H14.6119C14.7396 41.1872 14.8452 41.097 14.8883 40.974L15.2947 39.7711L16.7463 41.131C16.8071 41.1815 16.8834 41.2095 16.9623 41.2101H18.8502L18.0222 38.8335L15.6085 38.8341L17.0858 34.4605L14.9678 34.4605Z" fill="url(#paint1_linear_103_500)"/>
<path d="M17.6631 34.69C17.6171 34.5528 17.4889 34.4604 17.3448 34.4604H14.9928C15.137 34.4605 15.2651 34.5528 15.3112 34.69L17.3523 40.7647C17.4117 40.9414 17.3172 41.1329 17.1414 41.1925C17.1068 41.2042 17.0705 41.2102 17.034 41.2102H19.386C19.5716 41.2101 19.722 41.059 19.7219 40.8726C19.7219 40.8359 19.716 40.7995 19.7043 40.7647L17.6631 34.69Z" fill="url(#paint2_linear_103_500)"/>
<path d="M2.95867 14.2258H12.3806C13.9768 14.2258 15.2708 15.5255 15.2708 17.1288V24.7203C15.2708 26.3235 13.9768 27.6232 12.3806 27.6232H2.95867C1.36246 27.6232 0.0684814 26.3235 0.0684814 24.7202V17.1288C0.0684814 15.5255 1.36246 14.2258 2.95867 14.2258Z" fill="white"/>
<path d="M0 24.7204V17.129C0 15.4904 1.32725 14.1572 2.95863 14.1572H12.3806C14.012 14.1572 15.3392 15.4904 15.3392 17.129V24.7204C15.3392 26.359 14.012 27.6921 12.3806 27.6921H2.95863C1.32725 27.6921 0 26.359 0 24.7204ZM2.95863 14.2947C1.4027 14.2947 0.136879 15.5661 0.136879 17.129V24.7204C0.136879 26.2832 1.4027 27.5546 2.95863 27.5546H12.3806C13.9365 27.5546 15.2023 26.2832 15.2023 24.7204V17.129C15.2023 15.5661 13.9365 14.2947 12.3806 14.2947L2.95863 14.2947Z" fill="#3F3D56"/>
<path d="M5.78785 21.0408C5.78785 21.1474 5.79932 21.2338 5.8194 21.2972C5.84235 21.3606 5.87103 21.4297 5.91119 21.5047C5.92553 21.5277 5.93127 21.5507 5.93127 21.5709C5.93127 21.5997 5.91406 21.6285 5.87677 21.6573L5.69606 21.7784C5.67024 21.7956 5.64443 21.8043 5.62148 21.8043C5.59279 21.8043 5.56411 21.7899 5.53543 21.764C5.49527 21.7207 5.46085 21.6746 5.43216 21.6285C5.40348 21.5796 5.3748 21.5248 5.34324 21.4586C5.11951 21.7236 4.8384 21.8561 4.49993 21.8561C4.25899 21.8561 4.0668 21.787 3.92625 21.6487C3.7857 21.5104 3.71399 21.326 3.71399 21.0955C3.71399 20.8506 3.80004 20.6518 3.97501 20.502C4.14999 20.3522 4.38233 20.2773 4.67777 20.2773C4.7753 20.2773 4.87569 20.2859 4.98182 20.3003C5.08795 20.3147 5.19695 20.3378 5.31169 20.3637V20.1534C5.31169 19.9344 5.2658 19.7817 5.17688 19.6924C5.08509 19.6031 4.93019 19.5599 4.70932 19.5599C4.60893 19.5599 4.50567 19.5714 4.39954 19.5974C4.29341 19.6233 4.19014 19.655 4.08975 19.6953C4.04385 19.7155 4.00943 19.727 3.98936 19.7328C3.96928 19.7385 3.95493 19.7414 3.94346 19.7414C3.9033 19.7414 3.88322 19.7126 3.88322 19.6521V19.5109C3.88322 19.4648 3.88896 19.4302 3.9033 19.4101C3.91764 19.3899 3.94346 19.3697 3.98362 19.3496C4.08401 19.2977 4.20449 19.2545 4.34504 19.2199C4.48559 19.1825 4.63475 19.1652 4.79251 19.1652C5.13385 19.1652 5.3834 19.243 5.54403 19.3986C5.70179 19.5541 5.78211 19.7904 5.78211 20.1073V21.0408L5.78785 21.0408ZM4.62327 21.4787C4.71793 21.4787 4.81546 21.4614 4.91872 21.4269C5.02198 21.3923 5.11377 21.3289 5.19122 21.2425C5.23711 21.1877 5.27153 21.1272 5.28874 21.0581C5.30595 20.9889 5.31743 20.9054 5.31743 20.8074V20.6864C5.23424 20.6662 5.14532 20.649 5.05353 20.6374C4.96175 20.6259 4.87282 20.6201 4.7839 20.6201C4.59172 20.6201 4.45117 20.6576 4.35651 20.7354C4.26185 20.8132 4.21596 20.9227 4.21596 21.0667C4.21596 21.2021 4.25038 21.303 4.32209 21.3721C4.39093 21.4441 4.49133 21.4787 4.62327 21.4787ZM6.9266 21.7899C6.87497 21.7899 6.84055 21.7812 6.8176 21.7611C6.79466 21.7438 6.77458 21.7034 6.75737 21.6487L6.08329 19.4216C6.06608 19.364 6.05748 19.3265 6.05748 19.3064C6.05748 19.2603 6.08042 19.2343 6.12632 19.2343H6.40742C6.46192 19.2343 6.49921 19.243 6.51929 19.2631C6.54224 19.2804 6.55945 19.3208 6.57666 19.3755L7.05855 21.2828L7.50602 19.3755C7.52036 19.3179 7.53757 19.2804 7.56052 19.2631C7.58347 19.2459 7.62363 19.2343 7.67526 19.2343H7.90473C7.95923 19.2343 7.99652 19.243 8.01947 19.2631C8.04241 19.2804 8.06249 19.3208 8.07397 19.3755L8.52717 21.3059L9.02341 19.3755C9.04062 19.3179 9.0607 19.2804 9.08077 19.2631C9.10372 19.2459 9.14101 19.2343 9.19264 19.2343H9.4594C9.5053 19.2343 9.53111 19.2574 9.53111 19.3064C9.53111 19.3208 9.52825 19.3352 9.52538 19.3525C9.52251 19.3697 9.51677 19.3928 9.5053 19.4245L8.81401 21.6516C8.7968 21.7092 8.77672 21.7467 8.75378 21.764C8.73083 21.7812 8.69354 21.7928 8.64478 21.7928H8.39809C8.34359 21.7928 8.30631 21.7841 8.28336 21.764C8.26041 21.7438 8.24033 21.7063 8.22886 21.6487L7.78426 19.7904L7.34252 21.6458C7.32818 21.7034 7.31097 21.7409 7.28802 21.7611C7.26507 21.7812 7.22492 21.7899 7.17329 21.7899L6.9266 21.7899ZM10.6125 21.8677C10.4633 21.8677 10.3142 21.8504 10.1708 21.8158C10.0273 21.7812 9.91548 21.7438 9.8409 21.7006C9.79501 21.6746 9.76345 21.6458 9.75198 21.6199C9.74051 21.594 9.73477 21.5652 9.73477 21.5392V21.3923C9.73477 21.3318 9.75772 21.303 9.80074 21.303C9.81795 21.303 9.83517 21.3059 9.85238 21.3116C9.86959 21.3174 9.8954 21.3289 9.92409 21.3404C10.0216 21.3836 10.1277 21.4182 10.2396 21.4413C10.3543 21.4643 10.4662 21.4758 10.581 21.4758C10.7617 21.4758 10.9022 21.4441 10.9997 21.3808C11.0973 21.3174 11.1489 21.2252 11.1489 21.1071C11.1489 21.0264 11.1231 20.9601 11.0714 20.9054C11.0198 20.8506 10.9223 20.8017 10.7817 20.7556L10.3658 20.6259C10.1564 20.5596 10.0015 20.4617 9.90688 20.332C9.81222 20.2053 9.76346 20.0641 9.76346 19.9143C9.76346 19.7933 9.78927 19.6867 9.8409 19.5945C9.89253 19.5023 9.96138 19.4216 10.0474 19.3582C10.1335 19.292 10.231 19.243 10.3457 19.2084C10.4605 19.1738 10.581 19.1594 10.7072 19.1594C10.7703 19.1594 10.8362 19.1623 10.8993 19.1709C10.9653 19.1796 11.0256 19.1911 11.0858 19.2026C11.1432 19.217 11.1977 19.2315 11.2493 19.2487C11.3009 19.266 11.3411 19.2833 11.3698 19.3006C11.4099 19.3237 11.4386 19.3467 11.4558 19.3726C11.473 19.3957 11.4816 19.4274 11.4816 19.4677V19.6031C11.4816 19.6636 11.4587 19.6953 11.4157 19.6953C11.3927 19.6953 11.3554 19.6838 11.3067 19.6607C11.1432 19.5858 10.9596 19.5484 10.7559 19.5484C10.5924 19.5484 10.4633 19.5743 10.3744 19.629C10.2855 19.6838 10.2396 19.7673 10.2396 19.8855C10.2396 19.9661 10.2683 20.0353 10.3257 20.09C10.383 20.1448 10.4892 20.1995 10.6412 20.2485L11.0485 20.3781C11.255 20.4444 11.4042 20.5366 11.4931 20.6547C11.582 20.7728 11.6251 20.9083 11.6251 21.0581C11.6251 21.182 11.5992 21.2943 11.5505 21.3923C11.4988 21.4902 11.43 21.5767 11.3411 21.6458C11.2522 21.7179 11.146 21.7697 11.0227 21.8072C10.8936 21.8475 10.7588 21.8677 10.6125 21.8677Z" fill="#252F3E"/>
<path fill-rule="evenodd" clip-rule="evenodd" d="M11.1547 23.2678C10.211 23.9679 8.83986 24.3396 7.66095 24.3396C6.00875 24.3396 4.52004 23.7259 3.39563 22.706C3.30671 22.6253 3.38702 22.5158 3.49316 22.5792C4.70936 23.288 6.20954 23.7173 7.76134 23.7173C8.80831 23.7173 9.95854 23.4983 11.017 23.0489C11.1747 22.9768 11.3096 23.1526 11.1547 23.2678Z" fill="#FF9900"/>
<path fill-rule="evenodd" clip-rule="evenodd" d="M11.5476 22.8184C11.4272 22.6628 10.7502 22.7435 10.4433 22.781C10.3515 22.7925 10.3372 22.7118 10.4204 22.6513C10.9596 22.271 11.846 22.3805 11.9492 22.5073C12.0525 22.6369 11.9205 23.5272 11.4157 23.9536C11.3383 24.0199 11.2637 23.9853 11.2981 23.8988C11.4128 23.6136 11.6681 22.9711 11.5476 22.8184Z" fill="#FF9900"/>
<path d="M29.3215 19.2818C29.253 19.213 28.7055 17.7694 28.7055 17.7694L27.4052 17.7007L26.8102 19.1096L29.3215 19.2818Z" fill="#FFB6B6"/>
<path d="M27.4767 18.3656C28.4434 18.3656 29.227 17.5785 29.227 16.6075C29.227 15.6365 28.4434 14.8494 27.4767 14.8494C26.51 14.8494 25.7263 15.6365 25.7263 16.6075C25.7263 17.5785 26.51 18.3656 27.4767 18.3656Z" fill="#FFB6B6"/>
<path d="M30.793 28.8024L31.4089 30.8647L29.7664 42.8259H28.6544L28.0554 33.8206L27.371 36.914L30.8614 41.3823L29.9717 42.4134L24.9414 37.4983L25.0441 29.9023L25.4547 28.7336L30.793 28.8024Z" fill="#2F2E41"/>
<path d="M28.9441 18.0518L28.8074 18.0586C28.8074 18.0586 28.6851 16.9634 28.6134 16.8981C28.5417 16.8329 28.4117 16.9769 28.4117 16.9769C28.4117 16.9769 27.848 16.6607 27.8312 16.3174C27.8143 15.9741 27.8009 15.6995 27.5958 15.7096C27.3907 15.7198 26.2421 16.0519 25.9687 16.0654C25.6953 16.079 25.2616 15.6187 25.7199 15.183C26.1781 14.7474 26.5815 14.5898 26.6465 14.5177C26.7115 14.4457 27.1394 14.1492 27.5132 14.406C27.8871 14.6628 28.3655 14.6392 28.3655 14.6392C28.3655 14.6392 29.2643 14.8012 29.1478 15.2199C29.0313 15.6386 29.4818 16.4422 29.297 16.8643C29.1121 17.2864 28.9441 18.0518 28.9441 18.0518Z" fill="#2F2E41"/>
<path d="M28.6028 42.6196L29.8347 42.7571L29.9716 45.0256C29.9716 45.0256 29.9031 46.1255 28.7397 45.988C27.5762 45.8505 27.9184 44.7506 27.9184 44.7506L28.6028 42.6196Z" fill="#2F2E41"/>
<path d="M30.2112 41.0044C30.2112 41.0044 31.1009 40.5919 31.2378 41.0731L31.5115 42.0355C31.5115 42.0355 31.5115 42.9979 31.58 43.0666C31.6484 43.1354 32.9487 44.9227 31.7853 45.8851C31.7853 45.8851 31.1693 45.9538 30.8271 44.9914C30.4849 44.029 29.4583 43.0666 29.4583 43.0666C29.4583 43.0666 29.2595 42.5854 29.5985 42.6198C29.9374 42.6542 30.4165 41.8293 30.2796 41.5543C30.1427 41.2793 30.2112 41.0044 30.2112 41.0044Z" fill="#2F2E41"/>
<path d="M18.9118 32.0234C18.5934 31.8887 18.5061 31.3721 18.7169 30.8694C18.7984 30.6674 18.9268 30.488 19.0915 30.3461L19.3374 29.7794L19.3286 29.7734L20.0358 26.9424C20.2003 26.2842 20.653 25.7289 21.2748 25.4633C21.6446 25.3053 21.9956 25.2767 22.0977 25.6553C22.267 26.2834 21.164 28.3068 20.4989 29.4452L19.9808 30.7223C19.9948 30.9398 19.9567 31.1576 19.8698 31.3573C19.6591 31.8599 19.2302 32.1581 18.9118 32.0234Z" fill="#FFB6B6"/>
<path d="M26.8577 18.8691L29.1162 18.9379L31.3062 19.9003L30.964 25.6059C30.964 25.6059 31.3747 26.912 31.1693 27.1182C30.964 27.3245 31.1693 28.249 31.0325 28.2679C30.8956 28.2869 31.0325 29.2812 31.0325 29.2812C31.0325 29.2812 29.1162 28.6306 27.4736 29.043C25.8311 29.4555 25.2836 28.7681 25.2836 28.7681C25.2836 28.7681 24.8729 27.1182 24.8729 26.7745V19.746L26.8577 18.8691Z" fill="#6C63FF"/>
<path d="M25.2494 19.7284C25.2494 19.7284 24.2912 19.4534 23.8121 20.1408C23.3331 20.8283 23.0593 20.8283 23.0593 21.7219C23.0593 21.7219 20.2533 25.709 20.3902 26.1214L19.74 27.1869L21.3825 28.0806C21.3825 28.0806 21.9643 27.4963 21.9643 26.9463C21.9643 26.3964 23.6068 24.8841 23.6068 24.8841C23.6068 24.8841 25.044 23.028 25.1125 22.3406C25.1809 21.6532 25.2494 19.7284 25.2494 19.7284Z" fill="#6C63FF"/>
<path d="M33.6878 32.3738H43.1097C44.7059 32.3738 45.9999 33.6735 45.9999 35.2768V42.8682C45.9999 44.4715 44.706 45.7712 43.1098 45.7712H33.6878C32.0916 45.7712 30.7976 44.4715 30.7976 42.8682V35.2768C30.7976 33.6735 32.0916 32.3738 33.6878 32.3738Z" fill="white"/>
<path d="M30.6608 42.7995V35.2081C30.6608 33.5695 31.988 32.2363 33.6194 32.2363H43.0414C44.6727 32.2363 46 33.5695 46 35.2081V42.7995C46 44.4381 44.6727 45.7712 43.0414 45.7712H33.6194C31.988 45.7712 30.6608 44.4381 30.6608 42.7995ZM33.6194 32.3738C32.0635 32.3738 30.7976 33.6452 30.7976 35.2081V42.7995C30.7976 44.3623 32.0635 45.6337 33.6194 45.6337H43.0414C44.5973 45.6337 45.8631 44.3623 45.8631 42.7995V35.2081C45.8631 33.6452 44.5973 32.3738 43.0414 32.3738H33.6194Z" fill="#3F3D56"/>
<path d="M39.5982 37.6815H39.8307L40.4933 37.0159L40.5258 36.7333C39.2926 35.64 37.4105 35.7579 36.322 36.9966C36.0197 37.3406 35.8002 37.75 35.6805 38.1929C35.7544 38.1625 35.8361 38.1576 35.913 38.1789L37.2383 37.9594C37.2383 37.9594 37.3057 37.8473 37.3406 37.8543C37.9301 37.204 38.9222 37.1282 39.6028 37.6815L39.5982 37.6815Z" fill="#EA4335"/>
<path d="M41.4372 38.1928C41.2849 37.6295 40.9722 37.123 40.5374 36.7356L39.6074 37.6697C40.0002 37.992 40.2238 38.4775 40.2143 38.9868V39.1526C40.6714 39.1526 41.042 39.5248 41.042 39.984C41.042 40.4432 40.6714 40.8154 40.2143 40.8154H38.5589L38.3938 40.9835V41.9807L38.5589 42.1465H40.2143C41.4033 42.1558 42.3747 41.1952 42.3839 40.0009C42.3895 39.277 42.0342 38.5984 41.4372 38.1928Z" fill="#4285F4"/>
<path d="M36.9012 42.1373H38.5566V40.8062H36.9012C36.7833 40.8061 36.6667 40.7807 36.5595 40.7314L36.327 40.8038L35.6597 41.4694L35.6016 41.7029C35.9758 41.9867 36.4323 42.1393 36.9012 42.1373Z" fill="#34A853"/>
<path d="M36.9012 37.8194C35.7122 37.8265 34.754 38.8004 34.7611 39.9947C34.7651 40.6616 35.0752 41.2894 35.6015 41.6959L36.5617 40.7315C36.1452 40.5424 35.96 40.05 36.1482 39.6315C36.3365 39.2131 36.8267 39.0272 37.2433 39.2162C37.4269 39.2995 37.5739 39.4472 37.6568 39.6315L38.617 38.6671C38.2085 38.1306 37.5736 37.8169 36.9012 37.8194Z" fill="#FBBC05"/>
<path d="M32.6806 33.5788C33.0257 33.5606 33.2823 33.1044 33.2539 32.5597C33.2455 32.3419 33.1853 32.1293 33.0784 31.9397L33.0385 31.3229L33.0488 31.3203L33.3401 28.4162C33.4079 27.741 33.1696 27.0643 32.6745 26.6025C32.38 26.3278 32.0595 26.1813 31.8356 26.5026C31.464 27.0357 31.8179 29.315 32.0588 30.6126L32.1147 31.9905C32.028 32.1903 31.9902 32.4081 32.0046 32.6256C32.0329 33.1702 32.3356 33.5969 32.6806 33.5788Z" fill="#FFB6B6"/>
<path d="M30.8736 19.8533C30.8736 19.8533 31.8678 19.9213 32.0862 20.7312C32.3045 21.5411 32.562 21.6344 32.2601 22.4751C32.2601 22.4751 33.5523 27.182 33.2842 27.5233L33.5358 28.7472L31.6888 29.0279C31.6888 29.0279 31.339 28.28 31.5248 27.7627C31.7106 27.2454 30.6766 25.2629 30.6766 25.2629C30.6766 25.2629 29.9518 23.0271 30.1197 22.3571C30.2876 21.6871 30.8736 19.8533 30.8736 19.8533Z" fill="#6C63FF"/>
</g>
<defs>
<linearGradient id="paint0_linear_103_500" x1="15.7368" y1="34.9607" x2="13.5277" y2="41.4582" gradientUnits="userSpaceOnUse">
<stop stop-color="#114A8B"/>
<stop offset="1" stop-color="#0669BC"/>
</linearGradient>
<linearGradient id="paint1_linear_103_500" x1="16.4215" y1="37.9913" x2="15.9141" y2="38.1621" gradientUnits="userSpaceOnUse">
<stop stop-opacity="0.3"/>
<stop offset="0.071" stop-opacity="0.2"/>
<stop offset="0.321" stop-opacity="0.1"/>
<stop offset="0.623" stop-opacity="0.05"/>
<stop offset="1" stop-opacity="0"/>
</linearGradient>
<linearGradient id="paint2_linear_103_500" x1="16.1584" y1="34.765" x2="18.5829" y2="41.1958" gradientUnits="userSpaceOnUse">
<stop stop-color="#3CCBF4"/>
<stop offset="1" stop-color="#2892DF"/>
</linearGradient>
<clipPath id="clip0_103_500">
<rect width="46" height="46" fill="white"/>
</clipPath>
</defs>
</svg>
