<svg width="48" height="42" viewBox="0 0 48 42" fill="none" xmlns="http://www.w3.org/2000/svg">
<g clip-path="url(#clip0_101_723)">
<path d="M25.9628 6.5349C27.5173 5.36841 29.706 4.92123 31.4185 5.83126C29.4906 6.68153 27.9209 8.19707 26.9872 10.1097C26.6297 10.8487 26.3079 11.7084 25.5703 12.05C25.1114 12.2625 24.5698 12.2214 24.0946 12.0498C23.6194 11.8782 23.1966 11.5867 22.7798 11.2983L22.6548 11.283C23.3966 9.47015 24.4082 7.70139 25.9628 6.5349Z" fill="#F0F0F0"/>
<path d="M31.4046 5.87C29.8056 5.92089 28.2631 6.48224 26.9961 7.47432C26.7196 7.68298 26.4773 7.9346 26.2779 8.21992C26.0926 8.50423 25.9855 8.83378 25.968 9.17431C25.9453 9.49149 25.9583 9.8186 25.8601 10.1247C25.8076 10.2806 25.7232 10.4234 25.6125 10.5439C25.5018 10.6644 25.3673 10.7597 25.2178 10.8236C24.8493 10.9928 24.4429 11.0174 24.0447 11.0274C23.6026 11.0385 23.1432 11.043 22.7411 11.2544C22.6924 11.28 22.6561 11.2018 22.7048 11.1762C23.4043 10.8083 24.2218 11.0483 24.9571 10.8293C25.3001 10.7272 25.615 10.5194 25.7527 10.1717C25.8732 9.86762 25.8601 9.53029 25.8803 9.20894C25.8926 8.87648 25.9849 8.55215 26.1491 8.26428C26.3335 7.96957 26.5659 7.70888 26.8365 7.49339C27.4378 6.99836 28.1121 6.60247 28.8346 6.3202C29.6573 5.99341 30.5291 5.81199 31.4121 5.78379C31.4667 5.78207 31.4589 5.86829 31.4046 5.87Z" fill="white"/>
<path d="M27.3856 7.13048C27.2506 6.89196 27.2035 6.61245 27.2526 6.34188C27.3017 6.07131 27.444 5.8273 27.6539 5.65341C27.6965 5.61838 27.7521 5.68396 27.7094 5.71904C27.5137 5.8806 27.3812 6.10791 27.3359 6.35996C27.2907 6.61201 27.3356 6.87219 27.4626 7.09354C27.4902 7.14167 27.413 7.17834 27.3856 7.13048Z" fill="white"/>
<path d="M25.9587 9.01196C26.492 9.16336 27.0618 9.10504 27.5546 8.84862C27.6034 8.82317 27.6397 8.90145 27.591 8.92686C27.0777 9.19273 26.4845 9.25219 25.93 9.0934C25.8771 9.07823 25.9062 8.99687 25.9587 9.01196Z" fill="white"/>
<path d="M29.6533 6.10806C29.6866 6.21141 29.7447 6.30474 29.8222 6.37966C29.8998 6.45459 29.9945 6.50876 30.0978 6.53732C30.1508 6.55181 30.1217 6.63316 30.0691 6.61877C29.9551 6.58667 29.8506 6.52671 29.7647 6.44413C29.6788 6.36154 29.6141 6.25884 29.5763 6.145C29.5718 6.13458 29.5714 6.12282 29.5752 6.11212C29.579 6.10142 29.5866 6.09259 29.5966 6.08741C29.6068 6.08257 29.6185 6.08203 29.6291 6.0859C29.6397 6.08976 29.6484 6.09773 29.6533 6.10806Z" fill="white"/>
<path d="M32.7763 12.3336C32.7429 12.3255 32.7095 12.3174 32.6756 12.3098C32.2267 12.2035 31.7699 12.1343 31.3099 12.1031C31.2744 12.1001 31.2383 12.0976 31.2028 12.0956C30.0937 12.0324 28.9827 12.1788 27.9263 12.5275C27.506 12.6667 27.0968 12.8381 26.7021 13.0403C26.1571 13.3196 25.5881 13.6665 25.0013 13.7443C24.9402 13.7531 24.8786 13.7581 24.8168 13.7592L22.6461 11.4391C22.6438 11.4313 22.6409 11.424 22.6386 11.4162L22.5477 11.3276C22.5674 11.3157 22.588 11.3038 22.6076 11.2919C22.619 11.285 22.6308 11.2786 22.6422 11.2716C22.6499 11.2672 22.6577 11.2627 22.6644 11.2583C22.667 11.2568 22.6696 11.2553 22.6716 11.2543C22.6783 11.2498 22.685 11.2464 22.6912 11.2424C22.8063 11.1757 22.922 11.1096 23.0384 11.0443C23.039 11.0438 23.039 11.0438 23.04 11.0438C23.9281 10.5481 24.8647 10.1235 25.835 9.85668C25.8642 9.84867 25.8939 9.84012 25.9241 9.83317C26.3621 9.71538 26.8089 9.63416 27.2599 9.59031C27.507 9.56711 27.755 9.55662 28.0032 9.5589C28.6442 9.56603 29.2802 9.67554 29.8877 9.88341C31.0988 10.298 32.1659 11.1014 32.7337 12.2458C32.7482 12.275 32.7623 12.3038 32.7763 12.3336Z" fill="#F0F0F0"/>
<path d="M32.7423 12.3564C31.4355 11.4191 29.8711 10.924 28.2715 10.9412C27.9271 10.9388 27.5844 10.9914 27.2561 11.0973C26.9396 11.211 26.6588 11.4087 26.443 11.6698C26.2369 11.9092 26.0534 12.1783 25.7936 12.3627C25.6592 12.455 25.5072 12.5175 25.3474 12.546C25.1876 12.5744 25.0237 12.5683 24.8664 12.5279C24.4719 12.4376 24.1329 12.2087 23.809 11.9732C23.4494 11.7117 23.08 11.4343 22.6336 11.3572C22.5795 11.3479 22.5969 11.2632 22.6509 11.2725C23.4276 11.4066 23.938 12.0982 24.6548 12.373C24.9893 12.5013 25.3639 12.5279 25.68 12.3345C25.9564 12.1654 26.1458 11.8881 26.3524 11.6438C26.5593 11.3859 26.8253 11.1834 27.127 11.054C27.4489 10.9314 27.789 10.8655 28.1327 10.8588C28.9063 10.8314 29.6793 10.9276 30.4235 11.1441C31.2741 11.3863 32.0777 11.7746 32.7994 12.2921C32.844 12.3242 32.7867 12.3882 32.7423 12.3564Z" fill="white"/>
<path d="M28.7862 10.9049C28.8198 10.6319 28.9479 10.3799 29.1475 10.1939C29.3471 10.0079 29.6053 9.90008 29.8759 9.88962C29.9307 9.88769 29.9362 9.97406 29.8814 9.97599C29.6293 9.98526 29.3888 10.0857 29.2033 10.2593C29.0178 10.4329 28.8994 10.6681 28.8696 10.9225C28.8631 10.9778 28.7797 10.9599 28.7862 10.9049Z" fill="white"/>
<path d="M26.5317 11.5345C26.8678 11.9815 27.3573 12.2834 27.9028 12.3801C27.9568 12.3896 27.9394 12.4743 27.8855 12.4648C27.318 12.3631 26.8092 12.0479 26.4605 11.5819C26.4273 11.5375 26.4987 11.4903 26.5317 11.5345Z" fill="white"/>
<path d="M31.203 11.4754C31.1683 11.5783 31.1593 11.6883 31.1769 11.7956C31.1944 11.9029 31.2379 12.004 31.3035 12.09C31.3372 12.134 31.2657 12.1812 31.2322 12.1375C31.1602 12.0421 31.1123 11.9303 31.0927 11.8119C31.0731 11.6934 31.0823 11.5718 31.1196 11.4578C31.1222 11.4468 31.1289 11.4371 31.1382 11.4309C31.1476 11.4247 31.1589 11.4223 31.1699 11.4243C31.181 11.4266 31.1906 11.4334 31.1968 11.4429C31.203 11.4525 31.2052 11.4642 31.203 11.4754Z" fill="white"/>
<path d="M25.5525 8.27028H25.3843V3.58926C25.3843 3.23347 25.3153 2.88117 25.1813 2.55247C25.0473 2.22377 24.8508 1.9251 24.6031 1.67353C24.3555 1.42195 24.0614 1.22239 23.7378 1.08624C23.4142 0.950082 23.0674 0.880005 22.7172 0.880005H12.9538C12.6035 0.880004 12.2567 0.95008 11.9331 1.08623C11.6095 1.22238 11.3155 1.42194 11.0678 1.67352C10.8202 1.9251 10.6237 2.22376 10.4897 2.55246C10.3556 2.88116 10.2866 3.23346 10.2866 3.58925V29.2697C10.2866 29.9883 10.5676 30.6774 11.0678 31.1854C11.568 31.6935 12.2464 31.979 12.9538 31.979H22.7171C23.4245 31.979 24.1029 31.6935 24.6031 31.1855C25.1033 30.6774 25.3843 29.9883 25.3843 29.2697V11.6023H25.5525V8.27028Z" fill="#3F3D56"/>
<path d="M22.8248 1.58486H21.5503C21.6089 1.73081 21.6313 1.88917 21.6155 2.04597C21.5996 2.20278 21.5461 2.35323 21.4595 2.48405C21.373 2.61488 21.2561 2.72208 21.1191 2.79621C20.9822 2.87033 20.8294 2.90911 20.6742 2.90912H15.0809C14.9257 2.90911 14.7729 2.87034 14.6359 2.79621C14.499 2.72208 14.3821 2.61489 14.2955 2.48406C14.209 2.35323 14.1554 2.20278 14.1396 2.04597C14.1237 1.88917 14.1461 1.73081 14.2047 1.58485H13.0144C12.4861 1.58485 11.9795 1.79802 11.606 2.17745C11.2324 2.55688 11.0226 3.07149 11.0226 3.60809V29.2509C11.0226 29.5166 11.0741 29.7797 11.1742 30.0251C11.2743 30.2706 11.421 30.4936 11.606 30.6815C11.7909 30.8694 12.0105 31.0184 12.2522 31.1201C12.4938 31.2218 12.7528 31.2741 13.0144 31.2741H22.8248C23.0863 31.2741 23.3453 31.2218 23.587 31.1201C23.8287 31.0184 24.0482 30.8694 24.2332 30.6815C24.4182 30.4936 24.5649 30.2706 24.665 30.0251C24.7651 29.7797 24.8166 29.5166 24.8166 29.2509V3.60809C24.8166 3.07149 24.6067 2.55688 24.2332 2.17745C23.8597 1.79802 23.353 1.58486 22.8248 1.58486Z" fill="white"/>
<path d="M18.1081 23.0367C17.3857 23.0374 16.6702 22.8933 16.0027 22.6128C15.3351 22.3323 14.7286 21.9209 14.2177 21.402C13.7069 20.8831 13.3018 20.267 13.0257 19.5889C12.7495 18.9108 12.6077 18.184 12.6084 17.4502C12.6074 16.4198 12.8873 15.4092 13.4172 14.5305C13.9472 13.6519 14.7063 12.9395 15.6105 12.4723C16.2659 12.1336 16.9814 11.9315 17.7149 11.8781C18.4484 11.8246 19.185 11.9208 19.8813 12.1609C21.1145 12.5878 22.1585 13.4455 22.8274 14.5811C23.4962 15.7168 23.7465 17.0568 23.5336 18.3624C23.3207 19.668 22.6586 20.8544 21.665 21.7105C20.6714 22.5665 19.411 23.0364 18.1081 23.0367ZM18.1081 12.0828C17.2738 12.0803 16.451 12.2808 15.7085 12.6674C15.0596 13.0033 14.486 13.4718 14.0237 14.0435C13.5615 14.6153 13.2206 15.2779 13.0224 15.9898C12.8243 16.7018 12.7732 17.4476 12.8723 18.1806C12.9714 18.9135 13.2187 19.6177 13.5985 20.249C13.9783 20.8803 14.4825 21.425 15.0794 21.849C15.6763 22.2729 16.353 22.5669 17.0671 22.7126C17.7812 22.8582 18.5172 22.8523 19.229 22.6953C19.9407 22.5383 20.6128 22.2335 21.2031 21.8C21.4884 21.5909 21.7523 21.353 21.9908 21.0901C22.688 20.3237 23.1502 19.3675 23.3206 18.3384C23.4911 17.3094 23.3624 16.2521 22.9503 15.2962C22.5383 14.3403 21.8607 13.5272 21.0007 12.9565C20.1407 12.3857 19.1354 12.0821 18.1081 12.0828Z" fill="#F0F0F0"/>
<path d="M6.19104 12.4924C6.342 12.5116 6.48697 12.5642 6.61575 12.6465C6.74453 12.7288 6.85397 12.8388 6.93638 12.9687C7.01879 13.0986 7.07215 13.2453 7.09271 13.3984C7.11327 13.5515 7.10053 13.7074 7.05538 13.8549L8.88267 15.401L8.22855 16.7581L5.67826 14.538C5.4392 14.4445 5.24221 14.2652 5.12461 14.034C5.00701 13.8029 4.97696 13.5359 5.04017 13.2838C5.10338 13.0316 5.25545 12.8118 5.46756 12.6659C5.67967 12.5201 5.93709 12.4583 6.19104 12.4924Z" fill="#FFB6B6"/>
<path d="M23.257 18.9399C23.2203 18.5397 23.0688 17.8204 22.9403 17.5544C22.5451 16.5037 19.9916 15.6402 19.6487 15.5289L19.5618 14.5467L16.0139 14.1589L15.5638 15.4149L14.2914 15.8998C14.205 15.9326 14.1268 15.9843 14.0624 16.0513C13.998 16.1184 13.949 16.1991 13.919 16.2876L12.7773 16.6228L11.6508 16.9536L7.73699 14.1523L7.55221 14.275L6.31713 15.0936L6.12659 15.22L11.1914 19.8615L13.0728 19.4131L14.4876 19.075L14.6084 19.573L14.2957 21.3227C15.2017 22.2434 16.401 22.806 17.6784 22.9097C18.9558 23.0134 20.2278 22.6514 21.2663 21.8887L22.07 21.1643C22.6302 20.549 23.0437 19.8112 23.2785 19.0078L23.257 18.9399Z" fill="#E4E4E4"/>
<path d="M18.9025 13.3556C20.2418 12.9052 20.9681 11.4372 20.5247 10.0768C20.0812 8.71634 18.636 7.97863 17.2967 8.42906C15.9574 8.87949 15.2312 10.3475 15.6746 11.7079C16.118 13.0684 17.5632 13.8061 18.9025 13.3556Z" fill="#FFB6B6"/>
<path d="M16.0819 7.93423C16.3302 7.57398 16.7029 7.32182 17.1259 7.22786C17.5441 7.14049 17.9793 7.22159 18.3398 7.45403C18.7317 7.29365 19.1543 7.18725 19.5695 7.24134C19.9847 7.29543 20.3916 7.53101 20.5838 7.91912C20.6242 8.01965 20.6732 8.11639 20.7303 8.2082C20.8996 8.43759 21.2141 8.46734 21.4919 8.47836C21.3515 8.56157 21.211 8.64477 21.0705 8.72797C21.2105 8.79423 21.3505 8.86049 21.4905 8.92677C21.3 9.00065 21.1094 9.07453 20.9189 9.14842C21.3624 9.54439 21.4697 10.2491 21.3017 10.8399C21.1427 11.3993 20.7783 11.8702 20.3713 12.2733C20.2918 11.9725 20.3792 11.6464 20.4374 11.3349C20.4988 11.0059 20.5086 10.6211 20.2818 10.3888C20.1288 10.2321 19.9044 10.1847 19.6927 10.1467C18.6252 9.95493 17.5478 9.82498 16.4658 9.7575C16.3209 9.73717 16.1734 9.75247 16.0356 9.80211C15.7723 9.92096 15.6665 10.2474 15.5902 10.5368C15.5537 10.0288 15.5829 9.51808 15.6771 9.01776C15.7492 8.63484 15.863 8.25157 16.0819 7.93423Z" fill="#2F2E41"/>
<path d="M19.4022 25.6687H16.3827C16.2778 25.6687 16.1773 25.6264 16.1031 25.5511C16.029 25.4757 15.9873 25.3736 15.9873 25.2671C15.9873 25.1605 16.029 25.0584 16.1031 24.9831C16.1773 24.9077 16.2778 24.8654 16.3827 24.8654H19.4022C19.507 24.8654 19.6076 24.9077 19.6818 24.9831C19.7559 25.0584 19.7976 25.1605 19.7976 25.2671C19.7976 25.3736 19.7559 25.4757 19.6818 25.5511C19.6076 25.6264 19.507 25.6687 19.4022 25.6687Z" fill="url(#paint0_linear_101_723)"/>
<path d="M9.4942 4.17532H1.18892C1.11239 4.17519 1.03903 4.14423 0.984958 4.08921C0.930884 4.0342 0.900513 3.95963 0.900513 3.88189C0.900513 3.80415 0.930884 3.72959 0.984958 3.67458C1.03903 3.61956 1.11239 3.58859 1.18892 3.58847H9.4942C9.57082 3.58847 9.64429 3.61938 9.69846 3.67441C9.75263 3.72944 9.78307 3.80407 9.78307 3.88189C9.78307 3.95971 9.75263 4.03435 9.69846 4.08938C9.64429 4.1444 9.57082 4.17532 9.4942 4.17532Z" fill="url(#paint1_linear_101_723)"/>
<path d="M14.2893 6.0494H1.18887C1.11227 6.0494 1.0388 6.01848 0.984626 5.96346C0.930456 5.90844 0.900024 5.83381 0.900024 5.75599C0.900024 5.67817 0.930456 5.60355 0.984626 5.54852C1.0388 5.4935 1.11227 5.46259 1.18887 5.46259H14.2893C14.366 5.46259 14.4394 5.4935 14.4936 5.54852C14.5478 5.60355 14.5782 5.67817 14.5782 5.75599C14.5782 5.83381 14.5478 5.90844 14.4936 5.96346C14.4394 6.01848 14.366 6.0494 14.2893 6.0494Z" fill="url(#paint2_linear_101_723)"/>
<path d="M11.7719 7.81496H1.18887C1.11227 7.81496 1.0388 7.78405 0.984626 7.72902C0.930456 7.674 0.900024 7.59937 0.900024 7.52155C0.900024 7.44374 0.930456 7.36911 0.984626 7.31409C1.0388 7.25906 1.11227 7.22815 1.18887 7.22815H11.7719C11.8485 7.22815 11.9219 7.25906 11.9761 7.31409C12.0303 7.36911 12.0607 7.44374 12.0607 7.52155C12.0607 7.59937 12.0303 7.674 11.9761 7.72902C11.9219 7.78405 11.8485 7.81496 11.7719 7.81496Z" fill="#CACACA"/>
<path d="M7.15654 9.57402H1.18887C1.11227 9.57402 1.0388 9.54311 0.984626 9.48809C0.930456 9.43306 0.900024 9.35843 0.900024 9.28062C0.900024 9.2028 0.930456 9.12817 0.984626 9.07315C1.0388 9.01813 1.11227 8.98721 1.18887 8.98721H7.15654C7.23315 8.98721 7.30662 9.01813 7.36079 9.07315C7.41496 9.12817 7.44539 9.2028 7.44539 9.28062C7.44539 9.35843 7.41496 9.43306 7.36079 9.48809C7.30662 9.54311 7.23315 9.57402 7.15654 9.57402Z" fill="#CACACA"/>
<path d="M10.4532 11.333H1.1889C1.11238 11.3328 1.03903 11.3019 0.984954 11.2469C0.930883 11.1919 0.900513 11.1173 0.900513 11.0396C0.900513 10.9618 0.930883 10.8873 0.984954 10.8323C1.03903 10.7772 1.11238 10.7463 1.1889 10.7462H10.4532C10.5298 10.7463 10.6031 10.7772 10.6572 10.8323C10.7113 10.8873 10.7416 10.9618 10.7416 11.0396C10.7416 11.1173 10.7113 11.1919 10.6572 11.2469C10.6031 11.3019 10.5298 11.3328 10.4532 11.333Z" fill="#CACACA"/>
<path d="M36.5626 40.0385L35.8183 40.0385L35.4641 37.1219L36.5628 37.122L36.5626 40.0385Z" fill="#9F616A"/>
<path d="M36.8555 41.0849L34.0135 41.0848V41.0483C34.0136 40.7503 34.1301 40.4645 34.3376 40.2538C34.545 40.0431 34.8263 39.9247 35.1197 39.9247H35.1198L35.6389 39.5247L36.6075 39.9248L36.8555 39.9248L36.8555 41.0849Z" fill="#2F2E41"/>
<path d="M36.1289 26.3315L35.8006 22.2655L35.5427 20.7393L36.9867 20.4154L37.4659 22.5048L37.0484 26.4443C37.1326 26.5492 37.1841 26.6772 37.1961 26.8119C37.2082 26.9466 37.1803 27.082 37.116 27.2005C37.0518 27.319 36.9541 27.4153 36.8356 27.477C36.7171 27.5387 36.5831 27.563 36.4509 27.5468C36.3186 27.5306 36.1942 27.4745 36.0935 27.3859C35.9929 27.2973 35.9206 27.1802 35.886 27.0495C35.8514 26.9189 35.856 26.7807 35.8993 26.6528C35.9426 26.5248 36.0226 26.413 36.1289 26.3315Z" fill="#9F616A"/>
<path d="M32.6086 40.0385L31.8643 40.0385L31.5101 37.1219L32.6088 37.122L32.6086 40.0385Z" fill="#9F616A"/>
<path d="M31.4173 27.2533L31.0873 27.8331C31.0873 27.8331 30.7248 27.9337 30.8433 29.1343C30.9618 30.3349 30.9669 37.4483 31.5405 38.3236L31.6443 39.0753L32.7274 39.1804L32.7548 38.5135L34.0463 29.2476C34.0463 29.2476 34.807 38.3437 35.4363 38.5663L35.6635 39.3241L36.6562 39.3246L36.5976 38.4315L36.6616 27.1593L31.4173 27.2533Z" fill="#2F2E41"/>
<path d="M31.0546 27.7889L31.0317 27.7829C31.7128 25.1952 31.5164 21.8442 31.0355 18.246L31.0355 18.2311L32.7741 16.6135H34.2838L35.7804 17.5946C36.748 18.086 36.9679 19.1266 36.97 19.1371L36.9715 19.1445L36.3786 21.2465L36.8253 27.3254L36.8258 27.3324L36.8232 27.339C36.6787 27.7113 36.2914 27.6583 35.8429 27.5969C35.3952 27.5355 33.7454 28.0962 33.2395 28.0962C32.2509 28.0962 31.1252 27.8073 31.0546 27.7889Z" fill="#E4E4E4"/>
<path d="M35.467 18.4139L36.1156 18.1273L36.9701 19.1915L37.6627 22.6016L35.2903 22.2365L35.467 18.4139Z" fill="#E4E4E4"/>
<path d="M25.4914 24.7022L28.4563 21.9502L29.4867 20.8091L30.6226 21.7709L29.289 23.4344L25.9662 25.5099C25.9361 25.6417 25.8679 25.7614 25.7704 25.8535C25.6729 25.9457 25.5505 26.0061 25.4189 26.027C25.2873 26.0479 25.1525 26.0284 25.032 25.9709C24.9114 25.9135 24.8104 25.8207 24.7422 25.7045C24.6739 25.5884 24.6413 25.4541 24.6487 25.3191C24.6561 25.184 24.7031 25.0542 24.7837 24.9465C24.8642 24.8387 24.9746 24.7579 25.1007 24.7144C25.2268 24.6708 25.3629 24.6666 25.4914 24.7022Z" fill="#9F616A"/>
<path d="M28.3917 21.9801L29.2129 20.8969C29.2197 20.8814 29.901 19.3349 30.4915 18.663C31.0973 17.9737 31.5742 18.3262 31.579 18.33L31.5909 18.3391L31.6238 20.8845L29.3501 23.6443L28.3917 21.9801Z" fill="#E4E4E4"/>
<path d="M34.7453 15.0899C34.8677 14.3235 34.3553 13.6014 33.6009 13.477C32.8464 13.3527 32.1355 13.8731 32.0131 14.6395C31.8906 15.4059 32.403 16.128 33.1575 16.2523C33.912 16.3767 34.6228 15.8563 34.7453 15.0899Z" fill="#9F616A"/>
<path d="M32.1139 14.656C32.1139 14.656 32.1028 14.1618 32.0413 13.9431C31.9798 13.7244 31.8567 13.537 31.9183 13.537C31.9798 13.537 32.0105 13.3808 32.0105 13.3808C32.0105 13.3808 32.072 13.3495 32.1028 13.3808C32.1335 13.412 32.1643 13.1621 32.1643 13.1621C32.1643 13.1621 32.195 13.0684 32.2258 13.1309C32.2566 13.1934 32.2566 13.1621 32.2873 13.0684C32.3181 12.9747 32.4718 12.9122 32.4718 12.9122C32.4718 12.9122 33.0562 12.9434 33.1485 12.8185C33.2407 12.6935 34.2864 12.7872 34.5017 12.9434C34.717 13.0996 35.6704 13.6619 35.5166 14.1305C35.3628 14.5992 34.9201 15.6781 34.8092 15.7863C34.6338 15.9573 34.5124 16.019 33.6824 16.1868C33.5199 16.2196 32.6908 15.681 32.6908 15.5873C32.6908 15.4936 32.7908 15.1963 32.6301 15.1555C32.3872 15.0939 32.3599 15.4058 32.2984 15.312C32.2369 15.2183 32.1139 14.656 32.1139 14.656Z" fill="#2F2E41"/>
<path d="M32.9015 41.0849L30.0596 41.0848V41.0483C30.0596 40.7503 30.1761 40.4645 30.3836 40.2538C30.591 40.0431 30.8724 39.9247 31.1657 39.9247H31.1658L31.6849 39.5247L32.6535 39.9248L32.9016 39.9248L32.9015 41.0849Z" fill="#2F2E41"/>
<path d="M47.6745 41.14H1.13931C1.11661 41.14 1.09484 41.1308 1.07878 41.1145C1.06273 41.0982 1.05371 41.0761 1.05371 41.053C1.05371 41.03 1.06273 41.0079 1.07878 40.9916C1.09484 40.9753 1.11661 40.9661 1.13931 40.9661H47.6745C47.6972 40.9661 47.7189 40.9753 47.735 40.9916C47.751 41.0079 47.7601 41.03 47.7601 41.053C47.7601 41.0761 47.751 41.0982 47.735 41.1145C47.7189 41.1308 47.6972 41.14 47.6745 41.14Z" fill="#CACACA"/>
</g>
<defs>
<linearGradient id="paint0_linear_101_723" x1="17.8924" y1="24.8654" x2="17.8924" y2="25.6687" gradientUnits="userSpaceOnUse">
<stop stop-color="#3FBAFF"/>
<stop offset="0.465801" stop-color="#821AEA"/>
<stop offset="1" stop-color="#B671FB"/>
</linearGradient>
<linearGradient id="paint1_linear_101_723" x1="5.34179" y1="3.58847" x2="5.34179" y2="4.17532" gradientUnits="userSpaceOnUse">
<stop stop-color="#3FBAFF"/>
<stop offset="0.465801" stop-color="#821AEA"/>
<stop offset="1" stop-color="#B671FB"/>
</linearGradient>
<linearGradient id="paint2_linear_101_723" x1="7.73911" y1="5.46259" x2="7.73911" y2="6.0494" gradientUnits="userSpaceOnUse">
<stop stop-color="#3FBAFF"/>
<stop offset="0.465801" stop-color="#821AEA"/>
<stop offset="1" stop-color="#B671FB"/>
</linearGradient>
<clipPath id="clip0_101_723">
<rect width="46.86" height="40.26" fill="white" transform="translate(0.900024 0.880005)"/>
</clipPath>
</defs>
</svg>
