<svg width="66" height="66" viewBox="0 0 66 66" fill="none" xmlns="http://www.w3.org/2000/svg">
<mask id="mask0_15_1362" style="mask-type:alpha" maskUnits="userSpaceOnUse" x="0" y="0" width="66" height="66">
<rect width="66" height="66" fill="#D9D9D9"/>
</mask>
<g mask="url(#mask0_15_1362)">
<path d="M10.9312 57.7497V49.4997H19.4562L12.4437 26.5372C11.2062 25.8497 10.1865 24.8414 9.38437 23.5122C8.58229 22.183 8.18124 20.7622 8.18124 19.2497C8.18124 16.958 8.98333 15.0101 10.5875 13.4059C12.1917 11.8018 14.1396 10.9997 16.4312 10.9997C18.2187 10.9997 19.8115 11.5153 21.2094 12.5466C22.6073 13.5778 23.5813 14.8955 24.1313 16.4997H32.9313V13.7497C32.9313 12.9705 33.1948 12.3174 33.7219 11.7903C34.249 11.2632 34.9021 10.9997 35.6813 10.9997C36.0938 10.9997 36.4948 11.0914 36.8844 11.2747C37.274 11.458 37.6063 11.733 37.8813 12.0997L42.5563 7.6997C42.9688 7.2872 43.4615 7.02366 44.0344 6.90907C44.6073 6.79449 45.1688 6.8747 45.7188 7.1497L56.4438 12.0997C56.9938 12.3747 57.3719 12.7757 57.5781 13.3028C57.7844 13.8299 57.7729 14.3455 57.5438 14.8497C57.2688 15.3997 56.8677 15.7549 56.3406 15.9153C55.8136 16.0757 55.2979 16.0414 54.7938 15.8122L44.8938 11.2747L38.4313 17.3247V21.1747L44.8938 27.0872L54.7938 22.5497C55.2979 22.3205 55.825 22.2976 56.375 22.481C56.925 22.6643 57.3146 23.008 57.5438 23.5122C57.8188 24.0622 57.8417 24.5893 57.6125 25.0935C57.3834 25.5976 56.9938 25.9872 56.4438 26.2622L45.7188 31.3497C45.1688 31.6247 44.6073 31.7049 44.0344 31.5903C43.4615 31.4757 42.9688 31.2122 42.5563 30.7997L37.8813 26.3997C37.6063 26.6747 37.274 26.9268 36.8844 27.156C36.4948 27.3851 36.0938 27.4997 35.6813 27.4997C34.9021 27.4997 34.249 27.2362 33.7219 26.7091C33.1948 26.182 32.9313 25.5289 32.9313 24.7497V21.9997H24.1313C23.9938 22.3664 23.8448 22.7101 23.6844 23.031C23.524 23.3518 23.3063 23.6955 23.0313 24.0622L36.7813 49.4997H46.6813V57.7497H10.9312ZM16.4312 21.9997C17.2104 21.9997 17.8635 21.7362 18.3906 21.2091C18.9177 20.682 19.1812 20.0289 19.1812 19.2497C19.1812 18.4705 18.9177 17.8174 18.3906 17.2903C17.8635 16.7632 17.2104 16.4997 16.4312 16.4997C15.6521 16.4997 14.999 16.7632 14.4719 17.2903C13.9448 17.8174 13.6812 18.4705 13.6812 19.2497C13.6812 20.0289 13.9448 20.682 14.4719 21.2091C14.999 21.7362 15.6521 21.9997 16.4312 21.9997ZM25.0938 49.4997H30.4563L18.6312 27.4997H18.3562L25.0938 49.4997Z" fill="#821AEA"/>
</g>
</svg>
