<svg width="49" height="36" viewBox="0 0 49 36" fill="none" xmlns="http://www.w3.org/2000/svg">
<g clip-path="url(#clip0_101_1378)">
<path d="M47.723 34.9392L47.2374 35.095L46.4073 33.29L47.124 33.0599L47.723 34.9392Z" fill="#FFB6B6"/>
<path d="M47.9975 35.3717L46.4318 35.8742L46.4254 35.8543C46.3737 35.6922 46.3884 35.516 46.4661 35.3647C46.5438 35.2133 46.6783 35.0992 46.8399 35.0473L47.0565 34.7378L47.6596 34.7843L47.7962 34.7404L47.9975 35.3717Z" fill="#2F2E41"/>
<path d="M43.1191 35.4251H42.6093L42.3668 33.4521H43.1192L43.1191 35.4251Z" fill="#FFB6B6"/>
<path d="M43.2492 35.921L41.6053 35.9209V35.9001C41.6054 35.7298 41.6728 35.5665 41.7928 35.4461C41.9128 35.3257 42.0755 35.2581 42.2452 35.2581L42.5455 35.0295L43.1057 35.2581L43.2492 35.2581L43.2492 35.921Z" fill="#2F2E41"/>
<path d="M40.6842 15.036C40.6459 15.0838 40.6186 15.1395 40.6042 15.1991C40.5897 15.2587 40.5884 15.3207 40.6004 15.3809C40.6124 15.441 40.6374 15.4978 40.6737 15.5472C40.7099 15.5966 40.7565 15.6374 40.8102 15.6668L40.5657 17.1375L41.2715 16.8232L41.3955 15.4748C41.4387 15.381 41.4462 15.2746 41.4164 15.1758C41.3867 15.0769 41.3218 14.9924 41.2341 14.9383C41.1464 14.8843 41.042 14.8643 40.9407 14.8823C40.8393 14.9003 40.7481 14.955 40.6842 15.036Z" fill="#FFB6B6"/>
<path d="M47.1196 27.2361C47.1196 27.2361 47.2385 25.6824 46.817 25.3939C46.3956 25.1053 42.9209 24.9601 42.9209 24.9601L42.7052 25.2448C42.7052 25.2448 42.6857 25.3777 42.3584 26.4608L42.2251 32.5065C42.2119 33.096 42.1095 33.8365 42.3548 33.9879L42.4741 34.5862H43.13L43.4924 33.5803C43.6486 33.3272 43.7151 33.0287 43.6812 32.733L43.8791 31.845C43.8652 31.8311 43.8555 31.8135 43.8509 31.7944C43.8285 31.6621 43.8582 31.5262 43.9336 31.4153C43.9511 31.3894 43.9703 31.3648 43.9912 31.3416L44.7162 28.0881L45.694 31.8939L46.2975 33.2458C46.2382 33.3875 46.2776 33.5159 46.3857 33.635C46.3456 33.7458 46.5192 33.8236 46.5938 33.9669L46.827 34.4067L47.4829 34.0477L47.5425 33.6888C47.5822 33.5823 47.4754 33.5117 47.3967 33.2907C47.5435 33.1342 47.5356 32.9818 47.394 32.833L47.1461 31.7602L47.1432 31.2684L47.1401 30.7428L47.1196 27.2361Z" fill="#2F2E41"/>
<path d="M44.3771 17.9992C45.0064 17.9992 45.5165 17.4874 45.5165 16.856C45.5165 16.2246 45.0064 15.7128 44.3771 15.7128C43.7478 15.7128 43.2377 16.2246 43.2377 16.856C43.2377 17.4874 43.7478 17.9992 44.3771 17.9992Z" fill="#FFB6B6"/>
<path d="M45.5234 17.035L45.5046 16.9973C45.4755 16.9389 45.2345 16.4534 45.2043 16.3286L44.9011 16.3644L44.1115 16.3645L44.2212 16.1994L43.9311 16.2374C43.8251 16.2503 43.7237 16.2886 43.6355 16.3491C43.5815 16.3852 43.5357 16.4325 43.5015 16.4878C43.3978 16.6659 43.2395 16.9571 43.2379 16.96L43.2228 16.9879L43.0913 16.7658C43.0895 16.7572 42.9265 15.904 43.4721 15.6147C43.5499 15.4622 43.6703 15.3358 43.8185 15.2509C43.9667 15.1661 44.1364 15.1264 44.3068 15.1367C44.3691 15.0654 44.4568 15.0217 44.5511 15.0149C44.6805 15.0081 44.8149 15.0763 44.9498 15.2185C45.129 15.4073 45.3745 15.6658 45.5229 15.9529L45.5639 16.0116C45.6221 16.0955 45.6509 16.1964 45.6458 16.2984C45.6773 16.4614 45.6661 16.6297 45.6133 16.787L45.5234 17.035Z" fill="#2F2E41"/>
<path d="M47.1142 19.0316L45.8757 18.6836L45.2452 18.2144L44.0067 18.4126L44.0013 18.4196C43.7844 18.7023 43.4501 18.9815 43.0948 18.9926C43.0034 18.9956 42.9126 19.0086 42.824 19.0316L42.7051 21.2129V23.1632C42.7237 23.1694 42.7403 23.1804 42.7534 23.195C42.7665 23.2096 42.7757 23.2273 42.7799 23.2465C42.8148 23.4453 42.8115 23.649 42.7702 23.8466C42.7556 23.9155 42.7338 23.9827 42.7051 24.047C42.7397 24.1188 42.7576 24.1975 42.7576 24.2772C42.7576 24.3569 42.7397 24.4356 42.7051 24.5074C42.5992 24.6087 42.6129 24.719 42.7051 24.8353V25.2448C44.7153 26.9276 46.8118 25.4867 46.8118 25.4867L46.7445 22.2835L47.1142 19.0316Z" fill="#3F3D56"/>
<path d="M43.1019 19.3312L42.8241 19.0316L41.2933 18.8577L41.4369 16.4986L40.6023 15.9012L40.2244 17.9483C40.0944 18.0611 40.0703 18.1723 40.1628 18.2815C40.0588 18.4903 40.032 18.6601 40.0674 18.7985L39.9891 19.2223L42.8217 21.2129L43.1019 19.3312Z" fill="#3F3D56"/>
<path d="M46.8882 27.0448C46.8553 26.9931 46.834 26.9348 46.8259 26.874C46.8179 26.8132 46.8232 26.7514 46.8415 26.6929C46.8598 26.6343 46.8907 26.5806 46.932 26.5353C46.9733 26.4901 47.0239 26.4545 47.0804 26.431L46.9932 24.9425L47.6617 25.3304L47.642 26.6844C47.6751 26.7822 47.6712 26.8888 47.6311 26.9839C47.5911 27.079 47.5176 27.1561 47.4247 27.2005C47.3318 27.245 47.2258 27.2536 47.127 27.2249C47.0281 27.1962 46.9431 27.1321 46.8882 27.0448Z" fill="#FFB6B6"/>
<path d="M46.649 19.4039L47.1143 19.0316C47.1143 19.0316 47.5901 19.2949 47.7348 19.767C47.8796 20.2391 48.133 22.9265 48.133 22.9265L48.172 23.9271C48.2221 24.0858 48.209 24.2274 48.0897 24.3402C48.269 24.5262 48.2422 24.6812 47.9974 24.8033L47.7434 26.3765L46.9462 26.2104L47.0471 23.1081L46.3956 21.1107L46.649 19.4039Z" fill="#3F3D56"/>
<path d="M14.8066 7.08013H14.6434V2.59555C14.6434 2.2547 14.5765 1.91718 14.4465 1.60228C14.3165 1.28737 14.1259 1.00124 13.8857 0.760221C13.6455 0.519201 13.3603 0.328014 13.0465 0.197575C12.7326 0.0671363 12.3962 2.35704e-07 12.0565 0H2.58692C1.90083 -1.42804e-06 1.24284 0.273456 0.757694 0.760215C0.272552 1.24697 1.58144e-06 1.90716 0 2.59554V27.1983C-3.16288e-07 27.8867 0.272548 28.5468 0.757688 29.0336C1.24283 29.5204 1.90082 29.7938 2.58691 29.7938H12.0565C12.3962 29.7938 12.7326 29.7267 13.0465 29.5963C13.3603 29.4658 13.6455 29.2746 13.8857 29.0336C14.1259 28.7926 14.3165 28.5065 14.4465 28.1916C14.5765 27.8767 14.6434 27.5391 14.6434 27.1983V10.2723H14.8066V7.08013Z" fill="#3F3D56"/>
<path d="M12.1609 0.675297H10.9248C10.9817 0.815127 11.0034 0.966836 10.988 1.11706C10.9727 1.26729 10.9207 1.41142 10.8368 1.53676C10.7528 1.6621 10.6394 1.7648 10.5066 1.83581C10.3738 1.90683 10.2256 1.94398 10.075 1.94399H4.65005C4.49954 1.94398 4.35134 1.90683 4.2185 1.83581C4.08567 1.7648 3.97229 1.6621 3.88833 1.53676C3.80438 1.41142 3.75243 1.26729 3.73708 1.11706C3.72172 0.966833 3.74342 0.815123 3.80026 0.675293H2.64575C2.13338 0.675293 1.642 0.879508 1.2797 1.24301C0.917406 1.60652 0.713868 2.09954 0.713867 2.61362V27.1803C0.713867 27.4348 0.763836 27.6868 0.860922 27.922C0.958008 28.1572 1.10031 28.3709 1.2797 28.5509C1.45909 28.7308 1.67206 28.8736 1.90645 28.971C2.14083 29.0684 2.39205 29.1186 2.64575 29.1186H12.1609C12.4146 29.1186 12.6658 29.0684 12.9002 28.971C13.1346 28.8736 13.3476 28.7308 13.527 28.5509C13.7064 28.3709 13.8487 28.1572 13.9458 27.922C14.0428 27.6868 14.0928 27.4348 14.0928 27.1803V2.61362C14.0928 2.35908 14.0428 2.10702 13.9458 1.87186C13.8487 1.63669 13.7064 1.42301 13.527 1.24302C13.3476 1.06303 13.1346 0.920251 12.9002 0.822842C12.6658 0.725432 12.4146 0.675296 12.1609 0.675297Z" fill="white"/>
<path d="M12.0694 9.87635C12.0701 10.4344 11.9709 10.9881 11.7766 11.5109C11.6883 11.7504 11.5801 11.982 11.453 12.2032C11.0443 12.9187 10.4546 13.5132 9.74355 13.9266C9.03246 14.3401 8.22518 14.5578 7.40332 14.5578C6.58146 14.5578 5.77418 14.3401 5.06309 13.9266C4.352 13.5132 3.76232 12.9187 3.35367 12.2032C3.3123 12.1313 3.27307 12.0583 3.23599 11.9842C2.9188 11.3529 2.74822 10.6577 2.73704 9.95084C2.72585 9.24396 2.87436 8.54372 3.17141 7.90265C3.46846 7.26158 3.90635 6.69633 4.45221 6.2493C4.99808 5.80227 5.63776 5.48507 6.32325 5.3215C7.00875 5.15793 7.72226 5.15224 8.41026 5.30485C9.09826 5.45745 9.74289 5.7644 10.2958 6.20266C10.8487 6.64092 11.2955 7.19911 11.6026 7.83536C11.9098 8.47161 12.0694 9.16939 12.0694 9.87635Z" fill="#F1F1F1"/>
<path d="M7.64585 10.6668C8.13852 10.6668 8.53791 10.2661 8.53791 9.77175C8.53791 9.27743 8.13852 8.87671 7.64585 8.87671C7.15317 8.87671 6.75378 9.27743 6.75378 9.77175C6.75378 10.2661 7.15317 10.6668 7.64585 10.6668Z" fill="#FF6582"/>
<path d="M3.23596 11.9842C3.629 11.558 4.15443 10.8814 4.64721 11.3703C4.89453 11.6009 5.28159 12.1724 5.6521 11.7988L8.5454 8.89581C8.59986 8.84186 8.66453 8.79937 8.7356 8.77084C8.80666 8.74232 8.8827 8.72833 8.95923 8.72971C9.03576 8.73108 9.11124 8.74779 9.18124 8.77885C9.25124 8.80991 9.31435 8.85469 9.36686 8.91057L11.7766 11.511C11.6883 11.7505 11.58 11.982 11.4529 12.2033H3.35364L3.23596 11.9842Z" fill="#6C63FF"/>
<path d="M9.59269 19.3834C9.56077 19.3835 9.53017 19.3963 9.50763 19.4189C9.48508 19.4416 9.47241 19.4723 9.47241 19.5044C9.47241 19.5364 9.48508 19.5671 9.50763 19.5898C9.53017 19.6125 9.56077 19.6252 9.59269 19.6253H10.8577C10.8896 19.6253 10.9203 19.6126 10.9429 19.5899C10.9655 19.5672 10.9782 19.5364 10.9782 19.5044C10.9782 19.4723 10.9655 19.4415 10.9429 19.4188C10.9203 19.3962 10.8896 19.3834 10.8577 19.3834H9.59269Z" fill="#6C63FF"/>
<path d="M3.89362 17.6069C3.86165 17.6069 3.83098 17.6197 3.80838 17.6424C3.78577 17.665 3.77307 17.6958 3.77307 17.7279C3.77307 17.76 3.78577 17.7907 3.80838 17.8134C3.83098 17.8361 3.86165 17.8488 3.89362 17.8488H10.9129C10.9449 17.8488 10.9756 17.8361 10.9982 17.8134C11.0208 17.7907 11.0335 17.76 11.0335 17.7279C11.0335 17.6958 11.0208 17.665 10.9982 17.6424C10.9756 17.6197 10.9449 17.6069 10.9129 17.6069H3.89362Z" fill="#E5E5E5"/>
<path d="M3.89359 18.4951C3.86167 18.4952 3.83108 18.508 3.80853 18.5306C3.78598 18.5533 3.77332 18.584 3.77332 18.6161C3.77332 18.6481 3.78598 18.6788 3.80853 18.7015C3.83108 18.7242 3.86167 18.7369 3.89359 18.737H10.9129C10.9288 18.7371 10.9445 18.7339 10.9591 18.7279C10.9738 18.7218 10.9871 18.7129 10.9983 18.7017C11.0095 18.6905 11.0184 18.6771 11.0245 18.6624C11.0306 18.6477 11.0337 18.632 11.0337 18.6161C11.0337 18.6002 11.0306 18.5844 11.0245 18.5697C11.0184 18.555 11.0095 18.5417 10.9983 18.5304C10.9871 18.5192 10.9738 18.5103 10.9591 18.5042C10.9445 18.4982 10.9288 18.4951 10.9129 18.4951H3.89359Z" fill="#E5E5E5"/>
<path d="M9.59259 25.0829C9.56062 25.0829 9.52996 25.0956 9.50735 25.1183C9.48475 25.141 9.47205 25.1718 9.47205 25.2038C9.47205 25.2359 9.48475 25.2667 9.50735 25.2894C9.52996 25.312 9.56062 25.3248 9.59259 25.3248H10.8576C10.8895 25.3248 10.9202 25.312 10.9428 25.2894C10.9654 25.2667 10.9781 25.2359 10.9781 25.2038C10.9781 25.1718 10.9654 25.141 10.9428 25.1183C10.9202 25.0956 10.8895 25.0829 10.8576 25.0829H9.59259Z" fill="#6C63FF"/>
<path d="M3.89362 23.3065C3.86165 23.3065 3.83099 23.3193 3.80838 23.3419C3.78577 23.3646 3.77307 23.3954 3.77307 23.4275C3.77307 23.4595 3.78577 23.4903 3.80838 23.513C3.83099 23.5357 3.86165 23.5484 3.89362 23.5484H10.9129C10.9288 23.5485 10.9445 23.5453 10.9591 23.5393C10.9738 23.5332 10.9871 23.5243 10.9983 23.5131C11.0096 23.5018 11.0185 23.4885 11.0245 23.4738C11.0306 23.4591 11.0337 23.4434 11.0337 23.4275C11.0337 23.4116 11.0306 23.3958 11.0245 23.3811C11.0185 23.3664 11.0096 23.3531 10.9983 23.3418C10.9871 23.3306 10.9738 23.3217 10.9591 23.3156C10.9445 23.3096 10.9288 23.3065 10.9129 23.3065H3.89362Z" fill="#E5E5E5"/>
<path d="M3.89362 24.1947C3.86165 24.1947 3.83098 24.2074 3.80838 24.2301C3.78577 24.2528 3.77307 24.2836 3.77307 24.3156C3.77307 24.3477 3.78577 24.3785 3.80838 24.4012C3.83098 24.4239 3.86165 24.4366 3.89362 24.4366H10.9129C10.9449 24.4366 10.9756 24.4239 10.9982 24.4012C11.0208 24.3785 11.0335 24.3477 11.0335 24.3156C11.0335 24.2836 11.0208 24.2528 10.9982 24.2301C10.9756 24.2074 10.9449 24.1947 10.9129 24.1947H3.89362Z" fill="#E5E5E5"/>
<path d="M40.0153 13.6338L39.0521 13.1968C39.0473 13.3259 39.011 13.4518 38.9462 13.5634C38.8815 13.675 38.7904 13.769 38.681 13.837C38.5716 13.9049 38.4472 13.9449 38.3187 13.9533C38.1903 13.9616 38.0618 13.9382 37.9445 13.885L33.7174 11.9672C33.6001 11.914 33.4977 11.8327 33.4191 11.7304C33.3405 11.6281 33.2882 11.508 33.2668 11.3807C33.2454 11.2533 33.2556 11.1226 33.2964 11.0002C33.3372 10.8777 33.4073 10.7671 33.5007 10.6783L32.6011 10.2701C32.2019 10.089 31.7473 10.0744 31.3374 10.2296C30.9274 10.3848 30.5957 10.697 30.4152 11.0976L21.7885 30.2397C21.6991 30.438 21.6495 30.6521 21.6426 30.8697C21.6356 31.0872 21.6715 31.304 21.7481 31.5077C21.8246 31.7113 21.9404 31.8979 22.0889 32.0566C22.2373 32.2154 22.4154 32.3433 22.6131 32.4329L30.0273 35.7966C30.4265 35.9777 30.8811 35.9923 31.291 35.8371C31.701 35.682 32.0327 35.3698 32.2132 34.9692L40.8399 15.8271C40.9293 15.6287 40.9789 15.4147 40.9858 15.1971C40.9928 14.9795 40.9569 14.7627 40.8804 14.5591C40.8038 14.3554 40.688 14.1689 40.5395 14.0101C40.3911 13.8514 40.213 13.7235 40.0153 13.6338Z" fill="#E4E4E4"/>
<path d="M31.4346 22.7483C30.7854 22.4525 30.2252 21.9904 29.8104 21.4085C29.3955 20.8266 29.1406 20.1454 29.0713 19.4334C29.0644 19.3628 29.0593 19.2902 29.0564 19.2178C29.0281 18.5829 29.1504 17.9503 29.4131 17.372C29.6575 16.8304 30.0173 16.3493 30.4672 15.9624C30.9171 15.5756 31.4462 15.2925 32.017 15.1332C32.5878 14.9738 33.1865 14.9421 33.7709 15.0402C34.3553 15.1384 34.9111 15.3639 35.3991 15.7011C35.8872 16.0382 36.2955 16.4787 36.5954 16.9914C36.8952 17.5041 37.0793 18.0766 37.1346 18.6685C37.1899 19.2604 37.1151 19.8573 36.9155 20.417C36.7158 20.9767 36.3962 21.4857 35.9792 21.9079C35.8239 22.0657 35.6558 22.21 35.4764 22.3394C34.8977 22.7574 34.2196 23.0153 33.5101 23.0871C32.8006 23.1589 32.0848 23.042 31.4346 22.7483ZM34.7226 15.4525C33.7725 15.0228 32.6914 14.9888 31.7164 15.3579C30.7414 15.727 29.9522 16.4691 29.5218 17.4213C29.2668 17.9826 29.1481 18.5965 29.1755 19.2128C29.1784 19.283 29.1833 19.3533 29.19 19.4218C29.2562 20.1132 29.5031 20.7749 29.9059 21.3399C30.3087 21.9049 30.853 22.3531 31.4838 22.6393C32.1147 22.9255 32.8096 23.0395 33.4984 22.9698C34.1873 22.9001 34.8455 22.6491 35.4067 22.2423C35.5807 22.1168 35.7438 21.9768 35.8944 21.8237C36.3409 21.3716 36.6717 20.8178 36.8587 20.2096C37.0457 19.6013 37.0832 18.9568 36.968 18.3308C36.8529 17.7049 36.5886 17.1162 36.1976 16.615C35.8066 16.1138 35.3005 15.7149 34.7226 15.4525Z" fill="white"/>
<path d="M31.8339 15.2483L31.7225 15.2911L34.5561 22.7131L34.6675 22.6703L31.8339 15.2483Z" fill="white"/>
<path d="M36.7146 17.5633L29.3171 20.4059L29.3598 20.5176L36.7573 17.6751L36.7146 17.5633Z" fill="white"/>
<path d="M33.046 28.5472L26.0483 25.3725C25.9965 25.3489 25.9561 25.3056 25.936 25.2522C25.9159 25.1987 25.9177 25.1394 25.9411 25.0873L26.5994 23.6267C26.6229 23.5746 26.6661 23.5341 26.7193 23.5139C26.7726 23.4937 26.8317 23.4956 26.8836 23.5191L33.8813 26.6938C33.9332 26.7174 33.9736 26.7607 33.9937 26.8141C34.0138 26.8676 34.012 26.9269 33.9886 26.979L33.3303 28.4396C33.3068 28.4917 33.2636 28.5322 33.2103 28.5524C33.1571 28.5726 33.098 28.5707 33.046 28.5472ZM26.8345 23.6281C26.8114 23.6176 26.7851 23.6168 26.7614 23.6258C26.7377 23.6348 26.7185 23.6528 26.7081 23.6759L26.0498 25.1366C26.0394 25.1598 26.0385 25.1862 26.0475 25.21C26.0564 25.2337 26.0744 25.253 26.0975 25.2635L33.0952 28.4382C33.1183 28.4487 33.1446 28.4495 33.1683 28.4405C33.192 28.4315 33.2111 28.4135 33.2216 28.3903L33.8799 26.9297C33.8903 26.9065 33.8911 26.8801 33.8822 26.8563C33.8733 26.8326 33.8553 26.8133 33.8322 26.8028L26.8345 23.6281Z" fill="white"/>
<path d="M31.3509 32.3086L24.3531 29.1339C24.3013 29.1103 24.2609 29.067 24.2408 29.0135C24.2207 28.9601 24.2225 28.9008 24.2459 28.8487L24.9042 27.388C24.9277 27.336 24.9709 27.2954 25.0242 27.2752C25.0774 27.2551 25.1365 27.2569 25.1884 27.2804L32.1861 30.4551C32.238 30.4787 32.2784 30.522 32.2985 30.5755C32.3186 30.6289 32.3168 30.6882 32.2934 30.7403L31.6351 32.201C31.6116 32.253 31.5684 32.2936 31.5151 32.3138C31.4619 32.3339 31.4028 32.3321 31.3509 32.3086ZM25.1393 27.3894C25.1162 27.379 25.0899 27.3782 25.0662 27.3871C25.0425 27.3961 25.0233 27.4142 25.0129 27.4373L24.3546 28.898C24.3442 28.9212 24.3434 28.9475 24.3523 28.9713C24.3612 28.9951 24.3792 29.0143 24.4023 29.0248L31.4 32.1996C31.4231 32.21 31.4494 32.2108 31.4731 32.2019C31.4968 32.1929 31.516 32.1748 31.5264 32.1517L32.1847 30.691C32.1951 30.6678 32.1959 30.6415 32.187 30.6177C32.1781 30.5939 32.1601 30.5747 32.137 30.5642L25.1393 27.3894Z" fill="white"/>
<path d="M28.6463 22.7912C28.5024 22.072 28.1916 21.397 27.739 20.8209C27.2789 20.2359 26.717 19.7393 26.0806 19.3553C25.4227 18.9545 24.7063 18.6597 23.9574 18.4819C23.0266 18.2575 22.0653 18.1844 21.11 18.1936C20.1478 18.2029 19.1887 18.2934 18.2325 18.3941C18.1109 18.4069 17.9894 18.4199 17.8679 18.4329C17.7546 18.4451 17.7534 18.6247 17.8679 18.6124C18.81 18.5115 19.7536 18.4123 20.7011 18.3818C21.6409 18.3515 22.5877 18.3886 23.5126 18.5686C24.2829 18.712 25.0261 18.9756 25.715 19.3498C26.3568 19.6986 26.9324 20.158 27.4156 20.7068C27.8889 21.2433 28.2312 21.883 28.4154 22.5752C28.4377 22.6625 28.4569 22.7505 28.4738 22.8389C28.4954 22.9523 28.6679 22.9043 28.6463 22.7912Z" fill="#2F2E41"/>
<path d="M18.5067 17.1485L17.0779 18.6733C17.0684 18.6831 17.0612 18.6949 17.0569 18.7079C17.0526 18.7209 17.0512 18.7346 17.053 18.7482C17.0547 18.7618 17.0595 18.7747 17.067 18.7862C17.0744 18.7976 17.0844 18.8072 17.096 18.8143L18.3851 19.4325C18.4884 19.4821 18.5793 19.3274 18.4754 19.2775L17.1863 18.6593L17.2044 18.8002L18.6332 17.2754C18.7121 17.1913 18.5858 17.0641 18.5067 17.1485Z" fill="#2F2E41"/>
<path d="M48.9289 36H21.6613C21.6425 36 21.6244 35.9925 21.6111 35.9791C21.5978 35.9658 21.5903 35.9477 21.5903 35.9288C21.5903 35.9099 21.5978 35.8918 21.6111 35.8784C21.6244 35.865 21.6425 35.8575 21.6613 35.8575H48.9289C48.9478 35.8575 48.9658 35.865 48.9791 35.8784C48.9925 35.8918 48.9999 35.9099 48.9999 35.9288C48.9999 35.9477 48.9925 35.9658 48.9791 35.9791C48.9658 35.9925 48.9478 36 48.9289 36Z" fill="#CACACA"/>
</g>
<defs>
<clipPath id="clip0_101_1378">
<rect width="49" height="36" fill="white"/>
</clipPath>
</defs>
</svg>
