<svg width="67" height="66" viewBox="0 0 67 66" fill="none" xmlns="http://www.w3.org/2000/svg">
<mask id="mask0_15_1356" style="mask-type:alpha" maskUnits="userSpaceOnUse" x="0" y="0" width="67" height="66">
<rect x="0.5" width="66" height="66" fill="#D9D9D9"/>
</mask>
<g mask="url(#mask0_15_1356)">
<path d="M17 54.9996C14.7084 54.9996 12.7605 54.1976 11.1563 52.5934C9.55213 50.9892 8.75005 49.0413 8.75005 46.7496H3.25005V16.4996C3.25005 14.9871 3.78859 13.6923 4.86567 12.6153C5.94275 11.5382 7.23755 10.9996 8.75005 10.9996H47.25V21.9996H55.5L63.75 32.9996V46.7496H58.25C58.25 49.0413 57.448 50.9892 55.8438 52.5934C54.2396 54.1976 52.2917 54.9996 50 54.9996C47.7084 54.9996 45.7605 54.1976 44.1563 52.5934C42.5521 50.9892 41.75 49.0413 41.75 46.7496H25.25C25.25 49.0413 24.448 50.9892 22.8438 52.5934C21.2396 54.1976 19.2917 54.9996 17 54.9996ZM17 49.4996C17.7792 49.4996 18.4323 49.2361 18.9594 48.709C19.4865 48.1819 19.75 47.5288 19.75 46.7496C19.75 45.9705 19.4865 45.3174 18.9594 44.7903C18.4323 44.2632 17.7792 43.9996 17 43.9996C16.2209 43.9996 15.5678 44.2632 15.0407 44.7903C14.5136 45.3174 14.25 45.9705 14.25 46.7496C14.25 47.5288 14.5136 48.1819 15.0407 48.709C15.5678 49.2361 16.2209 49.4996 17 49.4996ZM8.75005 41.2496H10.95C11.7292 40.4246 12.623 39.7601 13.6313 39.2559C14.6396 38.7517 15.7625 38.4996 17 38.4996C18.2375 38.4996 19.3605 38.7517 20.3688 39.2559C21.3771 39.7601 22.2709 40.4246 23.05 41.2496H41.75V16.4996H8.75005V41.2496ZM50 49.4996C50.7792 49.4996 51.4323 49.2361 51.9594 48.709C52.4865 48.1819 52.75 47.5288 52.75 46.7496C52.75 45.9705 52.4865 45.3174 51.9594 44.7903C51.4323 44.2632 50.7792 43.9996 50 43.9996C49.2209 43.9996 48.5678 44.2632 48.0407 44.7903C47.5136 45.3174 47.25 45.9705 47.25 46.7496C47.25 47.5288 47.5136 48.1819 48.0407 48.709C48.5678 49.2361 49.2209 49.4996 50 49.4996ZM47.25 35.7496H58.9375L52.75 27.4996H47.25V35.7496Z" fill="#821AEA"/>
</g>
</svg>
