<svg width="50" height="30" viewBox="0 0 50 30" fill="none" xmlns="http://www.w3.org/2000/svg">
<g clip-path="url(#clip0_101_972)">
<path d="M28.8597 24.1019C28.743 24.1019 28.6289 24.1363 28.5318 24.2008C28.4348 24.2653 28.3591 24.3571 28.3145 24.4644C28.2698 24.5717 28.2581 24.6897 28.2809 24.8036C28.3036 24.9175 28.3598 25.0222 28.4424 25.1043C28.5249 25.1864 28.6301 25.2423 28.7446 25.265C28.859 25.2876 28.9777 25.276 29.0855 25.2316C29.1934 25.1871 29.2855 25.1119 29.3504 25.0153C29.4152 24.9187 29.4499 24.8052 29.4499 24.6891C29.4499 24.5333 29.3877 24.384 29.277 24.2739C29.1663 24.1637 29.0162 24.1019 28.8597 24.1019ZM28.8597 25.0504C28.7879 25.0504 28.7176 25.0292 28.6579 24.9895C28.5982 24.9498 28.5516 24.8934 28.5241 24.8274C28.4967 24.7613 28.4895 24.6887 28.5035 24.6186C28.5175 24.5485 28.5521 24.4841 28.6029 24.4335C28.6537 24.383 28.7184 24.3486 28.7888 24.3346C28.8593 24.3207 28.9323 24.3279 28.9987 24.3552C29.065 24.3826 29.1218 24.4289 29.1617 24.4883C29.2016 24.5477 29.2229 24.6176 29.2229 24.6891C29.2229 24.7849 29.1846 24.8768 29.1165 24.9446C29.0484 25.0124 28.956 25.0504 28.8597 25.0504Z" fill="#E4E4E4"/>
<path d="M26.5898 23.6501H28.8597V25.8854C28.8597 25.9635 28.8286 26.0383 28.7731 26.0935C28.7177 26.1486 28.6425 26.1796 28.564 26.1796H26.8855C26.8071 26.1796 26.7319 26.1486 26.6765 26.0935C26.621 26.0383 26.5898 25.9635 26.5898 25.8854V23.6501Z" fill="#E4E4E4"/>
<path d="M34.1633 26.2308H0.046036C0.0333835 26.2294 0.0216889 26.2235 0.0131935 26.214C0.00469805 26.2046 0 26.1924 0 26.1797C0 26.167 0.00469805 26.1548 0.0131935 26.1454C0.0216889 26.136 0.0333835 26.13 0.046036 26.1286H34.1633C34.176 26.13 34.1877 26.136 34.1962 26.1454C34.2047 26.1548 34.2093 26.167 34.2093 26.1797C34.2093 26.1924 34.2047 26.2046 34.1962 26.214C34.1877 26.2235 34.176 26.2294 34.1633 26.2308Z" fill="#CACACA"/>
<path d="M4.59235 25.2654L4.38135 26.3035L8.30513 27.6074L8.6166 26.0752L4.59235 25.2654Z" fill="#FFB6B6"/>
<path d="M4.98689 25.0692L4.5713 27.1136L4.57128 27.1136C4.50101 27.4591 4.29568 27.7627 4.00045 27.9576C3.70523 28.1525 3.34428 28.2228 2.99702 28.1529L2.95447 28.1443L3.63492 24.7971L4.98689 25.0692Z" fill="#2F2E41"/>
<path d="M9.03889 10.9664C10.5103 10.9664 11.7031 9.77952 11.7031 8.31549C11.7031 6.85145 10.5103 5.66461 9.03889 5.66461C7.56746 5.66461 6.37463 6.85145 6.37463 8.31549C6.37463 9.77952 7.56746 10.9664 9.03889 10.9664Z" fill="#FEB8B8"/>
<path d="M11.5273 6.02852C11.129 5.38495 10.5055 4.91072 9.7768 4.69713L9.44972 4.93462V4.62625C9.27473 4.5996 9.09761 4.58933 8.92068 4.59559L8.6385 4.84963V4.61669C8.22069 4.66835 7.81817 4.80558 7.45632 5.01973C7.09448 5.23389 6.78115 5.52031 6.5361 5.86095C5.92329 6.73996 5.81984 7.96285 6.42259 8.84891C6.58803 8.34297 6.78886 7.86826 6.95435 7.36237C7.08439 7.38001 7.2162 7.38064 7.34641 7.36426L7.5477 6.8969L7.60394 7.34448C8.2279 7.29041 9.15336 7.17164 9.74486 7.06284L9.68733 6.71947L10.0315 7.00479C10.2127 6.96329 10.3203 6.92562 10.3114 6.89685C10.7513 7.60251 11.2897 8.05321 11.7296 8.75887C11.8967 7.76385 12.089 6.93651 11.5273 6.02852Z" fill="#2F2E41"/>
<path d="M9.90571 25.6622C13.6944 25.6622 16.7658 24.8074 16.7658 23.753C16.7658 22.6985 13.6944 21.8438 9.90571 21.8438C6.11701 21.8438 3.04565 22.6985 3.04565 23.753C3.04565 24.8074 6.11701 25.6622 9.90571 25.6622Z" fill="#2F2E41"/>
<path d="M14.7689 15.1323C14.6773 14.5839 14.5828 14.0249 14.3266 13.5309C14.1583 13.2073 13.891 12.8989 13.5308 12.8349C13.4598 12.8286 13.39 12.8126 13.3235 12.7872C13.218 12.7366 11.7994 11.9309 11.5739 11.7905C11.3803 11.6701 11.0747 11.447 10.9207 11.447C10.7656 11.4436 10.1712 11.5813 7.85119 11.4008C7.46094 11.5567 7.08303 11.7416 6.72067 11.9539C6.7132 11.949 4.31268 13.2316 4.22249 13.2282C4.0517 13.221 3.89295 13.3298 3.79503 13.4668C3.69715 13.6039 3.65123 13.7735 3.60315 13.9375C4.12746 15.0992 4.60719 16.2625 5.13155 17.4243C5.1561 17.468 5.16915 17.5173 5.16947 17.5674C5.15894 17.6194 5.13663 17.6683 5.10424 17.7105C4.8471 18.1215 4.85528 18.6384 4.88337 19.1214C4.91148 19.6045 4.94624 20.1147 4.72928 20.5477C4.67026 20.6665 4.59352 20.7753 4.53739 20.8942C4.40595 21.1634 4.35845 22.0245 4.43522 22.3138L14.0538 22.5879C13.847 22.0223 14.7689 15.1323 14.7689 15.1323Z" fill="#6C63FF"/>
<path d="M2.77174 17.4758C2.75254 17.614 2.75061 17.7539 2.76598 17.8925L2.90384 19.8624C2.91679 20.0481 2.92952 20.2333 2.94704 20.4185C2.98012 20.7779 3.02953 21.1345 3.09085 21.4906C3.09224 21.5411 3.11373 21.589 3.1506 21.6239C3.18747 21.6587 3.23671 21.6775 3.28752 21.6762C3.89438 21.804 4.52137 21.7989 5.1407 21.7641C6.08579 21.7116 8.50365 21.6123 8.65137 21.4214C8.79909 21.2304 8.71301 20.9216 8.5204 20.7672C8.32779 20.6128 5.13706 20.2364 5.13706 20.2364C5.16824 19.9906 5.26228 19.7591 5.3515 19.5257C5.51175 19.1118 5.66142 18.6842 5.6643 18.2408C5.66718 17.7973 5.49927 17.3311 5.13418 17.0771C4.83386 16.8685 4.4472 16.8298 4.08124 16.8384C3.81497 16.846 3.35491 16.7825 3.11171 16.8861C2.91925 16.9705 2.80769 17.2883 2.77174 17.4758Z" fill="#FBBEBE"/>
<path d="M14.7859 21.9288C14.9457 21.8682 15.1218 21.8901 15.293 21.913C15.8442 21.988 16.4036 22.0648 16.9145 22.2839C17.1544 22.3861 17.3827 22.5226 17.5449 22.7234C17.6887 22.9043 17.7727 23.1258 17.8524 23.3439L18.0366 23.8461C18.1149 24.0347 18.1689 24.2325 18.1973 24.4346C18.2549 25.0356 17.8418 25.6021 17.3223 25.9143C16.8028 26.2265 16.1911 26.3377 15.5953 26.4541C14.9994 26.5706 14.4012 26.6994 13.8078 26.836C13.5311 26.9075 13.2502 26.9624 12.9669 27.0007C12.3317 27.0722 11.6678 26.9668 11.0643 27.1758C10.8244 27.2594 10.5889 27.3835 10.3401 27.4412C10.1747 27.4759 10.0075 27.5012 9.83922 27.5171L8.69701 27.6469C8.46474 27.6778 8.23091 27.6957 7.99662 27.7004C7.49773 27.7004 7.00695 27.5828 6.5225 27.4653C6.47102 27.4563 6.42202 27.4366 6.37868 27.4076C6.30194 27.3474 6.28515 27.2409 6.27411 27.1446C6.22517 26.7178 6.18237 26.2906 6.1457 25.863C6.13419 25.7241 6.12556 25.5737 6.20184 25.4568C6.29778 25.3137 6.4849 25.2687 6.65568 25.2411C7.37986 25.1232 8.11348 25.0725 8.84709 25.0897C9.12578 24.8124 9.58538 24.811 9.95047 24.6601C10.0848 24.5988 10.2148 24.5284 10.3395 24.4496C10.9926 24.0706 11.7224 23.8411 12.4757 23.7781C12.6233 23.7736 12.7699 23.7528 12.9128 23.716C13.1953 23.6287 13.453 23.3909 13.7432 23.4492C13.7791 23.3504 13.8041 23.2182 13.887 23.1504C13.9281 23.1155 13.9791 23.0922 14.017 23.0549C14.0971 22.9743 14.1043 22.8473 14.0923 22.7346C14.0803 22.622 14.0534 22.5065 14.0827 22.3967C14.0949 22.3551 14.1128 22.3154 14.1359 22.2788C14.2794 22.0319 14.4967 21.9049 14.7859 21.9288Z" fill="#2F2E41"/>
<path d="M3.57539 13.9729C3.52867 14.0216 3.49244 14.0792 3.46892 14.1424C3.08115 15.0119 2.8521 15.9432 2.79252 16.8926C2.79356 16.9389 2.78284 16.9847 2.76134 17.0258C2.74014 17.0531 2.71654 17.0785 2.69082 17.1017C2.6684 17.1281 2.65143 17.1587 2.64088 17.1917C2.63034 17.2247 2.62643 17.2594 2.62937 17.2939C2.63231 17.3284 2.64204 17.3619 2.65802 17.3927C2.674 17.4234 2.69591 17.4507 2.72249 17.473C2.72685 17.4767 2.73133 17.4802 2.73592 17.4836C2.81507 17.3354 3.00455 17.2869 3.17296 17.274C3.97937 17.2106 4.76707 17.5838 5.57589 17.5557C5.51882 17.3595 5.43674 17.1709 5.39021 16.9724C5.1844 16.0908 5.69772 15.1309 5.38302 14.2818C5.32015 14.1118 5.21511 13.9448 5.04962 13.8703C4.98109 13.8428 4.90938 13.8239 4.83615 13.8141C4.63178 13.7774 4.22493 13.6203 4.02734 13.6833C3.9544 13.7067 3.92564 13.775 3.86519 13.8162C3.77335 13.8746 3.65152 13.896 3.57539 13.9729Z" fill="#6C63FF"/>
<path d="M14.7747 16.8861C14.5315 16.7825 14.0714 16.846 13.8052 16.8384C13.4392 16.8298 13.0526 16.8685 12.7522 17.0771C12.3871 17.3311 12.2192 17.7973 12.2221 18.2408C12.225 18.6842 12.3747 19.1118 12.5349 19.5257C12.6241 19.7591 12.7182 19.9906 12.7494 20.2364C12.7494 20.2364 9.55863 20.6128 9.36602 20.7672C9.17341 20.9216 9.08732 21.2304 9.23504 21.4214C9.38276 21.6123 13.992 21.804 14.5989 21.6762C14.6497 21.6775 14.6989 21.6587 14.7358 21.6239C14.7727 21.589 14.7942 21.5411 14.7956 21.4906C14.8569 21.1345 14.9063 20.7779 14.9394 20.4185C14.9569 20.2333 14.9696 20.0481 14.9826 19.8624L15.1204 17.8925C15.1358 17.7539 15.1339 17.614 15.1147 17.4758C15.0787 17.2883 14.9672 16.9705 14.7747 16.8861Z" fill="#FBBEBE"/>
<path d="M14.0211 13.8162C13.9607 13.775 13.9319 13.7067 13.859 13.6833C13.6614 13.6203 13.2545 13.7774 13.0502 13.8141C12.9769 13.8239 12.9052 13.8428 12.8367 13.8703C12.6712 13.9448 12.5662 14.1118 12.5033 14.2818C12.1886 15.1309 12.7019 16.0908 12.4961 16.9724C12.4496 17.1709 12.3675 17.3595 12.3104 17.5557C13.1192 17.5838 13.9069 17.2106 14.7133 17.274C14.8818 17.2869 15.0712 17.3354 15.1504 17.4836C15.155 17.4802 15.1595 17.4767 15.1638 17.473C15.1904 17.4507 15.2123 17.4234 15.2283 17.3927C15.2443 17.3619 15.254 17.3284 15.2569 17.2939C15.2599 17.2594 15.256 17.2247 15.2454 17.1917C15.2349 17.1587 15.2179 17.1281 15.1955 17.1017C15.1698 17.0785 15.1462 17.0531 15.125 17.0258C15.1035 16.9847 15.0927 16.9389 15.0938 16.8926C15.0342 15.9432 14.8052 15.0119 14.4174 14.1424C14.3939 14.0792 14.3576 14.0216 14.3109 13.9729C14.2348 13.896 14.113 13.8746 14.0211 13.8162Z" fill="#6C63FF"/>
<path d="M15.37 26.7473L15.2298 27.7971L11.0931 27.7586L11.3001 26.209L15.37 26.7473Z" fill="#FFB6B6"/>
<path d="M16.4286 26.6148L15.9764 30L15.9334 29.9943C15.5822 29.9479 15.2639 29.7645 15.0485 29.4846C14.8332 29.2046 14.7384 28.8511 14.7851 28.5016L14.7851 28.5015L15.0613 26.434L16.4286 26.6148Z" fill="#2F2E41"/>
<path d="M5.63814 22.46C5.63814 22.5078 5.56284 22.46 5.55596 22.4089C5.50321 22.0228 5.19519 21.7044 4.83636 21.5498C4.47754 21.3951 4.06879 21.387 3.68023 21.4237C3.09259 21.4791 2.43293 21.703 2.21803 22.2495C2.16718 22.3773 1.69084 23.5149 1.73732 23.7707C1.86254 24.4532 2.33169 25.037 2.90018 25.4413C3.46867 25.8456 4.13289 26.0871 4.79548 26.305C6.54728 26.8798 8.3446 27.307 10.1684 27.5818C10.4639 27.6262 10.7623 27.6672 11.0453 27.7617C11.2986 27.8462 11.5356 27.9727 11.7832 28.072C12.3588 28.302 12.9782 28.3841 13.5917 28.4648C13.6963 28.4782 13.8162 28.4877 13.8935 28.4171C13.9933 28.3251 13.9602 28.1646 13.9318 28.0324C13.8277 27.5297 13.9151 27.0064 14.177 26.5642C14.2797 26.3924 14.4133 26.2162 14.3939 26.0174C14.3708 25.7854 14.1386 25.6212 13.9074 25.5839C13.6762 25.5467 13.4411 25.6016 13.2089 25.6317C13.1293 25.6499 13.0459 25.6416 12.9714 25.6083C12.9369 25.5851 12.9056 25.5575 12.8783 25.5262C12.7184 25.3727 12.5137 25.2735 12.2936 25.2429C12.0734 25.2123 11.8492 25.2518 11.6531 25.3558C11.5672 25.4035 11.4374 25.2971 11.348 25.257L10.3391 24.8026C9.18014 24.2809 8.01538 23.7568 6.78919 23.4265C6.69135 23.4074 6.59836 23.3689 6.51573 23.3133C6.45481 23.2656 6.41116 23.2009 6.35502 23.1477C6.23267 23.0327 6.06225 22.9868 5.9156 22.9052C5.76896 22.8236 5.60455 22.6237 5.63814 22.46Z" fill="#2F2E41"/>
<path d="M8.24972 21.7703C8.64686 21.7703 8.96881 21.45 8.96881 21.0548C8.96881 20.6597 8.64686 20.3394 8.24972 20.3394C7.85258 20.3394 7.53064 20.6597 7.53064 21.0548C7.53064 21.45 7.85258 21.7703 8.24972 21.7703Z" fill="#FBBEBE"/>
<path d="M9.84201 21.7703C10.2391 21.7703 10.5611 21.45 10.5611 21.0548C10.5611 20.6597 10.2391 20.3394 9.84201 20.3394C9.44487 20.3394 9.12292 20.6597 9.12292 21.0548C9.12292 21.45 9.44487 21.7703 9.84201 21.7703Z" fill="#FBBEBE"/>
<path d="M14.2807 22.667H4.40161C4.28627 22.6669 4.17569 22.6213 4.09413 22.5401C4.01257 22.459 3.96669 22.349 3.96655 22.2342V16.2709C3.96669 16.1562 4.01257 16.0461 4.09413 15.965C4.17569 15.8838 4.28627 15.8382 4.40161 15.8381H14.2807C14.3961 15.8382 14.5066 15.8838 14.5882 15.965C14.6698 16.0461 14.7157 16.1562 14.7158 16.2709V22.2342C14.7157 22.349 14.6698 22.459 14.5882 22.5401C14.5066 22.6213 14.3961 22.6669 14.2807 22.667Z" fill="#3F3D56"/>
<path d="M9.31726 19.5389C9.47623 19.5389 9.6051 19.4107 9.6051 19.2525C9.6051 19.0943 9.47623 18.9661 9.31726 18.9661C9.15829 18.9661 9.02942 19.0943 9.02942 19.2525C9.02942 19.4107 9.15829 19.5389 9.31726 19.5389Z" fill="white"/>
<path d="M44.5846 10.7552H31.7494C31.6813 10.7551 31.616 10.7282 31.5679 10.6803C31.5197 10.6324 31.4926 10.5674 31.4926 10.4997V8.09262H31.5953V10.4997C31.5953 10.5403 31.6116 10.5793 31.6405 10.608C31.6693 10.6368 31.7085 10.653 31.7494 10.653H44.5846C44.6255 10.653 44.6647 10.6368 44.6935 10.608C44.7224 10.5793 44.7387 10.5403 44.7387 10.4997V8.07581H44.8415V10.4997C44.8414 10.5674 44.8143 10.6324 44.7662 10.6803C44.718 10.7282 44.6527 10.7551 44.5846 10.7552Z" fill="#3F3D56"/>
<path d="M49.2375 8.0415H19.076V8.14371H49.2375V8.0415Z" fill="#3F3D56"/>
<path d="M19.0782 8.96373C19.5662 8.96373 19.9618 8.57014 19.9618 8.08462C19.9618 7.5991 19.5662 7.20551 19.0782 7.20551C18.5903 7.20551 18.1947 7.5991 18.1947 8.08462C18.1947 8.57014 18.5903 8.96373 19.0782 8.96373Z" fill="#6C63FF"/>
<path d="M28.0568 8.96373C28.5447 8.96373 28.9403 8.57014 28.9403 8.08462C28.9403 7.5991 28.5447 7.20551 28.0568 7.20551C27.5688 7.20551 27.1732 7.5991 27.1732 8.08462C27.1732 8.57014 27.5688 8.96373 28.0568 8.96373Z" fill="#6C63FF"/>
<path d="M34.1501 11.5477C34.6381 11.5477 35.0337 11.1541 35.0337 10.6685C35.0337 10.183 34.6381 9.78943 34.1501 9.78943C33.6622 9.78943 33.2666 10.183 33.2666 10.6685C33.2666 11.1541 33.6622 11.5477 34.1501 11.5477Z" fill="#3F3D56"/>
<path d="M38.7823 11.5477C39.2703 11.5477 39.6659 11.1541 39.6659 10.6685C39.6659 10.183 39.2703 9.78943 38.7823 9.78943C38.2944 9.78943 37.8988 10.183 37.8988 10.6685C37.8988 11.1541 38.2944 11.5477 38.7823 11.5477Z" fill="#CCCCCC"/>
<path d="M36.5377 8.96373C37.0257 8.96373 37.4213 8.57014 37.4213 8.08462C37.4213 7.5991 37.0257 7.20551 36.5377 7.20551C36.0498 7.20551 35.6542 7.5991 35.6542 8.08462C35.6542 8.57014 36.0498 8.96373 36.5377 8.96373Z" fill="#6C63FF"/>
<path d="M49.1165 8.96373C49.6044 8.96373 50 8.57014 50 8.08462C50 7.5991 49.6044 7.20551 49.1165 7.20551C48.6285 7.20551 48.2329 7.5991 48.2329 8.08462C48.2329 8.57014 48.6285 8.96373 49.1165 8.96373Z" fill="#6C63FF"/>
<path d="M44.7902 8.96373C45.2781 8.96373 45.6737 8.57014 45.6737 8.08462C45.6737 7.5991 45.2781 7.20551 44.7902 7.20551C44.3022 7.20551 43.9066 7.5991 43.9066 8.08462C43.9066 8.57014 44.3022 8.96373 44.7902 8.96373Z" fill="#6C63FF"/>
<path d="M34.9498 0H33.311V1.12379H34.9498V0Z" fill="#3F3D56"/>
<path d="M19.9042 0H18.2654V1.12379H19.9042V0Z" fill="#6C63FF"/>
<path d="M25.4551 0H23.8163V1.12379H25.4551V0Z" fill="#CCCCCC"/>
<path d="M21.8181 8.14369C21.8045 8.14369 21.7914 8.13831 21.7818 8.12872C21.7721 8.11914 21.7667 8.10614 21.7667 8.09259V5.56992C21.7668 5.50217 21.7939 5.43722 21.842 5.38932C21.8902 5.34142 21.9555 5.31447 22.0235 5.31439H24.5236C24.5373 5.31439 24.5503 5.31978 24.5599 5.32936C24.5696 5.33895 24.575 5.35194 24.575 5.3655C24.575 5.37905 24.5696 5.39205 24.5599 5.40163C24.5503 5.41122 24.5373 5.4166 24.5236 5.4166H22.0235C21.9827 5.41665 21.9435 5.43281 21.9146 5.46156C21.8857 5.4903 21.8695 5.52927 21.8694 5.56992V8.09259C21.8694 8.10614 21.864 8.11914 21.8544 8.12872C21.8448 8.13831 21.8317 8.14369 21.8181 8.14369Z" fill="#3F3D56"/>
<path d="M24.6411 6.22551C25.1291 6.22551 25.5247 5.83192 25.5247 5.3464C25.5247 4.86088 25.1291 4.46729 24.6411 4.46729C24.1531 4.46729 23.7576 4.86088 23.7576 5.3464C23.7576 5.83192 24.1531 6.22551 24.6411 6.22551Z" fill="#E6E6E6"/>
<path d="M41.593 8.09259H41.4902V5.56992C41.4903 5.50217 41.5174 5.43722 41.5655 5.38932C41.6137 5.34142 41.679 5.31447 41.747 5.31439H44.2471V5.4166H41.747C41.7062 5.41665 41.667 5.43281 41.6381 5.46156C41.6093 5.4903 41.593 5.52927 41.593 5.56992V8.09259Z" fill="#3F3D56"/>
<path d="M44.3646 6.22551C44.8526 6.22551 45.2482 5.83192 45.2482 5.3464C45.2482 4.86088 44.8526 4.46729 44.3646 4.46729C43.8767 4.46729 43.4811 4.86088 43.4811 5.3464C43.4811 5.83192 43.8767 6.22551 44.3646 6.22551Z" fill="#E6E6E6"/>
</g>
<defs>
<clipPath id="clip0_101_972">
<rect width="50" height="30" fill="white"/>
</clipPath>
</defs>
</svg>
