<svg width="127" height="90" viewBox="0 0 127 90" fill="none" xmlns="http://www.w3.org/2000/svg">
<g clip-path="url(#clip0_15_163)">
<path d="M13.1356 87.7306L15.2434 87.7305L16.2462 79.6012L13.1351 79.6013L13.1356 87.7306Z" fill="#FFB6B6"/>
<path d="M13.0613 89.9292L19.5435 89.929V89.847C19.5434 89.178 19.2776 88.5364 18.8044 88.0633C18.3313 87.5903 17.6896 87.3245 17.0204 87.3245H17.0203L15.8362 86.4263L13.6271 87.3246L13.0612 87.3246L13.0613 89.9292Z" fill="#2F2E41"/>
<path d="M16.5396 77.8952L18.199 79.1947L24.0024 73.4135L21.5532 71.4954L16.5396 77.8952Z" fill="#FFB6B6"/>
<path d="M15.125 79.5802L20.228 83.5767L20.2786 83.5121C20.6912 82.9855 20.8776 82.3165 20.7969 81.6523C20.7163 80.9882 20.375 80.3833 19.8483 79.9707L19.8482 79.9706L19.47 78.5336L17.1769 77.8786L16.7314 77.5297L15.125 79.5802Z" fill="#2F2E41"/>
<path d="M26.4637 40.8553C26.4637 40.8553 29.2613 43.7561 28.0179 50.49L29.0618 62.02L29.3312 62.5538C29.4917 62.8718 29.5478 63.2324 29.4914 63.5842C29.435 63.936 29.2689 64.261 29.017 64.5129L28.795 65.201L28.5878 66.5478L20.8684 78.1508L17.9153 75.0428L22.6817 64.165L21.3865 61.3678L18.3816 51.6296L16.3093 69.4485L16.7237 84.7811H12.7573L10.2995 67.6873L7.70908 43.6525L9.0565 40.8553H26.4637Z" fill="#2F2E41"/>
<path d="M8.35508 45.8396L8.32682 45.8C6.81708 43.6867 9.08772 38.6085 9.43019 37.8723C9.02352 37.7404 8.67517 37.4716 8.44447 37.1117C8.21377 36.7518 8.11498 36.323 8.16494 35.8985L8.31257 34.6438L8.46645 33.4131L7.36401 32.3108L7.36091 32.2833L6.72647 26.733L5.80401 23.0465C5.45644 21.6528 5.48606 20.1918 5.88984 18.8134C6.29361 17.435 7.05699 16.1889 8.10161 15.2029L10.2339 14.8644L12.8252 12.368H17.0041L18.4369 13.7368C21.1117 14.2058 21.5712 14.0526 23.8688 16.8093L22.8248 25.3797L22.5643 26.5587L22.5651 28.1578L23.2272 28.8936C23.4657 29.1586 23.639 29.4756 23.7333 29.8195C23.8276 30.1633 23.8403 30.5244 23.7704 30.874L23.6833 31.3093C24.3662 31.6019 25.0179 36.8019 25.1735 37.5282L25.4061 38.6132C25.6051 38.8757 26.9183 40.6265 26.9183 41.1051C26.9183 41.1769 26.8653 41.2464 26.7514 41.3235C25.8564 41.9294 22.2884 46.2276 20.099 45.3516C17.767 44.4194 8.49666 45.8179 8.40326 45.8322L8.35508 45.8396Z" fill="#3F3D56"/>
<path d="M7.79365 35.8736C7.79365 35.8736 8.86678 29.8099 7.78567 27.5294L3.49684 27.8357L4.14954 36.4864L7.89877 46.0913C7.84154 46.3872 7.86365 46.693 7.96284 46.9776C8.06204 47.2622 8.23478 47.5155 8.46355 47.7118C8.69232 47.9081 8.96896 48.0404 9.26539 48.0952C9.56182 48.1501 9.86748 48.1255 10.1513 48.024C10.4352 47.9226 10.6872 47.7478 10.8816 47.5175C11.0761 47.2872 11.2062 47.0096 11.2586 46.7128C11.3111 46.416 11.2841 46.1106 11.1803 45.8276C11.0765 45.5446 10.8997 45.2941 10.6678 45.1015L7.79365 35.8736Z" fill="#FFB6B6"/>
<path d="M3.49685 24.3134L3.76228 21.4233C3.86218 20.3356 4.17618 19.2784 4.68623 18.3125C5.19627 17.3466 5.89229 16.491 6.73425 15.795C7.25739 15.3657 7.89017 15.0913 8.56111 15.0028C9.23204 14.9142 9.91438 15.015 10.531 15.2939C11.3643 15.6775 12.0209 16.3631 12.3679 17.2122C12.715 18.0613 12.7266 19.0104 12.4004 19.8678C11.4092 22.467 11.7671 25.2158 9.83425 25.5509L10.0442 26.5498L8.14378 32.7507L2.73097 32.1238L3.49685 24.3134Z" fill="#3F3D56"/>
<path d="M32.0446 32.9996C32.0446 32.9996 28.9032 27.703 26.5961 26.679L23.5445 29.7076L29.6817 35.8402L38.7887 40.6772C38.9383 40.9388 39.1546 41.1562 39.4154 41.3073C39.6762 41.4584 39.9724 41.5378 40.2739 41.5375C40.5753 41.5371 40.8713 41.457 41.1318 41.3053C41.3923 41.1536 41.608 40.9357 41.757 40.6737C41.9061 40.4117 41.9831 40.1149 41.9803 39.8136C41.9775 39.5122 41.8951 39.2169 41.7412 38.9577C41.5874 38.6984 41.3677 38.4845 41.1045 38.3377C40.8412 38.1908 40.5438 38.1161 40.2424 38.1213L32.0446 32.9996Z" fill="#FFB6B6"/>
<path d="M21.2471 27.0373L19.5633 24.6733C18.9296 23.7835 18.4781 22.7773 18.2347 21.7125C17.9914 20.6476 17.961 19.5452 18.1453 18.4686C18.2619 17.8021 18.5627 17.1814 19.0136 16.6768C19.4645 16.1723 20.0475 15.8038 20.6968 15.6131C21.5788 15.3606 22.5237 15.4523 23.3406 15.8697C24.1575 16.2872 24.7854 16.9992 25.0974 17.8618C26.0412 20.4786 29.484 24.7794 28.2373 26.2937L29.048 26.9141L30.2732 30.4038L25.7608 33.4578L21.2471 27.0373Z" fill="#3F3D56"/>
<path d="M14.6327 11.162C17.1958 11.162 19.2736 9.0846 19.2736 6.52194C19.2736 3.95928 17.1958 1.88184 14.6327 1.88184C12.0696 1.88184 9.99176 3.95928 9.99176 6.52194C9.99176 9.0846 12.0696 11.162 14.6327 11.162Z" fill="#FFB6B6"/>
<path d="M11.2646 9.79251C11.2241 9.75699 11.1859 9.71906 11.1463 9.68256C11.1449 9.6863 11.1447 9.69014 11.1432 9.69387L11.2646 9.79251Z" fill="#2F2E41"/>
<path d="M18.4359 1.62202C18.2053 1.25089 17.8859 0.943008 17.5066 0.726159C17.2473 0.60042 16.9748 0.503897 16.6942 0.438369L15.9597 0.238013C15.5834 0.121587 15.1962 0.0436434 14.8042 0.00538262C14.2597 -0.0214702 13.7184 0.101779 13.2393 0.361667C12.7601 0.621556 12.3616 1.00809 12.0873 1.47905C11.8654 1.87256 11.6874 2.36293 11.2592 2.5069C10.9138 2.623 10.5371 2.45924 10.1741 2.49101C9.96147 2.52182 9.75968 2.60461 9.58666 2.73203C9.41364 2.85946 9.27473 3.02758 9.18223 3.22151C9.00136 3.61177 8.91234 4.03829 8.92201 4.46831C8.90775 5.4446 9.09832 6.41303 9.48144 7.31115C9.86456 8.20927 10.4317 9.01713 11.1463 9.68261C11.2661 9.36693 11.0688 9.02611 10.9128 8.72413C10.755 8.41857 10.6575 7.99258 10.9218 7.77251C11.2159 7.52763 11.6871 7.76509 12.0349 7.6054C12.1462 7.5415 12.2399 7.45104 12.3077 7.3421C12.3755 7.23316 12.4152 7.10913 12.4234 6.98109C12.457 6.72737 12.4219 6.46946 12.4378 6.21402C12.4536 5.9608 12.5194 5.71322 12.6314 5.48558C12.7434 5.25793 12.8994 5.05473 13.0905 4.8877C13.2815 4.72067 13.5037 4.59314 13.7442 4.51245C13.9848 4.43176 14.239 4.39953 14.4921 4.41761C15.2838 4.47415 16.0521 5.01502 16.8139 4.79251C17.1715 4.68806 17.4765 4.42213 17.8464 4.3774C18.256 4.32785 18.6413 4.55898 18.9891 4.78091C19.1155 4.24435 19.1316 3.68772 19.0365 3.14474C18.9414 2.60175 18.7371 2.08372 18.4359 1.62202Z" fill="#2F2E41"/>
<path d="M34.525 87.3222L33.344 85.4248L33.1081 86.509C33.0668 86.6989 33.0254 86.8919 32.9871 87.0833C32.6517 86.7969 32.2948 86.532 31.9456 86.2778C30.8734 85.4998 29.8016 84.7208 28.7304 83.9408L29.0659 85.8857C29.2727 87.0833 29.4887 88.3054 30.0002 89.4004C30.0569 89.5245 30.1182 89.647 30.1841 89.7665H35.1683C35.2084 89.6555 35.2361 89.5404 35.251 89.4234C35.2523 89.4158 35.2528 89.4081 35.2525 89.4004C35.3307 88.6577 34.9202 87.9578 34.525 87.3222Z" fill="#F0F0F0"/>
<path d="M120.927 85.273L118.785 81.8312L118.357 83.798C118.282 84.1424 118.207 84.4924 118.137 84.8397C117.529 84.3202 116.882 83.8396 116.248 83.3785C114.303 81.9673 112.359 80.5543 110.416 79.1395L111.025 82.6674C111.4 84.8397 111.792 87.0564 112.72 89.0426C112.822 89.2676 112.933 89.4898 113.053 89.7065H122.094C122.167 89.5052 122.217 89.2965 122.244 89.0842C122.246 89.0705 122.247 89.0565 122.247 89.0426C122.388 87.6953 121.644 86.4258 120.927 85.273Z" fill="#F0F0F0"/>
<path d="M126.818 89.9529L0.182386 90C0.134108 89.9999 0.0878555 89.9806 0.0537667 89.9464C0.0196779 89.9122 0.000534058 89.8659 0.000534058 89.8177C0.000534058 89.7694 0.0196779 89.7231 0.0537667 89.6889C0.0878555 89.6547 0.134108 89.6355 0.182386 89.6353L126.818 89.5883C126.866 89.5884 126.912 89.6077 126.946 89.6419C126.98 89.676 126.999 89.7223 126.999 89.7706C126.999 89.8189 126.98 89.8652 126.946 89.8994C126.912 89.9335 126.866 89.9528 126.818 89.9529Z" fill="#CACACA"/>
<path d="M39.7326 36.4942V80.4506C39.733 81.0108 39.9558 81.5479 40.352 81.944C40.7481 82.3401 41.2853 82.5628 41.8456 82.5632H106.996C107.556 82.5628 108.093 82.3401 108.49 81.944C108.886 81.5479 109.108 81.0108 109.109 80.4506V36.4942C109.108 35.9345 108.884 35.3982 108.488 35.0026C108.092 34.6071 107.556 34.3846 106.996 34.3839H41.8456C41.2858 34.3846 40.7491 34.6071 40.3531 35.0026C39.957 35.3982 39.7339 35.9345 39.7326 36.4942Z" fill="#3F3D56"/>
<path d="M41.261 37.0411V79.9084C41.2615 80.2077 41.3806 80.4945 41.5923 80.7062C41.804 80.9178 42.0909 81.0369 42.3903 81.0374H106.454C106.753 81.0369 107.04 80.9178 107.252 80.7062C107.463 80.4945 107.582 80.2077 107.583 79.9084V37.0411C107.583 36.7414 107.464 36.454 107.252 36.2419C107.04 36.0298 106.753 35.9103 106.454 35.9097H42.3903C42.0906 35.9103 41.8033 36.0298 41.5916 36.2419C41.3799 36.454 41.261 36.7414 41.261 37.0411Z" fill="white"/>
<path d="M38.37 89.0233C38.4894 89.1729 38.6411 89.2935 38.8138 89.3761C38.9864 89.4587 39.1756 89.5011 39.367 89.5002H109.128C109.318 89.4999 109.507 89.4572 109.679 89.375C109.851 89.2929 110.003 89.1734 110.123 89.0252C110.243 88.8771 110.329 88.704 110.374 88.5186C110.419 88.3332 110.422 88.1401 110.382 87.9535L109.3 82.8106C109.255 82.6009 109.158 82.4057 109.018 82.2429C108.879 82.08 108.701 81.9547 108.5 81.8783C108.355 81.8214 108.201 81.7922 108.045 81.7924H40.4456C40.2897 81.7922 40.1352 81.8214 39.9901 81.8783C39.7897 81.9547 39.6115 82.08 39.4719 82.2429C39.3323 82.4057 39.2357 82.6009 39.1908 82.8106L38.1079 87.9535C38.0694 88.14 38.0729 88.3329 38.1183 88.5179C38.1636 88.703 38.2496 88.8756 38.37 89.0233Z" fill="#2F2E41"/>
<path d="M105.475 84.0076H107.475C107.516 84.0076 107.549 83.9741 107.549 83.9328V82.7934C107.549 82.7521 107.516 82.7186 107.475 82.7186H105.475C105.434 82.7186 105.401 82.7521 105.401 82.7934V83.9328C105.401 83.9741 105.434 84.0076 105.475 84.0076Z" fill="#3F3D56"/>
<path d="M101.178 84.0076H103.177C103.219 84.0076 103.252 83.9741 103.252 83.9328V82.7934C103.252 82.7521 103.219 82.7186 103.177 82.7186H101.178C101.137 82.7186 101.104 82.7521 101.104 82.7934V83.9328C101.104 83.9741 101.137 84.0076 101.178 84.0076Z" fill="#3F3D56"/>
<path d="M96.8811 84.0076H98.8801C98.9214 84.0076 98.9549 83.9741 98.9549 83.9328V82.7934C98.9549 82.7521 98.9214 82.7186 98.8801 82.7186H96.8811C96.8398 82.7186 96.8063 82.7521 96.8063 82.7934V83.9328C96.8063 83.9741 96.8398 84.0076 96.8811 84.0076Z" fill="#3F3D56"/>
<path d="M92.5839 84.0076H94.5829C94.6242 84.0076 94.6577 83.9741 94.6577 83.9328V82.7934C94.6577 82.7521 94.6242 82.7186 94.5829 82.7186H92.5839C92.5426 82.7186 92.5091 82.7521 92.5091 82.7934V83.9328C92.5091 83.9741 92.5426 84.0076 92.5839 84.0076Z" fill="#3F3D56"/>
<path d="M88.2867 84.0076H90.2857C90.327 84.0076 90.3605 83.9741 90.3605 83.9328V82.7934C90.3605 82.7521 90.327 82.7186 90.2857 82.7186H88.2867C88.2454 82.7186 88.2119 82.7521 88.2119 82.7934V83.9328C88.2119 83.9741 88.2454 84.0076 88.2867 84.0076Z" fill="#3F3D56"/>
<path d="M83.9895 84.0076H85.9885C86.0298 84.0076 86.0633 83.9741 86.0633 83.9328V82.7934C86.0633 82.7521 86.0298 82.7186 85.9885 82.7186H83.9895C83.9482 82.7186 83.9147 82.7521 83.9147 82.7934V83.9328C83.9147 83.9741 83.9482 84.0076 83.9895 84.0076Z" fill="#3F3D56"/>
<path d="M79.6923 84.0076H81.6913C81.7326 84.0076 81.7661 83.9741 81.7661 83.9328V82.7934C81.7661 82.7521 81.7326 82.7186 81.6913 82.7186H79.6923C79.651 82.7186 79.6175 82.7521 79.6175 82.7934V83.9328C79.6175 83.9741 79.651 84.0076 79.6923 84.0076Z" fill="#3F3D56"/>
<path d="M75.3951 84.0076H77.3942C77.4354 84.0076 77.4689 83.9741 77.4689 83.9328V82.7934C77.4689 82.7521 77.4354 82.7186 77.3942 82.7186H75.3951C75.3538 82.7186 75.3203 82.7521 75.3203 82.7934V83.9328C75.3203 83.9741 75.3538 84.0076 75.3951 84.0076Z" fill="#3F3D56"/>
<path d="M71.0979 84.0076H73.0969C73.1382 84.0076 73.1717 83.9741 73.1717 83.9328V82.7934C73.1717 82.7521 73.1382 82.7186 73.0969 82.7186H71.0979C71.0566 82.7186 71.0231 82.7521 71.0231 82.7934V83.9328C71.0231 83.9741 71.0566 84.0076 71.0979 84.0076Z" fill="#3F3D56"/>
<path d="M66.8007 84.0076H68.7998C68.8411 84.0076 68.8745 83.9741 68.8745 83.9328V82.7934C68.8745 82.7521 68.8411 82.7186 68.7998 82.7186H66.8007C66.7594 82.7186 66.726 82.7521 66.726 82.7934V83.9328C66.726 83.9741 66.7594 84.0076 66.8007 84.0076Z" fill="#3F3D56"/>
<path d="M62.5035 84.0076H64.5025C64.5438 84.0076 64.5773 83.9741 64.5773 83.9328V82.7934C64.5773 82.7521 64.5438 82.7186 64.5025 82.7186H62.5035C62.4622 82.7186 62.4287 82.7521 62.4287 82.7934V83.9328C62.4287 83.9741 62.4622 84.0076 62.5035 84.0076Z" fill="#3F3D56"/>
<path d="M58.2063 84.0076H60.2054C60.2467 84.0076 60.2802 83.9741 60.2802 83.9328V82.7934C60.2802 82.7521 60.2467 82.7186 60.2054 82.7186H58.2063C58.165 82.7186 58.1316 82.7521 58.1316 82.7934V83.9328C58.1316 83.9741 58.165 84.0076 58.2063 84.0076Z" fill="#3F3D56"/>
<path d="M53.9091 84.0076H55.9082C55.9495 84.0076 55.983 83.9741 55.983 83.9328V82.7934C55.983 82.7521 55.9495 82.7186 55.9082 82.7186H53.9091C53.8678 82.7186 53.8344 82.7521 53.8344 82.7934V83.9328C53.8344 83.9741 53.8678 84.0076 53.9091 84.0076Z" fill="#3F3D56"/>
<path d="M49.6119 84.0076H51.611C51.6523 84.0076 51.6858 83.9741 51.6858 83.9328V82.7934C51.6858 82.7521 51.6523 82.7186 51.611 82.7186H49.6119C49.5706 82.7186 49.5372 82.7521 49.5372 82.7934V83.9328C49.5372 83.9741 49.5706 84.0076 49.6119 84.0076Z" fill="#3F3D56"/>
<path d="M45.3147 84.0076H47.3138C47.3551 84.0076 47.3886 83.9741 47.3886 83.9328V82.7934C47.3886 82.7521 47.3551 82.7186 47.3138 82.7186H45.3147C45.2734 82.7186 45.24 82.7521 45.24 82.7934V83.9328C45.24 83.9741 45.2734 84.0076 45.3147 84.0076Z" fill="#3F3D56"/>
<path d="M41.0176 84.0076H43.0166C43.0579 84.0076 43.0914 83.9741 43.0914 83.9328V82.7934C43.0914 82.7521 43.0579 82.7186 43.0166 82.7186H41.0176C40.9763 82.7186 40.9428 82.7521 40.9428 82.7934V83.9328C40.9428 83.9741 40.9763 84.0076 41.0176 84.0076Z" fill="#3F3D56"/>
<path d="M105.526 86.1558H107.525C107.567 86.1558 107.6 86.1223 107.6 86.081V84.9416C107.6 84.9003 107.567 84.8668 107.525 84.8668H105.526C105.485 84.8668 105.451 84.9003 105.451 84.9416V86.081C105.451 86.1223 105.485 86.1558 105.526 86.1558Z" fill="#3F3D56"/>
<path d="M101.229 86.1558H103.228C103.269 86.1558 103.303 86.1223 103.303 86.081V84.9416C103.303 84.9003 103.269 84.8668 103.228 84.8668H101.229C101.188 84.8668 101.154 84.9003 101.154 84.9416V86.081C101.154 86.1223 101.188 86.1558 101.229 86.1558Z" fill="#3F3D56"/>
<path d="M96.9319 86.1558H98.9309C98.9722 86.1558 99.0057 86.1223 99.0057 86.081V84.9416C99.0057 84.9003 98.9722 84.8668 98.9309 84.8668H96.9319C96.8906 84.8668 96.8571 84.9003 96.8571 84.9416V86.081C96.8571 86.1223 96.8906 86.1558 96.9319 86.1558Z" fill="#3F3D56"/>
<path d="M92.6347 86.1558H94.6337C94.675 86.1558 94.7085 86.1223 94.7085 86.081V84.9416C94.7085 84.9003 94.675 84.8668 94.6337 84.8668H92.6347C92.5934 84.8668 92.5599 84.9003 92.5599 84.9416V86.081C92.5599 86.1223 92.5934 86.1558 92.6347 86.1558Z" fill="#3F3D56"/>
<path d="M88.3375 86.1558H90.3365C90.3778 86.1558 90.4113 86.1223 90.4113 86.081V84.9416C90.4113 84.9003 90.3778 84.8668 90.3365 84.8668H88.3375C88.2962 84.8668 88.2627 84.9003 88.2627 84.9416V86.081C88.2627 86.1223 88.2962 86.1558 88.3375 86.1558Z" fill="#3F3D56"/>
<path d="M84.0403 86.1558H86.0393C86.0806 86.1558 86.1141 86.1223 86.1141 86.081V84.9416C86.1141 84.9003 86.0806 84.8668 86.0393 84.8668H84.0403C83.999 84.8668 83.9655 84.9003 83.9655 84.9416V86.081C83.9655 86.1223 83.999 86.1558 84.0403 86.1558Z" fill="#3F3D56"/>
<path d="M79.7431 86.1558H81.7421C81.7834 86.1558 81.8169 86.1223 81.8169 86.081V84.9416C81.8169 84.9003 81.7834 84.8668 81.7421 84.8668H79.7431C79.7018 84.8668 79.6683 84.9003 79.6683 84.9416V86.081C79.6683 86.1223 79.7018 86.1558 79.7431 86.1558Z" fill="#3F3D56"/>
<path d="M75.4459 86.1558H77.4449C77.4862 86.1558 77.5197 86.1223 77.5197 86.081V84.9416C77.5197 84.9003 77.4862 84.8668 77.4449 84.8668H75.4459C75.4046 84.8668 75.3711 84.9003 75.3711 84.9416V86.081C75.3711 86.1223 75.4046 86.1558 75.4459 86.1558Z" fill="#3F3D56"/>
<path d="M71.1487 86.1558H73.1477C73.189 86.1558 73.2225 86.1223 73.2225 86.081V84.9416C73.2225 84.9003 73.189 84.8668 73.1477 84.8668H71.1487C71.1074 84.8668 71.0739 84.9003 71.0739 84.9416V86.081C71.0739 86.1223 71.1074 86.1558 71.1487 86.1558Z" fill="#3F3D56"/>
<path d="M66.8515 86.1558H68.8505C68.8918 86.1558 68.9253 86.1223 68.9253 86.081V84.9416C68.9253 84.9003 68.8918 84.8668 68.8505 84.8668H66.8515C66.8102 84.8668 66.7767 84.9003 66.7767 84.9416V86.081C66.7767 86.1223 66.8102 86.1558 66.8515 86.1558Z" fill="#3F3D56"/>
<path d="M62.5543 86.1558H64.5533C64.5946 86.1558 64.6281 86.1223 64.6281 86.081V84.9416C64.6281 84.9003 64.5946 84.8668 64.5533 84.8668H62.5543C62.513 84.8668 62.4795 84.9003 62.4795 84.9416V86.081C62.4795 86.1223 62.513 86.1558 62.5543 86.1558Z" fill="#3F3D56"/>
<path d="M58.2571 86.1558H60.2561C60.2974 86.1558 60.3309 86.1223 60.3309 86.081V84.9416C60.3309 84.9003 60.2974 84.8668 60.2561 84.8668H58.2571C58.2158 84.8668 58.1823 84.9003 58.1823 84.9416V86.081C58.1823 86.1223 58.2158 86.1558 58.2571 86.1558Z" fill="#3F3D56"/>
<path d="M53.9599 86.1558H55.9589C56.0002 86.1558 56.0337 86.1223 56.0337 86.081V84.9416C56.0337 84.9003 56.0002 84.8668 55.9589 84.8668H53.9599C53.9186 84.8668 53.8851 84.9003 53.8851 84.9416V86.081C53.8851 86.1223 53.9186 86.1558 53.9599 86.1558Z" fill="#3F3D56"/>
<path d="M49.6627 86.1558H51.6618C51.7031 86.1558 51.7365 86.1223 51.7365 86.081V84.9416C51.7365 84.9003 51.7031 84.8668 51.6618 84.8668H49.6627C49.6214 84.8668 49.5879 84.9003 49.5879 84.9416V86.081C49.5879 86.1223 49.6214 86.1558 49.6627 86.1558Z" fill="#3F3D56"/>
<path d="M45.3655 86.1558H47.3646C47.4059 86.1558 47.4393 86.1223 47.4393 86.081V84.9416C47.4393 84.9003 47.4059 84.8668 47.3646 84.8668H45.3655C45.3242 84.8668 45.2907 84.9003 45.2907 84.9416V86.081C45.2907 86.1223 45.3242 86.1558 45.3655 86.1558Z" fill="#3F3D56"/>
<path d="M41.0683 86.1558H43.0674C43.1087 86.1558 43.1421 86.1223 43.1421 86.081V84.9416C43.1421 84.9003 43.1087 84.8668 43.0674 84.8668H41.0683C41.027 84.8668 40.9935 84.9003 40.9935 84.9416V86.081C40.9935 86.1223 41.027 86.1558 41.0683 86.1558Z" fill="#3F3D56"/>
<path d="M65.1112 88.7336H82.1504C82.1917 88.7336 82.2252 88.7002 82.2252 88.6589V87.5195C82.2252 87.4782 82.1917 87.4447 82.1504 87.4447H65.1112C65.0699 87.4447 65.0364 87.4782 65.0364 87.5195V88.6589C65.0364 88.7002 65.0699 88.7336 65.1112 88.7336Z" fill="#3F3D56"/>
<path d="M89.0162 61.8769C89.0091 65.4957 87.6483 68.9808 85.2014 71.6473C82.7545 74.3137 79.3985 75.9686 75.7932 76.2865C72.1878 76.6044 68.5939 75.5624 65.718 73.3653C62.8422 71.1682 60.8923 67.9749 60.2518 64.4133C59.6114 60.8517 60.3266 57.1794 62.2569 54.1183C64.1873 51.0572 67.193 48.8288 70.6834 47.8712C74.1737 46.9135 77.896 47.296 81.1186 48.9432C84.3412 50.5905 86.831 53.3835 88.0984 56.7731C88.13 56.8582 88.1608 56.9433 88.1908 57.0293V57.0301C88.3246 57.4078 88.4424 57.7926 88.5443 58.1844C88.8586 59.3901 89.0172 60.631 89.0162 61.8769Z" fill="#3F3D56"/>
<path d="M72.8252 52.0321C72.1693 51.6775 71.4411 51.4773 70.6961 51.4468C69.9511 51.4164 69.209 51.5564 68.5264 51.8563C67.9253 52.1178 67.2924 52.5869 67.0919 53.4342C67.9029 52.9557 68.9526 53.7117 69.1613 54.9245L69.1126 54.938C69.0024 55.778 69.2484 56.6926 69.7247 57.2135C69.7602 56.9785 69.8475 56.7543 69.9804 56.5572C70.1133 56.3601 70.2884 56.1951 70.4931 56.0742C70.8431 55.8441 71.2303 55.677 71.4974 55.2816C71.8141 54.8129 71.8945 54.1278 72.0203 53.5029C72.1461 52.8779 72.3848 52.2062 72.8252 52.0321Z" fill="#0B0808"/>
<path d="M68.2858 59.1807C68.0612 59.5179 67.7613 59.7295 67.4921 59.9929C67.1813 60.2756 66.9774 60.6566 66.9148 61.0719C66.8807 61.3654 66.9334 61.6637 66.9261 61.9604C66.9189 62.2571 66.8199 62.5911 66.618 62.6648C66.2994 62.78 66.0562 62.1882 65.7286 62.1468C65.4683 62.1144 65.234 62.5238 65.3094 62.8789C65.3848 63.2339 65.7391 63.3912 65.9427 63.1593C66.1267 63.4682 65.997 64.0284 65.7205 64.1232C65.6913 64.3178 65.6621 64.5115 65.6337 64.7061C64.9348 64.2172 64.2286 63.7203 63.6343 63.0045C62.9733 62.2152 62.5634 61.2463 62.4571 60.2224C62.38 59.3995 62.4944 58.4584 62.1165 57.8253C61.8141 57.3186 61.2952 57.2067 60.8282 57.2384C60.743 57.244 60.6571 57.2538 60.572 57.2643C60.8474 56.4372 61.1972 55.6368 61.6171 54.8729C61.7121 54.8321 61.8004 54.7772 61.8789 54.7099C62.3135 54.3411 62.5065 53.5945 62.8592 53.0781C62.8819 53.0448 62.9054 53.0124 62.9297 52.9808C63.2906 52.5098 63.7738 52.2674 64.2408 52.0421C65.2746 51.5403 66.3383 51.032 67.4296 51.1017L67.1191 51.1317C66.7567 52.1466 66.394 53.1616 66.031 54.1765C65.9759 54.3322 65.9202 54.4881 65.864 54.6443C65.6581 55.2214 65.4456 55.8359 65.4773 56.482C65.4959 56.8646 65.6289 57.2732 65.8818 57.4045C66.1178 57.5261 66.3756 57.377 66.6034 57.2294C66.6999 57.1678 66.7956 57.1062 66.8921 57.0438C67.2383 56.8209 67.6218 56.5923 67.9875 56.7414C68.3223 56.8776 68.5696 57.3324 68.6166 57.8228C68.6598 58.2996 68.5434 58.7772 68.2858 59.1807Z" fill="#0B0808"/>
<path d="M70.3449 66.1099C69.3338 65.4874 68.3226 64.865 67.3115 64.2425L67.3286 64.1983C66.7 64.4377 66.439 65.555 66.5429 66.4688C66.6468 67.3825 66.999 68.1993 67.177 69.0896C67.417 70.308 67.3264 71.5683 66.9147 72.7399C68.2443 71.2483 69.421 69.6271 70.4271 67.9008C70.5676 67.6832 70.6747 67.4458 70.7448 67.1965C70.819 66.9307 70.7925 66.6469 70.6705 66.3995C70.5877 66.2774 70.4758 66.1779 70.3449 66.1099Z" fill="#0B0808"/>
<path d="M66.3543 54.7855C66.2356 55.0404 66.2173 55.3306 66.303 55.5984C66.4028 55.8142 66.5838 55.9818 66.8066 56.0647L67.3653 56.3416C67.5512 56.4337 67.7515 56.5267 67.941 56.451C68.1695 56.3595 68.328 56.0013 68.287 55.6688C68.2434 55.3149 68.0202 55.0715 67.8139 54.8642C67.5252 54.5741 67.2364 54.284 66.9476 53.9939L66.7849 54.1932C66.6089 54.3648 66.4633 54.5651 66.3543 54.7855Z" fill="#0B0808"/>
<path d="M86.0211 58.5687C86.2725 58.6278 86.5238 58.687 86.7751 58.7462C86.7314 59.595 86.3106 60.3805 85.7463 60.665C85.5111 60.7834 85.2492 60.8271 85.0546 61.0485C84.8787 61.2495 84.7895 61.5624 84.7076 61.8615C84.5641 62.3836 84.4206 62.9057 84.2771 63.4277C84.123 63.9903 83.9252 64.6153 83.5247 64.818C83.1809 64.9923 82.7877 64.7791 82.5234 64.4216C82.259 64.0641 82.0977 63.5834 81.9412 63.1148C81.9509 63.6255 81.7134 64.1265 81.3769 64.304C81.0396 64.4815 80.6293 64.321 80.4039 63.9246C80.2418 63.6401 80.1745 63.2648 80.0156 62.9762C79.8567 62.6876 79.5234 62.5222 79.3499 62.793C79.2356 62.9729 79.2502 63.2486 79.1934 63.4772C79.1648 63.6289 79.0897 63.768 78.9784 63.8751C78.8671 63.9822 78.7251 64.0519 78.5724 64.0746C78.4319 64.0714 78.2935 64.0396 78.1657 63.9812C78.0379 63.9228 77.9233 63.839 77.8289 63.7349C77.3324 63.2271 77.0091 62.5754 76.9054 61.8729C76.835 61.5361 76.8439 61.1875 76.9313 60.8547C77.031 60.5394 77.2718 60.2962 77.511 60.3562C77.6683 60.0238 77.3578 59.5828 77.0781 59.6217C76.7975 59.6606 76.5778 59.9614 76.3475 60.1924C76.1181 60.4234 75.797 60.5912 75.5659 60.3618C75.5686 60.4055 75.5622 60.4492 75.5472 60.4903C75.5322 60.5313 75.5088 60.5688 75.4786 60.6004C75.4484 60.632 75.4119 60.657 75.3716 60.6739C75.3312 60.6907 75.2878 60.699 75.2441 60.6982C75.0904 60.6541 74.9476 60.5785 74.8249 60.4761C74.2954 60.1462 73.6233 60.3651 73.2471 60.9893C73.4822 59.9889 73.8268 58.841 74.5492 58.606C74.8443 58.5095 75.1662 58.5889 75.4451 58.4219C75.9389 58.1261 76.0386 57.0082 75.6122 56.5469C75.6665 56.983 75.6559 57.4921 75.4257 57.7905C75.1954 58.0888 74.7122 57.8942 74.7414 57.4532C74.7348 57.5152 74.7088 57.5736 74.667 57.6199C74.6253 57.6663 74.5699 57.6982 74.5089 57.7112C74.4479 57.7241 74.3843 57.7174 74.3273 57.6921C74.2703 57.6667 74.2228 57.624 74.1916 57.57C74.0384 57.3365 74.0514 56.9547 74.16 56.6758C74.272 56.4232 74.4326 56.1952 74.6327 56.0046C75.0178 55.592 75.4087 55.1745 75.8546 54.9151C76.3013 54.6557 76.817 54.5681 77.2645 54.8259C77.5005 54.9621 77.7081 55.1891 77.9489 55.3091C78.0066 55.3448 78.0708 55.3687 78.1379 55.3792C78.205 55.3897 78.2735 55.3866 78.3394 55.3701C78.4052 55.3536 78.4671 55.3241 78.5213 55.2832C78.5756 55.2424 78.621 55.1911 78.6551 55.1323C78.8343 54.8178 78.7499 54.3509 78.8164 53.9577C78.9356 53.263 79.6304 52.9379 80.0156 53.3967C79.7277 53.323 79.4302 53.6634 79.3945 54.0761C79.358 54.4887 79.5664 54.9054 79.8453 55.0302C80.3139 55.2377 80.7728 54.7157 81.1272 54.2325C81.4969 53.7267 81.8671 53.2211 82.238 52.7158C82.2972 52.6298 82.3636 52.5489 82.4366 52.4742C82.5527 52.361 82.7075 52.2962 82.8697 52.2929C83.0318 52.2896 83.1892 52.348 83.3098 52.4564C83.6844 52.762 83.8604 53.3886 84.1677 53.8199C84.6136 54.4465 85.2809 54.5989 85.9019 54.7205C86.3649 54.8105 86.8281 54.901 87.2916 54.9921C87.6006 55.5668 87.8701 56.1618 88.0984 56.7731C87.2484 57.1606 86.5275 57.7838 86.0211 58.5687Z" fill="#0B0808"/>
<path d="M88.5443 58.1844C88.4493 58.4643 88.3974 58.7571 88.3902 59.0526C87.9929 58.5678 87.9297 57.6591 88.1908 57.03C88.3246 57.4078 88.4424 57.7926 88.5443 58.1844Z" fill="#0B0808"/>
<path d="M87.5178 68.3224C87.1705 69.0276 86.7665 69.7035 86.3098 70.3434C86.0179 70.2185 85.7041 70.4415 85.4308 70.6506C85.1454 70.8695 84.8025 71.0827 84.5098 70.8833C84.2106 70.679 84.1141 70.1075 84.209 69.6543C84.318 69.2363 84.5087 68.844 84.77 68.5C85.0133 68.1368 85.2735 67.7598 85.6117 67.6188C85.9506 67.4777 86.386 67.6771 86.4849 68.1587L86.7249 68.1506C86.5903 67.9657 86.6608 67.5831 86.8416 67.5158C87.05 67.4372 87.2308 67.7233 87.354 67.9763C87.4092 68.0906 87.4651 68.2057 87.5178 68.3224Z" fill="#0B0808"/>
<path d="M78.3262 64.8983C77.8104 64.9307 77.4018 64.2958 77.1302 63.6712C76.8587 63.0465 76.611 62.3322 76.1455 62.0143C75.8796 61.8326 75.5763 61.8077 75.2879 61.7196C75.1242 61.6783 74.9728 61.5986 74.8462 61.4871C74.7195 61.3756 74.6212 61.2356 74.5595 61.0785L74.2323 60.9464C73.7746 61.1751 73.3554 61.4739 72.9899 61.8321C72.5723 62.2756 72.3121 62.8442 72.2496 63.4502C72.1871 64.1051 72.4179 64.8353 72.8492 65.0813C73.19 65.2757 73.5868 65.1532 73.932 65.3311C74.3633 65.5534 74.6194 66.1993 74.7163 66.837C74.8132 67.4747 74.7887 68.1374 74.858 68.7823C74.9274 69.4273 75.1185 70.0984 75.514 70.4289C76.009 70.8424 76.7353 70.4988 76.9573 69.7459C77.0662 69.3766 77.0625 68.9599 77.144 68.5766C77.2874 67.9015 77.6746 67.4006 77.9817 66.8468C78.2887 66.2931 78.5304 65.5409 78.3262 64.8983Z" fill="#0B0808"/>
<path d="M73.2288 58.2646C73.2769 58.3089 73.3218 58.3565 73.3632 58.4072C73.4059 58.4809 73.4278 58.5649 73.4263 58.6502C73.4249 58.7354 73.4002 58.8187 73.3549 58.8909C73.417 58.8874 73.4778 58.871 73.5333 58.8428C73.5887 58.8146 73.6378 58.7752 73.6773 58.7271C73.7714 58.6199 73.8542 58.5033 73.9244 58.379C73.9574 58.3365 73.981 58.2874 73.9935 58.2351C74.0061 58.1827 74.0074 58.1283 73.9973 58.0754C73.9729 58.0059 73.9153 57.9762 73.8749 57.9239C73.8189 57.8217 73.7806 57.7106 73.7618 57.5956C73.7394 57.4878 73.6874 57.3883 73.6116 57.3084C73.5358 57.2285 73.4392 57.1714 73.3326 57.1434L73.3585 57.1483C73.3145 57.1744 73.2798 57.2136 73.2592 57.2605C73.2386 57.3073 73.2331 57.3594 73.2436 57.4095C73.2593 57.5106 73.3243 57.5946 73.3178 57.6978C73.3085 57.8462 73.1602 57.9158 73.1511 58.0641C73.1496 58.1386 73.1776 58.2106 73.2288 58.2646Z" fill="#0B0808"/>
<path d="M72.345 55.7435L72.3473 55.743C72.3632 55.7286 72.3779 55.7129 72.3913 55.6962L72.345 55.7435Z" fill="#0B0808"/>
<path d="M72.4997 56.4398C72.5617 56.3855 72.6075 56.3151 72.6322 56.2365C72.6569 56.1579 72.6595 56.074 72.6398 55.994C72.6023 55.8253 72.4697 55.7119 72.3473 55.743C72.3118 55.779 72.2678 55.8053 72.2193 55.8196C72.1708 55.8339 72.1195 55.8356 72.0702 55.8246C71.9945 55.8051 71.9115 55.755 71.8459 55.812C71.8084 55.8545 71.7821 55.9058 71.7695 55.9611C71.7452 56.0356 71.7209 56.1101 71.6967 56.1846C71.6851 56.2113 71.6821 56.2409 71.6881 56.2694C71.6927 56.2808 71.7002 56.2908 71.7099 56.2984C71.7195 56.3061 71.7309 56.3112 71.7431 56.3131C71.8888 56.3561 72.0345 56.399 72.1801 56.4419C72.2303 56.465 72.2849 56.4768 72.3402 56.4765C72.3954 56.4761 72.4499 56.4636 72.4997 56.4398Z" fill="#0B0808"/>
<path d="M83.4974 66.0541C83.4301 65.9438 83.3628 65.8336 83.2954 65.7234C83.2293 65.5957 83.1388 65.4822 83.0292 65.3892C83.0051 65.369 82.9772 65.3538 82.9471 65.3446C82.9171 65.3353 82.8855 65.3321 82.8542 65.3353C82.8229 65.3384 82.7926 65.3478 82.765 65.3628C82.7373 65.3778 82.713 65.3982 82.6934 65.4228L82.7016 65.4858C82.8819 65.679 83.0048 65.9187 83.0564 66.178C83.0718 66.2906 83.0664 66.4072 83.0799 66.5203C83.0813 66.5728 83.0931 66.6245 83.1145 66.6724C83.1359 66.7203 83.1665 66.7635 83.2047 66.7996C83.3107 66.8704 83.4352 66.766 83.5107 66.6386C83.5781 66.5339 83.6084 66.4096 83.5966 66.2856C83.5798 66.2025 83.546 66.1236 83.4974 66.0541Z" fill="#0B0808"/>
<path d="M84.5538 66.1975C84.5667 66.0943 84.5583 65.9896 84.5292 65.8898C84.5243 65.7547 84.5602 65.6213 84.632 65.5067C84.7033 65.3987 84.7574 65.2802 84.7922 65.1555C84.8069 65.0987 84.8042 65.0388 84.7845 64.9836C84.7622 64.9335 84.7083 64.9106 84.6773 64.9503L84.7436 64.993C84.6541 64.977 84.5621 64.9815 84.4746 65.006C84.4247 65.0251 84.3801 65.056 84.3446 65.0959C84.3091 65.1359 84.2838 65.1839 84.2708 65.2357C84.2598 65.3166 84.2419 65.3963 84.2173 65.4741C84.1778 65.5553 84.1013 65.5823 84.0532 65.6537C84.0204 65.7169 84.0038 65.7873 84.005 65.8585C84.0062 65.9297 84.0251 65.9995 84.0599 66.0616C84.1203 66.1631 84.2163 66.2386 84.3293 66.2733C84.4102 66.3024 84.5168 66.3039 84.5538 66.1975Z" fill="#0B0808"/>
<path d="M86.435 66.765C86.4643 66.8412 86.5035 66.9131 86.5516 66.9789C86.6417 67.0696 86.7641 67.0139 86.8733 66.9919C86.9725 66.9762 87.074 66.9877 87.1672 67.025C87.2603 67.0624 87.3417 67.1243 87.4025 67.2041C87.3601 66.9928 87.2677 66.7948 87.1329 66.6266C86.9981 66.4585 86.8249 66.3251 86.6278 66.2378C86.3718 66.1492 86.102 66.107 85.8311 66.1132L85.7849 66.1251C85.9028 66.4682 86.273 66.4605 86.435 66.765Z" fill="#0B0808"/>
<path d="M78.4673 67.468L78.4681 67.4696L78.4822 67.4424L78.4673 67.468Z" fill="#0B0808"/>
<path d="M78.1819 68.0191C78.1197 68.1321 78.0662 68.2497 78.0218 68.3708C77.9631 68.567 77.9242 68.7685 77.9058 68.9725C77.8913 69.0885 77.8868 69.2366 77.9595 69.2931C77.9804 69.3069 78.0055 69.3127 78.0304 69.3093C78.0552 69.306 78.0779 69.2937 78.0943 69.2748C78.1347 69.2321 78.1677 69.183 78.1921 69.1295C78.3349 68.8836 78.4458 68.6204 78.5221 68.3465C78.6017 68.0558 78.5826 67.747 78.468 67.4683C78.3727 67.6519 78.2773 67.8355 78.1819 68.0191Z" fill="#0B0808"/>
<path d="M75.4288 53.3045C75.4741 53.3488 75.5314 53.3789 75.5936 53.3911C75.6559 53.4032 75.7203 53.3969 75.7789 53.3729C75.9004 53.3198 76.0119 53.2462 76.1084 53.1553C76.1884 53.0961 76.2562 53.0222 76.3081 52.9374C76.3368 52.8868 76.3551 52.831 76.3621 52.7732C76.3692 52.7155 76.3647 52.6569 76.349 52.6009C76.3267 52.5472 76.291 52.5001 76.2454 52.464C76.1998 52.428 76.1458 52.4041 76.0884 52.3948C75.9267 52.3468 75.765 52.2989 75.6033 52.2509L75.7203 52.1455C75.5999 52.081 75.4668 52.2008 75.3916 52.3492C75.3433 52.4461 75.3097 52.5496 75.2918 52.6563C75.2662 52.7678 75.2652 52.8836 75.2889 52.9955C75.3125 53.1074 75.3603 53.2129 75.4288 53.3045Z" fill="#0B0808"/>
<path d="M78.2836 52.3463C78.3291 52.3966 78.3921 52.4276 78.4597 52.4331C78.5273 52.4386 78.5945 52.4182 78.6476 52.376C78.6933 52.3416 78.7313 52.2981 78.759 52.2481C78.7868 52.1981 78.8037 52.1429 78.8086 52.086C78.8201 51.9588 78.7572 51.8175 78.6674 51.8065L78.6879 51.6874C78.5149 51.6562 78.302 51.6499 78.2093 51.86C78.178 51.9405 78.1684 52.0277 78.1814 52.1131C78.1945 52.1984 78.2297 52.2789 78.2836 52.3463Z" fill="#0B0808"/>
<path d="M104.086 43.6701H44.7583C44.7176 43.6692 44.6789 43.6525 44.6505 43.6234C44.6221 43.5943 44.6061 43.5553 44.6061 43.5146C44.6061 43.474 44.6221 43.4349 44.6505 43.4059C44.6789 43.3768 44.7176 43.36 44.7583 43.3591H104.086C104.126 43.36 104.165 43.3768 104.193 43.4059C104.222 43.4349 104.238 43.474 104.238 43.5146C104.238 43.5553 104.222 43.5943 104.193 43.6234C104.165 43.6525 104.126 43.6692 104.086 43.6701Z" fill="#CACACA"/>
<path d="M48.1825 41.4932C49.1067 41.4932 49.8559 40.7274 49.8559 39.7827C49.8559 38.8381 49.1067 38.0723 48.1825 38.0723C47.2583 38.0723 46.509 38.8381 46.509 39.7827C46.509 40.7274 47.2583 41.4932 48.1825 41.4932Z" fill="#3F3D56"/>
<path d="M53.9635 41.4932C54.8877 41.4932 55.637 40.7274 55.637 39.7827C55.637 38.8381 54.8877 38.0723 53.9635 38.0723C53.0393 38.0723 52.2901 38.8381 52.2901 39.7827C52.2901 40.7274 53.0393 41.4932 53.9635 41.4932Z" fill="#3F3D56"/>
<path d="M59.7446 41.4932C60.6688 41.4932 61.418 40.7274 61.418 39.7827C61.418 38.8381 60.6688 38.0723 59.7446 38.0723C58.8203 38.0723 58.0711 38.8381 58.0711 39.7827C58.0711 40.7274 58.8203 41.4932 59.7446 41.4932Z" fill="#3F3D56"/>
<path d="M100.621 38.4962H96.5147C96.4333 38.4978 96.3558 38.5313 96.2988 38.5894C96.2418 38.6475 96.2098 38.7257 96.2098 38.8071C96.2098 38.8885 96.2418 38.9667 96.2988 39.0248C96.3558 39.0829 96.4333 39.1164 96.5147 39.118H100.621C100.703 39.1164 100.78 39.0829 100.837 39.0248C100.894 38.9667 100.926 38.8885 100.926 38.8071C100.926 38.7257 100.894 38.6475 100.837 38.5894C100.78 38.5313 100.703 38.4978 100.621 38.4962Z" fill="#3F3D56"/>
<path d="M100.621 39.6632H96.5147C96.4333 39.6648 96.3558 39.6983 96.2988 39.7564C96.2418 39.8145 96.2098 39.8927 96.2098 39.9741C96.2098 40.0555 96.2418 40.1336 96.2988 40.1918C96.3558 40.2499 96.4333 40.2834 96.5147 40.285H100.621C100.703 40.2834 100.78 40.2499 100.837 40.1918C100.894 40.1336 100.926 40.0555 100.926 39.9741C100.926 39.8927 100.894 39.8145 100.837 39.7564C100.78 39.6983 100.703 39.6648 100.621 39.6632Z" fill="#3F3D56"/>
<path d="M100.621 40.8286H96.5147C96.4333 40.8302 96.3558 40.8637 96.2988 40.9218C96.2418 40.9799 96.2098 41.0581 96.2098 41.1395C96.2098 41.2209 96.2418 41.2991 96.2988 41.3572C96.3558 41.4153 96.4333 41.4488 96.5147 41.4504H100.621C100.703 41.4488 100.78 41.4153 100.837 41.3572C100.894 41.2991 100.926 41.2209 100.926 41.1395C100.926 41.0581 100.894 40.9799 100.837 40.9218C100.78 40.8637 100.703 40.8302 100.621 40.8286Z" fill="#3F3D56"/>
<g opacity="0.35">
<path d="M105.657 62.5958C106.612 62.1795 104.676 61.9372 102.479 61.8575C100.282 61.7779 97.6239 61.7823 96.2199 61.5557C94.862 61.3365 94.9621 60.9468 94.8478 60.5937C94.7336 60.2406 94.2116 59.8786 92.0927 59.8001C89.4524 59.7023 85.0983 60.0788 83.1051 59.8527C81.2451 59.6418 82.3507 58.9802 79.6385 58.9549C78.0897 58.9404 76.0945 59.1586 74.3712 59.2112C73.1496 59.2642 71.9258 59.2004 70.7164 59.0207C69.8765 58.8831 69.2914 58.7087 68.3461 58.5871C65.8642 58.268 61.0084 58.3753 56.6744 58.7842C52.3405 59.1932 48.6255 59.8634 46.5303 60.5271C44.4352 61.1909 43.8563 61.8445 44.3444 62.3987C44.656 62.7525 45.4535 63.0834 47.388 63.2257C51.0063 63.4916 57.4484 63.0338 61.1873 63.2758C63.2712 63.4107 64.1957 63.7451 66.024 63.9281C67.9883 64.1246 70.8638 64.135 73.6891 64.1304C79.5715 64.1207 85.6044 64.0602 91.7561 63.9494C94.3256 63.9031 97.0179 63.843 99.752 63.6224C102.486 63.4018 105.275 62.9762 105.852 62.5772" fill="white"/>
</g>
</g>
<defs>
<clipPath id="clip0_15_163">
<rect width="127" height="90" fill="white"/>
</clipPath>
</defs>
</svg>
