<svg width="67" height="67" viewBox="0 0 67 67" fill="none" xmlns="http://www.w3.org/2000/svg">
<mask id="mask0_15_1350" style="mask-type:alpha" maskUnits="userSpaceOnUse" x="0" y="0" width="67" height="67">
<rect x="0.5" y="0.5" width="66" height="66" fill="#D9D9D9"/>
</mask>
<g mask="url(#mask0_15_1350)">
<path d="M58.3187 30.8875V52.75C58.3187 54.2625 57.7802 55.5573 56.7031 56.6344C55.626 57.7115 54.3312 58.25 52.8187 58.25H14.3187C12.8062 58.25 11.5114 57.7115 10.4343 56.6344C9.35723 55.5573 8.81869 54.2625 8.81869 52.75V30.8875C7.76452 29.925 6.95098 28.6875 6.37806 27.175C5.80515 25.6625 5.79369 24.0125 6.34369 22.225L9.23119 12.875C9.59785 11.6833 10.251 10.6979 11.1906 9.91875C12.1301 9.13958 13.2187 8.75 14.4562 8.75H52.6812C53.9187 8.75 54.9958 9.12812 55.9124 9.88437C56.8291 10.6406 57.4937 11.6375 57.9062 12.875L60.7937 22.225C61.3437 24.0125 61.3322 25.6396 60.7593 27.1063C60.1864 28.5729 59.3729 29.8333 58.3187 30.8875ZM39.6187 28C40.8562 28 41.7958 27.576 42.4374 26.7281C43.0791 25.8802 43.3312 24.9292 43.1937 23.875L41.6812 14.25H36.3187V24.425C36.3187 25.3875 36.6395 26.224 37.2812 26.9344C37.9229 27.6448 38.702 28 39.6187 28ZM27.2437 28C28.2979 28 29.1572 27.6448 29.8218 26.9344C30.4864 26.224 30.8187 25.3875 30.8187 24.425V14.25H25.4562L23.9437 23.875C23.7604 24.975 24.001 25.9375 24.6656 26.7625C25.3301 27.5875 26.1895 28 27.2437 28ZM15.0062 28C15.8312 28 16.5531 27.7021 17.1718 27.1063C17.7906 26.5104 18.1687 25.7542 18.3062 24.8375L19.8187 14.25H14.4562L11.7062 23.4625C11.4312 24.3792 11.5801 25.3646 12.1531 26.4188C12.726 27.4729 13.677 28 15.0062 28ZM52.1312 28C53.4604 28 54.4229 27.4729 55.0187 26.4188C55.6145 25.3646 55.752 24.3792 55.4312 23.4625L52.5437 14.25H47.3187L48.8312 24.8375C48.9687 25.7542 49.3468 26.5104 49.9656 27.1063C50.5843 27.7021 51.3062 28 52.1312 28ZM14.3187 52.75H52.8187V33.3625C52.5895 33.4542 52.4406 33.5 52.3718 33.5H52.1312C50.8937 33.5 49.8051 33.2938 48.8656 32.8813C47.926 32.4688 46.9979 31.8042 46.0812 30.8875C45.2562 31.7125 44.3166 32.3542 43.2624 32.8125C42.2083 33.2708 41.0854 33.5 39.8937 33.5C38.6562 33.5 37.4989 33.2708 36.4218 32.8125C35.3447 32.3542 34.3937 31.7125 33.5687 30.8875C32.7895 31.7125 31.8843 32.3542 30.8531 32.8125C29.8218 33.2708 28.7104 33.5 27.5187 33.5C26.1895 33.5 24.9864 33.2708 23.9093 32.8125C22.8322 32.3542 21.8812 31.7125 21.0562 30.8875C20.0937 31.85 19.1426 32.526 18.2031 32.9156C17.2635 33.3052 16.1979 33.5 15.0062 33.5H14.6968C14.5822 33.5 14.4562 33.4542 14.3187 33.3625V52.75Z" fill="#821AEA"/>
</g>
</svg>
