<svg width="33" height="48" viewBox="0 0 33 48" fill="none" xmlns="http://www.w3.org/2000/svg">
<g clip-path="url(#clip0_101_1324)">
<path d="M28.8421 48H13.3828C11.0902 48 9.22498 46.1611 9.22498 43.9008V4.09925C9.22498 1.8389 11.0902 0 13.3828 0H28.8421C31.1348 0 33 1.8389 33 4.09925V43.9008C33 46.1611 31.1348 48 28.8421 48ZM13.3828 0.157845C11.1782 0.157845 9.38508 1.92571 9.38508 4.09925V43.9008C9.38508 46.0743 11.1782 47.8422 13.3828 47.8422H28.8421C31.0467 47.8422 32.8399 46.0743 32.8399 43.9008V4.09925C32.8399 1.92571 31.0467 0.157845 28.8421 0.157845H13.3828Z" fill="#DEDFE0"/>
<path d="M23.3019 3.73777H18.924C18.346 3.73777 17.8761 3.27449 17.8761 2.70467C17.8761 2.13485 18.346 1.67157 18.924 1.67157H23.3019C23.8799 1.67157 24.3498 2.13485 24.3498 2.70467C24.3498 3.27449 23.8799 3.73777 23.3019 3.73777Z" fill="#DADBDC"/>
<path d="M17.2173 47.9171C17.2173 47.9597 17.182 47.9945 17.1388 47.9945H0.0784494C0.0352222 47.9945 0 47.9597 0 47.9171C0 47.8745 0.0352222 47.8398 0.0784494 47.8398H17.1388C17.182 47.8398 17.2173 47.8745 17.2173 47.9171Z" fill="#3F3D58"/>
<path d="M9.53882 24.0012L11.1118 24.511V22.2791H9.68451L9.53882 24.0012Z" fill="#F6AAAE"/>
<path d="M10.9165 22.8971C11.7822 22.8971 12.4839 22.2052 12.4839 21.3518C12.4839 20.4983 11.7822 19.8065 10.9165 19.8065C10.0509 19.8065 9.34912 20.4983 9.34912 21.3518C9.34912 22.2052 10.0509 22.8971 10.9165 22.8971Z" fill="#F6AAAE"/>
<path d="M10.5179 21.4725L10.734 21.7313L11.1246 21.0573C11.1246 21.0573 11.6233 21.0826 11.6233 20.718C11.6233 20.3534 12.0812 20.3431 12.0812 20.3431C12.0812 20.3431 12.7288 19.2279 11.3872 19.5215C11.3872 19.5215 10.4562 18.8925 9.99352 19.43C9.99352 19.43 8.57423 20.1347 8.98008 21.362L9.65491 22.6263L9.8078 22.3398C9.8078 22.3398 9.71495 21.1378 10.5179 21.4725Z" fill="#2F2E43"/>
<path d="M10.3721 45.1509H9.10571V46.9219H10.3721V45.1509Z" fill="#F6AAAE"/>
<path d="M10.2328 47.9369C10.0159 47.9566 8.93279 48.0403 8.87835 47.7956C8.82872 47.5707 8.90157 47.3355 8.91198 47.3039C9.01604 46.2827 9.05447 46.2708 9.07768 46.2637C9.1145 46.2535 9.22257 46.3032 9.39708 46.4145L9.40829 46.4216L9.41069 46.4342C9.41389 46.45 9.49154 46.8249 9.85817 46.768C10.1095 46.7286 10.1912 46.6741 10.2176 46.6473C10.196 46.6378 10.1696 46.6212 10.1512 46.592C10.1239 46.5502 10.1191 46.4965 10.1367 46.4326C10.184 46.2629 10.3257 46.0119 10.3313 46.0017L10.3473 45.9733L11.7866 46.9306L12.6751 47.1808C12.7424 47.1997 12.796 47.2471 12.8232 47.3102C12.8609 47.3986 12.8377 47.5012 12.7656 47.5651C12.6039 47.708 12.2837 47.9534 11.9467 47.9834C11.857 47.9913 11.7386 47.9945 11.6057 47.9945C11.0493 47.9945 10.2384 47.9377 10.232 47.9369L10.2328 47.9369Z" fill="#2F2E43"/>
<path d="M6.42225 42.4912L5.27722 43.8558L6.253 44.6517L7.39803 43.2871L6.42225 42.4912Z" fill="#F6AAAE"/>
<path d="M5.49072 45.3474C5.3114 45.2259 4.42204 44.6103 4.53812 44.3877C4.64538 44.1833 4.85352 44.0483 4.88233 44.0302C5.6228 43.3088 5.66042 43.3238 5.68284 43.3333C5.71806 43.3483 5.76849 43.4548 5.83173 43.6498L5.83574 43.6616L5.82933 43.6727C5.82133 43.6869 5.63881 44.0247 5.95821 44.2109C6.17755 44.3388 6.27601 44.3475 6.31284 44.3435C6.30243 44.323 6.29282 44.293 6.29683 44.2591C6.30243 44.2101 6.33365 44.1651 6.38968 44.1273C6.53618 44.0262 6.80675 43.9221 6.81875 43.9173L6.84917 43.9055L7.33908 45.5479L7.86181 46.2992C7.90104 46.356 7.91224 46.4263 7.89223 46.4926C7.86421 46.5841 7.78016 46.6488 7.6825 46.6528C7.46556 46.6615 7.06051 46.6489 6.78113 46.4602C6.70748 46.4105 6.61383 46.3387 6.51136 46.255C6.08309 45.9054 5.49472 45.3522 5.48992 45.3474L5.49072 45.3474Z" fill="#2F2E43"/>
<path d="M12.4671 31.4918H8.12354L9.08894 45.6473H10.5371L12.4679 31.4918L12.4671 31.4918Z" fill="#2F2E43"/>
<path d="M11.5825 32.2715L12.4671 31.4918L12.0244 39.2767L7.07726 43.9158L5.84448 42.9111L8.7263 39.2238L11.5825 32.2715Z" fill="#2F2E43"/>
<path d="M11.5825 23.1646L9.43713 22.8213L8.77111 23.9696C7.92418 25.4297 7.57916 27.1202 7.78649 28.7894L8.1235 31.4925H12.467L11.5825 23.1654L11.5825 23.1646Z" fill="#DADBDC"/>
<path d="M9.84063 34.0402C9.92949 34.4766 9.76378 34.8752 9.4716 34.9304C9.17861 34.9849 8.86962 34.6755 8.78076 34.2383C8.74314 34.0638 8.74954 33.8839 8.79998 33.7126L8.44775 31.8572L9.36833 31.7159L9.61729 33.5603C9.73096 33.7016 9.80781 33.8657 9.84063 34.0409V34.0402Z" fill="#F6AAAE"/>
<path d="M8.7207 33.5374L7.36865 29.4193V29.4129L7.87937 25.1724C7.95782 24.5229 8.51658 24.0336 9.17939 24.0336C9.58525 24.0336 9.96149 24.2143 10.2112 24.53C10.461 24.8457 10.5483 25.249 10.4498 25.6381L9.54763 29.1951L9.76296 33.232L8.7199 33.5374L8.7207 33.5374Z" fill="#DADBDC"/>
<path d="M16.456 24.4889C16.8314 26.4659 18.7614 27.7689 20.7675 27.398C21.3743 27.2859 21.9186 27.0334 22.3717 26.6806L26.9346 31.5328C27.214 31.8295 27.6903 31.8287 27.9688 31.5304C28.229 31.2518 28.2146 30.8193 27.936 30.5581L23.0609 25.9774C23.6469 25.1929 23.9143 24.1803 23.7182 23.1472C23.3427 21.1702 21.4127 19.8672 19.4066 20.2381C17.4006 20.6091 16.0797 22.5111 16.456 24.4889ZM17.2437 24.3437C16.9499 22.7952 17.9841 21.3052 19.5547 21.0155C21.1253 20.7259 22.6367 21.7456 22.9305 23.294C23.2242 24.8425 22.19 26.3325 20.6194 26.6222C19.0488 26.9118 17.5375 25.8921 17.2437 24.3437Z" fill="#6C63FF"/>
</g>
<defs>
<clipPath id="clip0_101_1324">
<rect width="33" height="48" fill="white"/>
</clipPath>
</defs>
</svg>
