<svg width="145" height="78" viewBox="0 0 145 78" fill="none" xmlns="http://www.w3.org/2000/svg">
<g clip-path="url(#clip0_2580_6)">
<path d="M9.18439 65.1432L8.7321 67.4046C8.69803 67.5775 8.6624 67.7535 8.62368 67.9279C8.24565 67.8498 7.85371 67.8716 7.48676 67.9912C7.77789 68.4058 8.03878 68.8407 8.26742 69.2925C7.98242 70.1677 7.56421 70.9766 6.86409 71.5616C6.39649 71.9437 5.83801 72.1992 5.24249 72.3036C4.64698 72.408 4.03453 72.3576 3.4642 72.1575L3.48433 72.068C2.73155 70.6123 3.14047 68.7769 4.07602 67.4324C4.55319 66.7691 5.11856 66.1735 5.75661 65.6618C6.38857 65.137 7.07165 64.6662 7.74853 64.2015C7.90056 64.0973 8.0803 64.0407 8.2648 64.0388C8.44929 64.0369 8.63016 64.0899 8.78429 64.191C8.93842 64.2921 9.05881 64.4367 9.13008 64.6063C9.20134 64.7759 9.22025 64.9628 9.18439 65.1432Z" fill="#E4E4E4"/>
<path d="M3.62526 77.5989C3.4349 76.2168 3.23911 74.8172 3.37263 73.4204C3.49128 72.1799 3.87092 70.9683 4.64415 69.9748C5.05454 69.4484 5.55391 68.9975 6.11981 68.6422C6.26742 68.5495 6.40311 68.7825 6.25627 68.8748C5.27715 69.4915 4.51983 70.4021 4.0935 71.4754C3.62263 72.6689 3.54704 73.9701 3.62882 75.2379C3.67792 76.0046 3.78186 76.7661 3.88672 77.5271C3.89516 77.5615 3.89008 77.5979 3.87252 77.6287C3.85495 77.6595 3.82623 77.6825 3.79224 77.6929C3.75765 77.7022 3.72078 77.6975 3.68964 77.6799C3.65849 77.6623 3.63558 77.6331 3.62588 77.5987L3.62526 77.5989Z" fill="#F2F2F2"/>
<path d="M5.25897 8.27918C11.8942 8.1642 18.5301 8.14768 25.1667 8.22963C31.8023 8.31206 38.4357 8.49339 45.0669 8.77363C48.788 8.9309 52.5075 9.1193 56.2255 9.33884C56.5243 9.35646 56.5232 8.8933 56.2255 8.87575C49.6009 8.48508 42.9715 8.19276 36.3372 7.99878C29.7039 7.80533 23.0687 7.7108 16.4315 7.71517C12.7071 7.71764 8.98295 7.75128 5.25897 7.81609C4.96029 7.82126 4.95935 8.28437 5.25897 8.27918Z" fill="#E6E6E6"/>
<path d="M51.5 5.37548L54.4013 5.16028C54.6977 5.13829 54.7001 4.67502 54.4013 4.69718L51.5 4.91238C51.2036 4.93437 51.2012 5.39764 51.5 5.37548Z" fill="#E6E6E6"/>
<path d="M51.5 8.15404L54.4013 7.93884C54.6977 7.91686 54.7001 7.45358 54.4013 7.47575L51.5 7.69095C51.2036 7.71293 51.2012 8.17621 51.5 8.15404Z" fill="#E6E6E6"/>
<path d="M51.2817 6.88513L55.4068 7.25861C55.7045 7.28556 55.7027 6.8223 55.4068 6.79552L51.2817 6.42203C50.984 6.39508 50.9858 6.85834 51.2817 6.88513Z" fill="#E6E6E6"/>
<path d="M6.97605 4.75271C6.77429 4.75146 6.57662 4.80943 6.40769 4.91938C6.23876 5.02934 6.10604 5.18641 6.02607 5.37102C5.93661 5.55171 5.909 5.75662 5.94745 5.95443C5.9859 6.15223 6.0883 6.33204 6.23899 6.46637C6.38065 6.58648 6.55055 6.66883 6.73282 6.70573C6.91509 6.74264 7.10377 6.73288 7.28123 6.67738C7.46271 6.61421 7.62009 6.49654 7.73169 6.34055C7.8433 6.18456 7.90364 5.99793 7.90442 5.80635C7.91252 5.59381 7.85475 5.38393 7.73894 5.20526C7.62314 5.02659 7.45493 4.8878 7.25719 4.80777C7.19778 4.79168 7.1344 4.79965 7.08086 4.82995C7.02732 4.86024 6.98797 4.9104 6.97139 4.96949C6.95673 5.02864 6.96539 5.09114 6.99558 5.14412C7.02576 5.19711 7.07518 5.23655 7.13366 5.25432C7.17415 5.26991 7.09667 5.23448 7.13448 5.25501C7.15002 5.26345 7.16586 5.27107 7.18113 5.28009C7.19411 5.28775 7.20653 5.29613 7.21915 5.30434C7.26252 5.33255 7.19798 5.28363 7.2257 5.30899C7.24974 5.33099 7.27356 5.35244 7.29541 5.37671C7.30368 5.38589 7.33605 5.4114 7.31089 5.39357C7.29164 5.37993 7.30347 5.38313 7.31088 5.39409C7.31651 5.4024 7.32247 5.41049 7.32802 5.41886C7.34614 5.44618 7.3626 5.47454 7.37734 5.50381C7.38075 5.51058 7.38387 5.51752 7.38735 5.52425C7.39385 5.53688 7.40328 5.54019 7.38799 5.52437C7.37337 5.50926 7.38268 5.51029 7.38791 5.52484C7.39134 5.5344 7.3951 5.54384 7.39844 5.55343C7.40933 5.58466 7.41848 5.61648 7.42583 5.64872C7.42924 5.66362 7.43198 5.67862 7.4349 5.69361C7.44528 5.74679 7.43339 5.66056 7.4359 5.70005C7.43799 5.73303 7.44044 5.76566 7.43986 5.79877C7.4396 5.81392 7.43893 5.82905 7.43788 5.84417C7.43734 5.8517 7.4365 5.85922 7.436 5.86676C7.43359 5.9031 7.43351 5.85349 7.43862 5.85009C7.428 5.88094 7.42095 5.91289 7.41762 5.94533C7.41346 5.95973 7.40851 5.97381 7.40388 5.98805C7.38772 6.03773 7.41906 5.96097 7.40183 5.99492C7.38765 6.02409 7.3718 6.05242 7.35437 6.07978C7.3468 6.09124 7.31825 6.11712 7.34159 6.09911C7.36692 6.07956 7.32831 6.11322 7.32007 6.12188C7.30949 6.133 7.29851 6.14374 7.28712 6.15409C7.27984 6.16118 7.27214 6.16784 7.26408 6.17405C7.2626 6.17331 7.3029 6.14723 7.28118 6.16103C7.25357 6.17858 7.22743 6.19735 7.19834 6.21263C7.19495 6.21441 7.15776 6.23158 7.15791 6.23219C7.15631 6.22594 7.20573 6.21485 7.1718 6.22577C7.16468 6.22806 7.15769 6.23084 7.15059 6.23322C7.1197 6.24358 7.08818 6.25195 7.05621 6.25828C7.04889 6.25973 7.04115 6.26047 7.03394 6.26232C7.00992 6.26851 7.05689 6.25869 7.0583 6.2595C7.04055 6.25874 7.02277 6.26031 7.00543 6.26417C6.97247 6.26605 6.93942 6.26605 6.90645 6.26416C6.89882 6.26372 6.89122 6.26297 6.88359 6.26252C6.86589 6.2615 6.85289 6.24879 6.87645 6.26259C6.89463 6.27324 6.89312 6.26547 6.87702 6.2625C6.86949 6.26111 6.86192 6.25994 6.85439 6.25854C6.82176 6.25245 6.78949 6.24457 6.75774 6.23494C6.74065 6.22975 6.7239 6.22372 6.70704 6.21785C6.6997 6.21572 6.69255 6.21298 6.68567 6.20965C6.68557 6.20774 6.72912 6.23039 6.70613 6.21804C6.6771 6.20245 6.64709 6.18938 6.61875 6.17234C6.60363 6.16325 6.5891 6.15337 6.5744 6.14363C6.56793 6.13975 6.56178 6.13536 6.55601 6.13051C6.5565 6.12855 6.59203 6.16137 6.57338 6.14366C6.54979 6.12125 6.52455 6.10119 6.50221 6.07733C6.4971 6.07188 6.49227 6.06616 6.48717 6.0607L6.48224 6.05508C6.46965 6.03974 6.46942 6.03981 6.48154 6.0553C6.49386 6.05891 6.4933 6.07238 6.48161 6.05489C6.47745 6.04866 6.47302 6.0426 6.46887 6.03637C6.45 6.00957 6.43391 5.98094 6.42084 5.9509C6.42197 5.95002 6.44097 6.00662 6.42645 5.96391C6.4237 5.95584 6.42061 5.9479 6.41793 5.93981C6.41259 5.92377 6.40789 5.90755 6.40383 5.89115C6.39981 5.87491 6.39775 5.85815 6.3937 5.84197C6.38687 5.8147 6.39769 5.86348 6.39646 5.86227C6.39259 5.85846 6.39423 5.83481 6.39394 5.82915C6.39208 5.79281 6.39624 5.75755 6.39689 5.72144C6.39739 5.69346 6.39456 5.74324 6.39398 5.74178C6.39412 5.7334 6.39561 5.7251 6.39839 5.71719C6.40259 5.69814 6.40651 5.67911 6.41166 5.66028C6.41755 5.63871 6.42434 5.61741 6.43202 5.59637C6.43489 5.5885 6.43839 5.58074 6.44105 5.5728C6.45083 5.54373 6.42169 5.60792 6.43776 5.5817C6.45986 5.54563 6.47633 5.50659 6.4998 5.47097C6.50536 5.46252 6.53917 5.41548 6.52123 5.43923C6.50335 5.46288 6.53959 5.41805 6.54645 5.41044C6.57495 5.37881 6.60847 5.35284 6.63797 5.32256C6.65544 5.30463 6.62578 5.33139 6.62403 5.33263C6.63317 5.32613 6.64212 5.31937 6.65137 5.31302C6.6675 5.30194 6.68403 5.29146 6.70095 5.28159C6.72001 5.27045 6.74156 5.26216 6.76004 5.25038C6.78186 5.23646 6.74335 5.25649 6.74266 5.25691C6.75263 5.25198 6.76305 5.24802 6.77378 5.24509C6.79177 5.23873 6.87002 5.20508 6.88643 5.2156C6.88569 5.21513 6.82702 5.22031 6.87445 5.21727C6.88566 5.21656 6.89682 5.21547 6.90804 5.215C6.93075 5.21407 6.95337 5.21463 6.97606 5.21581C7.03755 5.21541 7.09641 5.19088 7.1399 5.14754C7.18338 5.10421 7.20799 5.04555 7.20839 4.98426C7.20708 4.92326 7.18218 4.86512 7.13889 4.82198C7.0956 4.77884 7.03726 4.75402 6.97605 4.75271Z" fill="#E6E6E6"/>
<path d="M10.2288 4.75271C10.027 4.75146 9.82936 4.80943 9.66043 4.91938C9.4915 5.02934 9.35878 5.18641 9.27881 5.37102C9.18936 5.55171 9.16174 5.75662 9.20019 5.95443C9.23864 6.15223 9.34104 6.33204 9.49174 6.46637C9.63339 6.58648 9.8033 6.66883 9.98557 6.70573C10.1678 6.74264 10.3565 6.73288 10.534 6.67738C10.7155 6.61421 10.8728 6.49654 10.9844 6.34055C11.096 6.18456 11.1564 5.99793 11.1572 5.80635C11.1653 5.59381 11.1075 5.38393 10.9917 5.20526C10.8759 5.02659 10.7077 4.8878 10.5099 4.80777C10.4505 4.79168 10.3871 4.79965 10.3336 4.82995C10.2801 4.86024 10.2407 4.9104 10.2241 4.96949C10.2095 5.02864 10.2181 5.09114 10.2483 5.14412C10.2785 5.19711 10.3279 5.23655 10.3864 5.25432C10.4269 5.26991 10.3494 5.23448 10.3872 5.25501C10.4028 5.26345 10.4186 5.27107 10.4339 5.28009C10.4469 5.28775 10.4593 5.29613 10.4719 5.30434C10.5153 5.33255 10.4507 5.28363 10.4784 5.30899C10.5025 5.33099 10.5263 5.35244 10.5482 5.37671C10.5564 5.38589 10.5888 5.4114 10.5636 5.39357C10.5444 5.37993 10.5562 5.38313 10.5636 5.39409C10.5693 5.4024 10.5752 5.41049 10.5808 5.41886C10.5989 5.44618 10.6154 5.47454 10.6301 5.50381C10.6335 5.51058 10.6366 5.51752 10.6401 5.52425C10.6466 5.53688 10.656 5.54019 10.6407 5.52437C10.6261 5.50926 10.6354 5.51029 10.6407 5.52484C10.6441 5.5344 10.6478 5.54384 10.6512 5.55343C10.6621 5.58466 10.6712 5.61648 10.6786 5.64872C10.682 5.66362 10.6847 5.67862 10.6876 5.69361C10.698 5.74679 10.6861 5.66056 10.6886 5.70005C10.6907 5.73303 10.6932 5.76566 10.6926 5.79877C10.6923 5.81392 10.6917 5.82905 10.6906 5.84417C10.6901 5.8517 10.6892 5.85922 10.6887 5.86676C10.6863 5.9031 10.6863 5.85349 10.6914 5.85009C10.6807 5.88094 10.6737 5.91289 10.6704 5.94533C10.6662 5.95973 10.6613 5.97381 10.6566 5.98805C10.6405 6.03773 10.6718 5.96097 10.6546 5.99492C10.6404 6.02409 10.6246 6.05242 10.6071 6.07978C10.5995 6.09124 10.571 6.11712 10.5943 6.09911C10.6197 6.07956 10.5811 6.11322 10.5728 6.12188C10.5622 6.133 10.5513 6.14374 10.5399 6.15409C10.5326 6.16118 10.5249 6.16784 10.5168 6.17405C10.5153 6.17331 10.5556 6.14723 10.5339 6.16103C10.5063 6.17858 10.4802 6.19735 10.4511 6.21263C10.4477 6.21441 10.4105 6.23158 10.4107 6.23219C10.4091 6.22594 10.4585 6.21485 10.4245 6.22577C10.4174 6.22806 10.4104 6.23084 10.4033 6.23322C10.3725 6.24358 10.3409 6.25195 10.309 6.25828C10.3016 6.25973 10.2939 6.26047 10.2867 6.26232C10.2627 6.26851 10.3096 6.25869 10.3111 6.2595C10.2933 6.25874 10.2755 6.26031 10.2582 6.26417C10.2252 6.26605 10.1922 6.26605 10.1592 6.26416C10.1516 6.26372 10.144 6.26297 10.1363 6.26252C10.1186 6.2615 10.1056 6.24879 10.1292 6.26259C10.1474 6.27324 10.1459 6.26547 10.1298 6.2625C10.1222 6.26111 10.1147 6.25994 10.1071 6.25854C10.0745 6.25245 10.0422 6.24457 10.0105 6.23494C9.99339 6.22975 9.97665 6.22372 9.95979 6.21785C9.95245 6.21572 9.94529 6.21298 9.93842 6.20965C9.93831 6.20774 9.98187 6.23039 9.95887 6.21804C9.92985 6.20245 9.89984 6.18938 9.8715 6.17234C9.85638 6.16325 9.84185 6.15337 9.82715 6.14363C9.82068 6.13975 9.81453 6.13536 9.80876 6.13051C9.80924 6.12855 9.84478 6.16137 9.82612 6.14366C9.80253 6.12125 9.7773 6.10119 9.75496 6.07733C9.74985 6.07188 9.74501 6.06616 9.73992 6.0607L9.73499 6.05508C9.7224 6.03974 9.72216 6.03981 9.73429 6.0553C9.7466 6.05891 9.74604 6.07238 9.73436 6.05489C9.73019 6.04866 9.72577 6.0426 9.72161 6.03637C9.70274 6.00957 9.68665 5.98094 9.67359 5.9509C9.67472 5.95002 9.69372 6.00662 9.67919 5.96391C9.67645 5.95584 9.67336 5.9479 9.67067 5.93981C9.66533 5.92377 9.66063 5.90755 9.65658 5.89115C9.65256 5.87491 9.6505 5.85815 9.64645 5.84197C9.63962 5.8147 9.65044 5.86348 9.6492 5.86227C9.64533 5.85846 9.64698 5.83481 9.64669 5.82915C9.64483 5.79281 9.64898 5.75755 9.64963 5.72144C9.65014 5.69346 9.64731 5.74324 9.64673 5.74178C9.64687 5.7334 9.64836 5.7251 9.65114 5.71719C9.65534 5.69814 9.65926 5.67911 9.6644 5.66028C9.6703 5.63871 9.67709 5.61741 9.68477 5.59637C9.68763 5.5885 9.69113 5.58074 9.6938 5.5728C9.70358 5.54373 9.67444 5.60792 9.69051 5.5817C9.71261 5.54563 9.72908 5.50659 9.75254 5.47097C9.75811 5.46252 9.79192 5.41548 9.77397 5.43923C9.7561 5.46288 9.79234 5.41805 9.7992 5.41044C9.8277 5.37881 9.86121 5.35284 9.89072 5.32256C9.90819 5.30463 9.87853 5.33139 9.87678 5.33263C9.88592 5.32613 9.89487 5.31937 9.90412 5.31302C9.92025 5.30194 9.93678 5.29146 9.9537 5.28159C9.97276 5.27045 9.99431 5.26216 10.0128 5.25038C10.0346 5.23646 9.99609 5.25649 9.9954 5.25691C10.0054 5.25198 10.0158 5.24802 10.0265 5.24509C10.0445 5.23873 10.1228 5.20508 10.1392 5.2156C10.1384 5.21513 10.0798 5.22031 10.1272 5.21727C10.1384 5.21656 10.1496 5.21547 10.1608 5.215C10.1835 5.21407 10.2061 5.21463 10.2288 5.21581C10.2903 5.21541 10.3492 5.19088 10.3926 5.14754C10.4361 5.10421 10.4607 5.04555 10.4611 4.98426C10.4598 4.92326 10.4349 4.86512 10.3916 4.82198C10.3483 4.77884 10.29 4.75402 10.2288 4.75271Z" fill="#E6E6E6"/>
<path d="M13.4815 4.75271C13.2798 4.75146 13.0821 4.80943 12.9132 4.91938C12.7442 5.02934 12.6115 5.18641 12.5315 5.37102C12.4421 5.55171 12.4145 5.75662 12.4529 5.95443C12.4914 6.15223 12.5938 6.33204 12.7445 6.46637C12.8861 6.58648 13.056 6.66883 13.2383 6.70573C13.4206 6.74264 13.6092 6.73288 13.7867 6.67738C13.9682 6.61421 14.1256 6.49654 14.2372 6.34055C14.3488 6.18456 14.4091 5.99793 14.4099 5.80635C14.418 5.59381 14.3602 5.38393 14.2444 5.20526C14.1286 5.02659 13.9604 4.8878 13.7627 4.80777C13.7033 4.79168 13.6399 4.79965 13.5863 4.82995C13.5328 4.86024 13.4934 4.9104 13.4769 4.96949C13.4622 5.02864 13.4709 5.09114 13.5011 5.14412C13.5312 5.19711 13.5807 5.23655 13.6391 5.25432C13.6796 5.26991 13.6021 5.23448 13.64 5.25501C13.6555 5.26345 13.6713 5.27107 13.6866 5.28009C13.6996 5.28775 13.712 5.29613 13.7246 5.30434C13.768 5.33255 13.7035 5.28363 13.7312 5.30899C13.7552 5.33099 13.779 5.35244 13.8009 5.37671C13.8092 5.38589 13.8415 5.4114 13.8164 5.39357C13.7971 5.37993 13.8089 5.38313 13.8164 5.39409C13.822 5.4024 13.8279 5.41049 13.8335 5.41886C13.8516 5.44618 13.8681 5.47454 13.8828 5.50381C13.8862 5.51058 13.8894 5.51752 13.8928 5.52425C13.8993 5.53688 13.9088 5.54019 13.8935 5.52437C13.8788 5.50926 13.8882 5.51029 13.8934 5.52484C13.8968 5.5344 13.9006 5.54384 13.9039 5.55343C13.9148 5.58466 13.924 5.61648 13.9313 5.64872C13.9347 5.66362 13.9375 5.67862 13.9404 5.69361C13.9508 5.74679 13.9389 5.66056 13.9414 5.70005C13.9435 5.73303 13.9459 5.76566 13.9453 5.79877C13.9451 5.81392 13.9444 5.82905 13.9434 5.84417C13.9428 5.8517 13.942 5.85922 13.9415 5.86676C13.9391 5.9031 13.939 5.85349 13.9441 5.85009C13.9335 5.88094 13.9264 5.91289 13.9231 5.94533C13.9189 5.95973 13.914 5.97381 13.9094 5.98805C13.8932 6.03773 13.9245 5.96097 13.9073 5.99492C13.8931 6.02409 13.8773 6.05242 13.8598 6.07978C13.8523 6.09124 13.8237 6.11712 13.8471 6.09911C13.8724 6.07956 13.8338 6.11322 13.8256 6.12188C13.815 6.133 13.804 6.14374 13.7926 6.15409C13.7853 6.16118 13.7776 6.16784 13.7696 6.17405C13.7681 6.17331 13.8084 6.14723 13.7867 6.16103C13.7591 6.17858 13.7329 6.19735 13.7038 6.21263C13.7004 6.21441 13.6632 6.23158 13.6634 6.23219C13.6618 6.22594 13.7112 6.21485 13.6773 6.22577C13.6702 6.22806 13.6632 6.23084 13.6561 6.23322C13.6252 6.24358 13.5937 6.25195 13.5617 6.25828C13.5544 6.25973 13.5466 6.26047 13.5394 6.26232C13.5154 6.26851 13.5624 6.25869 13.5638 6.2595C13.546 6.25874 13.5283 6.26031 13.5109 6.26417C13.4779 6.26605 13.4449 6.26605 13.4119 6.26416C13.4043 6.26372 13.3967 6.26297 13.3891 6.26252C13.3714 6.2615 13.3584 6.24879 13.3819 6.26259C13.4001 6.27324 13.3986 6.26547 13.3825 6.2625C13.375 6.26111 13.3674 6.25994 13.3599 6.25854C13.3272 6.25245 13.295 6.24457 13.2632 6.23494C13.2461 6.22975 13.2294 6.22372 13.2125 6.21785C13.2052 6.21572 13.198 6.21298 13.1911 6.20965C13.191 6.20774 13.2346 6.23039 13.2116 6.21804C13.1826 6.20245 13.1526 6.18938 13.1242 6.17234C13.1091 6.16325 13.0946 6.15337 13.0799 6.14363C13.0734 6.13975 13.0673 6.13536 13.0615 6.13051C13.062 6.12855 13.0975 6.16137 13.0789 6.14366C13.0553 6.12125 13.03 6.10119 13.0077 6.07733C13.0026 6.07188 12.9977 6.06616 12.9927 6.0607L12.9877 6.05508C12.9751 6.03974 12.9749 6.03981 12.987 6.0553C12.9993 6.05891 12.9988 6.07238 12.9871 6.05489C12.9829 6.04866 12.9785 6.0426 12.9743 6.03637C12.9555 6.00957 12.9394 5.98094 12.9263 5.9509C12.9275 5.95002 12.9464 6.00662 12.9319 5.96391C12.9292 5.95584 12.9261 5.9479 12.9234 5.93981C12.9181 5.92377 12.9134 5.90755 12.9093 5.89115C12.9053 5.87491 12.9032 5.85815 12.8992 5.84197C12.8924 5.8147 12.9032 5.86348 12.9019 5.86227C12.8981 5.85846 12.8997 5.83481 12.8994 5.82915C12.8976 5.79281 12.9017 5.75755 12.9024 5.72144C12.9029 5.69346 12.9 5.74324 12.8995 5.74178C12.8996 5.7334 12.9011 5.7251 12.9039 5.71719C12.9081 5.69814 12.912 5.67911 12.9171 5.66028C12.923 5.63871 12.9298 5.61741 12.9375 5.59637C12.9404 5.5885 12.9439 5.58074 12.9465 5.5728C12.9563 5.54373 12.9272 5.60792 12.9432 5.5817C12.9653 5.54563 12.9818 5.50659 13.0053 5.47097C13.0108 5.46252 13.0446 5.41548 13.0267 5.43923C13.0088 5.46288 13.0451 5.41805 13.0519 5.41044C13.0804 5.37881 13.1139 5.35284 13.1435 5.32256C13.1609 5.30463 13.1313 5.33139 13.1295 5.33263C13.1387 5.32613 13.1476 5.31937 13.1569 5.31302C13.173 5.30194 13.1895 5.29146 13.2064 5.28159C13.2255 5.27045 13.247 5.26216 13.2655 5.25038C13.2873 5.23646 13.2488 5.25649 13.2481 5.25691C13.2581 5.25198 13.2685 5.24802 13.2793 5.24509C13.2973 5.23873 13.3755 5.20508 13.3919 5.2156C13.3912 5.21513 13.3325 5.22031 13.3799 5.21727C13.3911 5.21656 13.4023 5.21547 13.4135 5.215C13.4362 5.21407 13.4589 5.21463 13.4815 5.21581C13.543 5.21541 13.6019 5.19088 13.6454 5.14754C13.6889 5.10421 13.7135 5.04555 13.7139 4.98426C13.7126 4.92326 13.6877 4.86512 13.6444 4.82198C13.6011 4.77884 13.5427 4.75402 13.4815 4.75271Z" fill="#E6E6E6"/>
<path d="M60.4719 56.0345H3.48601C2.76542 56.0337 2.07457 55.7481 1.56502 55.2403C1.05548 54.7325 0.768862 54.044 0.768051 53.3259V2.7087C0.768859 1.99055 1.05547 1.30205 1.56502 0.794249C2.07456 0.286443 2.76541 0.000805297 3.48601 0H60.4719C61.1925 0.000805297 61.8833 0.286443 62.3929 0.794249C62.9024 1.30205 63.189 1.99055 63.1898 2.7087V53.3259C63.189 54.044 62.9024 54.7325 62.3929 55.2403C61.8833 55.7481 61.1925 56.0337 60.4719 56.0345ZM3.48601 0.30873C2.84755 0.309454 2.23544 0.56254 1.78398 1.01246C1.33251 1.46239 1.07856 2.07241 1.07784 2.7087V53.3259C1.07858 53.9622 1.33254 54.5722 1.784 55.0221C2.23546 55.472 2.84756 55.7251 3.48601 55.7258H60.4719C61.1103 55.7251 61.7224 55.472 62.1739 55.0221C62.6254 54.5722 62.8793 53.9622 62.8801 53.3259V2.7087C62.8793 2.07241 62.6254 1.46239 62.1739 1.01246C61.7225 0.56254 61.1104 0.309454 60.4719 0.30873H3.48601Z" fill="#E6E6E6"/>
<path d="M3.39159 34.4397L23.4315 34.379L43.3691 34.3185L54.616 34.2844C54.6763 34.2824 54.7333 34.2571 54.7752 34.2139C54.8171 34.1707 54.8405 34.113 54.8405 34.0529C54.8405 33.9928 54.8171 33.9351 54.7752 33.8919C54.7333 33.8487 54.6763 33.8234 54.616 33.8214L34.5761 33.8821L14.6385 33.9425L3.39159 33.9766C3.33136 33.9787 3.2743 34.004 3.23243 34.0472C3.19056 34.0904 3.16716 34.1481 3.16716 34.2082C3.16716 34.2682 3.19056 34.3259 3.23243 34.3691C3.2743 34.4123 3.33136 34.4376 3.39159 34.4397Z" fill="#E6E6E6"/>
<path d="M13.5014 34.0643L13.6253 26.7726C13.6304 26.4744 13.1657 26.4744 13.1606 26.7726L13.0367 34.0643C13.0317 34.3624 13.4963 34.3625 13.5014 34.0643Z" fill="#E6E6E6"/>
<path d="M23.0792 34.1432L23.3812 24.9779L23.4675 22.3592C23.4773 22.0612 23.0126 22.0615 23.0028 22.3592L22.7008 31.5246L22.6146 34.1432C22.6047 34.4413 23.0694 34.441 23.0792 34.1432Z" fill="#E6E6E6"/>
<path d="M32.6312 18.0146C32.4491 21.2609 32.1121 30.8361 31.9299 34.0824C31.9132 34.3802 32.3779 34.3793 32.3946 34.0824C32.5767 30.8361 32.9138 21.2609 33.0959 18.0146C33.1126 17.7168 32.6479 17.7178 32.6312 18.0146Z" fill="#E6E6E6"/>
<path d="M42.1373 30.825L42.0803 33.9452C42.0749 34.2433 42.5395 34.2433 42.545 33.9452C42.6123 30.26 42.7848 30.3801 42.8038 29.34C42.8092 29.0419 42.3445 29.0419 42.3391 29.34C42.3391 29.34 42.2045 27.1398 42.1373 30.825Z" fill="#E6E6E6"/>
<path d="M51.4482 22.6281L51.5007 31.382L51.5158 33.8886C51.5179 33.9486 51.5433 34.0055 51.5866 34.0472C51.6299 34.0889 51.6879 34.1122 51.7481 34.1122C51.8084 34.1122 51.8663 34.0889 51.9096 34.0472C51.953 34.0055 51.9784 33.9486 51.9805 33.8886L51.9279 25.1347L51.9129 22.6281C51.9108 22.5681 51.8854 22.5113 51.842 22.4695C51.7987 22.4278 51.7408 22.4045 51.6805 22.4045C51.6203 22.4045 51.5623 22.4278 51.519 22.4695C51.4757 22.5113 51.4503 22.5681 51.4482 22.6281Z" fill="#E6E6E6"/>
<path d="M3.42896 34.1792C3.04432 33.1258 3.91137 32.1127 4.80228 31.6575C5.86965 31.112 7.09752 30.9884 8.1762 30.4626C9.78434 29.6788 10.9557 28.272 11.9979 26.8638C13.0707 25.4144 14.0522 23.8589 15.4153 22.6546C16.1336 22.0059 16.982 21.5166 17.9043 21.2192C19.0663 20.8577 20.2987 20.8329 21.4995 20.9786C23.9806 21.2796 26.2807 22.3009 28.6747 22.95C30.9318 23.562 33.4187 23.9061 35.6342 22.9544C36.7598 22.4709 37.6802 21.66 38.6688 20.9582C39.6256 20.272 40.6954 19.7577 41.8299 19.4386C44.0539 18.8223 46.4826 18.9868 48.5531 20.0287C50.4563 20.9741 51.9633 22.5592 52.8079 24.5041C53.7895 26.841 53.6617 29.4524 53.3411 31.9121C53.2582 32.5479 53.1596 33.1815 53.0598 33.8149C53.0139 34.1064 53.4616 34.232 53.5079 33.938C53.9072 31.4017 54.3053 28.785 53.8085 26.2327C53.3789 24.0041 52.1493 22.0078 50.3496 20.6174C48.5423 19.2233 46.2956 18.5166 44.0127 18.6244C42.8164 18.6797 41.6387 18.9407 40.5316 19.3959C39.3824 19.8697 38.4093 20.5718 37.4208 21.3106C36.4045 22.0703 35.3568 22.6986 34.0951 22.9464C32.8712 23.1867 31.598 23.0966 30.3795 22.8697C27.8652 22.4015 25.5216 21.3283 23.0287 20.7785C20.719 20.269 18.2266 20.2181 16.1583 21.5185C14.5674 22.5187 13.4432 24.0717 12.3643 25.5712C11.2948 27.0575 10.2119 28.6469 8.64809 29.6623C7.69414 30.2816 6.6218 30.5102 5.55467 30.8585C4.48478 31.2077 3.45767 31.7968 3.02143 32.8892C2.83342 33.3392 2.81897 33.8424 2.98088 34.3023C3.08233 34.5802 3.53156 34.4602 3.42896 34.1792Z" fill="#E6E6E6"/>
<path d="M13.3475 25.7643L13.3466 25.7647L13.3483 25.7643H13.3475Z" fill="#E6E6E6"/>
<path d="M14.1529 25.3383C14.0455 25.1488 13.8742 25.0033 13.6694 24.9278C13.4645 24.8522 13.2395 24.8515 13.0341 24.9256C12.9321 24.9628 12.8385 25.0199 12.759 25.0937C12.6794 25.1675 12.6156 25.2564 12.5711 25.3553C12.5622 25.3763 12.557 25.3984 12.5498 25.4199C12.5397 25.4361 12.5276 25.4507 12.5186 25.4677C12.4223 25.659 12.3959 25.8777 12.444 26.0863C12.4921 26.2948 12.6117 26.4801 12.7822 26.6102C12.9526 26.7404 13.1633 26.8072 13.3778 26.7992C13.5924 26.7912 13.7974 26.7089 13.9577 26.5665C14.1261 26.4148 14.2373 26.2102 14.2728 25.9867C14.3083 25.7633 14.266 25.5345 14.1529 25.3383ZM13.571 25.7316C13.5722 25.754 13.5729 25.7433 13.571 25.7316V25.7316ZM13.5118 25.5975C13.5095 25.5949 13.5098 25.5952 13.5118 25.5975V25.5975ZM13.2511 25.702C13.2472 25.6958 13.2476 25.6967 13.2511 25.702V25.702ZM13.3129 25.7542C13.3218 25.7582 13.3276 25.7592 13.3129 25.7542V25.7542ZM13.3405 25.7673L13.3466 25.7645C13.3451 25.7647 13.3436 25.7644 13.3423 25.7637L13.3424 25.7637L13.3472 25.7643L13.3481 25.7638L13.3454 25.7632C13.3478 25.7631 13.348 25.7635 13.3481 25.7638C13.3758 25.7512 13.3571 25.7573 13.3411 25.7622L13.34 25.762C13.33 25.7569 13.3193 25.7535 13.3082 25.7518C13.3071 25.7512 13.3059 25.7508 13.3051 25.7502C13.2962 25.7439 13.2512 25.7089 13.2929 25.7456C13.2838 25.7376 13.2749 25.7297 13.2663 25.7211C13.2613 25.716 13.2567 25.7104 13.2527 25.7044C13.2472 25.6951 13.2419 25.6856 13.2368 25.6761L13.236 25.671C13.2353 25.6667 13.2348 25.6649 13.2343 25.6624C13.2345 25.6597 13.2349 25.6569 13.2354 25.6541C13.2385 25.6458 13.2405 25.6371 13.2413 25.6282L13.2431 25.626C13.2497 25.6167 13.2556 25.6059 13.2619 25.5962C13.2283 25.6472 13.2751 25.5906 13.2786 25.5834C13.2792 25.5822 13.2782 25.5829 13.2784 25.582C13.2798 25.5813 13.2794 25.5818 13.281 25.5808C13.2914 25.5747 13.3013 25.5679 13.3119 25.562C13.3246 25.555 13.3743 25.541 13.3227 25.5557C13.3344 25.5523 13.3457 25.5481 13.3575 25.545C13.3596 25.5445 13.377 25.5421 13.3864 25.5404C13.3946 25.5402 13.4025 25.5399 13.4034 25.5399C13.4072 25.54 13.4111 25.5405 13.4149 25.5406C13.4064 25.5418 13.4443 25.5499 13.4556 25.5517C13.4572 25.5529 13.458 25.5538 13.4602 25.5554C13.4698 25.5623 13.4813 25.5685 13.4914 25.5749C13.4465 25.546 13.492 25.5772 13.5006 25.5858C13.5057 25.5909 13.5104 25.5964 13.5153 25.6017C13.5197 25.6069 13.5237 25.6123 13.5272 25.6181C13.5346 25.6316 13.5424 25.6452 13.5502 25.6584L13.5523 25.6618C13.5523 25.6622 13.5522 25.6627 13.5522 25.6631C13.5563 25.6846 13.5622 25.7056 13.57 25.7261C13.5704 25.7278 13.5707 25.7295 13.5709 25.7313C13.5716 25.7431 13.5726 25.7548 13.5726 25.7666L13.5725 25.769C13.5368 25.7504 13.4971 25.7406 13.4567 25.7403C13.4164 25.74 13.3765 25.7493 13.3405 25.7673Z" fill="#E6E6E6"/>
<path d="M13.3487 25.764C13.3497 25.7643 13.3486 25.7643 13.3486 25.7643L13.3487 25.764Z" fill="#E6E6E6"/>
<path d="M13.3487 25.7642L13.3479 25.7644C13.349 25.7645 13.3487 25.7642 13.3487 25.7642Z" fill="#E6E6E6"/>
<path d="M13.3482 25.7639L13.3491 25.7643L13.3482 25.7639Z" fill="#E6E6E6"/>
<path d="M23.2606 21.4421L23.2598 21.4425L23.2615 21.4421H23.2606Z" fill="#E6E6E6"/>
<path d="M24.0661 21.0161C23.9587 20.8266 23.7874 20.6811 23.5825 20.6056C23.3777 20.53 23.1526 20.5293 22.9473 20.6034C22.8452 20.6406 22.7516 20.6977 22.6721 20.7715C22.5926 20.8453 22.5287 20.9342 22.4843 21.0331C22.4754 21.0541 22.4702 21.0761 22.4629 21.0977C22.4529 21.1139 22.4408 21.1285 22.4317 21.1455C22.3354 21.3368 22.3091 21.5555 22.3572 21.7641C22.4053 21.9726 22.5249 22.1579 22.6953 22.288C22.8657 22.4182 23.0764 22.485 23.291 22.477C23.5055 22.469 23.7106 22.3867 23.8708 22.2443C24.0392 22.0926 24.1504 21.888 24.1859 21.6645C24.2215 21.4411 24.1792 21.2123 24.0661 21.0161ZM23.4841 21.4094C23.4853 21.4318 23.486 21.4211 23.4841 21.4094V21.4094ZM23.425 21.2753C23.4227 21.2727 23.423 21.273 23.425 21.2753V21.2753ZM23.1642 21.3798C23.1604 21.3736 23.1607 21.3745 23.1642 21.3798V21.3798ZM23.226 21.432C23.2349 21.436 23.2407 21.437 23.226 21.432V21.432ZM23.2536 21.4451L23.2597 21.4423C23.2582 21.4425 23.2567 21.4422 23.2554 21.4415L23.2556 21.4415L23.2604 21.442L23.2613 21.4416L23.2585 21.441C23.2609 21.4409 23.2611 21.4413 23.2613 21.4416C23.2889 21.429 23.2703 21.4351 23.2542 21.44L23.2532 21.4398C23.2432 21.4347 23.2324 21.4313 23.2213 21.4296C23.2203 21.429 23.2191 21.4286 23.2182 21.428C23.2093 21.4217 23.1643 21.3867 23.2061 21.4234C23.197 21.4154 23.188 21.4075 23.1795 21.3989C23.1744 21.3938 23.1699 21.3882 23.1658 21.3822C23.1604 21.3729 23.1551 21.3634 23.1499 21.3539L23.1491 21.3488C23.1485 21.3445 23.148 21.3427 23.1474 21.3402C23.1477 21.3375 23.1481 21.3347 23.1485 21.3319C23.1516 21.3236 23.1536 21.3149 23.1544 21.306L23.1562 21.3038C23.1629 21.2945 23.1687 21.2837 23.1751 21.274C23.1414 21.325 23.1882 21.2684 23.1917 21.2612C23.1923 21.26 23.1913 21.2607 23.1916 21.2598C23.1929 21.2591 23.1925 21.2596 23.1941 21.2586C23.2046 21.2525 23.2145 21.2457 23.2251 21.2398C23.2377 21.2328 23.2874 21.2188 23.2359 21.2335C23.2476 21.2301 23.2588 21.2259 23.2706 21.2228C23.2728 21.2223 23.2901 21.2199 23.2995 21.2182C23.3077 21.218 23.3157 21.2177 23.3165 21.2177C23.3204 21.2178 23.3242 21.2183 23.3281 21.2184C23.3195 21.2196 23.3574 21.2277 23.3687 21.2295C23.3703 21.2307 23.3712 21.2315 23.3734 21.2332C23.3829 21.2401 23.3945 21.2463 23.4045 21.2527C23.3596 21.2238 23.4051 21.255 23.4137 21.2636C23.4188 21.2687 23.4236 21.2742 23.4284 21.2795C23.4328 21.2847 23.4368 21.2901 23.4404 21.2959C23.4477 21.3094 23.4556 21.323 23.4633 21.3362L23.4654 21.3396C23.4654 21.34 23.4654 21.3405 23.4654 21.3409C23.4694 21.3624 23.4754 21.3834 23.4832 21.4039C23.4836 21.4056 23.4839 21.4073 23.4841 21.4091C23.4848 21.4208 23.4858 21.4326 23.4858 21.4444L23.4857 21.4468C23.4499 21.4282 23.4102 21.4183 23.3698 21.4181C23.3295 21.4178 23.2897 21.4271 23.2536 21.4451Z" fill="#E6E6E6"/>
<path d="M23.2619 21.442L23.261 21.4422C23.2621 21.4423 23.2619 21.442 23.2619 21.442Z" fill="#E6E6E6"/>
<path d="M23.2613 21.4416L23.2622 21.442L23.2613 21.4416Z" fill="#E6E6E6"/>
<path d="M23.2619 21.4418C23.2628 21.4421 23.2617 21.4421 23.2617 21.4421L23.2619 21.4418Z" fill="#E6E6E6"/>
<path d="M32.8647 23.6027L32.8655 23.6031L32.8647 23.6027Z" fill="#E6E6E6"/>
<path d="M33.6694 16.6939C33.5621 16.5044 33.3907 16.3589 33.1859 16.2834C32.981 16.2078 32.756 16.207 32.5506 16.2812C32.4486 16.3184 32.355 16.3755 32.2755 16.4493C32.1959 16.5231 32.1321 16.612 32.0876 16.7109C32.0788 16.7319 32.0736 16.7539 32.0663 16.7755C32.0562 16.7917 32.0441 16.8063 32.0351 16.8233C31.9388 17.0146 31.9124 17.2333 31.9605 17.4418C32.0086 17.6504 32.1282 17.8357 32.2987 17.9658C32.4691 18.096 32.6798 18.1628 32.8943 18.1548C33.1089 18.1468 33.314 18.0645 33.4742 17.9221C33.6426 17.7704 33.7538 17.5658 33.7893 17.3423C33.8248 17.1189 33.7825 16.8901 33.6694 16.6939ZM33.0875 17.0872C33.0887 17.1096 33.0894 17.0989 33.0875 17.0872V17.0872ZM33.0283 16.9531C33.026 16.9505 33.0263 16.9508 33.0283 16.9531V16.9531ZM32.7676 17.0576C32.7638 17.0514 32.7641 17.0523 32.7676 17.0576V17.0576ZM32.8294 17.1098C32.8383 17.1138 32.8441 17.1148 32.8294 17.1098V17.1098ZM32.857 17.1229L32.8631 17.1201C32.8616 17.1203 32.8601 17.12 32.8588 17.1193L32.8589 17.1192L32.8637 17.1198L32.8646 17.1194L32.8619 17.1188C32.8643 17.1187 32.8645 17.1191 32.8646 17.1194C32.8923 17.1068 32.8736 17.1129 32.8576 17.1178L32.8565 17.1176C32.8465 17.1125 32.8358 17.1091 32.8247 17.1074C32.8236 17.1068 32.8224 17.1064 32.8216 17.1058C32.8127 17.0995 32.7677 17.0645 32.8094 17.1012C32.8003 17.0932 32.7914 17.0853 32.7828 17.0767C32.7778 17.0716 32.7732 17.066 32.7692 17.06C32.7637 17.0507 32.7584 17.0412 32.7533 17.0317L32.7525 17.0266C32.7518 17.0223 32.7513 17.0205 32.7508 17.018C32.751 17.0153 32.7514 17.0125 32.7519 17.0097C32.755 17.0014 32.757 16.9927 32.7578 16.9838L32.7596 16.9816C32.7662 16.9723 32.7721 16.9615 32.7784 16.9518C32.7448 17.0028 32.7916 16.9462 32.7951 16.939C32.7957 16.9378 32.7947 16.9385 32.7949 16.9376C32.7963 16.9369 32.7959 16.9374 32.7975 16.9364C32.8079 16.9303 32.8178 16.9235 32.8284 16.9176C32.8411 16.9106 32.8908 16.8966 32.8392 16.9113C32.8509 16.9079 32.8622 16.9037 32.874 16.9006C32.8761 16.9001 32.8935 16.8977 32.9029 16.896C32.9111 16.8958 32.919 16.8955 32.9199 16.8955C32.9237 16.8956 32.9276 16.8961 32.9314 16.8962C32.9229 16.8974 32.9608 16.9055 32.9721 16.9073C32.9737 16.9085 32.9745 16.9093 32.9767 16.911C32.9863 16.9179 32.9978 16.9241 33.0079 16.9305C32.963 16.9016 33.0085 16.9328 33.0171 16.9414C33.0222 16.9465 33.0269 16.952 33.0318 16.9573C33.0362 16.9625 33.0402 16.9679 33.0437 16.9737C33.0511 16.9871 33.0589 17.0008 33.0667 17.014L33.0688 17.0174C33.0688 17.0178 33.0687 17.0183 33.0687 17.0187C33.0728 17.0402 33.0787 17.0612 33.0865 17.0817C33.0869 17.0834 33.0872 17.0851 33.0874 17.0869C33.0881 17.0986 33.0891 17.1104 33.0891 17.1222L33.089 17.1246C33.0533 17.106 33.0136 17.0961 32.9732 17.0959C32.9329 17.0956 32.893 17.1048 32.857 17.1229Z" fill="#E6E6E6"/>
<path d="M32.864 23.6032L32.8631 23.6036L32.8648 23.6032H32.864Z" fill="#E6E6E6"/>
<path d="M32.8652 23.6031L32.8644 23.6033C32.8655 23.6034 32.8652 23.6031 32.8652 23.6031Z" fill="#E6E6E6"/>
<path d="M32.8653 23.6029C32.8662 23.6032 32.8651 23.6032 32.8651 23.6032L32.8653 23.6029Z" fill="#E6E6E6"/>
<path d="M43.4277 28.58C43.3203 28.3904 43.149 28.245 42.9441 28.1694C42.7393 28.0938 42.5142 28.0931 42.3089 28.1673C42.2068 28.2044 42.1132 28.2616 42.0337 28.3354C41.9542 28.4091 41.8903 28.4981 41.8459 28.5969C41.837 28.6179 41.8318 28.64 41.8245 28.6615C41.8145 28.6777 41.8024 28.6924 41.7933 28.7094C41.697 28.9006 41.6707 29.1193 41.7188 29.3279C41.7669 29.5364 41.8865 29.7217 42.0569 29.8519C42.2273 29.982 42.438 30.0488 42.6526 30.0409C42.8671 30.0329 43.0722 29.9506 43.2324 29.8081C43.4008 29.6564 43.512 29.4518 43.5476 29.2284C43.5831 29.0049 43.5408 28.7761 43.4277 28.58ZM42.8457 28.9732C42.8469 28.9956 42.8476 28.9849 42.8457 28.9732V28.9732ZM42.7866 28.8392C42.7843 28.8366 42.7846 28.8368 42.7866 28.8392V28.8392ZM42.5258 28.9436C42.522 28.9374 42.5223 28.9383 42.5258 28.9436V28.9436ZM42.5876 28.9959C42.5965 28.9998 42.6023 29.0009 42.5876 28.9959V28.9959ZM42.6152 29.009L42.6213 29.0062C42.6198 29.0063 42.6183 29.006 42.617 29.0053L42.6172 29.0053L42.622 29.0059L42.6229 29.0055L42.6201 29.0048C42.6225 29.0048 42.6227 29.0051 42.6229 29.0055C42.6505 28.9929 42.6319 28.9989 42.6158 29.0039L42.6148 29.0036C42.6048 28.9986 42.594 28.9951 42.5829 28.9934C42.5819 28.9929 42.5807 28.9924 42.5798 28.9918C42.5709 28.9855 42.5259 28.9505 42.5677 28.9872C42.5586 28.9792 42.5496 28.9714 42.5411 28.9628C42.536 28.9576 42.5315 28.952 42.5274 28.9461C42.522 28.9367 42.5167 28.9273 42.5115 28.9177L42.5108 28.9126C42.5101 28.9083 42.5096 28.9066 42.509 28.904C42.5093 28.9014 42.5097 28.8985 42.5101 28.8958C42.5132 28.8874 42.5152 28.8787 42.516 28.8699L42.5178 28.8676C42.5245 28.8583 42.5303 28.8475 42.5367 28.8379C42.503 28.8888 42.5498 28.8322 42.5534 28.8251C42.5539 28.8238 42.5529 28.8245 42.5532 28.8237C42.5545 28.8229 42.5541 28.8234 42.5558 28.8225C42.5662 28.8163 42.5761 28.8095 42.5867 28.8037C42.5993 28.7967 42.649 28.7826 42.5975 28.7973C42.6092 28.794 42.6204 28.7898 42.6322 28.7867C42.6344 28.7861 42.6517 28.7837 42.6611 28.782C42.6693 28.7818 42.6773 28.7816 42.6781 28.7816C42.682 28.7816 42.6858 28.7821 42.6897 28.7823C42.6811 28.7834 42.719 28.7916 42.7303 28.7933C42.7319 28.7946 42.7328 28.7954 42.735 28.797C42.7445 28.8039 42.7561 28.8101 42.7661 28.8166C42.7212 28.7876 42.7667 28.8189 42.7753 28.8274C42.7804 28.8325 42.7852 28.838 42.79 28.8434C42.7944 28.8485 42.7984 28.854 42.802 28.8597C42.8093 28.8732 42.8172 28.8868 42.8249 28.9L42.8271 28.9034C42.827 28.9039 42.827 28.9043 42.827 28.9048C42.831 28.9262 42.837 28.9473 42.8448 28.9677C42.8452 28.9694 42.8455 28.9712 42.8457 28.9729C42.8464 28.9847 42.8474 28.9964 42.8474 29.0082L42.8473 29.0106C42.8115 28.992 42.7718 28.9822 42.7314 28.9819C42.6911 28.9816 42.6513 28.9909 42.6152 29.009Z" fill="#E6E6E6"/>
<path d="M42.6222 18.8179L42.6214 18.8183L42.6231 18.8179H42.6222Z" fill="#E6E6E6"/>
<path d="M42.6235 18.8178L42.6226 18.8179C42.6237 18.8181 42.6235 18.8178 42.6235 18.8178Z" fill="#E6E6E6"/>
<path d="M42.6235 18.8176C42.6245 18.8179 42.6233 18.8179 42.6233 18.8179L42.6235 18.8176Z" fill="#E6E6E6"/>
<path d="M42.6229 18.8174L42.6238 18.8178L42.6229 18.8174Z" fill="#E6E6E6"/>
<path d="M52.5664 21.4792C52.459 21.2896 52.2876 21.1442 52.0828 21.0686C51.878 20.9931 51.6529 20.9923 51.4475 21.0665C51.3455 21.1036 51.2519 21.1608 51.1724 21.2346C51.0929 21.3084 51.029 21.3973 50.9846 21.4961C50.9757 21.5171 50.9705 21.5392 50.9632 21.5607C50.9531 21.577 50.941 21.5916 50.932 21.6086C50.8357 21.7998 50.8093 22.0186 50.8574 22.2271C50.9056 22.4357 51.0251 22.621 51.1956 22.7511C51.366 22.8813 51.5767 22.9481 51.7912 22.9401C52.0058 22.9321 52.2109 22.8498 52.3711 22.7073C52.5395 22.5556 52.6507 22.351 52.6862 22.1276C52.7217 21.9042 52.6794 21.6753 52.5664 21.4792ZM51.9844 21.8724C51.9856 21.8949 51.9863 21.8841 51.9844 21.8724V21.8724ZM51.9252 21.7384C51.923 21.7358 51.9232 21.7361 51.9252 21.7384V21.7384ZM51.6645 21.8429C51.6607 21.8366 51.661 21.8375 51.6645 21.8429V21.8429ZM51.7263 21.8951C51.7352 21.899 51.741 21.9001 51.7263 21.8951V21.8951ZM51.7539 21.9082L51.76 21.9054C51.7585 21.9056 51.757 21.9053 51.7557 21.9046L51.7558 21.9045L51.7606 21.9051L51.7615 21.9047L51.7588 21.9041C51.7612 21.904 51.7614 21.9043 51.7615 21.9047C51.7892 21.8921 51.7705 21.8981 51.7545 21.9031L51.7534 21.9028C51.7434 21.8978 51.7327 21.8943 51.7216 21.8927C51.7206 21.8921 51.7193 21.8917 51.7185 21.8911C51.7096 21.8847 51.6646 21.8497 51.7063 21.8864C51.6973 21.8785 51.6883 21.8706 51.6797 21.862C51.6747 21.8568 51.6702 21.8512 51.6661 21.8453C51.6606 21.8359 51.6553 21.8265 51.6502 21.817L51.6494 21.8118C51.6487 21.8076 51.6482 21.8058 51.6477 21.8032C51.6479 21.8006 51.6484 21.7977 51.6488 21.795C51.6519 21.7867 51.6539 21.778 51.6547 21.7691L51.6565 21.7668C51.6631 21.7576 51.669 21.7467 51.6754 21.7371C51.6417 21.7881 51.6885 21.7315 51.692 21.7243C51.6926 21.7231 51.6916 21.7237 51.6918 21.7229C51.6932 21.7221 51.6928 21.7227 51.6944 21.7217C51.7049 21.7156 51.7147 21.7087 51.7253 21.7029C51.738 21.6959 51.7877 21.6819 51.7361 21.6965C51.7478 21.6932 51.7591 21.689 51.7709 21.6859C51.7731 21.6854 51.7904 21.6829 51.7998 21.6813C51.808 21.681 51.8159 21.6808 51.8168 21.6808C51.8206 21.6809 51.8245 21.6813 51.8284 21.6815C51.8198 21.6826 51.8577 21.6908 51.869 21.6925C51.8706 21.6938 51.8714 21.6946 51.8737 21.6962C51.8832 21.7032 51.8948 21.7093 51.9048 21.7158C51.8599 21.6869 51.9054 21.7181 51.914 21.7267C51.9191 21.7318 51.9238 21.7372 51.9287 21.7426C51.9331 21.7477 51.9371 21.7532 51.9406 21.759C51.948 21.7724 51.9558 21.786 51.9636 21.7993L51.9657 21.8027C51.9657 21.8031 51.9657 21.8036 51.9657 21.804C51.9697 21.8255 51.9756 21.8465 51.9834 21.8669C51.9838 21.8687 51.9841 21.8704 51.9843 21.8722C51.985 21.8839 51.986 21.8956 51.9861 21.9075L51.986 21.9099C51.9502 21.8913 51.9105 21.8814 51.8701 21.8811C51.8298 21.8808 51.7899 21.8901 51.7539 21.9082Z" fill="#E6E6E6"/>
<path d="M51.7609 21.9052L51.7601 21.9056L51.7617 21.9052H51.7609Z" fill="#E6E6E6"/>
<path d="M51.7616 21.9047L51.7624 21.9052L51.7616 21.9047Z" fill="#E6E6E6"/>
<path d="M51.7622 21.9048C51.7631 21.9051 51.762 21.9052 51.762 21.9052L51.7622 21.9048Z" fill="#E6E6E6"/>
<path d="M51.7622 21.9051L51.7613 21.9052C51.7624 21.9053 51.7622 21.9051 51.7622 21.9051Z" fill="#E6E6E6"/>
<path d="M49.2564 28.9794L42.0544 29.3784C42.0138 29.3806 41.9739 29.3673 41.9429 29.3411C41.9119 29.3149 41.8921 29.2778 41.8877 29.2375C41.8833 29.1972 41.8946 29.1568 41.9192 29.1245C41.9438 29.0923 41.9799 29.0707 42.0201 29.0642L49.3813 27.8704L49.2564 28.9794Z" fill="#3F3D56"/>
<path d="M58.4091 44.9587L61.1231 40.4083L63.129 41.3525C63.129 41.3525 59.6726 45.6549 59.5624 45.7787C59.6096 45.9878 59.5919 46.2063 59.5118 46.4052C59.4317 46.6041 59.2928 46.774 59.1136 46.8926C58.9345 47.0111 58.7234 47.0727 58.5084 47.0691C58.2933 47.0655 58.0844 46.9969 57.9094 46.8724C57.7343 46.748 57.6012 46.5735 57.5278 46.372C57.4544 46.1705 57.4442 45.9516 57.4983 45.7442C57.5525 45.5367 57.6686 45.3506 57.8312 45.2103C57.9938 45.0701 58.1954 44.9823 58.4091 44.9587Z" fill="#FFB6B6"/>
<path d="M59.5381 34.3885L63.9351 36.6747C64.2099 36.872 64.4403 37.1243 64.6117 37.4154C64.7831 37.7065 64.8917 38.03 64.9305 38.3653C64.9692 38.7006 64.9374 39.0403 64.837 39.3626C64.7365 39.6849 64.5697 39.9828 64.3471 40.2373L61.3159 43.7026L59.9953 41.9193L61.0132 39.7984L59.0423 39.2804L59.5381 34.3885Z" fill="#393939"/>
<path d="M47.0077 29.0538L46.5125 34.3243L44.2941 34.328C44.2941 34.328 45.5668 28.9644 45.6131 28.8056C45.4806 28.6368 45.4026 28.4318 45.3894 28.2179C45.3763 28.004 45.4287 27.7911 45.5396 27.6074C45.6505 27.4238 45.8147 27.278 46.0105 27.1894C46.2064 27.1009 46.4246 27.0736 46.6363 27.1113C46.848 27.149 47.0433 27.2498 47.1962 27.4005C47.3492 27.5512 47.4526 27.7446 47.4929 27.9551C47.5332 28.1657 47.5083 28.3834 47.4217 28.5796C47.3351 28.7758 47.1907 28.9411 47.0077 29.0538Z" fill="#FFB6B6"/>
<path d="M51.4236 39.8318L46.3176 38.8986C44.1675 38.641 43.2851 37.2311 43.6731 35.8559L44.9216 31.4302L46.8816 32.4774L46.8741 34.8284L49.6177 34.4546L51.4236 39.8318Z" fill="#393939"/>
<path d="M49.3335 76.2551H47.9296L47.2617 70.8582H49.3338L49.3335 76.2551Z" fill="#FFB6B6"/>
<path d="M49.383 77.7147L45.0656 77.7146V77.6602C45.0656 77.216 45.2427 76.7901 45.5578 76.476C45.873 76.1619 46.3004 75.9855 46.7461 75.9855L47.5348 75.3892L49.0062 75.9856L49.3831 75.9856L49.383 77.7147Z" fill="#393939"/>
<path d="M59.2675 76.2551H60.6715L61.3394 70.8582H59.2672L59.2675 76.2551Z" fill="#FFB6B6"/>
<path d="M59.2181 77.7147L63.5355 77.7146V77.6602C63.5354 77.216 63.3584 76.7901 63.0432 76.476C62.7281 76.1619 62.3007 75.9855 61.855 75.9855L61.0663 75.3892L59.5949 75.9856L59.218 75.9856L59.2181 77.7147Z" fill="#393939"/>
<path d="M47.1999 66.8922C47.2206 66.5843 47.3855 64.8812 47.3855 64.8812L47.7804 61.2694L48.4764 51.6955L49.0968 49.179L52.1676 50.3712L54.6594 49.1807L57.6211 50.1242L59.9272 50.9861C59.9272 50.9861 59.9312 51.355 59.949 51.8007C59.9727 52.3842 60.0141 53.0994 60.1128 53.2854C60.2777 53.614 60.2362 55.3781 60.2362 55.3781C60.2362 55.3781 60.4001 58.9672 60.6064 59.3608C60.8128 59.7543 60.8542 60.5739 60.792 60.7382C60.7299 60.9025 60.9984 65.2128 60.9984 65.2128C60.9984 65.2128 61.6876 72.8404 61.2552 73.9905C60.8228 75.1407 59.1888 74.3873 59.1888 74.3873C59.1888 74.3873 59.2678 74.0803 58.7939 73.9357C58.32 73.7911 56.8767 62.9755 56.8767 62.9755C56.8767 62.9755 56.6082 60.7578 56.3614 60.1223C56.1146 59.4867 55.8875 57.701 55.8875 57.701C55.8875 57.701 54.3632 54.7454 54.3435 54.0882C54.3435 54.0882 54.1441 53.4733 53.9555 54.1502C53.7669 54.8271 53.2111 56.4485 53.2111 56.4485L52.6691 58.4398L52.0314 61.415L51.6187 63.92C51.6187 63.92 51.0007 67.2444 50.902 67.3881C50.8033 67.5317 50.902 70.5689 50.902 70.5689C50.902 70.5689 50.4242 73.1555 49.7489 73.6071C49.0737 74.0587 47.2846 73.6143 47.2846 73.6143C47.2846 73.6143 47.1792 67.2002 47.1999 66.8922Z" fill="#393939"/>
<path d="M49.4955 41.0815L49.1032 46.1475L48.5136 46.7555C48.4605 46.8104 48.419 46.8753 48.3916 46.9465C48.3642 47.0177 48.3515 47.0937 48.3543 47.1698C48.3571 47.246 48.3753 47.3209 48.4078 47.3899C48.4403 47.4589 48.4864 47.5207 48.5434 47.5715L48.2186 48.1266L48.1036 49.8756C48.0708 50.0117 48.0686 50.1533 48.097 50.2903C48.1255 50.4274 48.184 50.5565 48.2683 50.6684C48.3526 50.7803 48.4607 50.8723 48.5848 50.9378C48.709 51.0032 48.8461 51.0406 48.9863 51.0472L59.1523 51.5231C59.2918 51.5297 59.431 51.5056 59.5601 51.4526C59.6893 51.3997 59.8051 51.3191 59.8996 51.2166C59.9941 51.114 60.0648 50.9921 60.1068 50.8594C60.1487 50.7267 60.161 50.5864 60.1426 50.4484L59.2782 43.9629V43.478L58.8912 42.5415L59.0901 39.4041L59.5527 34.4245L56.8634 33.7322L55.4053 32.7324L52.872 32.7726L51.3349 34.0307L49.2854 34.3506L47.7355 34.6576L47.5381 35.0853L47.9329 34.9997L49.3643 40.5633L49.4955 41.0815Z" fill="#393939"/>
<path d="M54.082 32.0536C55.7301 32.0536 57.0662 30.7221 57.0662 29.0796C57.0662 27.4371 55.7301 26.1056 54.082 26.1056C52.4339 26.1056 51.0978 27.4371 51.0978 29.0796C51.0978 30.7221 52.4339 32.0536 54.082 32.0536Z" fill="#FFB6B6"/>
<path d="M53.3625 31.8617L55.5186 31.7521C55.7949 31.7381 56.0964 31.7137 56.2973 31.5243C56.4054 31.4073 56.4886 31.2696 56.5417 31.1197C56.741 30.6582 56.9404 30.1968 57.1346 29.7332C57.4033 29.092 57.6671 28.415 57.5986 27.7235C57.5825 27.4077 57.4496 27.109 57.2255 26.8851C57.1112 26.7772 56.9642 26.7101 56.8076 26.6943C56.6509 26.6785 56.4934 26.7148 56.3597 26.7977C56.3264 26.579 56.2437 26.3706 56.1178 26.1884C55.9919 26.0063 55.8261 25.855 55.6329 25.7461C55.2427 25.5312 54.7972 25.4371 54.3531 25.4757C53.7088 25.5171 53.0936 25.7587 52.5941 26.1666C52.4537 26.2957 52.3037 26.4142 52.1454 26.521C52.0658 26.574 51.9762 26.6103 51.882 26.6277C51.7878 26.645 51.6911 26.6431 51.5977 26.6219C51.5052 26.5973 51.4248 26.5401 51.3713 26.461C51.3178 26.3818 51.2949 26.2861 51.3068 26.1914C51.1549 26.3045 51.0508 26.47 51.0147 26.6555C50.9787 26.841 51.0132 27.0333 51.1117 27.1947C50.9998 27.2415 50.8776 27.2586 50.7571 27.2443C50.6366 27.2301 50.5218 27.1851 50.4239 27.1137C50.3191 27.1655 50.2262 27.2386 50.1513 27.3283C50.0765 27.418 50.0212 27.5223 49.9891 27.6345C49.957 27.7467 49.9488 27.8644 49.9649 27.9799C49.9811 28.0955 50.0213 28.2064 50.0829 28.3056C50.1446 28.4048 50.2264 28.49 50.323 28.5559C50.4196 28.6218 50.529 28.6668 50.6441 28.6881C50.7592 28.7095 50.8775 28.7066 50.9915 28.6797C51.1054 28.6528 51.2124 28.6025 51.3057 28.532C51.4366 28.7147 51.3878 28.9629 51.3708 29.1867C51.3537 29.4105 51.414 29.6886 51.6304 29.7504C51.9231 29.8341 52.1602 29.4413 52.4646 29.4455C52.5397 29.4516 52.6121 29.4761 52.6754 29.5168C52.7388 29.5574 52.791 29.613 52.8276 29.6787C52.8994 29.8106 52.9485 29.9535 52.973 30.1015L53.3626 31.8495" fill="#393939"/>
<path d="M137.43 58.6026C137.43 58.1421 137.275 57.7684 137.084 57.7675H85.1415C84.9501 57.7684 84.7958 58.1421 84.795 58.6026V77.5601C84.795 77.6029 84.779 77.6441 84.7502 77.6758C84.7213 77.7074 84.6817 77.7273 84.639 77.7314C84.4996 77.7448 84.3602 77.7572 84.2208 77.7687C84.2173 77.7687 84.2139 77.7695 84.2104 77.7695C84.1346 77.7764 84.0587 77.7815 83.9828 77.7876H83.982C83.9429 77.7156 83.9044 77.6431 83.8663 77.57C83.8534 77.5453 83.8466 77.5179 83.8466 77.4901V57.5192C83.8466 57.392 83.8518 57.264 83.8604 57.1377C83.8727 56.9643 83.8943 56.7916 83.9251 56.6205C84.0708 55.8223 84.4001 55.2819 84.7743 55.2802H137.45C137.505 55.2805 137.559 55.2919 137.609 55.3136C137.683 55.3461 137.749 55.3925 137.805 55.4503C137.88 55.5286 137.945 55.6167 137.997 55.7123C138.212 56.1386 138.335 56.6047 138.36 57.081C138.36 57.0862 138.361 57.0913 138.361 57.0965C138.373 57.2357 138.379 57.3774 138.378 57.5192L138.39 59.3605L138.398 60.4585L138.421 63.9039L138.43 65.1274L138.468 77.6888C138.468 77.7343 138.45 77.778 138.417 77.8103C138.385 77.8425 138.341 77.8606 138.295 77.8606H137.602C137.556 77.8606 137.513 77.8425 137.48 77.8103C137.448 77.778 137.43 77.7343 137.43 77.6888V58.6026Z" fill="#E6E6E6"/>
<path d="M123.315 46.6646H117.718C117.639 46.6647 117.563 46.6961 117.507 46.752C117.452 46.8079 117.42 46.8836 117.42 46.9625V55.7738H123.614V46.9625C123.614 46.9233 123.607 46.8846 123.592 46.8484C123.577 46.8123 123.554 46.7794 123.527 46.7518C123.499 46.7241 123.466 46.7022 123.43 46.6872C123.393 46.6722 123.355 46.6645 123.315 46.6646ZM120.536 51.671C120.361 51.6702 120.193 51.6006 120.069 51.4772C119.945 51.3539 119.876 51.1868 119.875 51.0124V49.9961C119.875 49.8214 119.944 49.6539 120.068 49.5303C120.192 49.4068 120.36 49.3374 120.536 49.3374C120.711 49.3374 120.879 49.4068 121.003 49.5303C121.127 49.6539 121.197 49.8214 121.197 49.9961V51.0124C121.196 51.1868 121.126 51.3539 121.002 51.4772C120.878 51.6006 120.711 51.6702 120.536 51.671Z" fill="#CCCCCC"/>
<path d="M117.401 55.4919V56.3421C117.401 56.3861 117.419 56.4283 117.45 56.4595C117.481 56.4906 117.524 56.5082 117.568 56.5083H123.467C123.511 56.508 123.553 56.4904 123.584 56.4593C123.616 56.4282 123.633 56.3861 123.633 56.3421V55.4919H117.401Z" fill="#3F3D56"/>
<path d="M132.583 32.9135H108.659C108.453 32.9138 108.256 32.9953 108.111 33.1401C107.965 33.285 107.884 33.4814 107.883 33.6862V49.7756C107.884 49.9805 107.965 50.1769 108.111 50.3218C108.256 50.4667 108.453 50.5481 108.659 50.5483H132.583C132.789 50.5481 132.986 50.4667 133.131 50.3218C133.277 50.1769 133.358 49.9805 133.359 49.7756V33.6862C133.358 33.4814 133.277 33.285 133.131 33.1401C132.986 32.9953 132.789 32.9138 132.583 32.9135Z" fill="#E6E6E6"/>
<path d="M132.384 33.4716H108.859C108.749 33.4719 108.643 33.5156 108.565 33.5932C108.488 33.6709 108.444 33.7761 108.444 33.8857V49.5763C108.444 49.6859 108.488 49.7909 108.566 49.8683C108.643 49.9458 108.749 49.9894 108.859 49.9896H132.384C132.493 49.9894 132.599 49.9458 132.677 49.8683C132.754 49.7909 132.798 49.6859 132.798 49.5763V33.8857C132.798 33.7761 132.755 33.6709 132.677 33.5932C132.599 33.5156 132.494 33.4719 132.384 33.4716Z" fill="white"/>
<path d="M127.801 56.804H113.805C113.767 56.804 113.729 56.7955 113.694 56.7791C113.66 56.7627 113.629 56.7388 113.605 56.7091C113.581 56.6795 113.564 56.6448 113.555 56.6077C113.546 56.5706 113.545 56.532 113.553 56.4946L113.77 55.4667C113.783 55.4092 113.815 55.3576 113.86 55.3205C113.906 55.2835 113.963 55.2632 114.022 55.2629H127.584C127.643 55.2632 127.7 55.2835 127.746 55.3205C127.792 55.3576 127.824 55.4092 127.836 55.4667L128.053 56.4946C128.061 56.532 128.061 56.5706 128.052 56.6077C128.043 56.6448 128.025 56.6795 128.001 56.7091C127.977 56.7388 127.947 56.7627 127.912 56.7791C127.877 56.7955 127.84 56.804 127.801 56.804Z" fill="#CCCCCC"/>
<path d="M114.477 55.4481H114.197C114.156 55.4481 114.122 55.4818 114.122 55.5234V55.6305C114.122 55.6721 114.156 55.7058 114.197 55.7058H114.477C114.519 55.7058 114.553 55.6721 114.553 55.6305V55.5234C114.553 55.4818 114.519 55.4481 114.477 55.4481Z" fill="#E6E6E6"/>
<path d="M115.339 55.4481H115.059C115.018 55.4481 114.984 55.4818 114.984 55.5234V55.6305C114.984 55.6721 115.018 55.7058 115.059 55.7058H115.339C115.381 55.7058 115.415 55.6721 115.415 55.6305V55.5234C115.415 55.4818 115.381 55.4481 115.339 55.4481Z" fill="#E6E6E6"/>
<path d="M116.201 55.4481H115.922C115.88 55.4481 115.846 55.4818 115.846 55.5234V55.6305C115.846 55.6721 115.88 55.7058 115.922 55.7058H116.201C116.243 55.7058 116.277 55.6721 116.277 55.6305V55.5234C116.277 55.4818 116.243 55.4481 116.201 55.4481Z" fill="#E6E6E6"/>
<path d="M117.064 55.4481H116.784C116.742 55.4481 116.708 55.4818 116.708 55.5234V55.6305C116.708 55.6721 116.742 55.7058 116.784 55.7058H117.064C117.105 55.7058 117.139 55.6721 117.139 55.6305V55.5234C117.139 55.4818 117.105 55.4481 117.064 55.4481Z" fill="#E6E6E6"/>
<path d="M117.926 55.4481H117.646C117.604 55.4481 117.57 55.4818 117.57 55.5234V55.6305C117.57 55.6721 117.604 55.7058 117.646 55.7058H117.926C117.967 55.7058 118.001 55.6721 118.001 55.6305V55.5234C118.001 55.4818 117.967 55.4481 117.926 55.4481Z" fill="#E6E6E6"/>
<path d="M118.788 55.4481H118.508C118.466 55.4481 118.432 55.4818 118.432 55.5234V55.6305C118.432 55.6721 118.466 55.7058 118.508 55.7058H118.788C118.83 55.7058 118.863 55.6721 118.863 55.6305V55.5234C118.863 55.4818 118.83 55.4481 118.788 55.4481Z" fill="#E6E6E6"/>
<path d="M119.65 55.4481H119.37C119.328 55.4481 119.295 55.4818 119.295 55.5234V55.6305C119.295 55.6721 119.328 55.7058 119.37 55.7058H119.65C119.692 55.7058 119.726 55.6721 119.726 55.6305V55.5234C119.726 55.4818 119.692 55.4481 119.65 55.4481Z" fill="#E6E6E6"/>
<path d="M120.512 55.4481H120.232C120.19 55.4481 120.157 55.4818 120.157 55.5234V55.6305C120.157 55.6721 120.19 55.7058 120.232 55.7058H120.512C120.554 55.7058 120.588 55.6721 120.588 55.6305V55.5234C120.588 55.4818 120.554 55.4481 120.512 55.4481Z" fill="#E6E6E6"/>
<path d="M121.374 55.4481H121.094C121.053 55.4481 121.019 55.4818 121.019 55.5234V55.6305C121.019 55.6721 121.053 55.7058 121.094 55.7058H121.374C121.416 55.7058 121.45 55.6721 121.45 55.6305V55.5234C121.45 55.4818 121.416 55.4481 121.374 55.4481Z" fill="#E6E6E6"/>
<path d="M122.236 55.4481H121.957C121.915 55.4481 121.881 55.4818 121.881 55.5234V55.6305C121.881 55.6721 121.915 55.7058 121.957 55.7058H122.236C122.278 55.7058 122.312 55.6721 122.312 55.6305V55.5234C122.312 55.4818 122.278 55.4481 122.236 55.4481Z" fill="#E6E6E6"/>
<path d="M123.098 55.4481H122.819C122.777 55.4481 122.743 55.4818 122.743 55.5234V55.6305C122.743 55.6721 122.777 55.7058 122.819 55.7058H123.098C123.14 55.7058 123.174 55.6721 123.174 55.6305V55.5234C123.174 55.4818 123.14 55.4481 123.098 55.4481Z" fill="#E6E6E6"/>
<path d="M123.961 55.4481H123.681C123.639 55.4481 123.605 55.4818 123.605 55.5234V55.6305C123.605 55.6721 123.639 55.7058 123.681 55.7058H123.961C124.002 55.7058 124.036 55.6721 124.036 55.6305V55.5234C124.036 55.4818 124.002 55.4481 123.961 55.4481Z" fill="#E6E6E6"/>
<path d="M124.823 55.4481H124.543C124.501 55.4481 124.467 55.4818 124.467 55.5234V55.6305C124.467 55.6721 124.501 55.7058 124.543 55.7058H124.823C124.865 55.7058 124.898 55.6721 124.898 55.6305V55.5234C124.898 55.4818 124.865 55.4481 124.823 55.4481Z" fill="#E6E6E6"/>
<path d="M125.685 55.4481H125.405C125.363 55.4481 125.329 55.4818 125.329 55.5234V55.6305C125.329 55.6721 125.363 55.7058 125.405 55.7058H125.685C125.727 55.7058 125.761 55.6721 125.761 55.6305V55.5234C125.761 55.4818 125.727 55.4481 125.685 55.4481Z" fill="#E6E6E6"/>
<path d="M126.547 55.4481H126.267C126.225 55.4481 126.192 55.4818 126.192 55.5234V55.6305C126.192 55.6721 126.225 55.7058 126.267 55.7058H126.547C126.589 55.7058 126.623 55.6721 126.623 55.6305V55.5234C126.623 55.4818 126.589 55.4481 126.547 55.4481Z" fill="#E6E6E6"/>
<path d="M127.409 55.4481H127.129C127.088 55.4481 127.054 55.4818 127.054 55.5234V55.6305C127.054 55.6721 127.088 55.7058 127.129 55.7058H127.409C127.451 55.7058 127.485 55.6721 127.485 55.6305V55.5234C127.485 55.4818 127.451 55.4481 127.409 55.4481Z" fill="#E6E6E6"/>
<path d="M114.467 55.8777H114.187C114.145 55.8777 114.112 55.9114 114.112 55.953V56.0601C114.112 56.1017 114.145 56.1354 114.187 56.1354H114.467C114.509 56.1354 114.543 56.1017 114.543 56.0601V55.953C114.543 55.9114 114.509 55.8777 114.467 55.8777Z" fill="#E6E6E6"/>
<path d="M115.329 55.8777H115.049C115.008 55.8777 114.974 55.9114 114.974 55.953V56.0601C114.974 56.1017 115.008 56.1354 115.049 56.1354H115.329C115.371 56.1354 115.405 56.1017 115.405 56.0601V55.953C115.405 55.9114 115.371 55.8777 115.329 55.8777Z" fill="#E6E6E6"/>
<path d="M116.191 55.8777H115.911C115.87 55.8777 115.836 55.9114 115.836 55.953V56.0601C115.836 56.1017 115.87 56.1354 115.911 56.1354H116.191C116.233 56.1354 116.267 56.1017 116.267 56.0601V55.953C116.267 55.9114 116.233 55.8777 116.191 55.8777Z" fill="#E6E6E6"/>
<path d="M117.053 55.8777H116.774C116.732 55.8777 116.698 55.9114 116.698 55.953V56.0601C116.698 56.1017 116.732 56.1354 116.774 56.1354H117.053C117.095 56.1354 117.129 56.1017 117.129 56.0601V55.953C117.129 55.9114 117.095 55.8777 117.053 55.8777Z" fill="#E6E6E6"/>
<path d="M117.916 55.8777H117.636C117.594 55.8777 117.56 55.9114 117.56 55.953V56.0601C117.56 56.1017 117.594 56.1354 117.636 56.1354H117.916C117.957 56.1354 117.991 56.1017 117.991 56.0601V55.953C117.991 55.9114 117.957 55.8777 117.916 55.8777Z" fill="#E6E6E6"/>
<path d="M118.778 55.8777H118.498C118.456 55.8777 118.422 55.9114 118.422 55.953V56.0601C118.422 56.1017 118.456 56.1354 118.498 56.1354H118.778C118.819 56.1354 118.853 56.1017 118.853 56.0601V55.953C118.853 55.9114 118.819 55.8777 118.778 55.8777Z" fill="#E6E6E6"/>
<path d="M119.64 55.8777H119.36C119.318 55.8777 119.284 55.9114 119.284 55.953V56.0601C119.284 56.1017 119.318 56.1354 119.36 56.1354H119.64C119.682 56.1354 119.715 56.1017 119.715 56.0601V55.953C119.715 55.9114 119.682 55.8777 119.64 55.8777Z" fill="#E6E6E6"/>
<path d="M120.502 55.8777H120.222C120.18 55.8777 120.146 55.9114 120.146 55.953V56.0601C120.146 56.1017 120.18 56.1354 120.222 56.1354H120.502C120.544 56.1354 120.578 56.1017 120.578 56.0601V55.953C120.578 55.9114 120.544 55.8777 120.502 55.8777Z" fill="#E6E6E6"/>
<path d="M121.364 55.8777H121.084C121.042 55.8777 121.009 55.9114 121.009 55.953V56.0601C121.009 56.1017 121.042 56.1354 121.084 56.1354H121.364C121.406 56.1354 121.44 56.1017 121.44 56.0601V55.953C121.44 55.9114 121.406 55.8777 121.364 55.8777Z" fill="#E6E6E6"/>
<path d="M122.226 55.8777H121.946C121.905 55.8777 121.871 55.9114 121.871 55.953V56.0601C121.871 56.1017 121.905 56.1354 121.946 56.1354H122.226C122.268 56.1354 122.302 56.1017 122.302 56.0601V55.953C122.302 55.9114 122.268 55.8777 122.226 55.8777Z" fill="#E6E6E6"/>
<path d="M123.088 55.8777H122.808C122.767 55.8777 122.733 55.9114 122.733 55.953V56.0601C122.733 56.1017 122.767 56.1354 122.808 56.1354H123.088C123.13 56.1354 123.164 56.1017 123.164 56.0601V55.953C123.164 55.9114 123.13 55.8777 123.088 55.8777Z" fill="#E6E6E6"/>
<path d="M123.95 55.8777H123.671C123.629 55.8777 123.595 55.9114 123.595 55.953V56.0601C123.595 56.1017 123.629 56.1354 123.671 56.1354H123.95C123.992 56.1354 124.026 56.1017 124.026 56.0601V55.953C124.026 55.9114 123.992 55.8777 123.95 55.8777Z" fill="#E6E6E6"/>
<path d="M124.813 55.8777H124.533C124.491 55.8777 124.457 55.9114 124.457 55.953V56.0601C124.457 56.1017 124.491 56.1354 124.533 56.1354H124.813C124.854 56.1354 124.888 56.1017 124.888 56.0601V55.953C124.888 55.9114 124.854 55.8777 124.813 55.8777Z" fill="#E6E6E6"/>
<path d="M125.675 55.8777H125.395C125.353 55.8777 125.319 55.9114 125.319 55.953V56.0601C125.319 56.1017 125.353 56.1354 125.395 56.1354H125.675C125.716 56.1354 125.75 56.1017 125.75 56.0601V55.953C125.75 55.9114 125.716 55.8777 125.675 55.8777Z" fill="#E6E6E6"/>
<path d="M126.537 55.8777H126.257C126.215 55.8777 126.181 55.9114 126.181 55.953V56.0601C126.181 56.1017 126.215 56.1354 126.257 56.1354H126.537C126.579 56.1354 126.612 56.1017 126.612 56.0601V55.953C126.612 55.9114 126.579 55.8777 126.537 55.8777Z" fill="#E6E6E6"/>
<path d="M127.399 55.8777H127.119C127.077 55.8777 127.044 55.9114 127.044 55.953V56.0601C127.044 56.1017 127.077 56.1354 127.119 56.1354H127.399C127.441 56.1354 127.475 56.1017 127.475 56.0601V55.953C127.475 55.9114 127.441 55.8777 127.399 55.8777Z" fill="#E6E6E6"/>
<path d="M121.623 56.3932H118.325C118.284 56.3932 118.25 56.4269 118.25 56.4685V56.5756C118.25 56.6172 118.284 56.6509 118.325 56.6509H121.623C121.664 56.6509 121.698 56.6172 121.698 56.5756V56.4685C121.698 56.4269 121.664 56.3932 121.623 56.3932Z" fill="#E6E6E6"/>
<path d="M131.201 35.6335H109.189C109.166 35.633 109.144 35.6235 109.128 35.6072C109.112 35.5909 109.103 35.569 109.103 35.5462C109.103 35.5234 109.112 35.5015 109.128 35.4852C109.144 35.4689 109.166 35.4595 109.189 35.459H131.201C131.224 35.4595 131.246 35.4689 131.262 35.4852C131.278 35.5015 131.287 35.5234 131.287 35.5462C131.287 35.569 131.278 35.5909 131.262 35.6072C131.246 35.6235 131.224 35.633 131.201 35.6335Z" fill="#CACACA"/>
<path d="M110.687 35.0136C110.971 35.0136 111.2 34.7796 111.2 34.4909C111.2 34.2023 110.971 33.9683 110.687 33.9683C110.404 33.9683 110.174 34.2023 110.174 34.4909C110.174 34.7796 110.404 35.0136 110.687 35.0136Z" fill="#CCCCCC"/>
<path d="M112.459 35.0136C112.743 35.0136 112.972 34.7796 112.972 34.4909C112.972 34.2023 112.743 33.9683 112.459 33.9683C112.176 33.9683 111.946 34.2023 111.946 34.4909C111.946 34.7796 112.176 35.0136 112.459 35.0136Z" fill="#CCCCCC"/>
<path d="M114.232 35.0136C114.515 35.0136 114.745 34.7796 114.745 34.4909C114.745 34.2023 114.515 33.9683 114.232 33.9683C113.948 33.9683 113.719 34.2023 113.719 34.4909C113.719 34.7796 113.948 35.0136 114.232 35.0136Z" fill="#CCCCCC"/>
<path d="M130.134 34.0978H128.875C128.85 34.0983 128.826 34.1085 128.809 34.1263C128.791 34.144 128.782 34.1679 128.782 34.1928C128.782 34.2176 128.791 34.2415 128.809 34.2593C128.826 34.2771 128.85 34.2873 128.875 34.2878H130.134C130.159 34.2873 130.183 34.2771 130.2 34.2593C130.218 34.2415 130.227 34.2176 130.227 34.1928C130.227 34.1679 130.218 34.144 130.2 34.1263C130.183 34.1085 130.159 34.0983 130.134 34.0978Z" fill="#CCCCCC"/>
<path d="M130.134 34.4543H128.875C128.85 34.4548 128.826 34.4651 128.809 34.4828C128.791 34.5006 128.782 34.5245 128.782 34.5493C128.782 34.5742 128.791 34.5981 128.809 34.6158C128.826 34.6336 128.85 34.6438 128.875 34.6443H130.134C130.159 34.6438 130.183 34.6336 130.2 34.6158C130.218 34.5981 130.227 34.5742 130.227 34.5493C130.227 34.5245 130.218 34.5006 130.2 34.4828C130.183 34.4651 130.159 34.4548 130.134 34.4543Z" fill="#CCCCCC"/>
<path d="M130.134 34.8105H128.875C128.85 34.811 128.826 34.8212 128.809 34.839C128.791 34.8567 128.782 34.8806 128.782 34.9055C128.782 34.9304 128.791 34.9542 128.809 34.972C128.826 34.9898 128.85 35 128.875 35.0005H130.134C130.159 35 130.183 34.9898 130.2 34.972C130.218 34.9542 130.227 34.9304 130.227 34.9055C130.227 34.8806 130.218 34.8567 130.2 34.839C130.183 34.8212 130.159 34.811 130.134 34.8105Z" fill="#CCCCCC"/>
<path d="M121.972 40.3863H119.222C119.015 40.3863 118.848 40.5532 118.848 40.7591C118.848 40.965 119.015 41.1319 119.222 41.1319H121.972C122.179 41.1319 122.346 40.965 122.346 40.7591C122.346 40.5532 122.179 40.3863 121.972 40.3863Z" fill="#393939"/>
<path d="M123.749 41.8775H117.445C117.238 41.8775 117.071 42.0444 117.071 42.2503C117.071 42.4562 117.238 42.6231 117.445 42.6231H123.749C123.956 42.6231 124.123 42.4562 124.123 42.2503C124.123 42.0444 123.956 41.8775 123.749 41.8775Z" fill="#E6E6E6"/>
<path d="M123.749 43.3687H117.445C117.238 43.3687 117.071 43.5356 117.071 43.7415C117.071 43.9474 117.238 44.1143 117.445 44.1143H123.749C123.956 44.1143 124.123 43.9474 124.123 43.7415C124.123 43.5356 123.956 43.3687 123.749 43.3687Z" fill="#E6E6E6"/>
<path d="M81.2763 66.6003L80.0083 65.9958L81.7501 60.7139L83.6215 61.6059L81.2763 66.6003Z" fill="#FFB6B6"/>
<path d="M89.7772 65.7487C89.685 65.8063 89.5927 65.8629 89.4996 65.9195C89.3143 66.0328 89.1271 66.1441 88.9398 66.2537C88.8458 66.3084 88.7508 66.3632 88.6567 66.417V66.4198L88.6511 66.4207L88.6493 66.4217L88.5058 66.4569L88.3 65.9149L88.205 65.6652L88.0709 65.3115L87.825 64.6646L86.5304 61.258L88.5431 60.7633L88.6185 61.0705H88.6195L88.6567 61.2228L89.3599 64.0649L89.5033 64.646L89.508 64.6636L89.5946 65.0108L89.6691 65.3115L89.752 65.6476L89.7772 65.7487Z" fill="#FFB6B6"/>
<path d="M101.784 53.7858C101.656 53.99 101.526 54.1933 101.394 54.3947C101.15 54.7697 100.9 55.1391 100.643 55.503C100.643 55.5039 100.642 55.5039 100.641 55.5048C100.491 55.6433 100.325 55.7638 100.147 55.864C100.14 55.8696 100.132 55.8733 100.124 55.8779C99.993 55.9502 99.8535 56.006 99.7087 56.0441C99.6565 56.0571 99.6034 56.0701 99.5513 56.0831C99.3632 56.1276 99.1769 56.1657 98.9915 56.1991C98.6618 56.2576 98.3358 56.2994 98.0117 56.3253C97.9856 56.3281 97.9596 56.33 97.9335 56.3318C96.6007 56.4293 95.3032 56.2724 93.949 56.0153C93.2803 55.8891 92.5976 55.7378 91.8906 55.5809C91.6597 55.5289 91.4278 55.4779 91.193 55.4268C91.1753 55.4231 91.1567 55.4185 91.1381 55.4148C90.8028 55.3414 90.4619 55.269 90.1126 55.1976C89.673 55.1075 89.2194 55.0203 88.7482 54.9377L88.7817 55.5995C88.8096 56.1086 88.9158 56.6104 89.0965 57.0874C89.2977 57.674 89.4569 58.1381 89.1207 59.1044L88.9586 59.5722C89.0427 59.8045 89.0715 60.0531 89.0429 60.2984C89.0143 60.5436 88.929 60.779 88.7938 60.9859L88.7612 61.0351L90.1126 64.4425L90.2002 64.6635H89.5082L88.6569 64.6644H87.2142L85.1325 60.5023L85.0329 60.3036V60.2934L85.248 52.2951C85.2508 52.2245 85.2564 52.153 85.2657 52.0825C85.3036 51.7618 85.4053 51.4518 85.5647 51.1707C85.7242 50.8896 85.9382 50.6429 86.1943 50.4451C86.4397 50.254 86.7208 50.1134 87.0213 50.0315C87.3217 49.9496 87.6355 49.928 87.9444 49.968L88.6569 50.0599L90.1126 50.2474L91.1381 50.3802L91.1586 50.3829L94.1828 50.7728L94.3998 49.891L94.4398 49.8761L95.713 49.4111L100.117 47.8025L100.128 47.7988L100.417 47.693L100.452 47.7487C100.462 47.7654 100.472 47.7821 100.482 47.7988C100.768 48.3103 101.001 48.8496 101.177 49.4083C101.474 50.321 101.718 51.2498 101.909 52.1902C101.917 52.231 101.924 52.2681 101.931 52.3016L101.934 52.3118C101.937 52.3275 101.938 52.3378 101.939 52.3405C102.027 52.8272 101.973 53.3286 101.784 53.7858Z" fill="#393939"/>
<path d="M101.97 50.8381C101.956 50.7787 101.938 50.7184 101.919 50.6599C101.772 50.217 101.599 49.7825 101.403 49.3585C101.184 48.8759 100.92 48.3589 100.606 47.7991C100.454 47.5281 100.291 47.2462 100.116 46.9535C100.029 46.8069 99.9377 46.6574 99.8433 46.5052C99.8396 46.4982 99.8356 46.4914 99.8312 46.4848L99.8042 46.4402L95.4472 47.0213L93.8247 47.2376L93.7279 48.0433L93.7046 48.2428C93.7036 48.2428 93.7036 48.2428 93.7046 48.2438L93.6394 48.7877V48.7886L93.5528 49.507L93.5453 49.5061L91.1377 49.1952L88.6565 48.8749L87.3237 48.7032C87.0148 48.6631 86.701 48.6846 86.4005 48.7665C86.1001 48.8485 85.819 48.9891 85.5736 49.1803C85.3175 49.3782 85.1036 49.6249 84.9441 49.906C84.7847 50.1871 84.683 50.497 84.645 50.8177C84.6366 50.8827 84.631 50.9495 84.6282 51.0154L83.3709 53.9847C82.6185 55.7606 82.1393 57.6394 81.9496 59.5577L81.0275 62.4955L81.1588 62.5076L83.1129 62.6886L83.6289 62.7368L84.7651 61.0837C84.8946 60.8953 85.0175 60.7013 85.1321 60.5026C85.3207 60.1782 85.4884 59.8421 85.6341 59.4965L88.0921 53.6673C88.2821 53.6998 88.4702 53.7307 88.6565 53.7601C89.518 53.8994 90.3451 54.0129 91.1377 54.1008C93.7148 54.3876 95.9464 54.4099 97.933 54.1667C98.4909 54.0989 99.0302 54.0098 99.5509 53.8994C99.7418 53.8594 99.9303 53.8164 100.116 53.7703C100.16 53.7601 100.203 53.7499 100.246 53.7388C100.631 53.6398 100.984 53.4463 101.275 53.1758C101.565 52.9053 101.783 52.5666 101.908 52.1905C102.058 51.7548 102.079 51.2855 101.97 50.8381Z" fill="#393939"/>
<path d="M81.6814 65.7378L80.3094 65.0825L80.0943 64.9794L79.7506 65.8204L77.3514 66.3467C77.2327 66.3726 77.1255 66.4357 77.0454 66.5266C76.9653 66.6176 76.9165 66.7317 76.9061 66.8523C76.8957 66.9729 76.9242 67.0936 76.9876 67.1969C77.0509 67.3001 77.1458 67.3805 77.2582 67.4262L79.6025 68.3795L80.3467 67.7121L80.1641 68.6078L81.0471 68.967L82.0148 65.8974L81.6814 65.7378Z" fill="#393939"/>
<path d="M90.1126 64.4426L90.2003 64.6635H90.1126V64.4426Z" fill="#393939"/>
<path d="M89.6348 64.7107L88.1973 65.2071L87.9717 65.2847L88.3212 66.1233L86.988 68.1797C86.922 68.2813 86.8903 68.4012 86.8976 68.5221C86.9049 68.6429 86.9507 68.7582 87.0285 68.8512C87.1062 68.9442 87.2118 69.0099 87.3297 69.0389C87.4476 69.0678 87.5717 69.0584 87.6839 69.012L90.0228 68.0455L90.0804 67.0495L90.5831 67.814L91.4641 67.4501L89.9845 64.5903L89.6348 64.7107Z" fill="#393939"/>
<path d="M80.9098 33.9988C80.9779 34.1311 81.0744 34.2469 81.1923 34.3381C81.3103 34.4293 81.4468 34.4936 81.5924 34.5265C81.738 34.5593 81.889 34.56 82.0349 34.5284C82.1807 34.4969 82.3179 34.4338 82.4366 34.3437L85.4595 36.3435L85.4652 34.4645L82.5938 32.8535C82.4287 32.6647 82.1998 32.5428 81.9505 32.511C81.7013 32.4791 81.4489 32.5395 81.2414 32.6807C81.0338 32.8219 80.8854 33.034 80.8243 33.2769C80.7632 33.5199 80.7936 33.7767 80.9098 33.9988Z" fill="#FFB6B6"/>
<path d="M83.1681 34.8673L84.5784 33.2682L90.3209 36.6657L97.9333 35.971C98.3096 35.9367 98.6888 35.9853 99.0441 36.1135C99.3994 36.2416 99.722 36.4462 99.989 36.7126C100.256 36.979 100.461 37.3007 100.589 37.6549C100.718 38.0091 100.766 38.3871 100.731 38.7621C100.668 39.4392 100.337 40.0636 99.8119 40.4982C99.2869 40.9327 98.6104 41.142 97.9307 41.08L89.3574 40.2892L83.1681 34.8673Z" fill="#CCCCCC"/>
<path d="M100.836 34.8919L100.823 34.8754C99.752 34.7701 98.6735 34.9766 97.7181 35.47C96.7626 35.9633 95.9713 36.7223 95.4401 37.655L94.794 38.7891C92.7044 41.335 94.2228 43.0908 94.3138 43.3519L93.5884 46.6849L93.751 47.8003L93.8322 48.1317L102.112 52.4432C102.583 50.186 102.127 48.2626 100.41 46.7933L102.072 41.6408C102.44 40.5016 102.52 39.2892 102.304 38.1117C102.089 36.9342 101.584 35.8281 100.836 34.8919Z" fill="#CCCCCC"/>
<path d="M94.2528 59.9232H91.597C91.4509 59.9231 91.3098 59.8705 91.1995 59.775C91.0893 59.6795 91.0173 59.5476 90.9967 59.4035C90.8328 58.2009 90.8328 56.9817 90.9967 55.7791C91.017 55.6366 91.0876 55.5061 91.1957 55.4109C91.3038 55.3156 91.4425 55.2619 91.5868 55.2594C92.4224 54.8861 93.3223 54.8861 94.262 55.2593C94.3495 55.2605 94.4357 55.2807 94.5145 55.3186C94.5933 55.3565 94.6629 55.4111 94.7183 55.4787C94.776 55.5489 94.8174 55.6311 94.8393 55.7192C94.8612 55.8074 94.8631 55.8993 94.8449 55.9883C94.6316 57.0464 94.6316 58.1361 94.8449 59.1942C94.8631 59.2832 94.8612 59.3751 94.8393 59.4633C94.8174 59.5514 94.776 59.6336 94.7183 59.7039C94.6619 59.7726 94.5909 59.8279 94.5104 59.8659C94.4299 59.9038 94.3419 59.9234 94.2528 59.9232Z" fill="#393939"/>
<path d="M93.9746 56.6412H91.7393C91.7209 56.6414 91.7026 56.6379 91.6855 56.631C91.6684 56.624 91.6528 56.6138 91.6397 56.6009C91.6266 56.5879 91.6162 56.5725 91.6091 56.5555C91.602 56.5386 91.5984 56.5204 91.5984 56.502C91.5984 56.4836 91.602 56.4654 91.6091 56.4484C91.6162 56.4314 91.6266 56.416 91.6397 56.4031C91.6528 56.3901 91.6684 56.3799 91.6855 56.373C91.7026 56.3661 91.7209 56.3626 91.7393 56.3627H93.9746C93.9931 56.3626 94.0114 56.3661 94.0285 56.373C94.0456 56.3799 94.0611 56.3901 94.0742 56.4031C94.0873 56.416 94.0977 56.4314 94.1048 56.4484C94.1119 56.4654 94.1156 56.4836 94.1156 56.502C94.1156 56.5204 94.1119 56.5386 94.1048 56.5555C94.0977 56.5725 94.0873 56.5879 94.0742 56.6009C94.0611 56.6138 94.0456 56.624 94.0285 56.631C94.0114 56.6379 93.9931 56.6414 93.9746 56.6412Z" fill="white"/>
<path d="M93.9746 57.755H91.7393C91.7209 57.7552 91.7026 57.7517 91.6855 57.7448C91.6684 57.7379 91.6528 57.7276 91.6397 57.7147C91.6266 57.7017 91.6162 57.6863 91.6091 57.6694C91.602 57.6524 91.5984 57.6342 91.5984 57.6158C91.5984 57.5974 91.602 57.5792 91.6091 57.5622C91.6162 57.5453 91.6266 57.5299 91.6397 57.5169C91.6528 57.504 91.6684 57.4937 91.6855 57.4868C91.7026 57.4799 91.7209 57.4764 91.7393 57.4766H93.9746C93.9931 57.4764 94.0114 57.4799 94.0285 57.4868C94.0456 57.4937 94.0611 57.504 94.0742 57.5169C94.0873 57.5299 94.0977 57.5453 94.1048 57.5622C94.1119 57.5792 94.1156 57.5974 94.1156 57.6158C94.1156 57.6342 94.1119 57.6524 94.1048 57.6694C94.0977 57.6863 94.0873 57.7017 94.0742 57.7147C94.0611 57.7276 94.0456 57.7379 94.0285 57.7448C94.0114 57.7517 93.9931 57.7552 93.9746 57.755Z" fill="white"/>
<path d="M93.9747 58.8689H91.7394C91.7209 58.8691 91.7026 58.8656 91.6855 58.8587C91.6684 58.8518 91.6528 58.8416 91.6397 58.8286C91.6266 58.8157 91.6162 58.8003 91.6091 58.7833C91.602 58.7663 91.5983 58.7481 91.5983 58.7297C91.5983 58.7113 91.602 58.6931 91.6091 58.6761C91.6162 58.6591 91.6266 58.6437 91.6397 58.6308C91.6528 58.6178 91.6684 58.6076 91.6855 58.6007C91.7026 58.5938 91.7209 58.5903 91.7394 58.5905H93.9747C93.9931 58.5903 94.0114 58.5938 94.0285 58.6007C94.0457 58.6076 94.0612 58.6178 94.0743 58.6308C94.0874 58.6437 94.0978 58.6591 94.1049 58.6761C94.112 58.6931 94.1157 58.7113 94.1157 58.7297C94.1157 58.7481 94.112 58.7663 94.1049 58.7833C94.0978 58.8003 94.0874 58.8157 94.0743 58.8286C94.0612 58.8416 94.0457 58.8518 94.0285 58.8587C94.0114 58.8656 93.9931 58.8691 93.9747 58.8689Z" fill="white"/>
<path d="M81.3967 34.9161H78.7409C78.5948 34.916 78.4537 34.8633 78.3434 34.7679C78.2331 34.6724 78.1611 34.5405 78.1406 34.3963C77.9766 33.1937 77.9766 31.9745 78.1406 30.7719C78.1609 30.6295 78.2314 30.499 78.3396 30.4037C78.4477 30.3085 78.5864 30.2548 78.7307 30.2522C79.5663 29.879 80.4662 29.879 81.4058 30.2522C81.4934 30.2533 81.5796 30.2736 81.6584 30.3115C81.7372 30.3494 81.8068 30.404 81.8622 30.4715C81.9199 30.5418 81.9613 30.6239 81.9832 30.7121C82.0051 30.8003 82.007 30.8922 81.9888 30.9812C81.7754 32.0392 81.7754 33.129 81.9888 34.1871C82.007 34.2761 82.0051 34.368 81.9832 34.4561C81.9613 34.5443 81.9199 34.6265 81.8622 34.6967C81.8058 34.7654 81.7348 34.8208 81.6543 34.8587C81.5737 34.8967 81.4858 34.9163 81.3967 34.9161Z" fill="#393939"/>
<path d="M81.1186 31.6341H78.8832C78.8648 31.6342 78.8465 31.6307 78.8294 31.6238C78.8123 31.6169 78.7968 31.6067 78.7837 31.5937C78.7706 31.5808 78.7602 31.5654 78.7531 31.5484C78.746 31.5314 78.7423 31.5132 78.7423 31.4948C78.7423 31.4764 78.746 31.4582 78.7531 31.4413C78.7602 31.4243 78.7706 31.4089 78.7837 31.3959C78.7968 31.383 78.8123 31.3728 78.8294 31.3658C78.8465 31.3589 78.8648 31.3554 78.8832 31.3556H81.1186C81.137 31.3554 81.1553 31.3589 81.1724 31.3658C81.1895 31.3728 81.2051 31.383 81.2182 31.3959C81.2313 31.4089 81.2417 31.4243 81.2488 31.4413C81.2559 31.4582 81.2595 31.4764 81.2595 31.4948C81.2595 31.5132 81.2559 31.5314 81.2488 31.5484C81.2417 31.5654 81.2313 31.5808 81.2182 31.5937C81.2051 31.6067 81.1895 31.6169 81.1724 31.6238C81.1553 31.6307 81.137 31.6342 81.1186 31.6341Z" fill="white"/>
<path d="M81.1186 32.7479H78.8832C78.8648 32.7481 78.8465 32.7446 78.8294 32.7376C78.8123 32.7307 78.7968 32.7205 78.7837 32.7075C78.7706 32.6946 78.7602 32.6792 78.7531 32.6622C78.746 32.6453 78.7423 32.627 78.7423 32.6087C78.7423 32.5903 78.746 32.5721 78.7531 32.5551C78.7602 32.5381 78.7706 32.5227 78.7837 32.5098C78.7968 32.4968 78.8123 32.4866 78.8294 32.4797C78.8465 32.4727 78.8648 32.4693 78.8832 32.4694H81.1186C81.137 32.4693 81.1553 32.4727 81.1724 32.4797C81.1895 32.4866 81.2051 32.4968 81.2182 32.5098C81.2313 32.5227 81.2417 32.5381 81.2488 32.5551C81.2559 32.5721 81.2595 32.5903 81.2595 32.6087C81.2595 32.627 81.2559 32.6453 81.2488 32.6622C81.2417 32.6792 81.2313 32.6946 81.2182 32.7075C81.2051 32.7205 81.1895 32.7307 81.1724 32.7376C81.1553 32.7446 81.137 32.7481 81.1186 32.7479Z" fill="white"/>
<path d="M81.1186 33.8618H78.8832C78.8648 33.862 78.8465 33.8585 78.8294 33.8516C78.8123 33.8446 78.7967 33.8344 78.7836 33.8215C78.7705 33.8085 78.7601 33.7931 78.753 33.7761C78.7459 33.7592 78.7422 33.7409 78.7422 33.7226C78.7422 33.7042 78.7459 33.6859 78.753 33.669C78.7601 33.652 78.7705 33.6366 78.7836 33.6236C78.7967 33.6107 78.8123 33.6005 78.8294 33.5935C78.8465 33.5866 78.8648 33.5831 78.8832 33.5833H81.1186C81.137 33.5831 81.1553 33.5866 81.1724 33.5935C81.1895 33.6005 81.2051 33.6107 81.2182 33.6236C81.2313 33.6366 81.2417 33.652 81.2488 33.669C81.2559 33.6859 81.2596 33.7042 81.2596 33.7226C81.2596 33.7409 81.2559 33.7592 81.2488 33.7761C81.2417 33.7931 81.2313 33.8085 81.2182 33.8215C81.2051 33.8344 81.1895 33.8446 81.1724 33.8516C81.1553 33.8585 81.137 33.862 81.1186 33.8618Z" fill="white"/>
<path d="M34.774 41.7082H32.1181C31.9721 41.7081 31.8309 41.6555 31.7207 41.56C31.6104 41.4645 31.5384 41.3326 31.5179 41.1884C31.3539 39.9858 31.3539 38.7666 31.5179 37.564C31.5382 37.4216 31.6087 37.2911 31.7168 37.1958C31.825 37.1006 31.9637 37.0469 32.108 37.0444C32.9436 36.6711 33.8434 36.6711 34.7831 37.0443C34.8706 37.0455 34.9568 37.0657 35.0356 37.1036C35.1145 37.1415 35.184 37.1961 35.2394 37.2636C35.2972 37.3339 35.3385 37.4161 35.3604 37.5042C35.3823 37.5924 35.3842 37.6843 35.366 37.7733C35.1527 38.8313 35.1527 39.9211 35.366 40.9792C35.3842 41.0682 35.3823 41.1601 35.3604 41.2482C35.3385 41.3364 35.2972 41.4186 35.2394 41.4888C35.1831 41.5576 35.112 41.6129 35.0315 41.6508C34.951 41.6888 34.863 41.7084 34.774 41.7082Z" fill="#393939"/>
<path d="M34.4958 38.4261H32.2605C32.2421 38.4263 32.2238 38.4228 32.2067 38.4159C32.1896 38.4089 32.174 38.3987 32.1609 38.3858C32.1478 38.3728 32.1374 38.3574 32.1303 38.3404C32.1232 38.3235 32.1196 38.3053 32.1196 38.2869C32.1196 38.2685 32.1232 38.2503 32.1303 38.2333C32.1374 38.2163 32.1478 38.2009 32.1609 38.188C32.174 38.175 32.1896 38.1648 32.2067 38.1579C32.2238 38.151 32.2421 38.1475 32.2605 38.1476H34.4958C34.5143 38.1475 34.5326 38.151 34.5497 38.1579C34.5668 38.1648 34.5823 38.175 34.5954 38.188C34.6085 38.2009 34.6189 38.2163 34.626 38.2333C34.6331 38.2503 34.6368 38.2685 34.6368 38.2869C34.6368 38.3053 34.6331 38.3235 34.626 38.3404C34.6189 38.3574 34.6085 38.3728 34.5954 38.3858C34.5823 38.3987 34.5668 38.4089 34.5497 38.4159C34.5326 38.4228 34.5143 38.4263 34.4958 38.4261Z" fill="white"/>
<path d="M34.4958 39.5399H32.2605C32.2421 39.5401 32.2238 39.5366 32.2067 39.5297C32.1896 39.5228 32.174 39.5125 32.1609 39.4996C32.1478 39.4867 32.1374 39.4713 32.1303 39.4543C32.1232 39.4373 32.1196 39.4191 32.1196 39.4007C32.1196 39.3823 32.1232 39.3641 32.1303 39.3471C32.1374 39.3302 32.1478 39.3148 32.1609 39.3018C32.174 39.2889 32.1896 39.2787 32.2067 39.2717C32.2238 39.2648 32.2421 39.2613 32.2605 39.2615H34.4958C34.5143 39.2613 34.5326 39.2648 34.5497 39.2717C34.5668 39.2787 34.5823 39.2889 34.5954 39.3018C34.6085 39.3148 34.6189 39.3302 34.626 39.3471C34.6331 39.3641 34.6368 39.3823 34.6368 39.4007C34.6368 39.4191 34.6331 39.4373 34.626 39.4543C34.6189 39.4713 34.6085 39.4867 34.5954 39.4996C34.5823 39.5125 34.5668 39.5228 34.5497 39.5297C34.5326 39.5366 34.5143 39.5401 34.4958 39.5399Z" fill="white"/>
<path d="M34.4958 40.6538H32.2605C32.242 40.654 32.2237 40.6505 32.2066 40.6436C32.1895 40.6367 32.174 40.6265 32.1609 40.6135C32.1477 40.6006 32.1373 40.5852 32.1302 40.5682C32.1231 40.5512 32.1195 40.533 32.1195 40.5146C32.1195 40.4962 32.1231 40.478 32.1302 40.461C32.1373 40.444 32.1477 40.4286 32.1609 40.4157C32.174 40.4027 32.1895 40.3925 32.2066 40.3856C32.2237 40.3787 32.242 40.3752 32.2605 40.3754H34.4958C34.5143 40.3752 34.5326 40.3787 34.5497 40.3856C34.5668 40.3925 34.5824 40.4027 34.5955 40.4157C34.6086 40.4286 34.619 40.444 34.6261 40.461C34.6332 40.478 34.6369 40.4962 34.6369 40.5146C34.6369 40.533 34.6332 40.5512 34.6261 40.5682C34.619 40.5852 34.6086 40.6006 34.5955 40.6135C34.5824 40.6265 34.5668 40.6367 34.5497 40.6436C34.5326 40.6505 34.5143 40.654 34.4958 40.6538Z" fill="white"/>
<path d="M95.031 56.5398C95.1595 56.4642 95.2698 56.3614 95.3541 56.2386C95.4384 56.1159 95.4947 55.9762 95.519 55.8295C95.5433 55.6827 95.5351 55.5324 95.4948 55.3892C95.4545 55.2459 95.3832 55.1132 95.2859 55.0004L97.1097 51.8746L95.2273 51.9803L93.7839 54.9325C93.6046 55.108 93.4961 55.3429 93.479 55.5927C93.4619 55.8426 93.5373 56.09 93.6911 56.2882C93.8448 56.4863 94.0661 56.6213 94.313 56.6677C94.56 56.7141 94.8154 56.6686 95.031 56.5398Z" fill="#FFB6B6"/>
<path d="M95.7669 54.2417L94.0816 52.9335L97.144 47.0191L95.9965 39.4873C95.9398 39.115 95.966 38.7348 96.0733 38.3738C96.1806 38.0127 96.3663 37.6796 96.6173 37.3981C96.8683 37.1167 97.1784 36.8937 97.5256 36.7451C97.8728 36.5965 98.2485 36.5259 98.6262 36.5383C99.3082 36.5614 99.9533 36.8532 100.42 37.3498C100.886 37.8463 101.136 38.5069 101.114 39.1867L100.831 47.7627L95.7669 54.2417Z" fill="#CCCCCC"/>
<path d="M14.3098 52.6258C14.416 52.5195 14.4974 52.3913 14.5485 52.2502C14.5995 52.1091 14.6189 51.9585 14.6053 51.8092C14.5916 51.6598 14.5453 51.5152 14.4695 51.3856C14.3937 51.2561 14.2903 51.1446 14.1667 51.0591L15.8057 42.9457L13.9957 43.5249L12.6837 51.3726C12.5534 51.5892 12.5073 51.8459 12.5542 52.094C12.6012 52.3422 12.7378 52.5645 12.9382 52.719C13.1387 52.8735 13.389 52.9493 13.6418 52.9322C13.8946 52.915 14.1323 52.806 14.3098 52.6258Z" fill="#9E616A"/>
<path d="M16.73 35.4598L15.607 34.615C15.607 34.615 14.6163 34.5451 14.4408 36.3256C14.2653 38.1061 13.905 41.5761 13.905 41.5761L12.1866 49.5084L14.5654 50.0288L16.406 41.4684L17.5102 38.9263L16.73 35.4598Z" fill="#CCCCCC"/>
<path d="M14.8785 48.4124L21.207 48.3073L21.7344 43.9976H14.8785V48.4124Z" fill="#9E616A"/>
<path d="M20.5741 74.933H22.035L22.7301 69.317L20.5738 69.3172L20.5741 74.933Z" fill="#9E616A"/>
<path d="M11.4215 75.0679L12.8824 75.0575L13.5379 69.437L11.6379 69.8713L11.4215 75.0679Z" fill="#9E616A"/>
<path d="M15.9908 40.2862L15.6598 41.1438L15.726 42.0017L22.2047 44.2379L21.8833 40.4841L21.155 39.6263L15.9908 40.2862Z" fill="#FFB6B6"/>
<path d="M18.7703 32.5672C20.0482 32.5672 21.0842 31.5348 21.0842 30.2612C21.0842 28.9876 20.0482 27.9551 18.7703 27.9551C17.4923 27.9551 16.4563 28.9876 16.4563 30.2612C16.4563 31.5348 17.4923 32.5672 18.7703 32.5672Z" fill="#9E616A"/>
<path d="M20.2117 74.2148L22.5212 74.0774V75.0635L24.7169 76.5747C24.8253 76.6494 24.907 76.7566 24.95 76.8808C24.993 77.0049 24.995 77.1395 24.9558 77.2649C24.9166 77.3903 24.8381 77.4999 24.732 77.5778C24.6258 77.6556 24.4975 77.6976 24.3657 77.6976H21.6162L21.1423 76.7222L20.9572 77.6976H19.9205L20.2117 74.2148Z" fill="#393939"/>
<path d="M10.9217 74.353L13.2302 74.1995L13.2371 75.1856L15.4433 76.6815C15.5523 76.7554 15.6347 76.862 15.6786 76.9859C15.7224 77.1097 15.7254 77.2443 15.6871 77.37C15.6487 77.4957 15.5711 77.6058 15.4655 77.6844C15.3599 77.763 15.2318 77.8058 15.1 77.8068L12.3506 77.8259L11.8698 76.8539L11.6916 77.8305L10.655 77.8378L10.9217 74.353Z" fill="#393939"/>
<path d="M10.9669 70.762L12.0307 62.2876L13.2964 53.3529C12.3695 51.6374 14.4566 46.3102 14.4566 46.3102L14.7512 46.3243L21.4194 47.578L21.4179 47.5716C22.7818 51.2788 23.2336 53.1102 23.1589 57.058L22.8902 71.2496H22.9745C23.1144 71.2496 23.2485 71.3049 23.3474 71.4035C23.4463 71.5021 23.5019 71.6357 23.5019 71.7751C23.5019 71.9145 23.4463 72.0482 23.3474 72.1468C23.2485 72.2453 23.1144 72.3007 22.9745 72.3007H20.3376C20.2683 72.3008 20.1996 72.2873 20.1355 72.261C20.0714 72.2346 20.0132 72.1959 19.9641 72.1471C19.9151 72.0983 19.8761 72.0403 19.8496 71.9765C19.823 71.9127 19.8094 71.8442 19.8094 71.7751C19.8094 71.706 19.823 71.6376 19.8496 71.5738C19.8761 71.51 19.9151 71.452 19.9641 71.4032C20.0132 71.3544 20.0714 71.3157 20.1355 71.2893C20.1996 71.263 20.2683 71.2495 20.3376 71.2496H20.4056L17.9853 54.3517L15.9333 61.4467L13.6128 70.6968C14.4566 70.4866 14.3256 70.9737 14.3256 71.2496C14.3256 71.389 14.27 71.5226 14.1711 71.6212C14.0722 71.7198 13.9381 71.7751 13.7982 71.7751H11.1614C11.0387 71.7753 10.9199 71.7328 10.8253 71.6549C10.7308 71.5771 10.6664 71.4688 10.6434 71.3488C10.6203 71.2287 10.64 71.1044 10.6991 70.9973C10.7582 70.8902 10.8529 70.807 10.9669 70.762Z" fill="#393939"/>
<path d="M13.9374 46.5861L14.1484 44.4838C14.1703 44.3981 14.2189 44.3214 14.2872 44.2649C14.3555 44.2083 14.44 44.1748 14.5286 44.169C14.6165 43.1676 14.9863 38.8472 15.0084 38.6588L15.0093 38.6508L15.1774 35.0708C15.1835 34.9408 15.2375 34.8176 15.329 34.7247C15.4205 34.6318 15.5431 34.5758 15.6734 34.5673L16.5616 34.5094C16.5738 34.509 16.5853 34.5039 16.5938 34.4952C16.6023 34.4864 16.607 34.4748 16.607 34.4626C16.607 34.3649 16.6263 34.2681 16.6639 34.1778C16.7014 34.0875 16.7564 34.0054 16.8258 33.9363C16.8951 33.8672 16.9775 33.8123 17.0681 33.7749C17.1587 33.7375 17.2558 33.7183 17.3539 33.7183H19.9835C20.1538 33.7183 20.3183 33.7804 20.446 33.8927C20.5737 34.005 20.6558 34.1599 20.6771 34.3283C20.6782 34.3399 20.6837 34.3507 20.6925 34.3584C20.7013 34.3661 20.7126 34.3702 20.7243 34.37H20.7246C21.0234 34.3638 21.3145 34.4647 21.5451 34.6541C21.7757 34.8436 21.9305 35.1092 21.9814 35.4027C22.3409 37.4872 23.0614 42.2183 22.7052 44.8485C22.5812 45.7641 22.8485 45.0389 22.8954 45.805C22.9 45.8791 22.89 45.9533 22.8658 46.0234C22.8416 46.0936 22.8038 46.1583 22.7545 46.2139C22.8554 46.2505 22.9379 46.3252 22.9838 46.422C23.0298 46.5187 23.0356 46.6296 23 46.7306L23.0463 46.7192C23.0327 46.7728 23.0087 46.8231 22.9757 46.8674C22.9426 46.9117 22.9011 46.9491 22.8535 46.9774C22.806 47.0058 22.7533 47.0245 22.6984 47.0325C22.6436 47.0405 22.5878 47.0377 22.534 47.0242L15.6544 47.9532C15.4284 47.8964 13.8805 46.8113 13.9374 46.5861Z" fill="#CCCCCC"/>
<path d="M32.3208 38.0386C32.2777 38.1823 32.2035 38.3148 32.1035 38.4269C32.0034 38.5389 31.8799 38.6277 31.7417 38.6871C31.6035 38.7464 31.4539 38.7748 31.3034 38.7703C31.153 38.7658 31.0054 38.7284 30.871 38.6609L28.2114 41.0799L27.8582 39.2182L30.4397 37.2125C30.5685 36.9951 30.7728 36.8322 31.014 36.7549C31.2552 36.6776 31.5165 36.6911 31.7484 36.7929C31.9803 36.8947 32.1666 37.0778 32.2721 37.3074C32.3776 37.5369 32.3949 37.7971 32.3208 38.0386Z" fill="#9E616A"/>
<path d="M23.0637 36.1896C23.0637 36.1896 22.1363 34.101 20.965 34.5161C19.7937 34.9313 20.3985 36.9579 20.3985 36.9579L24.7991 43.5665C24.7991 43.5665 31.1465 39.5086 30.3747 39.4799C29.6028 39.4513 29.372 38.0522 29.372 38.0522L26.0173 39.7227L25.9038 39.1281L25.7218 39.3094L25.2524 38.9411L23.0637 36.1896Z" fill="#CCCCCC"/>
<path d="M98.9274 33.8952C100.712 33.8952 102.158 32.4537 102.158 30.6756C102.158 28.8975 100.712 27.4561 98.9274 27.4561C97.1432 27.4561 95.6968 28.8975 95.6968 30.6756C95.6968 32.4537 97.1432 33.8952 98.9274 33.8952Z" fill="#FFB6B6"/>
<path d="M109.295 35.4131C108.923 35.9396 108.378 36.3214 107.755 36.4937C107.506 36.5676 107.249 36.6112 106.989 36.6235C106.957 36.3306 106.88 36.0443 106.761 35.7746C106.773 36.0617 106.733 36.3486 106.642 36.6215C106.252 36.5994 105.871 36.4976 105.522 36.3222C105.179 36.1503 104.881 35.9012 104.652 35.5945C104.422 35.2879 104.268 34.9322 104.2 34.5557C104.063 33.6751 104.464 32.8103 104.609 31.9311C104.754 31.0518 104.481 29.9381 103.618 29.707C102.96 29.5309 103.034 29.607 102.487 30.0116C103.056 30.8497 100.955 33.921 100.095 33.6532C99.609 33.5018 99.2978 33.0573 99.1975 33.0573C98.5218 34.2173 99.7941 36.1719 98.5118 36.5778L98.6175 36.4725C99.3915 35.5237 97.7737 33.5155 98.5477 32.5667C98.7636 32.3012 98.9935 31.9867 98.9297 31.651C98.8693 31.3318 98.361 31.163 98.2122 31.4252C98.48 30.8141 98.0846 29.9983 97.4302 29.8414C96.8489 29.7017 96.8595 29.8738 96.2762 29.9487C96.2381 29.6974 96.1668 29.4523 96.0643 29.2197C96.075 29.4703 96.0456 29.7211 95.9772 29.9626C95.7712 29.9586 95.5722 29.8869 95.4112 29.7586C94.9355 29.3766 95.0318 28.5741 95.4564 28.1365C95.8816 27.6988 96.5134 27.5412 97.116 27.4393C97.2912 26.2236 100.657 26.0967 101.103 27.3115C101.293 26.4044 102.432 25.9336 103.318 26.215C104.204 26.4964 104.818 27.3207 105.142 28.1894C105.465 29.0575 105.556 29.9917 105.755 30.8962C105.954 31.8006 106.291 32.7216 106.985 33.338C107.678 33.9538 108.808 34.1577 109.539 33.5857C109.645 33.888 109.679 34.2109 109.636 34.5284C109.594 34.8459 109.477 35.149 109.295 35.4131Z" fill="#393939"/>
<path d="M139.604 42.7603L139.152 45.0217C139.118 45.1946 139.082 45.3706 139.043 45.545C138.665 45.4669 138.273 45.4887 137.907 45.6083C138.198 46.0229 138.459 46.4578 138.687 46.9096C138.402 47.7849 137.984 48.5937 137.284 49.1788C136.816 49.5608 136.258 49.8163 135.662 49.9207C135.067 50.0251 134.454 49.9748 133.884 49.7746L133.904 49.6851C133.151 48.2294 133.56 46.394 134.496 45.0495C134.973 44.3862 135.538 43.7906 136.176 43.2789C136.808 42.7541 137.491 42.2833 138.168 41.8186C138.32 41.7145 138.5 41.6578 138.685 41.6559C138.869 41.6541 139.05 41.707 139.204 41.8081C139.358 41.9092 139.479 42.0538 139.55 42.2234C139.621 42.393 139.64 42.5799 139.604 42.7603Z" fill="#E4E4E4"/>
<path d="M134.045 55.2159C133.855 53.8339 133.659 52.4343 133.792 51.0374C133.911 49.797 134.291 48.5853 135.064 47.5919C135.474 47.0655 135.974 46.6145 136.54 46.2592C136.687 46.1666 136.823 46.3995 136.676 46.4918C135.697 47.1085 134.94 48.0192 134.513 49.0924C134.042 50.286 133.967 51.5871 134.049 52.8549C134.098 53.6217 134.202 54.3831 134.306 55.1442C134.315 55.1786 134.31 55.2149 134.292 55.2458C134.275 55.2766 134.246 55.2995 134.212 55.3099C134.177 55.3193 134.14 55.3146 134.109 55.2969C134.078 55.2793 134.055 55.2502 134.046 55.2158L134.045 55.2159Z" fill="#F2F2F2"/>
<path d="M144.816 77.9526L0.184429 78C0.135608 77.9999 0.0888363 77.9804 0.0543646 77.946C0.0198929 77.9115 0.000534058 77.8649 0.000534058 77.8162C0.000534058 77.7676 0.0198929 77.7209 0.0543646 77.6864C0.0888363 77.652 0.135608 77.6325 0.184429 77.6324L144.816 77.585C144.864 77.5851 144.911 77.6045 144.946 77.639C144.98 77.6734 144.999 77.7201 144.999 77.7688C144.999 77.8174 144.98 77.8641 144.946 77.8985C144.911 77.933 144.864 77.9524 144.816 77.9526Z" fill="#CACACA"/>
<path d="M16.0469 28.8492C15.692 29.0189 15.2947 28.7636 14.9883 28.5105L15.0979 28.6049C14.5564 29.1299 14.3033 29.8853 14.1796 30.6289C14.0557 31.3718 14.0419 32.1314 13.886 32.869C13.73 33.6058 13.4063 34.346 12.8017 34.7973C11.9918 35.4017 10.8747 35.3629 9.88078 35.1776C9.86754 35.175 9.8552 35.1729 9.84196 35.1702C10.1094 34.4007 10.2181 33.5852 10.1616 32.7728C9.89515 33.587 9.44159 34.3278 8.83704 34.9364C8.17804 34.7557 7.5348 34.5221 6.91362 34.2379C6.51169 34.0536 6.07891 33.8015 5.96737 33.3746C5.85553 32.951 6.11522 32.5066 6.46247 32.2391C6.80972 31.9716 7.23591 31.8321 7.6315 31.6415C8.02644 31.4518 8.41727 31.1814 8.5754 30.7732C8.94013 29.834 7.90112 28.7563 8.30605 27.8331C8.50573 27.3792 8.99482 27.1322 9.45452 26.9418C10.1563 26.652 10.8769 26.4097 11.6115 26.2168C12.2564 26.0472 12.9297 25.9155 13.5866 26.0266C14.2435 26.1378 14.8871 26.5359 15.1235 27.1577C15.518 27.2906 15.9368 27.4403 16.19 27.7712C16.443 28.1014 16.4226 28.6697 16.0469 28.8492Z" fill="#393939"/>
<path d="M19.2046 27.7609C18.1893 26.9622 17.3685 27.0985 16.7352 27.5947C16.6288 27.4767 16.1757 27.8014 16.0223 27.7548L15.4675 28.7928C15.182 29.2948 15.0649 29.8073 15.1111 30.0958C14.5859 31.5635 15.8312 32.5546 17.304 33.0779C17.8916 33.2882 18.5328 33.2974 19.1263 33.1042L19.1444 32.8541L19.2559 33.0591C19.2559 33.0591 20.6023 35.8218 20.9204 35.9459C20.7274 35.4468 20.2182 33.0749 20.0761 32.5805C19.8812 31.9078 20.0143 30.8391 20.1289 30.1838C20.2003 29.7798 20.204 29.3669 20.1399 28.9617L20.1371 28.944L20.4521 29.5777L21.1589 29.1348C20.8887 28.3507 20.8834 27.4127 19.2046 27.7609Z" fill="#393939"/>
</g>
<defs>
<clipPath id="clip0_2580_6">
<rect width="145" height="78" fill="white"/>
</clipPath>
</defs>
</svg>
