<svg width="54" height="35" viewBox="0 0 54 35" fill="none" xmlns="http://www.w3.org/2000/svg">
<g clip-path="url(#clip0_101_1164)">
<path d="M47.3794 23.46C47.327 23.3979 47.2891 23.3253 47.2682 23.2472C47.2473 23.169 47.244 23.0873 47.2584 23.0077C47.2728 22.9282 47.3047 22.8527 47.3518 22.7867C47.3989 22.7207 47.46 22.6656 47.5308 22.6255L47.1654 20.6943L48.1159 21.0898L48.3172 22.8631C48.3773 22.9855 48.39 23.1254 48.353 23.2565C48.3159 23.3875 48.2315 23.5005 48.1159 23.5741C48.0004 23.6477 47.8615 23.6767 47.7258 23.6557C47.59 23.6346 47.4667 23.565 47.3794 23.46Z" fill="#FFB6B6"/>
<path d="M45.121 1.133H3.39417V20.7434H45.121V1.133Z" fill="#E6E6E6"/>
<path d="M43.9279 2.81464H4.5874V19.1762H43.9279V2.81464Z" fill="white"/>
<path d="M45.1032 0H3.37634V1.7557H45.1032V0Z" fill="url(#paint0_linear_101_1164)"/>
<path d="M4.69367 1.13752C4.87513 1.13752 5.02223 0.991826 5.02223 0.812106C5.02223 0.632386 4.87513 0.486694 4.69367 0.486694C4.51221 0.486694 4.36511 0.632386 4.36511 0.812106C4.36511 0.991826 4.51221 1.13752 4.69367 1.13752Z" fill="white"/>
<path d="M5.94086 1.13752C6.12232 1.13752 6.26942 0.991826 6.26942 0.812106C6.26942 0.632386 6.12232 0.486694 5.94086 0.486694C5.75941 0.486694 5.6123 0.632386 5.6123 0.812106C5.6123 0.991826 5.75941 1.13752 5.94086 1.13752Z" fill="white"/>
<path d="M7.18793 1.13752C7.36939 1.13752 7.5165 0.991826 7.5165 0.812106C7.5165 0.632386 7.36939 0.486694 7.18793 0.486694C7.00648 0.486694 6.85938 0.632386 6.85938 0.812106C6.85938 0.991826 7.00648 1.13752 7.18793 1.13752Z" fill="white"/>
<path d="M6.8881 13.3412C6.84248 13.3413 6.79879 13.3594 6.76659 13.3914C6.73439 13.4234 6.71631 13.4668 6.71631 13.5119C6.71631 13.5571 6.73439 13.6005 6.76659 13.6325C6.79879 13.6645 6.84248 13.6825 6.8881 13.6827H16.3485C16.3941 13.6825 16.4378 13.6645 16.47 13.6325C16.5022 13.6005 16.5203 13.5571 16.5203 13.5119C16.5203 13.4668 16.5022 13.4234 16.47 13.3914C16.4378 13.3594 16.3941 13.3413 16.3485 13.3412H6.8881Z" fill="#E6E6E6"/>
<path d="M6.8881 14.3658C6.84248 14.366 6.79879 14.3841 6.76659 14.4161C6.73439 14.4481 6.71631 14.4914 6.71631 14.5366C6.71631 14.5818 6.73439 14.6251 6.76659 14.6571C6.79879 14.6891 6.84248 14.7072 6.8881 14.7074H11.7178C11.7635 14.7072 11.8071 14.6891 11.8393 14.6571C11.8715 14.6251 11.8896 14.5818 11.8896 14.5366C11.8896 14.4914 11.8715 14.4481 11.8393 14.4161C11.8071 14.3841 11.7635 14.366 11.7178 14.3658H6.8881Z" fill="#E6E6E6"/>
<path d="M16.3604 16.3003H12.7667C12.7202 16.3002 12.6756 16.2819 12.6427 16.2493C12.6098 16.2167 12.5912 16.1725 12.5912 16.1264V15.5561C12.5912 15.51 12.6098 15.4658 12.6427 15.4332C12.6756 15.4007 12.7202 15.3823 12.7667 15.3823H16.3604C16.407 15.3823 16.4516 15.4007 16.4845 15.4332C16.5174 15.4658 16.5359 15.51 16.536 15.5561V16.1264C16.5359 16.1725 16.5174 16.2167 16.4845 16.2493C16.4516 16.2819 16.407 16.3002 16.3604 16.3003Z" fill="url(#paint1_linear_101_1164)"/>
<path d="M16.3604 10.3619H12.7667C12.7202 10.3619 12.6756 10.3435 12.6427 10.3109C12.6098 10.2783 12.5912 10.2342 12.5912 10.1881V9.61779C12.5912 9.57169 12.6098 9.52749 12.6427 9.49489C12.6756 9.4623 12.7202 9.44396 12.7667 9.44391H16.3604C16.407 9.44396 16.4516 9.4623 16.4845 9.49489C16.5174 9.52749 16.5359 9.57169 16.536 9.61779V10.1881C16.5359 10.2342 16.5174 10.2783 16.4845 10.3109C16.4516 10.3435 16.407 10.3619 16.3604 10.3619Z" fill="url(#paint2_linear_101_1164)"/>
<path d="M22.6946 5.67609C22.635 5.67618 22.5778 5.69969 22.5357 5.74147C22.4936 5.78324 22.47 5.83986 22.47 5.8989C22.47 5.95793 22.4936 6.01455 22.5357 6.05632C22.5778 6.0981 22.635 6.12161 22.6946 6.12171H41.5099C41.5695 6.12161 41.6267 6.0981 41.6688 6.05632C41.7109 6.01455 41.7345 5.95793 41.7345 5.8989C41.7345 5.83986 41.7109 5.78324 41.6688 5.74147C41.6267 5.69969 41.5695 5.67618 41.5099 5.67609H22.6946Z" fill="#E6E6E6"/>
<path d="M22.6946 7.01312C22.635 7.01322 22.5778 7.03673 22.5357 7.0785C22.4936 7.12028 22.47 7.1769 22.47 7.23593C22.47 7.29496 22.4936 7.35158 22.5357 7.39336C22.5778 7.43513 22.635 7.45865 22.6946 7.45874H35.4676C35.5272 7.45865 35.5844 7.43513 35.6265 7.39336C35.6686 7.35158 35.6922 7.29496 35.6922 7.23593C35.6922 7.1769 35.6686 7.12028 35.6265 7.0785C35.5844 7.03673 35.5272 7.01322 35.4676 7.01312H22.6946Z" fill="#E6E6E6"/>
<path d="M22.6946 8.31982C22.635 8.31992 22.5778 8.34343 22.5357 8.38521C22.4936 8.42698 22.47 8.4836 22.47 8.54263C22.47 8.60167 22.4936 8.65829 22.5357 8.70006C22.5778 8.74184 22.635 8.76535 22.6946 8.76544H41.5099C41.5695 8.76535 41.6267 8.74184 41.6688 8.70006C41.7109 8.65829 41.7345 8.60167 41.7345 8.54263C41.7345 8.4836 41.7109 8.42698 41.6688 8.38521C41.6267 8.34343 41.5695 8.31992 41.5099 8.31982H22.6946Z" fill="#E6E6E6"/>
<path d="M22.6946 9.6568C22.635 9.65689 22.5778 9.68041 22.5357 9.72218C22.4936 9.76396 22.47 9.82058 22.47 9.87961C22.47 9.93864 22.4936 9.99526 22.5357 10.037C22.5778 10.0788 22.635 10.1023 22.6946 10.1024H35.4676C35.5272 10.1023 35.5844 10.0788 35.6265 10.037C35.6686 9.99526 35.6922 9.93864 35.6922 9.87961C35.6922 9.82058 35.6686 9.76396 35.6265 9.72218C35.5844 9.68041 35.5272 9.65689 35.4676 9.6568H22.6946Z" fill="#E6E6E6"/>
<path d="M41.5651 12.5485H37.9715C37.9249 12.5484 37.8803 12.5301 37.8474 12.4975C37.8145 12.4649 37.796 12.4207 37.7959 12.3746V11.8043C37.796 11.7582 37.8145 11.714 37.8474 11.6814C37.8803 11.6488 37.9249 11.6305 37.9715 11.6304H41.5651C41.6117 11.6305 41.6563 11.6488 41.6892 11.6814C41.7221 11.714 41.7407 11.7582 41.7407 11.8043V12.3746C41.7407 12.4207 41.7221 12.4649 41.6892 12.4975C41.6563 12.5301 41.6117 12.5484 41.5651 12.5485Z" fill="url(#paint3_linear_101_1164)"/>
<path d="M10.9627 5.91748C10.8988 5.91768 10.8472 5.9998 10.8473 6.10091C10.8474 6.20173 10.899 6.28341 10.9627 6.2836H16.4133C16.4772 6.2834 16.5288 6.20128 16.5287 6.10018C16.5286 5.99936 16.477 5.91768 16.4133 5.91748H10.9627Z" fill="#E4E4E4"/>
<path d="M10.9627 6.97827C10.8988 6.97847 10.8472 7.06059 10.8473 7.16169C10.8474 7.26251 10.899 7.3442 10.9627 7.3444H16.4133C16.4772 7.3442 16.5288 7.26207 16.5287 7.16097C16.5286 7.06015 16.477 6.97847 16.4133 6.97827H10.9627Z" fill="#E4E4E4"/>
<path d="M10.9627 8.02625C10.8988 8.02645 10.8472 8.10857 10.8473 8.20967C10.8474 8.31049 10.899 8.39217 10.9627 8.39237H13.3081C13.3719 8.39217 13.4236 8.31005 13.4235 8.20895C13.4233 8.10813 13.3718 8.02644 13.3081 8.02625H10.9627Z" fill="#E4E4E4"/>
<path d="M8.19514 8.6059C9.01201 8.6059 9.67422 7.95004 9.67422 7.14099C9.67422 6.33195 9.01201 5.67609 8.19514 5.67609C7.37827 5.67609 6.71606 6.33195 6.71606 7.14099C6.71606 7.95004 7.37827 8.6059 8.19514 8.6059Z" fill="#E4E4E4"/>
<path d="M38.8215 12.2583C38.811 12.3385 38.8184 12.42 38.8432 12.497C38.8679 12.574 38.9094 12.6447 38.9648 12.7042C39.0201 12.7636 39.0879 12.8103 39.1634 12.8409C39.2389 12.8716 39.3203 12.8855 39.4019 12.8816L40.1411 14.705L40.7283 13.8657L39.9363 12.2629C39.9206 12.1277 39.8555 12.0028 39.7531 11.912C39.6508 11.8212 39.5183 11.7708 39.3809 11.7702C39.2435 11.7696 39.1107 11.819 39.0076 11.909C38.9045 11.999 38.8383 12.1233 38.8215 12.2583Z" fill="#FFB6B6"/>
<path d="M47.1559 34.1878H46.4753L46.1515 31.5876L47.1561 31.5877L47.1559 34.1878Z" fill="#FFB6B6"/>
<path d="M47.3295 34.8412L45.1349 34.8412V34.8137C45.1349 34.5893 45.2249 34.3741 45.3851 34.2155C45.5453 34.0568 45.7626 33.9677 45.9891 33.9677H45.9892L47.3296 33.9677L47.3295 34.8412Z" fill="#2F2E41"/>
<path d="M44.9287 34.1664L44.2798 33.9629L44.7634 31.3872L45.7211 31.6875L44.9287 34.1664Z" fill="#FFB6B6"/>
<path d="M44.8951 34.8412L42.8029 34.1851L42.8112 34.1589C42.8796 33.945 43.031 33.7668 43.2321 33.6634C43.4331 33.56 43.6674 33.54 43.8834 33.6077L45.1613 34.0084L44.8951 34.8412Z" fill="#2F2E41"/>
<path d="M44.1226 21.4799C44.1226 21.4799 43.1127 23.0504 43.4695 24.4521C43.8264 25.8537 44.215 28.548 44.215 28.548L46.1499 33.1087L47.5922 33.0504L46.1599 27.6732L46.2165 24.078C46.2165 24.078 47.2121 22.3597 47.0182 21.8249C46.8243 21.29 44.1226 21.4799 44.1226 21.4799Z" fill="#2F2E41"/>
<path d="M47.4218 22.0414C47.4218 22.0414 47.546 23.5994 47.1574 24.2592C46.7688 24.919 46.3548 27.4304 46.3548 27.4304L45.6942 32.453L44.326 32.0121L45.4927 26.3848L46.4097 21.9583L47.4218 22.0414Z" fill="#2F2E41"/>
<path d="M47.9069 14.4993L46.8394 13.7726L45.215 13.7259L44.6493 14.2752L43.786 14.7118L43.7061 21.8249C43.7061 21.8249 46.2912 23.0521 47.682 22.4597L48.351 16.9187C48.6286 15.819 47.9069 14.4993 47.9069 14.4993Z" fill="#3F3D56"/>
<path d="M44.0029 16.6126H41.1555L39.2848 13.4234L40.5012 12.9462L41.5314 14.7611L43.0224 14.6275L43.9534 14.5829C44.1026 14.5757 44.2515 14.6009 44.3898 14.6568C44.5282 14.7126 44.6525 14.7977 44.7541 14.9061C44.8558 15.0145 44.9323 15.1436 44.9783 15.2843C45.0243 15.425 45.0387 15.574 45.0205 15.7209C44.9898 15.9668 44.8694 16.1932 44.682 16.3574C44.4946 16.5216 44.2531 16.6123 44.0029 16.6126Z" fill="#3F3D56"/>
<path d="M46.1597 13.1401C46.9376 13.1401 47.5682 12.5155 47.5682 11.7451C47.5682 10.9747 46.9376 10.3502 46.1597 10.3502C45.3818 10.3502 44.7512 10.9747 44.7512 11.7451C44.7512 12.5155 45.3818 13.1401 46.1597 13.1401Z" fill="#FFB6B6"/>
<path d="M47.8568 11.4278C47.8135 11.1215 47.6041 10.8307 47.3063 10.7379C47.188 10.3976 46.8746 10.1471 46.5284 10.0379C46.2077 9.93667 45.8622 9.9437 45.546 10.0579C45.2299 10.1721 44.9609 10.387 44.7814 10.669C44.7549 10.7102 44.6734 10.8116 44.6757 10.8608C44.6786 10.9234 44.7752 10.9879 44.8237 11.0274C44.944 11.1194 45.0737 11.1987 45.2107 11.2639C45.7172 11.524 45.5486 11.9327 45.5417 12.3958C45.5384 12.6209 45.6142 12.813 45.808 12.9416C46.0876 13.1271 46.4878 13.0533 46.7921 12.9789C47.1374 12.8944 47.4244 12.594 47.6213 12.3043C47.7957 12.0478 47.9001 11.734 47.8568 11.4278Z" fill="#2F2E41"/>
<path d="M47.8666 16.3154L48.4146 22.2694L46.6538 22.1758L47.8666 16.3154Z" fill="#3F3D56"/>
<path d="M53.9339 35H32.3769C32.3594 35 32.3427 34.993 32.3303 34.9808C32.318 34.9685 32.311 34.9519 32.311 34.9345C32.311 34.9172 32.318 34.9006 32.3303 34.8883C32.3427 34.8761 32.3594 34.8691 32.3769 34.8691H53.9339C53.9514 34.8691 53.9682 34.876 53.9806 34.8883C53.993 34.9005 54 34.9172 54 34.9345C54 34.9519 53.993 34.9686 53.9806 34.9808C53.9682 34.9931 53.9514 35 53.9339 35Z" fill="#CACACA"/>
<path d="M4.66832 34.3472H5.19624L5.44739 32.3304H4.66821L4.66832 34.3472Z" fill="#9E616A"/>
<path d="M4.53369 34.1766L5.57338 34.1765C5.7491 34.1765 5.91766 34.2457 6.04192 34.3687C6.16617 34.4918 6.23598 34.6587 6.23599 34.8327V34.8541L4.53372 34.8541L4.53369 34.1766Z" fill="#2F2E41"/>
<path d="M9.53441 34.3472H10.0623L10.3135 32.3304H9.5343L9.53441 34.3472Z" fill="#9E616A"/>
<path d="M9.39966 34.1766L10.4393 34.1765C10.6151 34.1765 10.7836 34.2457 10.9079 34.3687C11.0321 34.4918 11.1019 34.6587 11.102 34.8327V34.8541L9.39969 34.8541L9.39966 34.1766Z" fill="#2F2E41"/>
<path d="M8.89694 18.1448L9.24142 20.3199L5.96875 20.3626L6.39934 18.2728L8.89694 18.1448Z" fill="#9E616A"/>
<path d="M9.14642 19.7889L10.1888 22.5377L10.318 33.9295H9.43518L7.32515 24.7768L5.38736 33.6905H4.52612L5.12899 23.6679C5.12899 23.6679 4.95121 21.6563 5.86104 20.4693L6.0825 19.8356L9.14642 19.7889Z" fill="#2F2E41"/>
<path d="M4.67545 21.9317C4.76657 21.9071 4.85114 21.863 4.9232 21.8026C4.99526 21.7421 5.05306 21.6667 5.09252 21.5817C5.13198 21.4968 5.15215 21.4042 5.15161 21.3107C5.15106 21.2172 5.12982 21.1249 5.08937 21.0403L6.48163 16.5447L5.45757 16.3437L4.18421 20.7503C4.04534 20.827 3.93971 20.9515 3.88733 21.1002C3.83495 21.2489 3.83946 21.4115 3.90001 21.5571C3.96056 21.7027 4.07295 21.8213 4.21586 21.8904C4.35878 21.9594 4.5223 21.9741 4.67545 21.9317Z" fill="#9E616A"/>
<path d="M6.51168 19.3462C6.49257 19.3461 6.47351 19.3443 6.45477 19.3406C6.39176 19.3281 6.3346 19.2955 6.29204 19.2478C6.24947 19.2002 6.22383 19.14 6.21904 19.0765C6.18667 18.6375 6.02627 17.8734 5.74229 16.8054C5.64643 16.4424 5.66766 16.0588 5.80301 15.7083C5.93837 15.3579 6.18105 15.0581 6.49705 14.8512C6.81305 14.6442 7.18652 14.5404 7.56511 14.5542C7.94369 14.568 8.30842 14.6989 8.60815 14.9283C8.80006 15.0739 8.96024 15.2565 9.07902 15.465C9.19781 15.6736 9.27276 15.9038 9.29935 16.1417C9.44048 17.3727 9.17441 18.6087 9.05347 19.0829C9.03757 19.1448 9.00162 19.1999 8.95113 19.2396C8.90064 19.2793 8.83839 19.3016 8.77391 19.303L6.51795 19.3461C6.51586 19.3461 6.51377 19.3462 6.51168 19.3462Z" fill="#3F3D56"/>
<path d="M12.8144 15.3972C12.8008 15.4273 12.7897 15.4584 12.7811 15.4903L9.95726 16.4406L9.41162 15.9685L8.58459 16.691L9.46854 17.6197C9.53996 17.6948 9.63401 17.7448 9.7366 17.7624C9.83918 17.78 9.94476 17.7641 10.0375 17.7172L13.0591 16.1886C13.1684 16.2549 13.2955 16.2868 13.4235 16.2799C13.5515 16.273 13.6743 16.2277 13.7757 16.1499C13.8771 16.0722 13.9521 15.9658 13.9909 15.8447C14.0297 15.7237 14.0303 15.5939 13.9928 15.4725C13.9552 15.3511 13.8813 15.2439 13.7807 15.1652C13.6801 15.0864 13.5578 15.0399 13.4298 15.0317C13.3019 15.0235 13.1745 15.0541 13.0646 15.1194C12.9546 15.1847 12.8674 15.2816 12.8144 15.3972Z" fill="#9E616A"/>
<path d="M9.85884 16.4925L8.82944 17.383C8.80015 17.4084 8.76569 17.4271 8.72841 17.4381C8.69113 17.4491 8.6519 17.4519 8.6134 17.4465C8.57489 17.4411 8.53802 17.4275 8.50529 17.4067C8.47256 17.3859 8.44474 17.3584 8.42372 17.326L7.68742 16.1904C7.55723 16.0413 7.4921 15.8471 7.50631 15.6504C7.52053 15.4538 7.61292 15.2708 7.76322 15.1415C7.91352 15.0123 8.10945 14.9474 8.30802 14.961C8.50659 14.9747 8.69158 15.0658 8.8224 15.2144L9.85637 16.0867C9.88596 16.1117 9.90978 16.1427 9.92618 16.1776C9.94259 16.2125 9.9512 16.2505 9.95143 16.289C9.95167 16.3276 9.94352 16.3657 9.92754 16.4008C9.91157 16.4359 9.88813 16.4672 9.85884 16.4925Z" fill="#3F3D56"/>
<path d="M6.31891 17.6958L5.04678 17.2008C5.01059 17.1868 4.97788 17.1651 4.9509 17.1374C4.92391 17.1097 4.90327 17.0765 4.89039 17.0401C4.87751 17.0038 4.8727 16.9651 4.87626 16.9268C4.87983 16.8884 4.8917 16.8513 4.91107 16.8179L5.58981 15.6477C5.66359 15.4646 5.80765 15.3181 5.9904 15.2401C6.17314 15.1621 6.37965 15.1591 6.56464 15.2317C6.74963 15.3043 6.898 15.4466 6.97722 15.6273C7.05643 15.8081 7.06003 16.0127 6.98722 16.1961L6.68152 17.5068C6.67275 17.5443 6.65592 17.5795 6.63218 17.61C6.60844 17.6405 6.57833 17.6656 6.54392 17.6835C6.50951 17.7015 6.4716 17.7118 6.43277 17.714C6.39394 17.7161 6.35511 17.7099 6.31891 17.6958Z" fill="#3F3D56"/>
<path d="M7.26193 14.2771C8.02616 14.2771 8.64569 13.6635 8.64569 12.9066C8.64569 12.1497 8.02616 11.5361 7.26193 11.5361C6.4977 11.5361 5.87817 12.1497 5.87817 12.9066C5.87817 13.6635 6.4977 14.2771 7.26193 14.2771Z" fill="#9E616A"/>
<path d="M21.6231 35H0.0661557C0.0486573 35 0.0318927 34.993 0.0195373 34.9808C0.00718194 34.9685 0.000244141 34.9519 0.000244141 34.9345C0.000244141 34.9172 0.00718194 34.9006 0.0195373 34.8883C0.0318927 34.8761 0.0486573 34.8691 0.0661557 34.8691H21.6231C21.6406 34.8691 21.6573 34.8761 21.6697 34.8883C21.682 34.9006 21.689 34.9172 21.689 34.9345C21.689 34.9519 21.682 34.9685 21.6697 34.9808C21.6573 34.993 21.6406 35 21.6231 35Z" fill="#CACACA"/>
<path d="M8.21389 12.3556C8.51077 12.354 8.80766 12.3523 9.10454 12.3507C9.12566 12.1503 9.03561 11.9509 8.9044 11.7969C8.76613 11.6488 8.60843 11.5196 8.43552 11.413C8.26523 11.2973 8.08881 11.1789 7.88637 11.1384C7.71667 11.1045 7.54128 11.128 7.36985 11.1517C7.1425 11.183 6.91516 11.2143 6.68782 11.2456C6.43826 11.28 6.17716 11.3188 5.97448 11.4671C5.70036 11.6675 5.59551 12.0188 5.50743 12.3447L5.0199 14.1491L7.8996 14.4483C8.00377 14.4661 8.11047 14.463 8.21342 14.4393C8.2647 14.4265 8.31105 14.3991 8.34673 14.3605C8.38241 14.3218 8.40584 14.2737 8.4141 14.2219C8.4224 14.1056 8.32923 14.0104 8.25357 13.9211C8.07309 13.6996 7.96475 13.429 7.94289 13.1452C7.92104 12.8614 7.9867 12.5777 8.13118 12.3317L8.21389 12.3556Z" fill="#2F2E41"/>
</g>
<defs>
<linearGradient id="paint0_linear_101_1164" x1="24.2398" y1="0" x2="24.2398" y2="1.7557" gradientUnits="userSpaceOnUse">
<stop stop-color="#3FBAFF"/>
<stop offset="0.465801" stop-color="#821AEA"/>
<stop offset="1" stop-color="#B671FB"/>
</linearGradient>
<linearGradient id="paint1_linear_101_1164" x1="14.5636" y1="15.3823" x2="14.5636" y2="16.3003" gradientUnits="userSpaceOnUse">
<stop stop-color="#3FBAFF"/>
<stop offset="0.465801" stop-color="#821AEA"/>
<stop offset="1" stop-color="#B671FB"/>
</linearGradient>
<linearGradient id="paint2_linear_101_1164" x1="14.5636" y1="9.44391" x2="14.5636" y2="10.3619" gradientUnits="userSpaceOnUse">
<stop stop-color="#3FBAFF"/>
<stop offset="0.465801" stop-color="#821AEA"/>
<stop offset="1" stop-color="#B671FB"/>
</linearGradient>
<linearGradient id="paint3_linear_101_1164" x1="39.7683" y1="11.6304" x2="39.7683" y2="12.5485" gradientUnits="userSpaceOnUse">
<stop stop-color="#3FBAFF"/>
<stop offset="0.465801" stop-color="#821AEA"/>
<stop offset="1" stop-color="#B671FB"/>
</linearGradient>
<clipPath id="clip0_101_1164">
<rect width="54" height="35" fill="white"/>
</clipPath>
</defs>
</svg>
