<svg width="48" height="42" viewBox="0 0 48 42" fill="none" xmlns="http://www.w3.org/2000/svg">
<g clip-path="url(#clip0_103_348)">
<path d="M25.9628 6.5349C27.5173 5.36841 29.706 4.92123 31.4185 5.83126C29.4906 6.68153 27.9209 8.19707 26.9872 10.1097C26.6297 10.8487 26.3079 11.7084 25.5703 12.05C25.1114 12.2625 24.5698 12.2214 24.0946 12.0498C23.6194 11.8782 23.1966 11.5867 22.7798 11.2983L22.6548 11.283C23.3966 9.47015 24.4082 7.70139 25.9628 6.5349Z" fill="#F0F0F0"/>
<path d="M31.4046 5.87005C29.8056 5.92093 28.2631 6.48228 26.9961 7.47437C26.7196 7.68302 26.4773 7.93464 26.2779 8.21996C26.0926 8.50428 25.9855 8.83382 25.968 9.17436C25.9453 9.49154 25.9583 9.81864 25.8601 10.1247C25.8076 10.2806 25.7232 10.4235 25.6125 10.5439C25.5018 10.6644 25.3673 10.7597 25.2178 10.8237C24.8493 10.9928 24.4429 11.0174 24.0447 11.0274C23.6026 11.0386 23.1432 11.043 22.7411 11.2545C22.6924 11.2801 22.6561 11.2018 22.7048 11.1762C23.4043 10.8083 24.2218 11.0484 24.9571 10.8294C25.3001 10.7272 25.615 10.5194 25.7527 10.1717C25.8732 9.86767 25.8601 9.53034 25.8803 9.20898C25.8926 8.87653 25.9849 8.5522 26.1491 8.26433C26.3335 7.96962 26.5659 7.70893 26.8365 7.49343C27.4378 6.99841 28.1121 6.60251 28.8346 6.32025C29.6573 5.99345 30.5291 5.81203 31.4121 5.78384C31.4667 5.78212 31.4589 5.86833 31.4046 5.87005Z" fill="white"/>
<path d="M27.3856 7.13049C27.2506 6.89197 27.2035 6.61247 27.2526 6.3419C27.3017 6.07133 27.444 5.82731 27.6539 5.65343C27.6965 5.61839 27.7521 5.68398 27.7094 5.71906C27.5137 5.88061 27.3812 6.10793 27.3359 6.35998C27.2907 6.61203 27.3356 6.8722 27.4626 7.09355C27.4902 7.14169 27.413 7.17835 27.3856 7.13049Z" fill="white"/>
<path d="M25.9587 9.01199C26.492 9.16339 27.0618 9.10507 27.5546 8.84865C27.6034 8.8232 27.6397 8.90148 27.591 8.92689C27.0777 9.19276 26.4845 9.25222 25.93 9.09343C25.8771 9.07826 25.9062 8.9969 25.9587 9.01199Z" fill="white"/>
<path d="M29.6533 6.1081C29.6866 6.21144 29.7447 6.30477 29.8222 6.37969C29.8998 6.45462 29.9945 6.50879 30.0978 6.53736C30.1508 6.55184 30.1217 6.63319 30.0691 6.6188C29.9551 6.5867 29.8506 6.52674 29.7647 6.44416C29.6788 6.36157 29.6141 6.25887 29.5763 6.14503C29.5718 6.13461 29.5714 6.12285 29.5752 6.11215C29.579 6.10146 29.5866 6.09262 29.5966 6.08744C29.6068 6.0826 29.6185 6.08206 29.6291 6.08593C29.6397 6.08979 29.6484 6.09776 29.6533 6.1081Z" fill="white"/>
<path d="M32.7763 12.3336C32.7429 12.3255 32.7095 12.3174 32.6756 12.3098C32.2267 12.2035 31.7699 12.1343 31.3099 12.1031C31.2744 12.1001 31.2383 12.0976 31.2028 12.0956C30.0937 12.0324 28.9827 12.1788 27.9263 12.5275C27.506 12.6667 27.0968 12.8381 26.7021 13.0403C26.1571 13.3196 25.5881 13.6665 25.0013 13.7443C24.9402 13.7531 24.8786 13.7581 24.8168 13.7592L22.6461 11.4391C22.6438 11.4313 22.6409 11.424 22.6386 11.4162L22.5477 11.3276C22.5674 11.3157 22.588 11.3038 22.6076 11.2919C22.619 11.285 22.6308 11.2786 22.6422 11.2716C22.6499 11.2672 22.6577 11.2627 22.6644 11.2583C22.667 11.2568 22.6696 11.2553 22.6716 11.2543C22.6783 11.2498 22.685 11.2464 22.6912 11.2424C22.8063 11.1757 22.922 11.1096 23.0384 11.0443C23.039 11.0438 23.039 11.0438 23.04 11.0438C23.9281 10.5481 24.8647 10.1235 25.835 9.85668C25.8642 9.84867 25.8939 9.84012 25.9241 9.83317C26.3621 9.71538 26.8089 9.63416 27.2599 9.59031C27.507 9.56711 27.755 9.55662 28.0032 9.5589C28.6442 9.56603 29.2802 9.67554 29.8877 9.88341C31.0988 10.298 32.1659 11.1014 32.7337 12.2458C32.7482 12.275 32.7623 12.3038 32.7763 12.3336Z" fill="#F0F0F0"/>
<path d="M32.7423 12.3564C31.4355 11.4191 29.8711 10.924 28.2715 10.9412C27.9271 10.9388 27.5844 10.9914 27.2561 11.0973C26.9396 11.211 26.6588 11.4087 26.443 11.6698C26.2369 11.9092 26.0534 12.1783 25.7936 12.3627C25.6592 12.455 25.5072 12.5175 25.3474 12.546C25.1876 12.5744 25.0237 12.5683 24.8664 12.5279C24.4719 12.4376 24.1329 12.2087 23.809 11.9732C23.4494 11.7117 23.08 11.4343 22.6336 11.3572C22.5795 11.3479 22.5969 11.2632 22.6509 11.2725C23.4276 11.4066 23.938 12.0982 24.6548 12.373C24.9893 12.5013 25.3639 12.5279 25.68 12.3345C25.9564 12.1654 26.1458 11.8881 26.3524 11.6438C26.5593 11.3859 26.8253 11.1834 27.127 11.054C27.4489 10.9314 27.789 10.8655 28.1327 10.8588C28.9063 10.8314 29.6793 10.9276 30.4235 11.1441C31.2741 11.3863 32.0777 11.7746 32.7994 12.2921C32.844 12.3242 32.7867 12.3882 32.7423 12.3564Z" fill="white"/>
<path d="M28.7862 10.905C28.8198 10.632 28.9479 10.38 29.1475 10.194C29.3471 10.008 29.6053 9.90014 29.8759 9.88968C29.9307 9.88775 29.9362 9.97412 29.8814 9.97605C29.6293 9.98532 29.3888 10.0858 29.2033 10.2594C29.0178 10.4329 28.8994 10.6682 28.8696 10.9226C28.8631 10.9779 28.7797 10.9599 28.7862 10.905Z" fill="white"/>
<path d="M26.5317 11.5344C26.8678 11.9814 27.3573 12.2834 27.9028 12.38C27.9568 12.3895 27.9394 12.4742 27.8855 12.4647C27.318 12.3631 26.8092 12.0478 26.4605 11.5819C26.4273 11.5374 26.4987 11.4902 26.5317 11.5344Z" fill="white"/>
<path d="M31.203 11.4754C31.1683 11.5783 31.1593 11.6883 31.1769 11.7956C31.1944 11.9029 31.2379 12.004 31.3035 12.09C31.3372 12.134 31.2657 12.1812 31.2322 12.1375C31.1602 12.0421 31.1123 11.9303 31.0927 11.8119C31.0731 11.6934 31.0823 11.5718 31.1196 11.4578C31.1222 11.4468 31.1289 11.4371 31.1382 11.4309C31.1476 11.4247 31.1589 11.4223 31.1699 11.4243C31.181 11.4266 31.1906 11.4334 31.1968 11.4429C31.203 11.4525 31.2052 11.4642 31.203 11.4754Z" fill="white"/>
<path d="M25.5525 8.27028H25.3843V3.58926C25.3843 3.23347 25.3153 2.88117 25.1813 2.55247C25.0473 2.22377 24.8508 1.9251 24.6031 1.67353C24.3555 1.42195 24.0614 1.22239 23.7378 1.08624C23.4142 0.950082 23.0674 0.880005 22.7172 0.880005H12.9538C12.6035 0.880004 12.2567 0.95008 11.9331 1.08623C11.6095 1.22238 11.3155 1.42194 11.0678 1.67352C10.8202 1.9251 10.6237 2.22376 10.4897 2.55246C10.3556 2.88116 10.2866 3.23346 10.2866 3.58925V29.2697C10.2866 29.9883 10.5676 30.6774 11.0678 31.1854C11.568 31.6935 12.2464 31.979 12.9538 31.979H22.7171C23.4245 31.979 24.1029 31.6935 24.6031 31.1855C25.1033 30.6774 25.3843 29.9883 25.3843 29.2697V11.6023H25.5525V8.27028Z" fill="#3F3D56"/>
<path d="M22.8248 1.58484H21.5503C21.6089 1.7308 21.6313 1.88915 21.6155 2.04596C21.5996 2.20276 21.5461 2.35321 21.4595 2.48404C21.373 2.61487 21.2561 2.72207 21.1191 2.79619C20.9822 2.87032 20.8294 2.9091 20.6742 2.90911H15.0809C14.9257 2.9091 14.7729 2.87032 14.6359 2.7962C14.499 2.72207 14.3821 2.61487 14.2955 2.48404C14.209 2.35321 14.1554 2.20277 14.1396 2.04596C14.1237 1.88915 14.1461 1.73079 14.2047 1.58484H13.0144C12.4861 1.58484 11.9795 1.798 11.606 2.17743C11.2324 2.55686 11.0226 3.07148 11.0226 3.60807V29.2509C11.0226 29.5166 11.0741 29.7796 11.1742 30.0251C11.2743 30.2706 11.421 30.4936 11.606 30.6815C11.7909 30.8694 12.0105 31.0184 12.2522 31.1201C12.4938 31.2218 12.7528 31.2741 13.0144 31.2741H22.8248C23.0863 31.2741 23.3453 31.2218 23.587 31.1201C23.8287 31.0184 24.0482 30.8694 24.2332 30.6815C24.4182 30.4936 24.5649 30.2706 24.665 30.0251C24.7651 29.7797 24.8166 29.5166 24.8166 29.2509V3.60807C24.8166 3.07148 24.6067 2.55686 24.2332 2.17743C23.8597 1.798 23.353 1.58484 22.8248 1.58484Z" fill="white"/>
<path d="M18.1081 23.0366C17.3857 23.0373 16.6702 22.8933 16.0027 22.6128C15.3351 22.3323 14.7286 21.9208 14.2177 21.4019C13.7069 20.883 13.3018 20.2669 13.0257 19.5888C12.7495 18.9107 12.6077 18.184 12.6084 17.4501C12.6074 16.4197 12.8873 15.4091 13.4172 14.5305C13.9472 13.6518 14.7063 12.9394 15.6105 12.4722C16.2659 12.1335 16.9814 11.9315 17.7149 11.878C18.4484 11.8245 19.185 11.9207 19.8813 12.1609C21.1145 12.5878 22.1585 13.4454 22.8274 14.5811C23.4962 15.7168 23.7465 17.0567 23.5336 18.3623C23.3207 19.6679 22.6586 20.8544 21.665 21.7104C20.6714 22.5664 19.411 23.0364 18.1081 23.0366ZM18.1081 12.0827C17.2738 12.0802 16.451 12.2807 15.7085 12.6674C15.0596 13.0032 14.486 13.4717 14.0237 14.0435C13.5615 14.6152 13.2206 15.2778 13.0224 15.9898C12.8243 16.7017 12.7732 17.4476 12.8723 18.1805C12.9714 18.9135 13.2187 19.6177 13.5985 20.249C13.9783 20.8802 14.4825 21.425 15.0794 21.8489C15.6763 22.2728 16.353 22.5669 17.0671 22.7125C17.7812 22.8582 18.5172 22.8523 19.229 22.6952C19.9407 22.5382 20.6128 22.2334 21.2031 21.8C21.4884 21.5908 21.7523 21.353 21.9908 21.09C22.688 20.3237 23.1502 19.3674 23.3206 18.3384C23.4911 17.3093 23.3624 16.2521 22.9503 15.2962C22.5383 14.3403 21.8607 13.5272 21.0007 12.9564C20.1407 12.3856 19.1354 12.082 18.1081 12.0827Z" fill="#F0F0F0"/>
<path d="M6.19104 12.4924C6.342 12.5116 6.48697 12.5643 6.61575 12.6466C6.74453 12.7289 6.85397 12.8388 6.93638 12.9687C7.01879 13.0986 7.07215 13.2453 7.09271 13.3985C7.11327 13.5516 7.10053 13.7074 7.05538 13.855L8.88267 15.4011L8.22855 16.7582L5.67826 14.538C5.4392 14.4445 5.24221 14.2652 5.12461 14.0341C5.00701 13.8029 4.97696 13.536 5.04017 13.2839C5.10338 13.0317 5.25545 12.8119 5.46756 12.666C5.67967 12.5201 5.93709 12.4584 6.19104 12.4924Z" fill="#FFB6B6"/>
<path d="M23.257 18.9399C23.2203 18.5398 23.0688 17.8204 22.9403 17.5544C22.5451 16.5037 19.9916 15.6402 19.6487 15.5289L19.5618 14.5467L16.0139 14.1589L15.5638 15.415L14.2914 15.8999C14.205 15.9326 14.1268 15.9843 14.0624 16.0514C13.998 16.1184 13.949 16.1991 13.919 16.2876L12.7773 16.6228L11.6508 16.9536L7.73699 14.1523L7.55221 14.275L6.31713 15.0936L6.12659 15.22L11.1914 19.8615L13.0728 19.4131L14.4876 19.075L14.6084 19.5731L14.2957 21.3228C15.2017 22.2434 16.401 22.806 17.6784 22.9097C18.9558 23.0135 20.2278 22.6515 21.2663 21.8887L22.07 21.1643C22.6302 20.549 23.0437 19.8112 23.2785 19.0078L23.257 18.9399Z" fill="#E4E4E4"/>
<path d="M18.9025 13.3556C20.2418 12.9052 20.9681 11.4372 20.5247 10.0768C20.0812 8.71634 18.636 7.97863 17.2967 8.42906C15.9574 8.87949 15.2312 10.3475 15.6746 11.7079C16.118 13.0684 17.5632 13.8061 18.9025 13.3556Z" fill="#FFB6B6"/>
<path d="M16.0819 7.93426C16.3302 7.57401 16.7029 7.32185 17.1259 7.22789C17.5441 7.14052 17.9793 7.22162 18.3398 7.45406C18.7317 7.29368 19.1543 7.18728 19.5695 7.24137C19.9847 7.29546 20.3916 7.53104 20.5838 7.91915C20.6242 8.01968 20.6732 8.11642 20.7303 8.20823C20.8996 8.43762 21.2141 8.46737 21.4919 8.47839C21.3515 8.5616 21.211 8.6448 21.0705 8.728C21.2105 8.79426 21.3505 8.86052 21.4905 8.9268C21.3 9.00068 21.1094 9.07456 20.9189 9.14845C21.3624 9.54442 21.4697 10.2491 21.3017 10.8399C21.1427 11.3993 20.7783 11.8702 20.3713 12.2733C20.2918 11.9725 20.3792 11.6464 20.4374 11.335C20.4988 11.0059 20.5086 10.6211 20.2818 10.3888C20.1288 10.2321 19.9044 10.1848 19.6927 10.1467C18.6252 9.95496 17.5478 9.82501 16.4658 9.75753C16.3209 9.7372 16.1734 9.7525 16.0356 9.80214C15.7723 9.92099 15.6665 10.2474 15.5902 10.5368C15.5537 10.0288 15.5829 9.51811 15.6771 9.01779C15.7492 8.63487 15.863 8.2516 16.0819 7.93426Z" fill="#2F2E41"/>
<path d="M19.4022 25.6688H16.3827C16.2778 25.6688 16.1773 25.6264 16.1031 25.5511C16.029 25.4758 15.9873 25.3736 15.9873 25.2671C15.9873 25.1606 16.029 25.0584 16.1031 24.9831C16.1773 24.9078 16.2778 24.8655 16.3827 24.8655H19.4022C19.507 24.8655 19.6076 24.9078 19.6818 24.9831C19.7559 25.0584 19.7976 25.1606 19.7976 25.2671C19.7976 25.3736 19.7559 25.4758 19.6818 25.5511C19.6076 25.6264 19.507 25.6688 19.4022 25.6688Z" fill="url(#paint0_linear_103_348)"/>
<path d="M9.4942 4.17535H1.18892C1.11239 4.17523 1.03903 4.14426 0.984958 4.08924C0.930884 4.03423 0.900513 3.95966 0.900513 3.88192C0.900513 3.80418 0.930884 3.72962 0.984958 3.67461C1.03903 3.61959 1.11239 3.58862 1.18892 3.5885H9.4942C9.57082 3.5885 9.64429 3.61942 9.69846 3.67444C9.75263 3.72947 9.78307 3.8041 9.78307 3.88192C9.78307 3.95975 9.75263 4.03438 9.69846 4.08941C9.64429 4.14443 9.57082 4.17535 9.4942 4.17535Z" fill="url(#paint1_linear_103_348)"/>
<path d="M14.2893 6.04934H1.18887C1.11227 6.04934 1.0388 6.01842 0.984626 5.9634C0.930456 5.90838 0.900024 5.83375 0.900024 5.75593C0.900024 5.67811 0.930456 5.60348 0.984626 5.54846C1.0388 5.49344 1.11227 5.46252 1.18887 5.46252H14.2893C14.366 5.46252 14.4394 5.49344 14.4936 5.54846C14.5478 5.60348 14.5782 5.67811 14.5782 5.75593C14.5782 5.83375 14.5478 5.90838 14.4936 5.9634C14.4394 6.01842 14.366 6.04934 14.2893 6.04934Z" fill="url(#paint2_linear_103_348)"/>
<path d="M11.7719 7.81496H1.18887C1.11227 7.81496 1.0388 7.78405 0.984626 7.72902C0.930456 7.674 0.900024 7.59937 0.900024 7.52155C0.900024 7.44374 0.930456 7.36911 0.984626 7.31409C1.0388 7.25906 1.11227 7.22815 1.18887 7.22815H11.7719C11.8485 7.22815 11.9219 7.25906 11.9761 7.31409C12.0303 7.36911 12.0607 7.44374 12.0607 7.52155C12.0607 7.59937 12.0303 7.674 11.9761 7.72902C11.9219 7.78405 11.8485 7.81496 11.7719 7.81496Z" fill="#CACACA"/>
<path d="M7.15654 9.57399H1.18887C1.11227 9.57399 1.0388 9.54308 0.984626 9.48806C0.930456 9.43303 0.900024 9.3584 0.900024 9.28059C0.900024 9.20277 0.930456 9.12814 0.984626 9.07312C1.0388 9.01809 1.11227 8.98718 1.18887 8.98718H7.15654C7.23315 8.98718 7.30662 9.01809 7.36079 9.07312C7.41496 9.12814 7.44539 9.20277 7.44539 9.28059C7.44539 9.3584 7.41496 9.43303 7.36079 9.48806C7.30662 9.54308 7.23315 9.57399 7.15654 9.57399Z" fill="#CACACA"/>
<path d="M10.4532 11.333H1.1889C1.11238 11.3329 1.03903 11.3019 0.984954 11.2469C0.930883 11.1919 0.900513 11.1174 0.900513 11.0396C0.900513 10.9619 0.930883 10.8873 0.984954 10.8323C1.03903 10.7773 1.11238 10.7463 1.1889 10.7462H10.4532C10.5298 10.7463 10.6031 10.7773 10.6572 10.8323C10.7113 10.8873 10.7416 10.9619 10.7416 11.0396C10.7416 11.1174 10.7113 11.1919 10.6572 11.2469C10.6031 11.3019 10.5298 11.3329 10.4532 11.333Z" fill="#CACACA"/>
<path d="M36.5626 40.0385L35.8183 40.0385L35.4641 37.1219L36.5628 37.122L36.5626 40.0385Z" fill="#9F616A"/>
<path d="M36.8555 41.0849L34.0135 41.0848V41.0483C34.0136 40.7503 34.1301 40.4645 34.3376 40.2538C34.545 40.0431 34.8263 39.9247 35.1197 39.9247H35.1198L35.6389 39.5247L36.6075 39.9248L36.8555 39.9248L36.8555 41.0849Z" fill="#2F2E41"/>
<path d="M36.1289 26.3315L35.8006 22.2655L35.5427 20.7393L36.9867 20.4154L37.4659 22.5048L37.0484 26.4443C37.1326 26.5492 37.1841 26.6772 37.1961 26.8119C37.2082 26.9466 37.1803 27.082 37.116 27.2005C37.0518 27.319 36.9541 27.4153 36.8356 27.477C36.7171 27.5387 36.5831 27.563 36.4509 27.5468C36.3186 27.5306 36.1942 27.4745 36.0935 27.3859C35.9929 27.2973 35.9206 27.1802 35.886 27.0495C35.8514 26.9189 35.856 26.7807 35.8993 26.6528C35.9426 26.5248 36.0226 26.413 36.1289 26.3315Z" fill="#9F616A"/>
<path d="M32.6086 40.0385L31.8643 40.0385L31.5101 37.1219L32.6088 37.122L32.6086 40.0385Z" fill="#9F616A"/>
<path d="M31.4173 27.2533L31.0873 27.8331C31.0873 27.8331 30.7248 27.9337 30.8433 29.1343C30.9618 30.335 30.9669 37.4483 31.5405 38.3236L31.6443 39.0753L32.7274 39.1804L32.7548 38.5135L34.0463 29.2476C34.0463 29.2476 34.807 38.3438 35.4363 38.5663L35.6635 39.3242L36.6562 39.3246L36.5976 38.4316L36.6616 27.1593L31.4173 27.2533Z" fill="#2F2E41"/>
<path d="M31.0546 27.7889L31.0317 27.783C31.7128 25.1952 31.5164 21.8443 31.0355 18.246L31.0355 18.2311L32.7741 16.6135H34.2838L35.7804 17.5946C36.748 18.086 36.9679 19.1266 36.97 19.1371L36.9715 19.1445L36.3786 21.2465L36.8253 27.3254L36.8258 27.3325L36.8232 27.339C36.6787 27.7113 36.2914 27.6583 35.8429 27.5969C35.3952 27.5356 33.7454 28.0963 33.2395 28.0963C32.2509 28.0963 31.1252 27.8073 31.0546 27.7889Z" fill="#E4E4E4"/>
<path d="M35.467 18.4139L36.1156 18.1273L36.9701 19.1915L37.6627 22.6017L35.2903 22.2365L35.467 18.4139Z" fill="#E4E4E4"/>
<path d="M25.4914 24.7023L28.4563 21.9502L29.4867 20.8091L30.6226 21.7709L29.289 23.4345L25.9662 25.51C25.9361 25.6418 25.8679 25.7614 25.7704 25.8536C25.6729 25.9457 25.5505 26.0061 25.4189 26.027C25.2873 26.0479 25.1525 26.0284 25.032 25.971C24.9114 25.9135 24.8104 25.8207 24.7422 25.7046C24.6739 25.5884 24.6413 25.4542 24.6487 25.3191C24.6561 25.184 24.7031 25.0543 24.7837 24.9465C24.8642 24.8387 24.9746 24.7579 25.1007 24.7144C25.2268 24.6709 25.3629 24.6666 25.4914 24.7023Z" fill="#9F616A"/>
<path d="M28.3917 21.9802L29.2129 20.897C29.2197 20.8815 29.901 19.335 30.4915 18.663C31.0973 17.9737 31.5742 18.3262 31.579 18.33L31.5909 18.3391L31.6238 20.8846L29.3501 23.6443L28.3917 21.9802Z" fill="#E4E4E4"/>
<path d="M34.7453 15.0898C34.8677 14.3234 34.3553 13.6013 33.6009 13.477C32.8464 13.3526 32.1355 13.8731 32.0131 14.6394C31.8906 15.4058 32.403 16.1279 33.1575 16.2523C33.912 16.3767 34.6228 15.8562 34.7453 15.0898Z" fill="#9F616A"/>
<path d="M32.1139 14.6559C32.1139 14.6559 32.1028 14.1617 32.0413 13.9431C31.9798 13.7244 31.8567 13.5369 31.9183 13.5369C31.9798 13.5369 32.0105 13.3807 32.0105 13.3807C32.0105 13.3807 32.072 13.3495 32.1028 13.3807C32.1335 13.412 32.1643 13.162 32.1643 13.162C32.1643 13.162 32.195 13.0683 32.2258 13.1308C32.2566 13.1933 32.2566 13.162 32.2873 13.0683C32.3181 12.9746 32.4718 12.9121 32.4718 12.9121C32.4718 12.9121 33.0562 12.9434 33.1485 12.8184C33.2407 12.6934 34.2864 12.7872 34.5017 12.9434C34.717 13.0996 35.6704 13.6619 35.5166 14.1305C35.3628 14.5991 34.9201 15.678 34.8092 15.7862C34.6338 15.9573 34.5124 16.0189 33.6824 16.1867C33.5199 16.2195 32.6908 15.6809 32.6908 15.5872C32.6908 15.4935 32.7908 15.1963 32.6301 15.1555C32.3872 15.0938 32.3599 15.4057 32.2984 15.312C32.2369 15.2183 32.1139 14.6559 32.1139 14.6559Z" fill="#2F2E41"/>
<path d="M32.9015 41.0849L30.0596 41.0848V41.0483C30.0596 40.7503 30.1761 40.4645 30.3836 40.2538C30.591 40.0431 30.8724 39.9247 31.1657 39.9247H31.1658L31.6849 39.5247L32.6535 39.9248L32.9016 39.9248L32.9015 41.0849Z" fill="#2F2E41"/>
<path d="M47.6745 41.14H1.13931C1.11661 41.14 1.09484 41.1308 1.07878 41.1145C1.06273 41.0982 1.05371 41.0761 1.05371 41.053C1.05371 41.03 1.06273 41.0078 1.07878 40.9915C1.09484 40.9752 1.11661 40.9661 1.13931 40.9661H47.6745C47.6972 40.9661 47.7189 40.9752 47.735 40.9915C47.751 41.0078 47.7601 41.03 47.7601 41.053C47.7601 41.0761 47.751 41.0982 47.735 41.1145C47.7189 41.1308 47.6972 41.14 47.6745 41.14Z" fill="#CACACA"/>
</g>
<defs>
<linearGradient id="paint0_linear_103_348" x1="17.8924" y1="24.8655" x2="17.8924" y2="25.6688" gradientUnits="userSpaceOnUse">
<stop stop-color="#3FBAFF"/>
<stop offset="0.465801" stop-color="#821AEA"/>
<stop offset="1" stop-color="#B671FB"/>
</linearGradient>
<linearGradient id="paint1_linear_103_348" x1="5.34179" y1="3.5885" x2="5.34179" y2="4.17535" gradientUnits="userSpaceOnUse">
<stop stop-color="#3FBAFF"/>
<stop offset="0.465801" stop-color="#821AEA"/>
<stop offset="1" stop-color="#B671FB"/>
</linearGradient>
<linearGradient id="paint2_linear_103_348" x1="7.73911" y1="5.46252" x2="7.73911" y2="6.04934" gradientUnits="userSpaceOnUse">
<stop stop-color="#3FBAFF"/>
<stop offset="0.465801" stop-color="#821AEA"/>
<stop offset="1" stop-color="#B671FB"/>
</linearGradient>
<clipPath id="clip0_103_348">
<rect width="46.86" height="40.26" fill="white" transform="translate(0.900024 0.880005)"/>
</clipPath>
</defs>
</svg>
